<svg id="Capa_1" enable-background="new 0 0 511.995 511.995" height="512" viewBox="0 0 511.995 511.995" width="512" xmlns="http://www.w3.org/2000/svg"><g><g><path d="m88.521 269.903 3.726-4.416h336.123c10.083 0 18.589 7.505 19.844 17.509l13.806 109.992-7.813 26.499 13.838 21.5 4.205 33.501-4.363-.001c1.499 11.94-7.81 22.491-19.844 22.491l-380.97 3.755c-12.034 0-21.343-10.551-19.844-22.491l21.447-190.829c1.256-10.005 9.762-17.51 19.845-17.51z" fill="#d2ea7b"/><path d="m453.347 504.487h-394.66c-12.04 0-21.35-10.55-19.85-22.49l5.148-41.01 11.415-20.043-5.39-27.957 13.807-109.99c1.26-10 9.76-17.51 19.85-17.51h8.58l-23.41 186.51c-1.5 11.94 7.81 22.49 19.85 22.49h383.57l.94 7.51c1.5 11.94-7.81 22.49-19.85 22.49z" fill="#c4e456"/><path d="m468.047 440.987h-65.03c-2.76 0-5 2.24-5 5v58.5h-50v-58.5c0-2.76-2.24-5-5-5h-299.03l11.668-22.851-5.648-25.149h51.49c2.73 0 4.96-2.19 5-4.92l1.84-122.58h50.02l-1.85 122.42c-.04 2.79 2.21 5.08 5 5.08h300.52l3.512 28-6.054 9.745z" fill="#f8f7f7"/><g fill="#ebebeb"><path d="m108.337 265.487h20l-1.84 122.58c-.04 2.73-2.27 4.92-5 4.92h-20c2.73 0 4.96-2.19 5-4.92z"/><path d="m468.047 440.987h-65.03c-2.76 0-5 2.24-5 5v-20c0-2.76 2.24-5 5-5h62.52z"/><path d="m343.017 420.987h-265.754c-2.407 0-4.269-2.11-3.969-4.499l2.952-23.501h-26.24l-6.02 48h26.23 272.8c2.76 0 5 2.24 5 5v-20c.001-2.762-2.238-5-4.999-5z"/><path d="m348.017 474.487h50v30h-50z"/></g><path d="m114.917 164.2c0-57.268 19.661-107.352 63.121-134.692 22.22-13.978 48.698-22.008 77.979-22.008 86.549 0 148.612 70.162 148.612 156.711 0 98.045-84.927 189.392-126.439 227.669-9.554 8.809-18.209 12.4-21.599 15.022-1.167.903-2.663-.246-3.83-1.149-18.119-14.014-137.844-120.943-137.844-241.553z" fill="#dd646e"/><path d="m278.197 391.887c-9.56 8.8-16.81 14.8-20.2 17.42-1.17.91-2.79.91-3.96 0-18.11-14.01-146.63-124.49-146.63-245.1 0-57.27 27.17-107.36 70.63-134.7-29.83 28.7-47.63 70.35-47.63 116.7 0 120.61 128.52 231.09 146.63 245.1.35.28.75.47 1.16.58z" fill="#da4955"/><g><path d="m366.017 164.2c0 25.279-8.527 48.566-22.862 67.143-20.115 26.067-51.666 38.367-87.138 38.367-60.751 0-103.936-47.004-103.936-107.755 0-35.477 10.731-64.786 36.804-84.901 18.575-14.33 41.858-22.854 67.132-22.854 60.751 0 110 49.249 110 110z" fill="#f8f7f7"/></g><g><path d="m343.147 231.337c-20.11 26.07-51.66 42.86-87.13 42.86-60.75 0-110-49.25-110-110 0-35.48 16.8-67.03 42.87-87.14-14.34 18.57-22.87 41.86-22.87 67.14 0 60.75 49.25 110 110 110 25.28 0 48.56-8.52 67.13-22.86z" fill="#ebebeb"/></g></g><g><path d="m480.635 481.062-5.127-40.842v-.001l-6.017-47.938c-.007-.078-.019-.154-.029-.231l-6.369-50.74c-.516-4.11-4.266-7.024-8.375-6.507-4.11.516-7.023 4.266-6.507 8.375l5.311 42.308h-157.753c14.181-13.924 31.343-32.293 48.268-54.164 15.254-19.712 27.959-39.177 38.111-58.336h46.222c6.288 0 11.62 4.705 12.403 10.943l3.048 24.281c.476 3.793 3.706 6.567 7.432 6.567.312 0 .626-.02.943-.06 4.11-.516 7.023-4.266 6.507-8.375l-3.048-24.281c-1.723-13.725-13.453-24.075-27.286-24.075h-38.773c14.971-32.288 22.532-63.647 22.532-93.776 0-44.294-15.574-85.46-43.854-115.915-28.92-31.143-68.787-48.295-112.257-48.295-29.532 0-57.87 8.004-81.951 23.146-3.506 2.205-4.562 6.835-2.356 10.341s6.833 4.563 10.342 2.357c21.685-13.636 47.262-20.844 73.965-20.844 80.447 0 141.112 64.146 141.112 149.21 0 30.839-8.627 63.271-25.72 96.93-9.788 19.254-23.384 40.592-39.235 61.003-32.984 42.625-66.68 71.382-76.157 79.134-9.473-7.75-43.17-36.506-76.157-79.134-15.435-19.935-29.074-40.988-39.238-61.009-17.091-33.657-25.717-66.087-25.717-96.924 0-41.099 14.519-79.031 40.88-106.81 2.852-3.004 2.728-7.751-.277-10.603-3.004-2.852-7.752-2.727-10.603.277-29.019 30.578-45 72.177-45 117.135 0 30.13 7.561 61.488 22.532 93.776h-38.774c-13.833 0-25.563 10.35-27.286 24.075l-13.805 109.991c-.01.077-.022.153-.029.23l-6.017 47.938v.001l-5.127 40.842c-2.324 15.217 10.802 31.08 27.286 30.925h394.665c15.387.41 29.492-14.589 27.285-30.925zm-264.37-95.575h-52.201l1.293-57.625c.876 1.153 1.747 2.306 2.64 3.462 16.924 21.87 34.087 40.239 48.268 54.163zm-166.954 107.27c-2.406-2.728-3.482-6.217-3.029-9.827l4.323-34.443h161.412c4.142 0 7.5-3.358 7.5-7.5s-3.358-7.5-7.5-7.5h-159.529l4.142-33h44.867c6.792 0 12.399-5.522 12.499-12.307l.617-41.08c.063-4.142-3.245-7.55-7.386-7.612-.039 0-.077-.001-.115-.001-4.089 0-7.435 3.284-7.497 7.387l-.58 38.613h-40.522l12.748-101.557c.783-6.239 6.115-10.943 12.403-10.943h17.06l-.583 38.877c-.063 4.142 3.245 7.55 7.386 7.612.039 0 .077.001.115.001 4.089 0 7.435-3.284 7.497-7.387l.587-39.103h14.161c6.061 11.438 13.039 22.985 20.921 34.628l-1.799 80.185c-.049 3.375 1.23 6.558 3.6 8.962 2.368 2.402 5.528 3.725 8.899 3.725h70.673c10.459 9.445 17.109 14.628 17.272 14.755 1.933 1.495 4.249 2.243 6.565 2.243 2.315 0 4.631-.748 6.563-2.242.164-.127 6.814-5.31 17.273-14.755h175.55l4.142 33h-56.529c-6.893 0-12.5 5.607-12.5 12.5v51h-35v-51c0-6.893-5.607-12.5-12.5-12.5h-96c-4.142 0-7.5 3.358-7.5 7.5s3.358 7.5 7.5 7.5h93.5v48.5h-281.833c-3.637-.001-6.966-1.504-9.373-4.231zm413.412 0c-2.407 2.728-5.736 4.23-9.374 4.23h-47.833v-48.5h55.912l4.323 34.443c.454 3.61-.622 7.099-3.028 9.827z"/><path d="m256.017 281.7c64.79 0 117.5-52.71 117.5-117.5s-52.71-117.5-117.5-117.5-117.5 52.71-117.5 117.5 52.71 117.5 117.5 117.5zm0-220c56.519 0 102.5 45.981 102.5 102.5s-45.981 102.5-102.5 102.5-102.5-45.981-102.5-102.5 45.981-102.5 102.5-102.5z"/></g></g></svg>