<svg id="Layer_1" enable-background="new 0 0 128 128" height="512" viewBox="0 0 128 128" width="512" xmlns="http://www.w3.org/2000/svg"><g><ellipse cx="65.5" cy="65.5" fill="#e6e7e8" rx="55.643" ry="55.642" transform="matrix(.383 -.924 .924 .383 -20.08 100.948)"/><g><g><circle cx="61.5" cy="61.5" fill="#d4fbff" r="54.642"/><g><path d="m61.5 6.858c-30.178 0-54.642 24.464-54.642 54.642s24.464 54.642 54.642 54.642 54.642-24.464 54.642-54.642-24.464-54.642-54.642-54.642zm0 103.812c-12.613 0-24.113-4.754-32.817-12.562l12.054-12.054c1.033-1.033 1.008-2.696-.025-3.729-.013-.013-.025-.025-.038-.038-1.032-1.033-2.696-1.057-3.729-.025l-12.053 12.055c-7.808-8.704-12.562-20.204-12.562-32.817 0-27.156 22.014-49.17 49.17-49.17 12.613 0 24.113 4.754 32.817 12.562l-12.054 12.053c-1.033 1.033-1.008 2.696.025 3.729.013.013.025.025.038.038 1.032 1.033 2.696 1.057 3.729.025l12.054-12.054c7.808 8.704 12.562 20.204 12.562 32.817-.001 27.156-22.015 49.17-49.171 49.17z" fill="#fa759e"/></g></g><g><path d="m86.677 73.428-25.676-25.434c-.381-.427-.861-.709-1.372-.86-.619.39-1.289.66-1.98.81-.326.972-.897 1.876-1.716 2.608-.01.009-.02.015-.03.023.103.491.319.965.677 1.366l25.676 25.434c2.081 2.332 3.271 5.239 3.447 8.314l-30.675-34.373c-.614.457-1.288.787-1.992.985-.34.833-.863 1.605-1.579 2.244-.083.074-.174.131-.26.199-.078.077-.144.161-.227.235-.117.104-.242.191-.364.284l30.673 34.372c-3.035-.523-5.788-2.035-7.87-4.367l-22.359-28.394c-.435-.488-.997-.79-1.592-.916-.412.189-.838.339-1.274.432-.326.961-.878 1.859-1.689 2.583-.178.159-.365.302-.555.437.098.507.318.998.688 1.411l22.359 28.394c3.49 3.911 8.296 6.229 13.53 6.527l5.401.307c.817.047 1.576-.242 2.142-.748.024-.021.042-.048.065-.07.024-.02.05-.033.073-.053s.039-.046.061-.067c.024-.02.053-.035.077-.056.566-.505.939-1.226.986-2.043l.307-5.401c.297-5.235-1.461-10.272-4.952-14.183z" fill="#6dc9f7"/><path d="m60.896 37.947c-.025-.029-.057-.048-.083-.076 1.767-2.279 1.724-5.559-.266-7.788s-5.243-2.644-7.708-1.146c-.025-.029-.041-.063-.066-.091-2.243-2.513-6.099-2.733-8.612-.49-.811.724-1.363 1.622-1.689 2.583-1.003.214-1.966.678-2.786 1.41-.083.074-.149.158-.227.236-.086.068-.177.125-.26.199-.716.639-1.239 1.411-1.579 2.244-.866.243-1.692.676-2.408 1.314-.083.074-.15.158-.227.236-.086.069-.177.125-.26.199-.82.731-1.391 1.636-1.716 2.608-.992.215-1.947.661-2.758 1.385-2.513 2.243-2.733 6.099-.49 8.612.025.028.057.048.083.076-1.767 2.279-1.724 5.559.266 7.788s5.243 2.644 7.708 1.147c.025.029.041.063.066.091 2.243 2.513 6.099 2.733 8.612.49.811-.724 1.363-1.622 1.689-2.583 1.003-.214 1.966-.678 2.786-1.41.083-.074.149-.158.227-.235.086-.069.177-.125.26-.199.716-.639 1.239-1.411 1.579-2.244.866-.243 1.692-.675 2.408-1.314.083-.074.15-.158.227-.236.086-.069.177-.125.26-.199.82-.731 1.391-1.635 1.716-2.608.992-.215 1.947-.661 2.758-1.385 2.514-2.245 2.733-6.101.49-8.614z" fill="#0089ef"/><g><path d="m35.725 39.776c.917-.818 2.013-1.3 3.144-1.471.298-1.104.901-2.139 1.818-2.957 2.513-2.243 6.369-2.024 8.612.49.025.029.041.062.066.091 2.465-1.497 5.718-1.083 7.708 1.146.198.222.362.461.522.702-.075-1.324-.569-2.634-1.522-3.702-1.989-2.229-5.243-2.644-7.708-1.146-.025-.029-.041-.063-.066-.091-2.243-2.513-6.099-2.733-8.612-.49-.917.818-1.52 1.853-1.818 2.957-1.13.171-2.227.653-3.144 1.471-2.289 2.043-2.668 5.422-1.024 7.908-.104-1.795.578-3.618 2.024-4.908z" fill="#fff"/></g><g fill="#3a2c60"><path d="m88.615 101.319c-1.381.942-2.83 1.823-4.307 2.62-.486.262-.667.868-.406 1.354.181.335.525.525.881.525.16 0 .323-.038.474-.12 1.538-.829 3.047-1.747 4.485-2.728.457-.312.574-.934.263-1.39s-.934-.571-1.39-.261z"/><path d="m61.5 5.857c-30.681 0-55.642 24.961-55.642 55.643 0 30.681 24.961 55.642 55.642 55.642s55.642-24.961 55.642-55.642c0-30.682-24.961-55.643-55.642-55.643zm0 109.285c-29.578 0-53.642-24.063-53.642-53.642s24.064-53.643 53.642-53.643 53.642 24.063 53.642 53.643c0 29.578-24.064 53.642-53.642 53.642z"/><path d="m98.852 28.015c-.183-.204-.442-.324-.717-.332-.268.017-.54.1-.734.293l-12.053 12.053c-.306.307-.714.461-1.148.47-.438-.004-.852-.18-1.204-.532-.314-.314-.49-.729-.494-1.166-.004-.435.163-.842.469-1.148l12.054-12.054c.194-.194.3-.46.292-.734s-.127-.533-.332-.717c-9.214-8.266-21.107-12.818-33.485-12.818-27.664 0-50.17 22.506-50.17 50.17 0 12.378 4.552 24.27 12.818 33.484.183.204.442.324.717.332.283.014.54-.1.734-.293l12.053-12.053c.303-.303.705-.469 1.133-.469h.015c.438.004.852.18 1.205.532.645.645.656 1.683.025 2.314l-12.054 12.054c-.194.194-.3.46-.292.734s.127.533.332.717c9.214 8.266 21.106 12.817 33.485 12.817 7.148 0 14.053-1.473 20.523-4.377.504-.226.729-.817.502-1.321-.227-.505-.817-.729-1.322-.503-6.211 2.788-12.84 4.201-19.704 4.201-11.532 0-22.625-4.115-31.355-11.609l11.299-11.299c1.41-1.412 1.399-3.719-.063-5.181-.687-.688-1.597-1.071-2.563-1.08-.958-.023-1.892.366-2.581 1.055l-11.298 11.299c-7.495-8.73-11.61-19.822-11.61-31.354 0-26.561 21.609-48.17 48.17-48.17 11.532 0 22.625 4.115 31.355 11.609l-11.298 11.299c-.689.689-1.064 1.605-1.055 2.58.009.966.392 1.876 1.117 2.601.687.688 1.597 1.071 2.563 1.08h.034c.962 0 1.866-.374 2.547-1.056l11.299-11.299c7.495 8.73 11.61 19.823 11.61 31.355 0 14.832-6.684 28.618-18.337 37.822-.434.343-.507.972-.165 1.405s.972.506 1.404.165c12.137-9.587 19.098-23.944 19.098-39.393-.001-12.377-4.553-24.269-12.819-33.483z"/><path d="m92.32 93.068.307-5.401c.313-5.501-1.535-10.794-5.246-14.95l-25.656-25.413c-.105-.115-.224-.207-.339-.306 2.457-2.48 2.738-6.394.683-9.191 1.595-2.636 1.316-6.047-.775-8.391-2.092-2.344-5.447-3.008-8.248-1.721-2.65-2.456-6.798-2.542-9.55-.087-.773.69-1.369 1.544-1.775 2.494-.97.288-1.895.782-2.699 1.499-.082.073-.152.156-.23.232-.085.069-.176.13-.258.203-.709.632-1.239 1.384-1.629 2.19-.844.296-1.65.737-2.359 1.369-.082.073-.152.156-.23.232-.085.069-.176.13-.258.203-.804.718-1.4 1.581-1.796 2.513-.989.296-1.904.791-2.679 1.48-2.752 2.456-3.138 6.59-.996 9.499-1.595 2.637-1.316 6.047.775 8.39s5.448 3.008 8.248 1.721c1.208 1.123 2.754 1.784 4.421 1.878.138.008.275.012.412.012 1.047 0 2.062-.232 2.992-.667.119.204.245.404.407.586l22.399 28.44c3.669 4.111 8.719 6.547 14.219 6.858l5.4.308c.078.005.155.007.232.007.973 0 1.901-.354 2.643-1.015.022-.021.043-.042.058-.057.024-.019.048-.038.071-.059s.042-.041.062-.062c.029-.022.059-.046.076-.062.79-.704 1.258-1.674 1.318-2.732zm-49.267-39.317c-.317-.374-.86-.46-1.281-.207-2.099 1.275-4.809.873-6.442-.958-1.633-1.829-1.726-4.566-.221-6.509.298-.384.276-.928-.052-1.287-.042-.045-.091-.092-.076-.068-1.872-2.098-1.688-5.327.409-7.2.734-.654 1.643-1.079 2.627-1.229.392-.059.712-.345.816-.728.26-.962.786-1.817 1.519-2.472 2.098-1.871 5.328-1.688 7.144.338.027.042.091.127.125.165.322.359.854.437 1.264.187 2.1-1.274 4.809-.873 6.442.958 1.633 1.83 1.726 4.567.221 6.51-.298.385-.276.928.052 1.287.042.046.093.092.075.067.907 1.017 1.364 2.325 1.287 3.685s-.68 2.608-1.696 3.516c-.732.654-1.641 1.079-2.628 1.229-.392.06-.711.345-.815.728-.26.963-.785 1.816-1.519 2.471-1.016.907-2.324 1.37-3.685 1.287-1.341-.076-2.574-.663-3.485-1.662-.026-.039-.061-.085-.081-.108zm8.918-24.313c.027.042.091.127.125.165.321.359.853.437 1.264.187 2.099-1.275 4.809-.873 6.442.958 1.633 1.83 1.726 4.567.221 6.51-.298.385-.276.928.052 1.287.041.045.093.092.075.067 1.872 2.098 1.688 5.328-.41 7.2-.241.215-.507.397-.783.56.087-1.656-.392-3.254-1.364-4.573 1.595-2.636 1.316-6.046-.775-8.39-2.092-2.344-5.448-3.008-8.248-1.721-1.237-1.146-2.801-1.769-4.396-1.865.195-.259.408-.505.652-.723 2.098-1.871 5.328-1.687 7.145.338zm-9.826 30.076c-1.341-.076-2.574-.663-3.485-1.662-.026-.038-.061-.084-.081-.107-.318-.374-.859-.46-1.281-.207-2.099 1.275-4.809.873-6.442-.958-1.633-1.829-1.726-4.567-.221-6.51.302-.39.275-.941-.064-1.3-.041-.043-.082-.078-.063-.055-1.872-2.098-1.688-5.327.409-7.2.244-.217.512-.401.791-.565-.085 1.597.357 3.221 1.357 4.579-1.596 2.636-1.317 6.046.774 8.389 2.092 2.343 5.448 3.008 8.248 1.721 1.2 1.116 2.735 1.773 4.39 1.874-.193.256-.404.499-.645.714-1.019.907-2.333 1.361-3.687 1.287zm48.485 28.04-.307 5.401c-.03.523-.261 1.005-.589 1.303-.046.031-.125.093-.166.131-.013.013-.026.025-.039.039-.015.012-.03.023-.045.035-.015.013-.077.079-.09.093-.392.35-.893.515-1.42.495l-5.401-.308c-4.967-.282-9.527-2.481-12.801-6.147l-22.399-28.44c-.108-.122-.195-.254-.267-.392.018-.016.037-.029.055-.045.771-.688 1.365-1.539 1.772-2.486.206-.061.41-.132.61-.212.282.106.535.265.721.472l22.399 28.44c2.228 2.497 5.148 4.118 8.445 4.687.417.07.838-.128 1.044-.5s.155-.834-.128-1.151l-29.99-33.608c.029-.025.061-.045.089-.07.697-.622 1.233-1.37 1.63-2.185.377-.133.741-.297 1.091-.494l30.112 33.742c.283.316.735.422 1.129.258.393-.163.64-.557.616-.981-.191-3.339-1.471-6.424-3.742-8.967l-25.635-25.389c-.115-.128-.208-.268-.283-.414.578-.613 1.03-1.315 1.355-2.076.46-.138.905-.313 1.324-.539.195.105.378.239.534.414l.042.045 25.634 25.389c3.314 3.712 4.983 8.492 4.7 13.46zm-26.157-15.25 13.644 15.29c-1.485-.709-2.813-1.704-3.921-2.945zm5.916-5.276 11.119 11.013c1.131 1.268 1.979 2.711 2.52 4.271z"/></g></g></g></g></svg>