<svg id="Capa_1" enable-background="new 0 0 512 512" height="512" viewBox="0 0 512 512" width="512" xmlns="http://www.w3.org/2000/svg"><path id="XMLID_2223_" d="m210 10h-120c-11.046 0-20 8.954-20 20 0 11.046 8.954 20 20 20h120c11.046 0 20-8.954 20-20 0-11.046-8.954-20-20-20z" fill="#cff1fb"/><path id="XMLID_2222_" d="m210 50v90l30 48.5c19.611 31.705 30 68.248 30 105.528v167.972c0 22.091-17.909 40-40 40h-80-80c-22.091 0-40-17.909-40-40v-167.972c0-37.28 10.389-73.823 30-105.528l30-48.5v-90" fill="#dff6fc"/><path id="XMLID_1122_" d="m270 462v-167.972c0-22.592-3.822-44.91-11.192-66.048l-.661.708c-32.109 24.179-76.346 24.179-108.455 0-32.109-24.179-76.346-24.179-108.455 0l-1.044 2.23c-6.715 20.264-10.193 41.563-10.193 63.11v167.972c0 22.091 17.909 40 40 40h80 80c22.091 0 40-17.909 40-40z" fill="#fff"/><path id="XMLID_1286_" d="m458 310h-200c-13.255 0-24 10.745-24 24v40c17.673 0 32 14.327 32 32s-14.327 32-32 32v40c0 13.255 10.745 24 24 24h40.513c1.143 0 1.847-1.27 1.218-2.223-3.203-4.852-4.893-10.791-4.392-17.147 1.051-13.323 11.935-24.041 25.272-24.905 15.822-1.024 28.975 11.506 28.975 27.108 0 5.522-1.649 10.658-4.48 14.945-.629.953.077 2.222 1.219 2.222h111.675c13.255 0 24-10.745 24-24v-144c0-13.255-10.745-24-24-24z" fill="#ffd89e"/><circle id="XMLID_1314_" cx="352.397" cy="334" fill="#ffcb7c" r="24"/><circle id="XMLID_1313_" cx="412.08" cy="413.086" fill="#ffcb7c" r="24"/><path id="XMLID_68_" d="m412.08 379.086c-18.748 0-34 15.252-34 34s15.252 34 34 34 34-15.252 34-34-15.253-34-34-34zm0 48c-7.72 0-14-6.28-14-14s6.28-14 14-14 14 6.28 14 14-6.281 14-14 14z"/><path id="XMLID_877_" d="m458 300h-178v-5.972c0-39.168-10.891-77.478-31.496-110.789l-28.504-46.082v-78.877c11.639-4.128 20-15.243 20-28.28 0-16.542-13.458-30-30-30h-120c-16.542 0-30 13.458-30 30 0 13.036 8.361 24.152 20 28.28v78.877l-28.504 46.082c-20.605 33.311-31.496 71.621-31.496 110.789v36.421c0 5.523 4.477 10 10 10s10-4.477 10-10v-36.421c0-20.087 3.168-39.923 9.304-58.829 28.221-19.874 66.661-19.389 94.372 1.478 17.502 13.18 38.333 20.146 60.243 20.146 17.525 0 34.355-4.469 49.349-12.998 4.444 16.277 6.732 33.15 6.732 50.204v5.971h-2c-18.748 0-34 15.252-34 34v40c0 5.523 4.477 10 10 10 12.131 0 22 9.869 22 22s-9.869 22-22 22c-5.523 0-10 4.477-10 10v40c0 4.99 1.089 9.727 3.029 14h-157.029c-16.542 0-30-13.458-30-30v-41.551c0-5.523-4.477-10-10-10s-10 4.477-10 10v41.551c0 27.57 22.43 50 50 50h160c5.274 0 10.447-.817 15.411-2.426 3.896 1.559 8.142 2.426 12.589 2.426h40.513c4.22 0 8.085-2.31 10.086-6.027 1.996-3.708 1.795-8.193-.523-11.706-2.118-3.208-3.075-6.96-2.768-10.851.664-8.412 7.52-15.167 15.948-15.712 4.818-.313 9.4 1.321 12.898 4.601 3.502 3.283 5.431 7.732 5.431 12.528 0 3.373-.977 6.636-2.823 9.433-2.319 3.51-2.521 7.995-.526 11.703 2 3.72 5.866 6.031 10.088 6.031h111.676c18.748 0 34-15.252 34-34v-144c0-18.748-15.252-34-34-34zm-368-280h120c5.514 0 10 4.486 10 10s-4.486 10-10 10h-120c-5.514 0-10-4.486-10-10s4.486-10 10-10zm65.708 200.701c-17.502-13.18-38.334-20.146-60.243-20.146-11.834 0-23.348 2.05-34.198 5.997 2.244-4.343 4.654-8.612 7.239-12.79l30-48.5c.976-1.582 1.494-3.404 1.494-5.262v-80h100v80c0 1.858.518 3.68 1.496 5.261l30 48.5c6.043 9.77 11.157 20.018 15.318 30.611-27.867 17.622-64.452 16.4-91.106-3.671zm210.689 113.299c0 7.72-6.28 14-14 14s-14-6.28-14-14 6.28-14 14-14 14 6.28 14 14zm105.603 144c0 7.72-6.28 14-14 14h-99.107c.459-2.345.692-4.743.692-7.167 0-10.234-4.284-20.119-11.753-27.12-7.574-7.1-17.462-10.642-27.868-9.967-18.282 1.183-33.154 15.842-34.595 34.097-.272 3.452-.079 6.857.564 10.157h-27.933c-7.72 0-14-6.28-14-14v-31.203c18.347-4.498 32-21.083 32-40.797s-13.653-36.299-32-40.797v-31.203c0-7.72 6.28-14 14-14h63.426c-1.939 4.273-3.029 9.01-3.029 14 0 18.748 15.252 34 34 34s34-15.252 34-34c0-4.99-1.089-9.727-3.029-14h74.632c7.72 0 14 6.28 14 14z"/><path id="XMLID_1630_" d="m30 385.45c2.63 0 5.21-1.07 7.07-2.93s2.93-4.44 2.93-7.07-1.07-5.21-2.93-7.07-4.44-2.93-7.07-2.93-5.21 1.07-7.07 2.93-2.93 4.44-2.93 7.07 1.07 5.21 2.93 7.07 4.44 2.93 7.07 2.93z"/></svg>