<svg height="512" viewBox="0 0 128 128" width="512" xmlns="http://www.w3.org/2000/svg"><g><g><path d="m126.25 64s-15.75 31.5-51.69 31.5c-17.99 0-33.83-5.61-43.09-14.11a4.03 4.03 0 0 0 -6.07.63 13.933 13.933 0 0 1 -8.9 5.98l-8.75 1.75a36.165 36.165 0 0 1 -4.22-10.67c-.27-1.06-.52-2.2-.74-3.42a62.7 62.7 0 0 1 -1.02-9.99c-.01-.55-.02-1.1-.02-1.67q0-.93.03-1.83a62.684 62.684 0 0 1 1.11-10.4q.36-1.83.78-3.42a35.95 35.95 0 0 1 4.08-10.1l8.75 1.75a13.933 13.933 0 0 1 8.9 5.98 4.03 4.03 0 0 0 6.07.63c9.26-8.5 25.1-14.11 43.09-14.11 35.94 0 51.69 31.5 51.69 31.5z" fill="#f93"/><path d="m94.248 65.46a44.075 44.075 0 0 1 8.281-25.622 55.737 55.737 0 0 0 -9.258-4.215 53.909 53.909 0 0 0 -1.538 57.261 55.3 55.3 0 0 0 9.309-3.916 43.916 43.916 0 0 1 -6.794-23.508z" fill="#f7f0eb"/><path d="m64.224 65.635a68.965 68.965 0 0 1 8.245-33.094 82.717 82.717 0 0 0 -11.664 1.1 81.532 81.532 0 0 0 -1.489 60.453 81.532 81.532 0 0 0 11.4 1.313 69.737 69.737 0 0 1 -6.492-29.772z" fill="#f7f0eb"/><path d="m34.2 65.8a103.729 103.729 0 0 1 2.622-23.3 40.911 40.911 0 0 0 -5.348 4.109 4.043 4.043 0 0 1 -5.675-.166 117.1 117.1 0 0 0 -.45 35.65c.017-.025.037-.048.054-.073a4.03 4.03 0 0 1 6.071-.635 40.3 40.3 0 0 0 4.466 3.515 105.558 105.558 0 0 1 -1.74-19.1z" fill="#f7f0eb"/><path d="m107.532 62.188a1.746 1.746 0 0 1 -1.346-.63 3.668 3.668 0 0 0 -1.9-.313 1.767 1.767 0 0 1 -1.87-1.618 1.748 1.748 0 0 1 1.608-1.872c.555-.039 3.411-.169 4.854 1.562a1.751 1.751 0 0 1 -1.344 2.871z" fill="#373c41"/><g fill="#ffea80"><path d="m57.815 34.2a82.077 82.077 0 0 1 16.747-1.7 55.557 55.557 0 0 1 27.531 7.1l-1.734-9.1a13.691 13.691 0 0 0 -13.448-11.125h-23.463a7 7 0 0 0 -6.876 8.311z"/><path d="m31.771 46.355a50.489 50.489 0 0 1 16.979-9.632v-7.048a4 4 0 0 0 -6.05-3.433l-9.752 5.833a7.818 7.818 0 0 0 -3.129 9.886z"/><path d="m48.122 91.052-7.761 7.76a4 4 0 0 0 1.853 6.708l11.02 2.771a7.817 7.817 0 0 0 9.2-4.778l3.266-8.489a74.275 74.275 0 0 1 -17.578-3.972z"/><path d="m84.248 65.46a53.5 53.5 0 0 1 .627-8.145l-8.462-2.274a4 4 0 0 0 -5.038 3.859v10.1a4 4 0 0 0 4 4h9.4a54.007 54.007 0 0 1 -.527-7.54z"/></g><path d="m15.06 63.67a1.744 1.744 0 0 1 -1.71 1.78l-11.58.22c-.01-.55-.02-1.1-.02-1.67q0-.93.03-1.83l11.5-.22a1.779 1.779 0 0 1 1.78 1.72z" fill="#663014"/><path d="m15.02 52.55a1.751 1.751 0 0 1 -1.71 1.39 1.472 1.472 0 0 1 -.36-.04l-10.06-2.13q.36-1.83.78-3.42l10.01 2.13a1.739 1.739 0 0 1 1.34 2.07z" fill="#663014"/><path d="m13.68 76.93-10.15 2.15c-.27-1.06-.52-2.2-.74-3.42l10.16-2.15a1.749 1.749 0 0 1 .73 3.42z" fill="#663014"/></g><g><path d="m127.815 63.267a54.606 54.606 0 0 0 -5.5-8.339 1.749 1.749 0 1 0 -2.757 2.154 57.545 57.545 0 0 1 4.706 6.963 63.88 63.88 0 0 1 -22.593 22.574 42.049 42.049 0 0 1 1.387-44.4 60.033 60.033 0 0 1 9.542 7.27 1.75 1.75 0 1 0 2.384-2.562 62.507 62.507 0 0 0 -11.314-8.382l-1.587-8.325a15.458 15.458 0 0 0 -15.172-12.546h-23.463a8.749 8.749 0 0 0 -8.595 10.389l.924 4.849c-1.8.419-3.561.9-5.277 1.439v-4.627a5.75 5.75 0 0 0 -8.7-4.936l-9.751 5.833a9.577 9.577 0 0 0 -3.83 12.1l1.373 3.085a2.348 2.348 0 0 1 -1.2.177 2.1 2.1 0 0 1 -1.529-.925 15.629 15.629 0 0 0 -10.021-6.728l-8.742-1.751a1.744 1.744 0 0 0 -1.794.736c-.173.255-2.949 4.475-4.759 12.414v.011.007a64.221 64.221 0 0 0 -1.547 14.299v.054c.013 17.172 6.048 26.3 6.305 26.682a1.75 1.75 0 0 0 1.794.736l8.743-1.751a15.632 15.632 0 0 0 10.019-6.728 2.108 2.108 0 0 1 1.529-.926 2.384 2.384 0 0 1 1.9.612 49.6 49.6 0 0 0 14.7 9.034l-5.865 5.865a5.749 5.749 0 0 0 2.664 9.642l11.019 2.77a9.562 9.562 0 0 0 11.264-5.846l2.785-7.249c2.533.228 5.1.358 7.706.358 36.6 0 53.091-32.143 53.253-32.468a1.749 1.749 0 0 0 -.001-1.564zm-35.315 2.242a45.713 45.713 0 0 0 6.074 22.751 53.437 53.437 0 0 1 -6.038 2.54 52.091 52.091 0 0 1 1.471-53.02 52.83 52.83 0 0 1 6 2.7 45.512 45.512 0 0 0 -7.507 25.029zm-9.695 5.791h-7.43a2.253 2.253 0 0 1 -2.25-2.25v-10.1a2.251 2.251 0 0 1 2.834-2.172l6.972 1.873a54.612 54.612 0 0 0 -.126 12.649zm-24.514-43.893a5.249 5.249 0 0 1 5.157-6.233h23.463a11.956 11.956 0 0 1 11.73 9.7l1.066 5.594a57.48 57.48 0 0 0 -25.145-5.668 84.42 84.42 0 0 0 -15.357 1.4zm2.331 65.193a78.819 78.819 0 0 1 -4.648-26.914 1.75 1.75 0 0 0 -3.5 0 82.6 82.6 0 0 0 4.175 26.121 67.849 67.849 0 0 1 -7.8-2.293 1.7 1.7 0 0 0 -.273-.095 52.909 52.909 0 0 1 -11.032-5.493 104.058 104.058 0 0 1 -1.594-18.08 101.929 101.929 0 0 1 2.426-22.23 54.343 54.343 0 0 1 10.929-5.193 1.607 1.607 0 0 0 .152-.053 69.12 69.12 0 0 1 8.5-2.358q-.494 1.273-.944 2.561a1.75 1.75 0 0 0 3.306 1.151c.525-1.508 1.109-3.006 1.728-4.472 2.439-.378 4.941-.634 7.482-.788a70.986 70.986 0 0 0 -7.055 31.22 72.3 72.3 0 0 0 5.492 27.849c-2.501-.199-4.951-.518-7.344-.933zm-26.778-58.975 9.756-5.833a2.251 2.251 0 0 1 3.4 1.932v5.816a53.212 53.212 0 0 0 -14.579 8.019l-1.006-2.259a6.072 6.072 0 0 1 2.429-7.675zm-17.689 52.71-7.518 1.506a40.593 40.593 0 0 1 -3.379-9.076l8.418-1.786a1.75 1.75 0 0 0 -.727-3.423l-8.439 1.79a61.154 61.154 0 0 1 -.98-9.595l9.827-.25a1.75 1.75 0 1 0 -.089-3.5l-9.736.248a60.645 60.645 0 0 1 1.086-10.067l8.332 1.766a1.68 1.68 0 0 0 .364.038 1.75 1.75 0 0 0 .361-3.462l-8.275-1.754a39.985 39.985 0 0 1 3.234-8.514l7.519 1.506a12.156 12.156 0 0 1 7.79 5.231 118.619 118.619 0 0 0 -.423 34.685 12.139 12.139 0 0 1 -7.365 4.657zm11.813-7.7a5.718 5.718 0 0 0 -1.252.3 113.406 113.406 0 0 1 .439-29.647 5.772 5.772 0 0 0 5.5-1.344c.493-.453 1.013-.891 1.541-1.324a106.093 106.093 0 0 0 -1.746 19.226 107.725 107.725 0 0 0 1.071 15.043c-.287-.247-.587-.488-.863-.742a5.891 5.891 0 0 0 -4.69-1.508zm32.836 24.3a6.074 6.074 0 0 1 -7.143 3.708l-11.02-2.771a2.249 2.249 0 0 1 -1.041-3.772l6.982-6.982a76.061 76.061 0 0 0 14.678 3.42zm11.059-9.186a68.389 68.389 0 0 1 -5.889-28.064 67.071 67.071 0 0 1 7.559-31.366c.343 0 .684-.019 1.029-.019a55.271 55.271 0 0 1 16.038 2.317 55.781 55.781 0 0 0 -7.13 18.557l-6.603-1.774a5.751 5.751 0 0 0 -7.242 5.553v10.1a5.756 5.756 0 0 0 5.75 5.75h7.907a55.805 55.805 0 0 0 5.838 17.051 54.611 54.611 0 0 1 -14.558 1.946c-.904 0-1.802-.023-2.699-.052z"/><path d="m55.8 49.6a1.749 1.749 0 0 0 -2.029 1.416c-.24 1.346-.45 2.72-.623 4.082a1.751 1.751 0 0 0 1.515 1.957 2.115 2.115 0 0 0 .223.013 1.751 1.751 0 0 0 1.734-1.529c.166-1.3.367-2.619.6-3.91a1.749 1.749 0 0 0 -1.42-2.029z"/><path d="m104.022 57.8a1.75 1.75 0 0 0 .262 3.49 3.67 3.67 0 0 1 1.9.312 1.75 1.75 0 0 0 2.69-2.24c-1.441-1.727-4.297-1.599-4.852-1.562z"/></g></g></svg>