<svg id="Capa_1" enable-background="new 0 0 510 510" height="512" viewBox="0 0 510 510" width="512" xmlns="http://www.w3.org/2000/svg" xmlns:xlink="http://www.w3.org/1999/xlink"><linearGradient id="lg1"><stop offset="0" stop-color="#fee97d"/><stop offset="1" stop-color="#fe860a"/></linearGradient><linearGradient id="SVGID_1_" gradientTransform="matrix(.707 -.707 .707 .707 -214.469 322.958)" gradientUnits="userSpaceOnUse" x1="160.91" x2="160.91" xlink:href="#lg1" y1="263.48" y2="308.209"/><linearGradient id="lg2"><stop offset="0" stop-color="#fe7701" stop-opacity="0"/><stop offset=".193" stop-color="#f87105" stop-opacity=".193"/><stop offset=".447" stop-color="#e76010" stop-opacity=".447"/><stop offset=".7336" stop-color="#cc4522" stop-opacity=".734"/><stop offset="1" stop-color="#ac2538"/></linearGradient><linearGradient id="SVGID_2_" gradientUnits="userSpaceOnUse" x1="87" x2="134.524" xlink:href="#lg2" y1="423" y2="375.476"/><linearGradient id="SVGID_3_" gradientTransform="matrix(.707 .707 -.707 .707 247.328 -108.803)" gradientUnits="userSpaceOnUse" x1="247.87" x2="327.77" xlink:href="#lg1" y1="-8.801" y2="89.767"/><linearGradient id="SVGID_4_" gradientTransform="matrix(.707 .707 -.707 .707 247.328 -108.803)" gradientUnits="userSpaceOnUse" x1="311.253" x2="177.589" xlink:href="#lg2" y1="-28.783" y2="68.292"/><linearGradient id="SVGID_5_" gradientTransform="matrix(.707 .707 -.707 .707 247.328 -108.803)" gradientUnits="userSpaceOnUse" x1="262.673" x2="262.673" xlink:href="#lg2" y1="48.91" y2="99.955"/><linearGradient id="SVGID_6_" gradientTransform="matrix(.174 .985 -.985 .174 410.939 -126.636)" gradientUnits="userSpaceOnUse" x1="277.926" x2="357.826" xlink:href="#lg1" y1="34.169" y2="132.737"/><linearGradient id="SVGID_7_" gradientTransform="matrix(.707 .707 -.707 .707 247.328 -108.803)" gradientUnits="userSpaceOnUse" x1="322.637" x2="273.913" xlink:href="#lg2" y1="73.437" y2="126.641"/><linearGradient id="SVGID_8_" gradientTransform="matrix(.174 .985 -.985 .174 410.939 -126.636)" gradientUnits="userSpaceOnUse" x1="341.308" x2="207.644" xlink:href="#lg2" y1="14.187" y2="111.262"/><linearGradient id="SVGID_9_" gradientTransform="matrix(.174 .985 -.985 .174 410.939 -126.636)" gradientUnits="userSpaceOnUse" x1="292.728" x2="292.728" xlink:href="#lg2" y1="91.88" y2="142.925"/><linearGradient id="SVGID_10_" gradientTransform="matrix(-.985 -.174 -.174 .985 701.275 163.7)" gradientUnits="userSpaceOnUse" x1="352.808" x2="432.707" xlink:href="#lg1" y1="-18.264" y2="80.304"/><linearGradient id="SVGID_11_" gradientTransform="matrix(-.985 -.174 -.174 .985 701.275 163.7)" gradientUnits="userSpaceOnUse" x1="416.19" x2="282.526" xlink:href="#lg2" y1="-38.246" y2="58.829"/><linearGradient id="SVGID_12_" gradientTransform="matrix(-.985 -.174 -.174 .985 701.275 163.7)" gradientUnits="userSpaceOnUse" x1="367.61" x2="367.61" xlink:href="#lg2" y1="39.447" y2="90.493"/><linearGradient id="SVGID_13_" gradientTransform="matrix(-.985 -.174 -.174 .985 625.785 88.21)" gradientUnits="userSpaceOnUse" x1="316.11" x2="396.01" xlink:href="#lg1" y1="115.455" y2="214.023"/><linearGradient id="SVGID_14_" gradientTransform="matrix(.707 .707 -.707 .707 247.328 -108.803)" gradientUnits="userSpaceOnUse" x1="202.779" x2="249.263" xlink:href="#lg2" y1="144.142" y2="251.67"/><linearGradient id="SVGID_15_" gradientTransform="matrix(-.985 -.174 -.174 .985 625.785 88.21)" gradientUnits="userSpaceOnUse" x1="379.493" x2="245.829" xlink:href="#lg2" y1="95.473" y2="192.548"/><linearGradient id="SVGID_16_" gradientTransform="matrix(-.985 -.174 -.174 .985 625.785 88.21)" gradientUnits="userSpaceOnUse" x1="330.913" x2="330.913" xlink:href="#lg2" y1="173.166" y2="224.211"/><linearGradient id="SVGID_17_" gradientTransform="matrix(.174 .985 -.985 .174 335.449 -202.126)" gradientUnits="userSpaceOnUse" x1="416.132" x2="496.032" xlink:href="#lg1" y1="45.419" y2="143.987"/><linearGradient id="SVGID_18_" gradientTransform="matrix(.174 .985 -.985 .174 335.449 -202.126)" gradientUnits="userSpaceOnUse" x1="479.514" x2="345.85" xlink:href="#lg2" y1="25.437" y2="122.512"/><linearGradient id="SVGID_19_" gradientTransform="matrix(.174 .985 -.985 .174 335.449 -202.126)" gradientUnits="userSpaceOnUse" x1="430.934" x2="430.934" xlink:href="#lg2" y1="103.13" y2="154.175"/><linearGradient id="SVGID_20_" gradientTransform="matrix(.174 .985 -.985 .174 410.939 -126.636)" gradientUnits="userSpaceOnUse" x1="379.434" x2="459.334" xlink:href="#lg1" y1="179.138" y2="277.706"/><linearGradient id="SVGID_21_" gradientTransform="matrix(.707 .707 -.707 .707 247.328 -108.803)" gradientUnits="userSpaceOnUse" x1="329.452" x2="266.167" xlink:href="#lg2" y1="242.092" y2="313.778"/><linearGradient id="SVGID_22_" gradientTransform="matrix(.174 .985 -.985 .174 410.939 -126.636)" gradientUnits="userSpaceOnUse" x1="442.817" x2="309.153" xlink:href="#lg2" y1="159.156" y2="256.231"/><linearGradient id="SVGID_23_" gradientTransform="matrix(.174 .985 -.985 .174 410.939 -126.636)" gradientUnits="userSpaceOnUse" x1="394.237" x2="394.237" xlink:href="#lg2" y1="236.848" y2="287.894"/><linearGradient id="SVGID_24_" gradientTransform="matrix(-.985 -.174 -.174 .985 701.275 163.7)" gradientUnits="userSpaceOnUse" x1="454.316" x2="534.216" xlink:href="#lg1" y1="126.705" y2="225.273"/><linearGradient id="SVGID_25_" gradientTransform="matrix(-.985 -.174 -.174 .985 701.275 163.7)" gradientUnits="userSpaceOnUse" x1="517.698" x2="384.034" xlink:href="#lg2" y1="106.723" y2="203.798"/><linearGradient id="SVGID_26_" gradientTransform="matrix(-.985 -.174 -.174 .985 701.275 163.7)" gradientUnits="userSpaceOnUse" x1="469.118" x2="469.118" xlink:href="#lg2" y1="184.416" y2="235.461"/><linearGradient id="SVGID_27_" gradientTransform="matrix(-.985 -.174 -.174 .985 625.785 88.21)" gradientUnits="userSpaceOnUse" x1="417.618" x2="497.518" xlink:href="#lg1" y1="260.424" y2="358.992"/><linearGradient id="SVGID_28_" gradientTransform="matrix(.707 .707 -.707 .707 247.328 -108.803)" gradientUnits="userSpaceOnUse" x1="196.092" x2="250.976" xlink:href="#lg2" y1="320.151" y2="409.758"/><linearGradient id="SVGID_29_" gradientTransform="matrix(-.985 -.174 -.174 .985 625.785 88.21)" gradientUnits="userSpaceOnUse" x1="481.001" x2="347.337" xlink:href="#lg2" y1="240.442" y2="337.517"/><linearGradient id="SVGID_30_" gradientTransform="matrix(-.985 -.174 -.174 .985 625.785 88.21)" gradientUnits="userSpaceOnUse" x1="432.421" x2="432.421" xlink:href="#lg2" y1="318.134" y2="369.18"/><linearGradient id="SVGID_31_" gradientTransform="matrix(.174 .985 -.985 .174 335.449 -202.126)" gradientUnits="userSpaceOnUse" x1="517.64" x2="597.54" xlink:href="#lg1" y1="190.388" y2="288.956"/><linearGradient id="SVGID_32_" gradientTransform="matrix(.174 .985 -.985 .174 335.449 -202.126)" gradientUnits="userSpaceOnUse" x1="581.023" x2="447.359" xlink:href="#lg2" y1="170.406" y2="267.481"/><linearGradient id="SVGID_33_" gradientTransform="matrix(.174 .985 -.985 .174 335.449 -202.126)" gradientUnits="userSpaceOnUse" x1="532.443" x2="532.443" xlink:href="#lg2" y1="248.098" y2="299.144"/><g><path d="m193.798 346.798-156.867 156.866c-8.449 8.449-22.146 8.449-30.595 0-8.449-8.449-8.448-22.146 0-30.595l156.866-156.866c8.449-8.449 22.146-8.449 30.595 0 8.449 8.448 8.449 22.146.001 30.595z" fill="url(#SVGID_1_)"/><path d="m200.14 331.5c0 5.54-2.12 11.08-6.34 15.3l-115 115-30.6-30.6 115-115c8.45-8.45 22.15-8.45 30.6 0 4.22 4.22 6.34 9.76 6.34 15.3z" fill="url(#SVGID_2_)"/><g><g><path d="m497.969 18.797c.254-.419.505-.837.753-1.253 2.425-4.075-2.191-8.69-6.265-6.265-.416.248-.833.498-1.253.753-13.035 7.903-27.65 12.828-42.836 14.15-23.585 2.052-45.735 11.488-62.823 28.576-22.491 22.491-31.737 53.75-28.329 85.509.706 6.584 5.935 11.812 12.518 12.518 31.758 3.408 63.018-5.838 85.509-28.329 17.088-17.088 26.524-39.238 28.576-62.823 1.321-15.186 6.247-29.801 14.15-42.836z" fill="url(#SVGID_3_)"/><path d="m455.242 124.456c17.088-17.088 26.524-39.238 28.576-62.823 1.322-15.186 6.247-29.801 14.15-42.836.254-.419.505-.837.753-1.253 1.213-2.037.665-4.21-.695-5.57l-136.755 136.755c2.218 2.218 5.171 3.702 8.463 4.055 31.758 3.409 63.018-5.838 85.508-28.328z" fill="url(#SVGID_4_)"/><path d="m382.205 58.283c-20.056 22.171-28.224 51.85-24.99 81.984.706 6.584 5.935 11.812 12.518 12.518 30.134 3.234 59.813-4.934 81.983-24.99z" fill="url(#SVGID_5_)"/></g><g><g><path d="m505.966 158.71c.449-.198.894-.396 1.335-.595 4.324-1.947 3.19-8.375-1.539-8.726-.483-.036-.969-.07-1.458-.102-15.21-1.003-30.007-5.351-43.205-12.979-20.497-11.846-44.053-16.822-67.852-12.626-31.323 5.523-56.827 25.826-72.251 53.796-3.197 5.798-1.914 13.08 3.074 17.434 24.06 21.008 54.97 31.363 86.293 25.84 23.799-4.196 44.233-16.929 59.442-35.071 9.794-11.68 22.211-20.826 36.161-26.971z" fill="url(#SVGID_6_)"/><path d="m505.966 158.71c.449-.198.894-.396 1.335-.595 4.324-1.947 3.19-8.375-1.539-8.726-.483-.036-.969-.07-1.458-.102-15.21-1.003-30.007-5.351-43.205-12.979-20.497-11.846-44.053-16.822-67.852-12.626-31.323 5.523-56.827 25.826-72.251 53.796-3.197 5.798-1.914 13.08 3.074 17.434 24.06 21.008 54.97 31.363 86.293 25.84 23.799-4.196 44.233-16.929 59.442-35.071 9.794-11.68 22.211-20.826 36.161-26.971z" fill="url(#SVGID_7_)"/><path d="m410.364 220.754c23.799-4.196 44.233-16.929 59.442-35.071 9.793-11.682 22.21-20.828 36.161-26.973.449-.198.894-.396 1.335-.595 2.162-.973 2.96-3.067 2.626-4.962l-190.463 33.584c.545 3.089 2.113 5.999 4.607 8.176 24.058 21.008 54.968 31.364 86.292 25.841z" fill="url(#SVGID_8_)"/><path d="m388.491 124.656c-29.145 6.658-52.859 26.285-67.494 52.823-3.198 5.798-1.914 13.079 3.074 17.434 22.829 19.933 51.826 30.265 81.491 26.553z" fill="url(#SVGID_9_)"/></g><g><path d="m351.29 4.034c.198-.449.396-.894.595-1.335 1.947-4.324 8.375-3.19 8.726 1.539.036.483.07.969.102 1.458 1.003 15.21 5.351 30.007 12.979 43.205 11.846 20.497 16.822 44.053 12.626 67.852-5.523 31.323-25.826 56.827-53.796 72.251-5.798 3.197-13.08 1.914-17.434-3.074-21.008-24.06-31.363-54.97-25.84-86.293 4.196-23.799 16.929-44.233 35.071-59.442 11.68-9.794 20.826-22.211 26.971-36.161z" fill="url(#SVGID_10_)"/><path d="m289.246 99.636c4.196-23.799 16.929-44.233 35.071-59.442 11.682-9.793 20.828-22.21 26.973-36.161.198-.449.396-.894.595-1.335.974-2.162 3.067-2.96 4.962-2.626l-33.584 190.463c-3.089-.545-5.999-2.113-8.176-4.607-21.008-24.058-31.364-54.968-25.841-86.292z" fill="url(#SVGID_11_)"/><path d="m385.344 121.509c-6.658 29.145-26.285 52.859-52.823 67.494-5.798 3.198-13.08 1.914-17.434-3.074-19.933-22.829-30.265-51.826-26.553-81.491z" fill="url(#SVGID_12_)"/></g></g><g><g><path d="m288.72 66.604c.198-.449.396-.894.595-1.335 1.947-4.324 8.375-3.19 8.726 1.539.036.483.07.969.102 1.458 1.003 15.21 5.351 30.007 12.979 43.205 11.846 20.497 16.822 44.053 12.626 67.852-5.523 31.323-25.826 56.827-53.796 72.251-5.798 3.197-13.08 1.914-17.434-3.074-21.008-24.06-31.363-54.97-25.84-86.293 4.196-23.799 16.929-44.233 35.071-59.442 11.68-9.794 20.827-22.211 26.971-36.161z" fill="url(#SVGID_13_)"/><path d="m288.72 66.604c.198-.449.396-.894.595-1.335 1.947-4.324 8.375-3.19 8.726 1.539.036.483.07.969.102 1.458 1.003 15.21 5.351 30.007 12.979 43.205 11.846 20.497 16.822 44.053 12.626 67.852-5.523 31.323-25.826 56.827-53.796 72.251-5.798 3.197-13.08 1.914-17.434-3.074-21.008-24.06-31.363-54.97-25.84-86.293 4.196-23.799 16.929-44.233 35.071-59.442 11.68-9.794 20.827-22.211 26.971-36.161z" fill="url(#SVGID_14_)"/><path d="m226.676 162.206c4.196-23.799 16.929-44.233 35.071-59.442 11.682-9.793 20.828-22.21 26.973-36.161.198-.449.396-.894.595-1.335.974-2.162 3.067-2.96 4.962-2.626l-33.584 190.463c-3.089-.545-5.999-2.113-8.176-4.607-21.008-24.058-31.364-54.968-25.841-86.292z" fill="url(#SVGID_15_)"/><path d="m322.774 184.079c-6.658 29.145-26.285 52.859-52.823 67.494-5.798 3.198-13.08 1.914-17.434-3.074-19.933-22.829-30.265-51.826-26.553-81.491z" fill="url(#SVGID_16_)"/></g><g><path d="m443.396 221.28c.449-.198.894-.396 1.335-.595 4.324-1.947 3.19-8.375-1.539-8.726-.483-.036-.969-.07-1.458-.102-15.21-1.003-30.007-5.351-43.205-12.979-20.497-11.846-44.053-16.822-67.852-12.626-31.323 5.523-56.827 25.826-72.251 53.796-3.197 5.798-1.914 13.08 3.074 17.434 24.06 21.008 54.97 31.363 86.293 25.84 23.799-4.196 44.233-16.929 59.442-35.071 9.794-11.68 22.211-20.827 36.161-26.971z" fill="url(#SVGID_17_)"/><path d="m347.794 283.324c23.799-4.196 44.233-16.929 59.442-35.071 9.793-11.682 22.21-20.828 36.161-26.973.449-.198.894-.396 1.335-.595 2.162-.974 2.96-3.067 2.626-4.962l-190.463 33.584c.545 3.089 2.113 5.999 4.607 8.176 24.058 21.008 54.968 31.364 86.292 25.841z" fill="url(#SVGID_18_)"/><path d="m325.921 187.226c-29.145 6.658-52.859 26.285-67.494 52.823-3.198 5.798-1.914 13.08 3.074 17.434 22.829 19.933 51.826 30.265 81.491 26.553z" fill="url(#SVGID_19_)"/></g></g><g><g><path d="m380.827 283.85c.449-.198.894-.396 1.335-.595 4.324-1.947 3.19-8.375-1.539-8.726-.483-.036-.969-.07-1.458-.102-15.21-1.003-30.007-5.351-43.205-12.979-20.497-11.846-44.053-16.822-67.852-12.626-31.323 5.523-56.827 25.826-72.251 53.796-3.197 5.798-1.914 13.08 3.074 17.434 24.06 21.008 54.97 31.363 86.293 25.84 23.799-4.196 44.233-16.929 59.442-35.071 9.793-11.68 22.21-20.827 36.161-26.971z" fill="url(#SVGID_20_)"/><path d="m380.827 283.85c.449-.198.894-.396 1.335-.595 4.324-1.947 3.19-8.375-1.539-8.726-.483-.036-.969-.07-1.458-.102-15.21-1.003-30.007-5.351-43.205-12.979-20.497-11.846-44.053-16.822-67.852-12.626-31.323 5.523-56.827 25.826-72.251 53.796-3.197 5.798-1.914 13.08 3.074 17.434 24.06 21.008 54.97 31.363 86.293 25.84 23.799-4.196 44.233-16.929 59.442-35.071 9.793-11.68 22.21-20.827 36.161-26.971z" fill="url(#SVGID_21_)"/><path d="m285.224 345.894c23.799-4.196 44.233-16.929 59.442-35.071 9.793-11.682 22.21-20.828 36.161-26.973.449-.198.894-.396 1.335-.595 2.162-.974 2.96-3.067 2.626-4.962l-190.463 33.584c.545 3.089 2.113 5.999 4.607 8.176 24.059 21.008 54.969 31.364 86.292 25.841z" fill="url(#SVGID_22_)"/><path d="m263.351 249.796c-29.145 6.658-52.859 26.285-67.494 52.823-3.197 5.798-1.914 13.08 3.074 17.434 22.829 19.933 51.826 30.265 81.491 26.553z" fill="url(#SVGID_23_)"/></g><g><path d="m226.15 129.173c.198-.449.396-.894.595-1.335 1.947-4.324 8.375-3.19 8.726 1.539.036.483.07.969.102 1.458 1.003 15.21 5.351 30.007 12.979 43.205 11.846 20.497 16.822 44.053 12.626 67.852-5.523 31.323-25.826 56.827-53.796 72.251-5.798 3.197-13.08 1.914-17.434-3.074-21.008-24.06-31.363-54.97-25.84-86.293 4.196-23.799 16.929-44.233 35.071-59.442 11.68-9.793 20.827-22.21 26.971-36.161z" fill="url(#SVGID_24_)"/><path d="m164.106 224.776c4.196-23.799 16.929-44.233 35.071-59.442 11.682-9.793 20.828-22.21 26.973-36.161.198-.449.396-.894.595-1.335.973-2.162 3.067-2.96 4.962-2.626l-33.584 190.463c-3.089-.545-5.999-2.113-8.176-4.607-21.008-24.059-31.364-54.969-25.841-86.292z" fill="url(#SVGID_25_)"/><path d="m260.204 246.649c-6.658 29.145-26.285 52.859-52.823 67.494-5.798 3.198-13.08 1.914-17.434-3.074-19.933-22.829-30.265-51.826-26.553-81.491z" fill="url(#SVGID_26_)"/></g></g><g><g><path d="m163.58 191.743c.198-.449.396-.894.595-1.335 1.947-4.324 8.375-3.19 8.726 1.539.036.483.07.969.102 1.458 1.003 15.21 5.351 30.007 12.979 43.205 11.846 20.497 16.822 44.053 12.626 67.852-5.523 31.323-25.826 56.827-53.796 72.251-5.798 3.197-13.08 1.914-17.434-3.074-21.008-24.06-31.363-54.97-25.84-86.293 4.196-23.799 16.929-44.233 35.071-59.442 11.68-9.793 20.827-22.211 26.971-36.161z" fill="url(#SVGID_27_)"/><path d="m163.58 191.743c.198-.449.396-.894.595-1.335 1.947-4.324 8.375-3.19 8.726 1.539.036.483.07.969.102 1.458 1.003 15.21 5.351 30.007 12.979 43.205 11.846 20.497 16.822 44.053 12.626 67.852-5.523 31.323-25.826 56.827-53.796 72.251-5.798 3.197-13.08 1.914-17.434-3.074-21.008-24.06-31.363-54.97-25.84-86.293 4.196-23.799 16.929-44.233 35.071-59.442 11.68-9.793 20.827-22.211 26.971-36.161z" fill="url(#SVGID_28_)"/><path d="m101.537 287.346c4.196-23.799 16.929-44.233 35.071-59.442 11.682-9.793 20.828-22.21 26.973-36.161.198-.449.396-.894.595-1.335.973-2.162 3.067-2.96 4.962-2.626l-33.584 190.463c-3.089-.545-5.999-2.113-8.176-4.607-21.009-24.059-31.365-54.969-25.841-86.292z" fill="url(#SVGID_29_)"/><path d="m197.634 309.219c-6.658 29.145-26.285 52.859-52.823 67.494-5.798 3.198-13.08 1.914-17.434-3.074-19.933-22.829-30.265-51.826-26.553-81.491z" fill="url(#SVGID_30_)"/></g><g><path d="m318.257 346.42c.449-.198.894-.396 1.335-.595 4.324-1.947 3.19-8.375-1.539-8.726-.483-.036-.969-.07-1.458-.102-15.21-1.003-30.007-5.351-43.205-12.979-20.497-11.846-44.053-16.822-67.852-12.626-31.323 5.523-56.827 25.826-72.251 53.796-3.197 5.798-1.914 13.08 3.074 17.434 24.06 21.008 54.97 31.363 86.293 25.84 23.799-4.196 44.233-16.929 59.442-35.071 9.793-11.68 22.211-20.827 36.161-26.971z" fill="url(#SVGID_31_)"/><path d="m222.654 408.463c23.799-4.196 44.233-16.929 59.442-35.071 9.793-11.682 22.21-20.828 36.161-26.973.449-.198.894-.396 1.335-.595 2.162-.974 2.96-3.067 2.626-4.962l-190.463 33.584c.545 3.089 2.113 5.999 4.607 8.176 24.059 21.009 54.969 31.365 86.292 25.841z" fill="url(#SVGID_32_)"/><path d="m200.781 312.366c-29.145 6.658-52.859 26.285-67.494 52.823-3.197 5.798-1.914 13.079 3.074 17.434 22.829 19.933 51.826 30.265 81.491 26.553z" fill="url(#SVGID_33_)"/></g></g></g></g></svg>