<svg id="Capa_1" enable-background="new 0 0 512 512" height="512" viewBox="0 0 512 512" width="512" xmlns="http://www.w3.org/2000/svg"><path d="m302.603 98.128 101.37 101.37c7.807 7.807 6.994 20.694-1.733 27.458l-139.156 107.849-95.788-95.788 107.849-139.156c6.764-8.727 19.65-9.54 27.458-1.733z" fill="#e0e0e0"/><path d="m403.972 199.498-11.09-11.081c7.807 7.807 6.994 20.694-1.733 27.458l-139.151 107.845 11.085 11.085 139.155-107.849c8.728-6.764 9.542-19.651 1.734-27.458z" fill="#ccc"/><path d="m163.714 235.435 102.952 102.952c4.714 4.714 4.714 12.358 0 17.072-4.714 4.714-12.358 4.714-17.072 0l-102.953-102.952c-4.714-4.714-4.714-12.358 0-17.072 4.715-4.715 12.358-4.715 17.073 0z" fill="#e8834d"/><path d="m266.666 338.387-11.09-11.081c4.714 4.714 4.714 12.358 0 17.072-4.687 4.687-12.265 4.71-16.986.078l11.003 11.003c4.714 4.715 12.358 4.715 17.072 0 4.715-4.714 4.715-12.358.001-17.072z" fill="#d66e41"/><path d="m153.735 259.601s-31.422 44.67 6.337 82.428c37.759 37.759 82.428 6.337 82.428 6.337z" fill="#ffe55a"/><path d="m160.072 324.029c-11.122-11.122-16.238-22.844-17.927-33.847-2.213 15.339.415 34.335 17.927 51.847 37.759 37.759 82.428 6.337 82.428 6.337l-11.76-11.76c-15.788 6.711-44.843 13.248-70.668-12.577z" fill="#ffd91d"/><path d="m256 8c-136.967 0-248 111.033-248 248s111.033 248 248 248 248-111.033 248-248-111.033-248-248-248zm205.523 248c0 47.797-16.318 91.781-43.684 126.69l-288.529-288.529c34.909-27.366 78.893-43.684 126.69-43.684 113.507 0 205.523 92.016 205.523 205.523zm-411.046 0c0-47.795 16.317-91.778 43.681-126.687l288.528 288.528c-34.909 27.364-78.892 43.681-126.687 43.681-113.506.001-205.522-92.015-205.522-205.522z" fill="#ff4755"/><g fill="#fc2b3a"><path d="m238 50.477c-45.719 0-87.95 14.93-122.087 40.179-2.455 1.816-2.712 5.398-.554 7.557l290.95 291.118c2.211 2.213 5.881 1.87 7.664-.701 1.341-1.934 2.624-3.92 3.853-5.952l-288.516-288.517c32.671-25.612 73.292-41.544 117.547-43.482-2.938-.125-5.888-.202-8.857-.202z"/><path d="m50.468 256c0-47.798 16.326-91.776 43.694-126.684l-6.006-6.006c-2.071-2.071-5.477-1.931-7.365.308-30.147 35.763-48.323 81.947-48.323 132.382 0 113.513 92.02 205.532 205.532 205.532 3.017 0 6.015-.079 9-.207-109.335-4.713-196.532-94.829-196.532-205.325z"/><path d="m129.309 94.161c32.708-25.636 73.381-41.576 117.691-43.486-2.985-.129-5.983-.208-9-.208-43.177 0-83.237 13.324-116.313 36.07z"/><path d="m256 8c-3.015 0-6.012.073-9 .18 132.795 4.739 239 113.868 239 247.82s-106.205 243.081-239 247.82c2.988.107 5.985.18 9 .18 136.967 0 248-111.033 248-248s-111.033-248-248-248z"/></g><path d="m146.694 379.05c-7.146 0-12.959 5.816-12.959 12.963 0 7.148 5.814 12.964 12.959 12.964 7.146 0 12.959-5.816 12.959-12.964 0-7.147-5.813-12.963-12.959-12.963z"/><path d="m187.814 379.05c-7.146 0-12.959 5.816-12.959 12.963 0 7.148 5.813 12.964 12.959 12.964s12.959-5.816 12.959-12.964c0-7.147-5.813-12.963-12.959-12.963z"/><path d="m138.796 355.1c0-7.148-5.813-12.963-12.959-12.963s-12.959 5.815-12.959 12.963 5.814 12.963 12.959 12.963c7.146 0 12.959-5.815 12.959-12.963z"/><ellipse cx="210.461" cy="422.278" rx="12.963" ry="12.959" transform="matrix(.002 -1 1 .002 -212.331 631.705)"/><path d="m437.02 74.98c-48.353-48.351-112.639-74.98-181.02-74.98-68.38 0-132.667 26.629-181.02 74.98-48.351 48.353-74.98 112.64-74.98 181.02 0 77.798 34.768 150.462 95.389 199.36 3.229 2.606 7.96 2.1 10.567-1.131 2.606-3.23 2.099-7.961-1.131-10.567-57.066-46.03-89.796-114.431-89.796-187.662 0-64.366 25.065-124.879 70.579-170.392 45.513-45.514 106.026-70.579 170.392-70.579s124.879 25.065 170.392 70.579c45.513 45.513 70.578 106.026 70.578 170.392s-25.066 124.879-70.578 170.392c-45.513 45.514-106.026 70.579-170.392 70.579-44.842 0-88.598-12.4-126.54-35.858-3.53-2.184-8.161-1.091-10.344 2.439-2.182 3.53-1.09 8.161 2.44 10.344 40.318 24.928 86.808 38.104 134.444 38.104 68.381 0 132.667-26.629 181.02-74.98 48.352-48.353 74.98-112.64 74.98-181.02s-26.628-132.667-74.98-181.02z"/><path d="m93.389 121.565c-2.147.13-4.135 1.173-5.462 2.865-29.679 37.862-45.367 83.358-45.367 131.57 0 117.691 95.749 213.44 213.44 213.44 48.211 0 93.707-15.688 131.57-45.367 3.494-2.739 3.82-8.087.678-11.228l-289.093-289.093c-1.521-1.521-3.619-2.317-5.766-2.187zm162.611 332.845c-109.404 0-198.411-89.006-198.411-198.41 0-41.967 12.785-81.718 37.061-115.499l78.472 78.472-6.909 8.914c-7.699-5.41-18.457-4.451-25.1 2.193-7.559 7.559-7.559 20.174 0 27.733l2.96 2.96c-2.858 5.25-6.837 13.91-8.924 24.486-3.221 16.318-2.466 40.364 19.421 62.25 16.205 16.205 33.591 20.825 48.151 20.825 13.447 0 26.818-3.923 38.586-10.328l2.96 2.96c7.548 7.548 20.185 7.547 27.734 0 6.821-6.822 7.538-17.452 2.187-25.097l8.918-6.912 88.391 88.391c-33.78 24.278-73.53 37.062-115.497 37.062zm16.394-136.164-8.665 6.716-40.086-40.085c-2.934-2.934-7.693-2.934-10.627 0-2.935 2.934-2.935 7.693 0 10.627l48.357 48.357c1.786 1.786 1.786 4.692.001 6.478-1.787 1.787-4.694 1.786-6.48 0l-103.153-103.153c-1.786-1.786-1.786-4.692 0-6.479 1.787-1.786 4.692-1.786 6.479 0l33.525 33.525c2.934 2.934 7.693 2.934 10.627 0 2.935-2.935 2.935-7.693 0-10.627l-25.253-25.253 6.717-8.666zm-42.229 28.619c-13.273 6.267-40.695 14.29-64.967-9.982-24.273-24.273-16.249-51.695-9.982-64.968z"/><path d="m256 57.59c4.151 0 7.515-3.365 7.515-7.515s-3.364-7.515-7.515-7.515c-48.214 0-93.711 15.689-131.574 45.37-3.495 2.738-3.819 8.086-.678 11.228l289.094 289.094c3.142 3.141 8.488 2.819 11.228-.678 29.681-37.863 45.37-83.361 45.37-131.574 0-51.568-18.639-101.353-52.483-140.181-33.514-38.449-79.621-63.665-129.829-71.004-4.11-.608-7.923 2.242-8.522 6.349-.601 4.106 2.242 7.922 6.348 8.523 46.66 6.82 89.516 30.262 120.673 66.008 31.459 36.092 48.784 82.368 48.784 130.306 0 41.968-12.786 81.72-37.064 115.502l-82.581-82.581 72.363-56.083c5.872-4.551 9.509-11.414 9.977-18.829s-2.276-14.682-7.529-19.935l-101.569-101.569c-5.255-5.254-12.519-7.999-19.936-7.531-7.415.468-14.278 4.105-18.829 9.978l-56.083 72.362-72.662-72.662c33.781-24.278 73.533-37.063 115.502-37.063zm25.121 46.569c3.951-5.096 11.693-5.592 16.258-1.026l101.569 101.567c4.564 4.565 4.072 12.308-1.026 16.259l-73.868 57.25-100.182-100.182z"/></svg>