<svg id="Capa_1" enable-background="new 0 0 512 512" height="512" viewBox="0 0 512 512" width="512" xmlns="http://www.w3.org/2000/svg"><path d="m256 8h150.571c11.064 0 20.033 8.969 20.033 20.033v279.156h25.845c9.131 0 13.5 11.219 6.774 17.395l-189.675 174.14c-7.662 7.035-19.434 7.035-27.096 0l-189.675-174.141c-6.726-6.175-2.357-17.395 6.774-17.395h25.845v-279.155c0-11.064 8.969-20.033 20.033-20.033z" fill="#ff4755"/><path d="m193.297 335.728 62.703-29.377v-77.392l-62.703 29.377z" fill="#999"/><path d="m237.971 237.421v77.377l18.029-8.447v-77.391z" fill="#8c8c8c"/><path d="m256 228.959 62.703-29.377v-77.391l-62.703 29.377z" fill="#999"/><path d="m318.703 335.728 62.703-29.377v-77.392l-62.703 29.377z" fill="#999"/><g fill="#c6c6c6"><path d="m193.297 335.728-62.703-29.377v-77.392l62.703 29.377z"/><path d="m256 228.959-62.703-29.377v-77.391l62.703 29.377z"/><path d="m318.703 335.728-62.703-29.377v-77.392l62.703 29.377z"/></g><path d="m130.594 228.959 62.703-29.377 62.703 29.377-62.703 29.377z" fill="#e0e0e0"/><path d="m193.297 122.191 62.703-29.377 62.703 29.377-62.703 29.377z" fill="#e0e0e0"/><path d="m256 228.959 62.703-29.377 62.703 29.377-62.703 29.377z" fill="#e0e0e0"/><path d="m300.674 130.653v77.376l18.029-8.447v-77.391z" fill="#8c8c8c"/><path d="m363.377 237.421v77.377l18.029-8.447v-77.391z" fill="#8c8c8c"/><path d="m175.268 208.044 62.687 29.37 18.045-8.454-62.703-29.378z" fill="#ccc"/><path d="m237.971 101.276 62.687 29.369 18.045-8.454-62.703-29.377z" fill="#ccc"/><path d="m300.674 208.044 62.687 29.37 18.045-8.454-62.703-29.378z" fill="#ccc"/><path d="m408.574 28.033v274.147c0 2.766 2.242 5.008 5.008 5.008h13.021v-279.155c.001-11.064-8.968-20.033-20.032-20.033h-18.029c11.063 0 20.032 8.969 20.032 20.033z" fill="#fc2b3a"/><path d="m452.449 307.189h-18.029c9.131 0 13.5 11.219 6.774 17.395l-189.675 174.14c-1.391 1.277-2.921 2.315-4.533 3.129 7.271 3.667 16.292 2.629 22.563-3.129l189.675-174.141c6.725-6.175 2.356-17.394-6.775-17.394z" fill="#fc2b3a"/><path d="m340.81 423.539-76.319 70.068c-4.84 4.444-12.141 4.445-16.982 0l-190.025-174.463c-1.681-1.543-.568-4.377 1.705-4.377h25.893c4.15 0 7.514-3.364 7.514-7.514v-155.227c0-4.15-3.364-7.514-7.514-7.514s-7.514 3.364-7.514 7.514v147.714h-18.379c-7.289 0-13.708 4.389-16.353 11.181-2.644 6.793-.884 14.366 4.485 19.294l190.024 174.461c5.067 4.652 11.768 7.324 18.655 7.324 6.886 0 13.588-2.672 18.654-7.324l76.319-70.068c3.056-2.806 3.26-7.56.453-10.616-2.805-3.058-7.558-3.259-10.616-.453z"/><path d="m469.163 310.921c-2.645-6.793-9.064-11.182-16.353-11.182h-18.379v-272.156c.001-15.21-12.373-27.583-27.582-27.583h-301.698c-15.209 0-27.583 12.373-27.583 27.583v94.339c0 4.15 3.364 7.514 7.514 7.514s7.514-3.364 7.514-7.514v-94.339c0-6.923 5.632-12.555 12.555-12.555h301.697c6.923 0 12.555 5.633 12.555 12.555v279.671c0 4.15 3.364 7.514 7.514 7.514h25.892c2.274 0 3.387 2.834 1.705 4.378l-91.505 84.011c-3.056 2.806-3.26 7.56-.453 10.616 1.481 1.614 3.505 2.432 5.537 2.432 1.816 0 3.637-.655 5.08-1.979l91.505-84.01c5.37-4.929 7.13-12.503 4.485-19.295z"/><path d="m318.819 156.109c4.15 0 7.514-3.364 7.514-7.514v-26.681c0-2.877-1.723-5.583-4.326-6.804l-62.819-29.431c-2.019-.945-4.355-.945-6.375 0l-62.819 29.431c-2.633.958-4.326 4.138-4.326 6.804v72.756l-58.493 27.404c-2.603 1.223-4.326 3.927-4.326 6.805v77.534c0 2.915 1.686 5.567 4.326 6.805l62.819 29.431c1.999.927 4.377.938 6.376 0l59.63-27.937 59.631 27.938c1.992.928 4.384.941 6.375 0l62.819-29.431c2.641-1.238 4.326-3.889 4.326-6.805v-77.534c0-2.877-1.723-5.583-4.326-6.805l-58.492-27.404v-15.971c0-4.15-3.364-7.514-7.514-7.514s-7.514 3.364-7.514 7.514v15.972l-47.791 22.39v-60.938l47.791-22.391v14.863c0 4.15 3.363 7.513 7.514 7.513zm-118.124-22.376 47.791 22.391v60.939l-47.791-22.391zm-7.514 74.014 45.107 21.133-45.107 21.133-45.108-21.133zm-55.305 32.951 47.791 22.391v60.938l-47.791-22.39zm62.819 22.39 47.791-22.391v60.939l-47.791 22.391zm110.61 60.939-47.791-22.391v-60.939l47.791 22.391zm15.027 0v-60.938l47.791-22.391v60.939zm-7.513-116.28 45.108 21.133-45.108 21.133-45.107-21.133zm-62.819-64.699-45.108-21.134 45.108-21.133 45.108 21.134z"/></svg>