<svg id="Capa_1" enable-background="new 0 0 512 512" height="512" viewBox="0 0 512 512" width="512" xmlns="http://www.w3.org/2000/svg"><g><g><path d="m291 7.5h-70c-5.523 0-10 4.477-10 10v53h90v-53c0-5.523-4.477-10-10-10z" fill="#aee69c"/><path d="m291 7.5h-30c5.523 0 10 4.477 10 10v53h30v-53c0-5.523-4.477-10-10-10z" fill="#89daa4"/><path d="m137.5 124.09v-6.781c0-10.442 5.43-20.133 14.335-25.586l51.954-31.809c4.715-2.887 10.136-4.414 15.665-4.414h73.091c5.529 0 10.95 1.528 15.665 4.414l51.954 31.809c8.906 5.452 14.335 15.143 14.335 25.586v6.781c0 16.569-13.431 30-30 30l-177 .001c-16.567-.001-29.999-13.432-29.999-30.001z" fill="#fef0ae"/><path d="m344.5 154.089c16.568 0 30-13.432 30-30v-6.781c0-10.442-5.43-20.133-14.335-25.586l-51.955-31.808c-4.715-2.887-10.136-4.414-15.665-4.414h-30c5.529 0 10.95 1.528 15.665 4.414l51.954 31.809c8.906 5.452 14.335 15.143 14.335 25.586v6.781c0 16.568-13.431 30-30 30h30.001z" fill="#fee97d"/><path d="" fill="#fee97d"/><path d="m374.5 296.879v177.621c0 16.569-13.431 30-30 30h-177c-16.569 0-30-13.431-30-30v-177.621c0-16.569 13.431-30 30-30h177c16.569 0 30 13.431 30 30z" fill="#fef0ae"/><path d="m344.5 266.879h-30c16.569 0 30 13.431 30 30v177.621c0 16.569-13.431 30-30 30h30c16.569 0 30-13.431 30-30v-177.621c0-16.569-13.431-30-30-30z" fill="#fee97d"/><g><path d="m357 191.578h-202c-5.523 0-10-4.477-10-10v-17.814c0-5.523 4.477-10 10-10h202c5.523 0 10 4.477 10 10v17.814c0 5.523-4.477 10-10 10z" fill="#ffe179"/><path d="m357 153.765h-30c5.523 0 10 4.477 10 10v17.814c0 5.523-4.477 10-10 10h30c5.523 0 10-4.477 10-10v-17.814c0-5.523-4.477-10-10-10z" fill="#fbd268"/><path d="m357 229.392h-202c-5.523 0-10-4.477-10-10v-17.814c0-5.523 4.477-10 10-10h202c5.523 0 10 4.477 10 10v17.814c0 5.523-4.477 10-10 10z" fill="#fef0ae"/><path d="m357 191.578h-30c5.523 0 10 4.477 10 10v17.814c0 5.523-4.477 10-10 10h30c5.523 0 10-4.477 10-10v-17.814c0-5.522-4.477-10-10-10z" fill="#fee97d"/><path d="m357 267.206h-202c-5.523 0-10-4.477-10-10v-17.814c0-5.523 4.477-10 10-10h202c5.523 0 10 4.477 10 10v17.814c0 5.523-4.477 10-10 10z" fill="#ffe179"/><path d="m357 229.392h-30c5.523 0 10 4.477 10 10v17.814c0 5.523-4.477 10-10 10h30c5.523 0 10-4.477 10-10v-17.814c0-5.522-4.477-10-10-10z" fill="#fbd268"/></g><g><g><g><path d="m316.669 428.596c-3.601-.617-6.232-3.739-6.232-7.392v-71.089c0-4.142 3.357-7.5 7.5-7.5s7.5 3.358 7.5 7.5v63.649c4.787-.002 11.311-.026 17.372-.06h.043c4.123 0 7.476 3.33 7.499 7.458.023 4.142-3.316 7.519-7.458 7.542-8.119.045-25.684-.016-26.224-.108z" fill="#fff"/></g></g><g><g><path d="m277.511 428.764c-4.143 0-7.5-3.358-7.5-7.5v-71.149c0-4.142 3.357-7.5 7.5-7.5s7.5 3.358 7.5 7.5v71.149c0 4.142-3.358 7.5-7.5 7.5z" fill="#fff"/></g></g><g><path d="m204.724 428.764c-23.751 0-43.074-19.323-43.074-43.074s19.323-43.075 43.074-43.075 43.075 19.323 43.075 43.075c-.001 23.75-19.324 43.074-43.075 43.074zm0-71.149c-15.48 0-28.074 12.594-28.074 28.075 0 15.48 12.594 28.074 28.074 28.074s28.075-12.594 28.075-28.074c-.001-15.481-12.595-28.075-28.075-28.075z" fill="#fff"/></g></g></g><path d="m161.649 385.689c0 23.751 19.323 43.074 43.074 43.074s43.075-19.323 43.075-43.074-19.323-43.075-43.075-43.075c-23.75.001-43.074 19.324-43.074 43.075zm71.149 0c0 15.48-12.594 28.074-28.075 28.074-15.48 0-28.074-12.594-28.074-28.074s12.594-28.075 28.074-28.075c15.481.001 28.075 12.595 28.075 28.075zm37.213-35.574v71.149c0 4.142 3.357 7.5 7.5 7.5s7.5-3.358 7.5-7.5v-71.149c0-4.142-3.357-7.5-7.5-7.5s-7.5 3.358-7.5 7.5zm47.926-7.5c-4.143 0-7.5 3.358-7.5 7.5v71.089c0 3.653 2.632 6.775 6.232 7.392.54.093 18.105.153 26.224.108 4.142-.023 7.481-3.4 7.458-7.542-.023-4.128-3.376-7.458-7.499-7.458h-.043c-6.062.034-12.585.058-17.372.06v-63.649c0-4.142-3.358-7.5-7.5-7.5zm64.063-218.526v-6.781c0-12.959-6.866-25.214-17.919-31.982l-51.955-31.809c-1.173-.718-2.389-1.349-3.626-1.931v-34.086c0-9.649-7.851-17.5-17.5-17.5h-70c-9.649 0-17.5 7.851-17.5 17.5v34.087c-1.237.582-2.453 1.213-3.626 1.931l-51.954 31.809c-11.054 6.767-17.92 19.022-17.92 31.982v6.781c0 10.967 4.733 20.849 12.263 27.712-2.944 3.133-4.763 7.335-4.763 11.963v17.814c0 3.718 1.174 7.162 3.159 10-1.985 2.838-3.159 6.282-3.159 10v17.814c0 3.718 1.174 7.162 3.159 10-1.985 2.838-3.159 6.282-3.159 10v17.814c0 4.627 1.818 8.829 4.761 11.961-7.529 6.863-12.261 16.744-12.261 27.71v177.622c0 20.678 16.822 37.5 37.5 37.5h177c20.678 0 37.5-16.822 37.5-37.5v-49.587c0-4.142-3.357-7.5-7.5-7.5s-7.5 3.358-7.5 7.5v49.587c0 12.407-10.094 22.5-22.5 22.5h-177c-12.407 0-22.5-10.093-22.5-22.5v-177.622c0-11.11 8.095-20.358 18.696-22.172h184.608c10.6 1.813 18.696 11.062 18.696 22.172v93.034c0 4.142 3.357 7.5 7.5 7.5s7.5-3.358 7.5-7.5v-93.034c0-10.966-4.732-20.847-12.261-27.711 2.943-3.133 4.761-7.334 4.761-11.961v-17.814c0-3.718-1.174-7.162-3.159-10 1.985-2.838 3.159-6.282 3.159-10v-17.814c0-3.718-1.174-7.162-3.159-10 1.985-2.838 3.159-6.282 3.159-10v-17.814c0-4.628-1.819-8.83-4.763-11.963 7.53-6.863 12.263-16.744 12.263-27.712zm-163.5-106.589c0-1.378 1.122-2.5 2.5-2.5h70c1.379 0 2.5 1.122 2.5 2.5v30.533c-1.62-.031-73.34-.06-75 0zm141 239.707c0 1.378-2.5 2.5-2.5 2.5h-202s-2.5-1.122-2.5-2.5v-17.814c0-1.378 1.122-2.5 2.5-2.5h202c1.379 0 2.5 1.122 2.5 2.5zm0-75.628c0 1.378-1.121 2.5-2.5 2.5h-122.604c-4.142 0-7.5 3.358-7.5 7.5s3.358 7.5 7.5 7.5h122.604c1.379 0 2.5 1.122 2.5 2.5v17.814c0 1.378-1.121 2.5-2.5 2.5h-202c-1.378 0-2.5-1.122-2.5-2.5v-17.814c0-1.378 1.122-2.5 2.5-2.5h44.396c4.142 0 7.5-3.358 7.5-7.5s-3.358-7.5-7.5-7.5h-44.396c-1.378 0-2.5-1.122-2.5-2.5v-17.814c0-1.378 1.122-2.5 2.5-2.5h202c1.379 0 2.5 1.122 2.5 2.5zm7.5-57.49c0 11.116-8.105 20.37-18.715 22.175h-184.573c-10.608-1.806-18.712-11.059-18.712-22.174v-6.781c0-7.776 4.12-15.129 10.751-19.189l51.954-31.809c3.533-2.162 7.612-3.309 11.749-3.311h73.092c4.146.002 8.214 1.149 11.748 3.311l51.955 31.808c6.631 4.061 10.751 11.414 10.751 19.19z"/></g></svg>