<svg height="512pt" viewBox="0 0 512.00029 512" width="512pt" xmlns="http://www.w3.org/2000/svg"><path d="m70.125 169.199219c-3.570312 14.675781-16.625 16.464843-31.324219 12.902343-14.699219-3.566406-25.480469-11.136718-21.90625-25.8125 3.570313-14.675781 20.453125-32.214843 35.15625-28.652343 14.699219 3.566406 21.644531 26.882812 18.074219 41.5625zm0 0" fill="#fd5c6f"/><path d="m27.917969 84.402344s-8.359375-32.484375 15.886719-50.527344c3.132812-2.332031 5.820312-5.242188 7.8125-8.601562 3.097656-5.226563 10.347656-13.226563 26.738281-17.386719 8.632812-2.191407 16.710937 5.109375 15.347656 13.894531-2.632813 16.964844-5.886719 40.914062-5.886719 40.914062zm0 0" fill="#fd5c6f"/><path d="m244.207031 477.96875c-6.097656-5.039062-12.941406-8.707031-20.125-11.035156l15.835938-37.308594-27.617188-11.6875-20.097656 47.335938c-9.421875 2.003906-18.460937 6.234374-26.285156 12.695312-6.382813 5.273438-7.277344 14.714844-1.996094 21.085938 5.277344 6.375 14.734375 7.265624 21.117187 1.992187 11.601563-9.582031 28.445313-9.582031 40.046876 0 2.796874 2.3125 12.253906 6.8125 21.117187-1.992187 5.875-5.832032 4.386719-15.8125-1.996094-21.085938zm0 0" fill="#dfca00"/><path d="m316.839844 191.394531 150.148437 87.09375s-37.179687 158.484375-251.679687 158.484375c-214.496094 0-155.867188-294.121094-155.867188-294.121094l-37.601562-4.367187c-11.0625-1.28125-17.554688-13.042969-12.761719-23.078125 12.765625-26.738281 41.03125-70.085938 90.402344-71.070312 71.5-1.429688 117.261719 145.632812 217.359375 147.058593zm0 0" fill="#f2ad9a"/><path d="m466.988281 278.488281-15.195312-8.8125h-305.699219s-8.496094 95.566407 59.09375 129.34375c31.21875 15.597657 49.382812 27.054688 59.890625 34.867188 170.640625-22.101563 201.910156-155.398438 201.910156-155.398438zm0 0" fill="#e7896e"/><path d="m382.253906 242.453125 97.003906-16.375c12.472657-2.105469 22.917969 9.398437 19.628907 21.597656-6.746094 25.019531-29.1875 60.324219-101.519531 65.84375 1.007812-1.648437-15.113282-71.066406-15.113282-71.066406zm0 0" fill="#dd6642"/><path d="m319.851562 199.570312 160.433594-38.242187c17.085938-4.070313 30.574219 14.757813 21.007813 29.464844-20.316407 31.230469-61.527344 70.679687-141.21875 75.265625-6.046875 2.679687-40.222657-66.488282-40.222657-66.488282zm0 0" fill="#e7896e"/><path d="m305.808594 478.910156c-6.378906-5.523437-13.617188-9.507812-21.242188-11.976562l15.773438-33.90625c4.679687-10.0625-2.667969-21.585938-13.765625-21.585938-5.992188 0-11.421875 3.523438-13.863281 8.992188l-20.023438 44.839844c-9.140625 1.945312-17.929688 5.988281-25.589844 12.132812-6.457031 5.175781-8.054687 14.824219-2.945312 21.335938 5.226562 6.65625 14.886718 7.664062 21.375 2.308593 11.601562-9.585937 28.441406-9.582031 40.042968 0 2.785157 2.296875 12.15625 6.765625 20.980469-1.859375 5.804688-5.671875 5.386719-14.964844-.742187-20.28125zm0 0" fill="#f4e74d"/><path d="m150.601562 290.496094c9.488282 28.152344 35.007813 56.914062 95.300782 71.324218 8.597656 2.054688 17.265625-3.0625 19.515625-11.601562 2.402343-9.105469 5.460937-18.945312 5.460937-18.945312s24.578125 34.355468 89.273438 48.300781c8.496094 1.832031 16.902344-3.484375 19.007812-11.902344l6.554688-26.179687s34.359375 19.386718 82.492187 26.734374c17.007813 2.597657 30.316407-14.4375 23.648438-30.273437-21.738281-51.648437-73.238281-147.855469-158.441407-170.15625-66.261718-17.339844-115.054687.570313-144.929687 19.390625-34.714844 21.871094-50.972656 64.464844-37.882813 103.308594zm0 0" fill="#fad989"/><path d="m27.917969 84.402344c-8.253907 10.699218-14.457031 21.828125-18.839844 31.003906-4.792969 10.035156 1.699219 21.792969 12.761719 23.078125l37.601562 4.367187s7.457032-37.667968-31.523437-58.449218zm0 0" fill="#f4e74d"/><path d="m379.160156 367.671875 6.558594-26.183594s34.355469 19.390625 82.488281 26.738281c17.007813 2.597657 30.316407-14.4375 23.648438-30.273437-3.140625-7.46875-6.910157-15.871094-11.308594-24.839844-89.039063-25.957031-191.171875-20.859375-230.652344-34.347656-57.175781-19.535156-29.039062-107.199219-28.929687-107.535156-12.542969 4.589843-23.394532 10.234375-32.480469 15.957031-34.714844 21.871094-50.972656 64.46875-37.882813 103.3125 9.484376 28.148438 35.007813 56.910156 95.300782 71.320312 8.597656 2.054688 17.265625-3.0625 19.515625-11.601562 2.402343-9.105469 5.460937-18.945312 5.460937-18.945312s24.578125 34.355468 89.273438 48.300781c8.496094 1.832031 16.902344-3.484375 19.007812-11.902344zm0 0" fill="#f6ca56"/><path d="m87.816406 96.515625v-12.429687c0-4.136719-3.359375-7.488282-7.5-7.488282-4.144531 0-7.5 3.351563-7.5 7.488282v12.429687c0 4.136719 3.355469 7.488281 7.5 7.488281 4.140625 0 7.5-3.351562 7.5-7.488281zm0 0"/><path d="m506.984375 164.800781c-6.429687-9.125-17.59375-13.351562-28.4375-10.769531l-101.347656 24.160156c-13.527344-7.988281-27.503907-13.886718-41.886719-17.648437-4.007812-1.046875-8.105469 1.347656-9.152344 5.355469-1.050781 4.007812 1.347656 8.105468 5.355469 9.15625 35.703125 9.34375 69.019531 33.386718 99.027344 71.457031 26.050781 33.050781 43.964843 69.550781 54.402343 94.347656 2.058594 4.890625 1.335938 10.316406-1.933593 14.511719-3.285157 4.210937-8.398438 6.25-13.675781 5.441406-46.074219-7.035156-79.605469-25.671875-79.933594-25.855469-2.039063-1.148437-4.496094-1.28125-6.648438-.359375-2.148437.925782-3.742187 2.796875-4.3125 5.070313l-6.554687 26.183593c-1.125 4.488282-5.679688 7.355469-10.152344 6.390626-60.675781-13.082032-84.539063-45.039063-84.753906-45.335938-1.660157-2.316406-4.480469-3.496094-7.292969-3.039062-2.8125.453124-5.125 2.457031-5.96875 5.175781-.128906.410156-3.136719 10.105469-5.550781 19.261719-1.214844 4.605468-5.835938 7.339843-10.523438 6.21875-48.75-11.648438-79.011719-34-89.9375-66.421876-11.890625-35.289062 2.40625-74.179687 34.773438-94.570312 22.054687-13.894531 58.644531-29.382812 107.726562-24.25 4.121094.433594 7.808594-2.558594 8.238281-6.679688.429688-4.117187-2.5625-7.808593-6.679687-8.238281-19.804687-2.070312-37.746094-1.039062-53.71875 1.847657-18.933594-15.015626-35.988281-34.222657-52.480469-52.796876-30.394531-34.234374-59.117187-66.585937-95.039062-66.585937-.394532 0-.027344-9.925781.585937-13.894531 1.027344-6.609375-1.316406-13.238282-6.261719-17.738282-4.96875-4.519531-11.824218-6.230468-18.339843-4.578124-18.484375 4.695312-27.25 13.917968-31.34375 20.832031-1.453125 2.453125-3.417969 4.609375-5.839844 6.410156-23.105469 17.191406-21.046875 44.785156-19.410156 54.726563-7.664063 10.398437-13.46875 20.921874-17.609375 29.585937-3.289063 6.898437-3.050782 15 .640625 21.683594 2.519531 4.558593 6.3125 8.035156 10.871093 10.101562-8.332031 18.234375-2.367187 30.0625 1.816407 34.652344 10.890625 11.964844 27.492187 12.027344 30.3125 12.300781-.449219 6.195313-.816407 12.820313-1.050781 19.789063-2.25 66.507812 9.515624 110.550781 19.78125 135.785156 1.1875 2.914063 5.523437 5.832031 9.773437 4.121094 3.84375-1.542969 5.683594-5.933594 4.121094-9.769531-33.765625-82.996094-12-195.394532-11.777344-196.519532 0 0 0-.003906 0-.007812.089844-.449219 2.152344-11.21875-1.226563-24.707032-2.722656-10.886718-9.539062-25.542968-26.335937-37.09375 14.394531-16.328124 34.253906-30.148437 60.394531-30.671874 29.570313-.617188 56.351563 29.589843 84.71875 61.539062 14.355469 16.167969 29.125 32.789062 45.460938 47.125-18.574219 5.402344-33.773438 13.070312-45.324219 20.34375-18.269531 11.511719-32.441406 28.921875-39.902344 49.027344-7.542969 20.335937-7.933593 42.71875-1.089843 63.023437 12.6875 37.644531 46.554687 63.289063 100.664062 76.222657 12.675781 3.03125 25.203125-4.429688 28.515625-16.984376.535156-2.03125 1.105469-4.105468 1.667969-6.101562 12.808594 11.96875 58.152344 41.417969 89.265625 41.417969 10.613281 0 20.132812-7.179688 22.832031-17.953125l4.269531-17.066406c4.511719 2.136718 10.660157 4.855468 18.167969 7.730468-27.0625 26.9375-61.113281 46.257813-101.449219 57.5625-.484375-1.128906-5.6875-13.777344-20.855469-13.777344-8.933593 0-17.0625 5.273438-20.707031 13.433594l-4.183593 9.363282c-14.78125 1.804687-30.359376 2.734374-46.371094 2.734374-56.769532 0-98.667969-21.589843-124.523438-64.171874-2.148437-3.539063-6.761718-4.667969-10.300781-2.519532-3.542969 2.152344-4.667969 6.765625-2.519531 10.304688 25.277344 41.625 64.027344 65.207031 115.371094 70.320312l-6.570313 15.472656c-9.351563 2.570313-18.144531 7.128907-25.625 13.308594-4.632813 3.828125-7.5 9.226563-8.0625 15.207032-.566406 5.980468 1.234375 11.820312 5.066406 16.445312 4.441407 5.359375 10.875 8.132812 17.351563 8.132812 5.050781 0 10.132812-1.6875 14.320312-5.144531 8.832032-7.296875 21.65625-7.296875 30.492188 0 1.167968.964844 6.246094 5.15625 15.707031 5.15625 5.207031 0 10.207031-1.789062 14.285156-5.15625 8.835938-7.296875 21.660157-7.296875 30.492188 0 6.25 5.160157 19.65625 8.8125 31-2.277343 4.21875-4.121094 6.539062-9.855469 6.363281-15.730469-.179688-5.957031-2.890625-11.636719-7.4375-15.578125-4.863281-4.214844-10.21875-7.683594-15.996094-10.367188 0 0 13.28125-28.773437 13.601563-29.84375 46.769531-12.550781 85.804687-35.203125 116.167969-67.410156 12.25 3.898438 26.65625 7.585938 42.582031 10.019531 10.714843 1.636719 21.097656-2.496093 27.765625-11.054687 6.65625-8.535156 8.121094-19.582032 3.925781-29.546875-5.03125-11.960938-11.753906-26.5625-20.242187-42.226563 13.53125-11.425781 23.027343-26.230468 27.601562-43.1875 2.210938-8.207031.125-16.863281-5.589844-23.152344-3.3125-3.652343-7.542968-6.152343-12.140625-7.34375 7.0625-7.398437 13.476563-15.480468 19.183594-24.25 6.101563-9.382812 5.875-20.910156-.59375-30.082031zm-480.628906 3.3125c-4.785157-8.761719.648437-17.527343 3.3125-21.167969l21.015625 2.441407c-.96875 6.015625-2.28125 15.171875-3.441406 26.605469-2.050782-.207032-16.105469.886718-20.886719-7.878907zm26.1875-33.613281-29.839844-3.464844c-2.832031-.328125-5.25-1.945312-6.625-4.4375-1.375-2.488281-1.460937-5.390625-.230469-7.960937 3.414063-7.148438 8.078125-15.71875 14.101563-24.300781 19.269531 12.832031 22.453125 30.515624 22.59375 40.164062zm-18.238281-68.644531c.917968-8.597657 4.300781-18.761719 13.976562-25.960938 4.023438-2.996093 7.316406-6.628906 9.789062-10.800781 2.167969-3.65625 7.925782-10.332031 22.132813-13.9375 2.335937-.59375 3.960937.59375 4.554687 1.132812.582032.527344 1.898438 2.011719 1.535157 4.339844-.769531 4.957032-1.664063 10.972656-2.660157 17.898438-20.164062 4-36.457031 14.609375-49.328124 27.328125zm201.011718 397.554687c-.441406-.214844-.875-.4375-1.320312-.640625l8.132812-19.152343c4.199219-.273438 8.359375-.605469 12.464844-1.003907l-7.253906 16.246094c-4.140625 1.128906-8.164063 2.671875-12.023438 4.550781zm-55.050781 31.855469c-3.191406 2.632813-8.105469 2.324219-10.570313-.996094-3.292968-4.441406-.542968-9.246093 1-10.519531 6.652344-5.492188 14.628907-9.347656 23.066407-11.144531 2.394531-.507813 4.390625-2.152344 5.34375-4.402344l10.109375-23.8125c2.015625.050781 12.925781.027344 16.3125-.054687l-8.347656 19.664062c-1.996094 5.542969 1.820312 8.660156 3.167968 9.433594-3.816406 3.878906-6.050781 8.824218-6.597656 13.914062-11.484375-2.617187-23.921875.019532-33.484375 7.917969zm120.628906-10.6875c1.410157 1.222656 4.660157 5.003906.417969 9.25-5.6875 5.6875-10.914062 1.480469-10.964844 1.4375-14.371094-11.867187-35.257812-11.902344-49.597656 0-4.6875 3.890625-9.433594.453125-10.695312-1.15625-2.472657-3.148437-1.675782-8.117187 1.734374-10.855469 6.519532-5.222656 14.285157-8.90625 22.460938-10.644531 2.34375-.5 4.308594-2.089844 5.285156-4.277344l20.023438-44.839843c1.234375-2.761719 3.988281-4.5 7.015625-4.546876 5.507812-.09375 10.34375 4.355469 6.964843 10.921876l-15.773437 33.902343c-.90625 1.949219-.933594 4.191407-.074219 6.160157s2.519532 3.476562 4.5625 4.136718c6.902344 2.238282 13.175782 5.773438 18.640625 10.511719zm190.75-238.855469c-3.578125 13.265625-10.515625 24.585938-20.644531 33.761719-6.011719-10.234375-12.75-20.714844-20.222656-31.046875 7.023437-4.003906 13.683594-8.4375 19.945312-13.3125l9.78125-1.652344c3.378906-.566406 6.632813.554688 8.929688 3.085938 2.292968 2.527344 3.097656 5.867187 2.210937 9.164062zm3.359375-59.019531c-13.589844 20.890625-31.53125 37.574219-53.359375 49.671875-14.980469-18.871094-30.804687-34.507812-47.386719-46.832031l87.765626-20.917969c5.875-1.398438 10.414062 1.570312 12.703124 4.816406 2.898438 4.113282 3.003907 9.070313.277344 13.261719zm0 0"/></svg>