<svg xmlns="http://www.w3.org/2000/svg" xmlns:xlink="http://www.w3.org/1999/xlink" xml:space="preserve" version="1.1" style="shape-rendering:geometricPrecision;text-rendering:geometricPrecision;image-rendering:optimizeQuality;" viewBox="0 0 7623 9528.75" x="0px" y="0px" fill-rule="evenodd" clip-rule="evenodd"><defs><style type="text/css">
   
    .fil0 {fill:black}
   
  </style></defs><g><path class="fil0" d="M3643 2095l0 913 121 0 0 -913c0,-142 215,-142 215,0l0 913 120 0 0 -913c0,-142 215,-142 215,0l0 1402 -261 0 0 2219c0,60 -50,110 -111,110l-141 0c-61,0 -111,-50 -111,-110l0 -2219 -262 0 0 -1402c0,-142 215,-142 215,0zm1317 3649c0,46 37,84 83,84l144 0c46,0 84,-38 84,-84l0 -1845c129,-139 225,-272 279,-396 110,-249 101,-1443 -419,-1700 -77,-38 -171,82 -171,176 0,1255 0,2510 0,3765zm-2325 82c67,0 130,-55 122,-122 -89,-656 -68,-1402 -18,-2174 204,-121 349,-434 349,-802 0,-471 -239,-854 -535,-854 -296,0 -536,383 -536,854 0,368 145,681 349,802 50,772 71,1518 -17,2174 -9,67 54,122 121,122l165 0z"/><path class="fil0" d="M3812 0c2105,0 3811,1707 3811,3812 0,2105 -1706,3811 -3811,3811 -2105,0 -3812,-1706 -3812,-3811 0,-2105 1707,-3812 3812,-3812zm0 504c1827,0 3308,1481 3308,3308 0,1827 -1481,3308 -3308,3308 -1827,0 -3308,-1481 -3308,-3308 0,-1827 1481,-3308 3308,-3308z"/></g><text x="0" y="7638" fill="#000000" font-size="5px" font-weight="bold" font-family="'Helvetica Neue', Helvetica, Arial-Unicode, Arial, Sans-serif">Created by Trisula</text><text x="0" y="7643" fill="#000000" font-size="5px" font-weight="bold" font-family="'Helvetica Neue', Helvetica, Arial-Unicode, Arial, Sans-serif">from the Noun Project</text></svg>