<svg id="Capa_1" enable-background="new 0 0 511.94 511.94" height="512" viewBox="0 0 511.94 511.94" width="512" xmlns="http://www.w3.org/2000/svg"><g><circle cx="255.997" cy="255.927" fill="#89df8f" r="245.969"/><g><path d="m319.673 171.737c5.031 2.305 10.978.094 13.281-4.937 2.304-5.031.094-10.977-4.937-13.281l-65.292-29.903c-.089-.041-.179-.081-.27-.119-4.339-1.836-9.3-.875-12.647 2.441-3.344 3.318-4.342 8.274-2.542 12.628.031.076.063.151.097.225l29.089 65.745c2.239 5.06 8.156 7.347 13.216 5.108.334-.148.656-.311.967-.49 4.376-2.526 6.233-8 4.141-12.726l-1.063-2.403 23.602-23.369zm-34.637 2.679-10.289-23.255 23.093 10.576z"/><path d="m265.013 215.718c-1.001-10.073-6.102-20.216-14.366-28.562-1.87-1.889-4.413-2.956-7.07-2.969s-5.213 1.031-7.099 2.899l-14.485 14.344c-3.932 3.893-3.963 10.238-.07 14.169s10.233 3.963 14.169.07l6.361-6.299c1.451 2.768 2.348 5.588 2.62 8.328.53 5.333-1.329 10.142-5.523 14.295-4.565 4.518-10.616 6.993-17.041 6.961s-12.453-2.563-16.973-7.129c-4.521-4.565-6.993-10.618-6.961-17.043.031-6.425 2.563-12.452 7.128-16.973 3.425-3.393 7.726-5.655 12.437-6.543 5.437-1.026 9.015-6.264 7.99-11.701-1.025-5.438-6.264-9.015-11.701-7.99-8.656 1.631-16.548 5.782-22.824 11.995-8.369 8.287-13.01 19.336-13.068 31.114-.058 11.776 4.474 22.871 12.76 31.24 8.287 8.369 19.336 13.01 31.114 13.068 7.917.039 15.526-1.995 22.205-5.852 3.256-1.879 6.292-4.193 9.035-6.908 8.449-8.368 12.485-19.205 11.362-30.514z"/><path d="m119.021 351.337c-4.516 4.473-10.645 6.957-16.391 6.645-5.528-.3-10.248 3.938-10.546 9.463-.299 5.525 3.938 10.247 9.463 10.546 7.821.423 15.662-1.546 22.583-5.543 3.227-1.863 6.256-4.166 8.989-6.872 10.722-10.617 12.919-26.422 5.224-37.579-5.824-8.445-18.292-14.627-35.813-6.653-7.869 3.58-15.536 6.595-18.172 7.613-1.441.069-2.337-.813-2.765-1.391-.552-.745-1.645-2.828.123-6.083 4.75-8.74 17.054-11.496 17.418-11.574 5.402-1.095 8.903-6.355 7.831-11.767-1.076-5.428-6.349-8.955-11.777-7.88-2.215.438-21.91 4.774-31.078 21.654-4.973 9.151-4.443 19.721 1.386 27.583 5.489 7.406 14.478 10.86 23.458 9.014.517-.106 1.026-.254 1.52-.44.406-.153 10.059-3.805 20.357-8.492 1.993-.906 8.677-3.602 11.018-.208 1.806 2.62 1.238 7.938-2.828 11.964z"/><path d="m190.857 264.327-32.958-33.284c-3.893-3.931-10.232-3.962-14.169-.07-3.932 3.893-3.963 10.238-.07 14.169l32.958 33.284c2.118 2.138 3.973 5.25 1.672 12.106-.719 2.142-1.939 4.043-3.727 5.81-1.933 1.906-4.065 3.089-6.523 3.62-5.859 1.26-8.474.061-10.795-2.282l-32.993-33.321c-3.893-3.931-10.231-3.961-14.169-.07-3.932 3.893-3.964 10.237-.07 14.169l32.993 33.321c7.62 7.694 17.46 10.31 29.249 7.774 3.36-.723 6.513-1.935 9.44-3.625 2.485-1.434 4.806-3.213 6.947-5.327 4.019-3.968 6.927-8.574 8.645-13.691 4.216-12.565 1.933-24.136-6.43-32.583z"/><path d="m292.954 83.217c-.002.002-.004.004-.007.006-3.932 3.893-3.964 10.237-.07 14.169l47.947 48.423c3.273 3.305 8.276 3.855 12.124 1.634.73-.421 1.418-.943 2.045-1.563 3.932-3.893 3.964-10.237.07-14.169l-10.774-10.881 29.148 2.003c2.062.142 4.022-.352 5.688-1.313 2.791-1.611 4.756-4.538 4.994-7.996.379-5.52-3.788-10.303-9.309-10.682l-23.905-1.643c1.569-3.439 2.469-7.174 2.609-11.03.278-7.706-2.477-14.887-7.757-20.219v.001c-10.757-10.867-28.669-10.637-39.927.509l-12.867 12.741c-.003.003-.005.007-.009.01zm26.976 1.488c3.35-3.318 8.656-3.613 11.588-.651v.001c1.817 1.835 2.015 4.168 1.971 5.395-.083 2.291-1.08 4.546-2.737 6.186-1.358 1.345-3.518 3.501-5.679 5.66-2.089-2.09-8.679-8.72-10.87-10.92z"/><path d="m316.773 349.609c2.791-1.611 4.756-4.538 4.994-7.996.379-5.52-3.788-10.303-9.309-10.682l-23.905-1.643c1.569-3.439 2.469-7.174 2.609-11.03.278-7.706-2.477-14.887-7.757-20.219v.001c-10.758-10.865-28.671-10.637-39.927.511l-12.867 12.741c-.003.003-.006.007-.009.01-.002.002-.004.004-.007.006-3.932 3.893-3.964 10.237-.07 14.169l47.947 48.423c3.273 3.305 8.276 3.855 12.124 1.634.73-.421 1.418-.943 2.045-1.563 3.932-3.893 3.964-10.237.07-14.169l-10.774-10.881 29.148 2.003c2.062.14 4.022-.354 5.688-1.315zm-59.196-36.82c3.351-3.316 8.656-3.614 11.588-.651v.001c1.817 1.835 2.015 4.168 1.971 5.395-.083 2.291-1.08 4.546-2.737 6.186-1.358 1.345-3.518 3.501-5.679 5.66-2.089-2.09-8.679-8.72-10.87-10.92z"/><path d="m241.113 362.941c-3.893-3.931-10.234-3.962-14.169-.07l-10.947 10.84-9.421-9.514 12.507-12.384c3.932-3.893 3.964-10.237.07-14.169s-10.235-3.965-14.169-.07l-19.626 19.433c-1.889 1.87-2.957 4.413-2.969 7.07-.013 2.657 1.03 5.21 2.899 7.099l23.513 23.746c.002.002.004.005.006.007.003.003.006.005.008.008l24.419 24.662c3.273 3.305 8.276 3.855 12.124 1.634.729-.422 1.418-.943 2.045-1.563 3.932-3.893 3.964-10.237.07-14.169l-17.378-17.55 10.947-10.839c3.933-3.895 3.964-10.238.071-14.171z"/><path d="m332.48 321.33c3.682 3.492 9.74 4.309 14.169.07l20.403-20.203c3.932-3.893 3.963-10.238.07-14.169-3.893-3.932-10.233-3.964-14.169-.07l-13.283 13.154-9.875-9.973 11.779-11.663c3.932-3.893 3.964-10.237.07-14.169-3.893-3.931-10.232-3.962-14.169-.07l-11.78 11.663-9.874-9.972 13.284-13.153c3.932-3.893 3.964-10.237.07-14.169-3.893-3.931-10.234-3.962-14.169-.07l-20.404 20.203c-1.889 1.87-2.957 4.413-2.969 7.07-.013 2.657 1.03 5.21 2.899 7.099z"/><path d="m358.707 247.398c.002.002.004.005.006.007.003.003.006.005.008.008l23.965 24.204c3.682 3.492 9.74 4.309 14.169.07l20.404-20.203c3.932-3.893 3.964-10.237.07-14.169-3.893-3.932-10.234-3.965-14.169-.07l-13.284 13.153-9.874-9.972 11.78-11.664c3.932-3.893 3.964-10.237.07-14.169-3.893-3.931-10.233-3.962-14.169-.07l-11.78 11.664-9.874-9.972 13.284-13.153c3.932-3.893 3.964-10.237.07-14.169-3.893-3.933-10.235-3.964-14.169-.07l-20.404 20.203c-3.932 3.893-3.964 10.237-.07 14.169z"/><path d="m307.906 16.43c1.588-5.289-1.413-10.865-6.703-12.453s-10.865 1.413-12.453 6.703 1.413 10.865 6.703 12.453 10.865-1.414 12.453-6.703z"/><path d="m454.549 94.453c-28.829-35.453-66.586-62.562-109.189-78.395-5.186-1.929-10.954.713-12.881 5.901-1.928 5.187.714 10.954 5.901 12.881 39.254 14.589 74.048 39.574 100.622 72.255 39.753 48.889 58.089 110.333 51.628 173.014-6.46 62.679-36.942 119.092-85.832 158.845-48.887 39.755-110.334 58.088-173.014 51.628-62.679-6.46-119.092-36.942-158.845-85.832s-58.089-110.333-51.628-173.013c6.46-62.679 36.942-119.092 85.832-158.845 41.134-33.447 93.173-52.201 146.533-52.808 5.531-.063 9.968-4.599 9.904-10.132-.062-5.533-4.599-9.967-10.132-9.904-57.866.657-114.315 21.006-158.948 57.296-53.041 43.131-86.113 104.334-93.122 172.339s12.883 134.667 56.013 187.71c43.131 53.042 104.335 86.114 172.339 93.122 54.174 5.584 107.49-5.901 153.754-32.609 11.81-6.819 23.169-14.633 33.956-23.404 53.042-43.131 86.113-104.334 93.122-172.339 7.01-68.004-12.883-134.666-56.013-187.71z"/></g></g></svg>