<?xml version="1.0" encoding="iso-8859-1"?>
<!-- Generator: Adobe Illustrator 19.0.0, SVG Export Plug-In . SVG Version: 6.00 Build 0)  -->
<svg version="1.1" id="Capa_1" xmlns="http://www.w3.org/2000/svg" xmlns:xlink="http://www.w3.org/1999/xlink" x="0px" y="0px"
	 viewBox="0 0 512 512" style="enable-background:new 0 0 512 512;" xml:space="preserve">
<path style="fill:#FF5D5D;" d="M72.378,25.85L44.051,61.932C-5.861,125.511-0.41,216.354,56.745,273.51l181.745,181.745
	c57.155,57.155,147.999,62.606,211.578,12.694l36.082-28.325c19.545-15.343,21.283-44.319,3.713-61.889l-79.192-79.192
	c-16.181-16.181-42.415-16.181-58.597,0l-25.764,25.764c-12.166,12.166-31.889,12.166-44.055,0l-94.624-94.624
	c-12.166-12.166-12.166-31.889,0-44.055l25.764-25.764c16.181-16.181,16.181-42.415,0-58.597l-79.128-79.128
	C116.696,4.568,87.721,6.306,72.378,25.85z"/>
<g>
	<path style="fill:#FE8F8D;" d="M410.67,298.542c-16.181-16.181-42.415-16.181-58.597,0l-25.764,25.764
		c-0.301,0.301-0.61,0.589-0.92,0.875l134.813,134.813l25.947-20.37c19.545-15.343,21.283-44.319,3.713-61.889L410.67,298.542z"/>
	<path style="fill:#FE8F8D;" d="M134.266,22.137C116.697,4.568,87.721,6.306,72.378,25.85l-20.37,25.948l134.748,134.748
		c0.286-0.31,0.574-0.619,0.875-0.92l25.764-25.764c16.181-16.181,16.181-42.415,0-58.597L134.266,22.137z"/>
</g>
<path d="M496.935,370.662l-79.193-79.193c-20.056-20.055-52.686-20.055-72.74,0l-25.764,25.765c-8.248,8.247-21.666,8.247-29.911,0
	l-94.625-94.625c-8.248-8.247-8.248-21.665,0-29.911l25.764-25.764c9.715-9.715,15.064-22.631,15.064-36.37
	c0-13.739-5.35-26.655-15.064-36.37l-79.128-79.128C130.942,4.67,116.564-0.783,101.888,0.093
	c-14.675,0.88-28.299,8.018-37.377,19.582L36.186,55.757C-16.8,123.252-11.002,219.906,49.674,280.581l181.745,181.744
	c32.913,32.912,76.395,49.678,120.081,49.674c36.855-0.003,73.859-11.94,104.742-36.186l36.083-28.325
	c11.564-9.079,18.701-22.702,19.582-37.378C512.788,395.436,507.331,381.057,496.935,370.662z M491.941,408.914
	c-0.538,8.969-4.899,17.294-11.967,22.843l-19.111,15.003l-59.982-59.982c-3.905-3.904-10.238-3.904-14.144,0
	c-3.905,3.905-3.905,10.238,0,14.144l58.279,58.279l-1.123,0.881c-59.542,46.744-144.803,41.628-198.33-11.898L63.817,266.438
	C10.292,212.913,5.176,127.649,51.918,68.108l28.325-36.082c5.547-7.067,13.874-11.429,22.842-11.967
	c8.977-0.535,17.756,2.797,24.109,9.15l79.128,79.128c12.256,12.255,12.256,32.198,0,44.452l-19.632,19.632l-71.602-71.602
	c-3.905-3.905-10.238-3.905-14.144,0c-3.905,3.905-3.905,10.238,0,14.144l72.732,72.732c-8.672,15.649-6.387,35.791,6.881,49.057
	l94.625,94.625c16.044,16.043,42.151,16.044,58.198,0l25.764-25.765c12.256-12.257,32.198-12.257,44.453,0l79.192,79.193
	C489.144,391.159,492.479,399.946,491.941,408.914z"/>
<path d="M367.489,377.53c-2.63,0-5.21-1.07-7.071-2.931c-1.86-1.859-2.93-4.439-2.93-7.07s1.07-5.21,2.93-7.071
	c1.86-1.86,4.44-2.93,7.071-2.93c2.64,0,5.21,1.069,7.071,2.93s2.93,4.44,2.93,7.071s-1.07,5.21-2.93,7.07
	C372.699,376.46,370.119,377.53,367.489,377.53z"/>
<path d="M125.32,282.672c-2.64,0-5.21-1.06-7.081-2.93c-1.86-1.86-2.92-4.439-2.92-7.071c0-2.63,1.06-5.199,2.92-7.07
	c1.86-1.86,4.44-2.931,7.081-2.931c2.63,0,5.21,1.07,7.071,2.931c1.86,1.87,2.93,4.439,2.93,7.07c0,2.641-1.07,5.21-2.93,7.071
	C130.53,281.612,127.95,282.672,125.32,282.672z"/>
<path d="M94.98,252.341c-2.559,0-5.119-0.976-7.072-2.929l-6.999-6.999c-28.497-28.498-39.625-70.366-29.039-109.264
	c1.45-5.329,6.943-8.478,12.276-7.024c5.329,1.45,8.474,6.947,7.024,12.276c-8.707,31.995,0.445,66.43,23.884,89.868l6.999,6.999
	c3.905,3.905,3.905,10.238,0,14.144C100.099,251.365,97.539,252.341,94.98,252.341z"/>
<path d="M501.999,215.808c-5.523,0-10.001-4.477-10.001-10.001c0-102.454-83.352-185.806-185.806-185.806
	c-5.523,0-10.001-4.477-10.001-10.001S300.669,0,306.193,0C419.676,0,512,92.325,512,205.808
	C512,211.331,507.523,215.808,501.999,215.808z"/>
<path d="M433.177,215.808c-5.523,0-10.001-4.477-10.001-10.001c0-64.505-52.478-116.983-116.983-116.983
	c-5.523,0-10.001-4.477-10.001-10.001c0-5.523,4.477-10.001,10.001-10.001c75.533,0,136.985,61.451,136.985,136.985
	C443.178,211.331,438.7,215.808,433.177,215.808z"/>
<path d="M360.616,215.808c-5.523,0-10.001-4.477-10.001-10.001c0-24.495-19.928-44.422-44.422-44.422
	c-5.523,0-10.001-4.477-10.001-10.001s4.477-10.001,10.001-10.001c35.524,0,64.424,28.9,64.424,64.424
	C370.617,211.331,366.139,215.808,360.616,215.808z"/>
<g>
</g>
<g>
</g>
<g>
</g>
<g>
</g>
<g>
</g>
<g>
</g>
<g>
</g>
<g>
</g>
<g>
</g>
<g>
</g>
<g>
</g>
<g>
</g>
<g>
</g>
<g>
</g>
<g>
</g>
</svg>
