<svg viewBox="-10 0 512 512.00117" xmlns="http://www.w3.org/2000/svg"><path d="m236.152344 260.921875c-14.75 83.632813 32.066406 138.46875 99.640625 150.386719 67.578125 11.914062 130.324219-23.601563 145.070312-107.238282 14.75-83.632812-9.75-265.039062-77.324219-276.953124-67.578124-11.917969-152.640624 150.167968-167.386718 233.804687zm0 0" fill="#495059"/><path d="m304.335938 101.59375c-33.574219 50.519531-60.480469 115.628906-68.183594 159.324219-14.75 83.636719 32.066406 138.472656 99.640625 150.386719 35.789062 6.3125 70.21875-.683594 96.882812-21.082032-173.839843 18.898438-167.40625-164.121094-128.339843-288.628906zm0 0" fill="#41464f"/><path d="m383.261719 351.902344c-1.492188 0-2.996094-.445313-4.308594-1.367188-3.386719-2.382812-4.203125-7.0625-1.816406-10.449218 52.136719-74.097657 49.226562-161.117188 37.605469-221.066407-.785157-4.066406 1.871093-8 5.933593-8.789062 4.078125-.792969 8.003907 1.871093 8.789063 5.933593 17.460937 90.070313 3.605468 170.488282-40.066406 232.554688-1.457032 2.074219-3.78125 3.183594-6.136719 3.183594zm0 0" fill="#dfe3e5"/><path d="m314.0625 339.699219c-3.304688 0-6.328125-2.199219-7.234375-5.542969-19.808594-73.261719-5.324219-153.566406 41.890625-232.226562 2.128906-3.554688 6.738281-4.703126 10.285156-2.570313 3.554688 2.128906 4.703125 6.734375 2.570313 10.285156-31.421875 52.359375-63.917969 133.132813-40.265625 220.597657 1.078125 4-1.285156 8.117187-5.28125 9.199218-.65625.175782-1.316406.257813-1.964844.257813zm0 0" fill="#dfe3e5"/><path d="m262.476562 330.445312c29.046876 79.804688-7.535156 141.933594-72.015624 165.402344-64.480469 23.46875-132.441407-.613281-161.488282-80.414062-29.0429685-79.804688-36.417968-262.707032 28.0625-286.175782 64.480469-23.46875 176.394532 121.382813 205.441406 201.1875zm0 0" fill="#495059"/><path d="m28.976562 415.433594c29.042969 79.800781 97.003907 103.882812 161.484376 80.414062 9.570312-3.480468 18.519531-7.824218 26.738281-12.941406-197.117188-9.71875-202.574219-218.488281-178.621094-340.773438-44.171875 48.945313-35.511719 202.125-9.601563 273.300782zm0 0" fill="#41464f"/><path d="m132.09375 445.703125c-1.914062 0-3.828125-.730469-5.292969-2.183594-53.785156-53.542969-81.394531-130.332031-79.839843-222.0625.070312-4.097656 3.414062-7.371093 7.496093-7.371093h.128907c4.140624.070312 7.441406 3.484374 7.371093 7.625-1.035156 61.054687 11.210938 147.257812 75.425781 211.175781 2.933594 2.921875 2.945313 7.671875.023438 10.605469-1.464844 1.472656-3.390625 2.210937-5.3125 2.210937zm0 0" fill="#dfe3e5"/><path d="m198.132812 421.667969c-.226562 0-.453124-.007813-.683593-.03125-4.125-.367188-7.164063-4.011719-6.796875-8.136719 8.101562-90.246094-37.925782-164.148438-77.964844-210.253906-2.714844-3.128906-2.378906-7.863282.746094-10.578125 3.125-2.71875 7.863281-2.382813 10.578125.742187 60.15625 69.273438 88.367187 145.839844 81.578125 221.429688-.347656 3.898437-3.621094 6.828125-7.457032 6.828125zm0 0" fill="#dfe3e5"/><path d="m332.136719 443.808594c42.636719-42.636719 76.125-121.902344 47.890625-150.140625-28.234375-28.234375-107.5 5.253906-150.140625 47.894531-42.636719 42.636719-42.496094 88.273438-14.261719 116.507812 28.234375 28.234376 73.871094 28.375 116.511719-14.261718zm0 0" fill="#f3e5b7"/><path d="m305.753906 417.152344c-2.144531 0-4.269531-.914063-5.753906-2.6875-2.660156-3.175782-2.238281-7.902344.9375-10.5625 6.65625-5.570313 29.375-25.414063 42.21875-46.820313 2.128906-3.550781 6.738281-4.703125 10.285156-2.574219 3.554688 2.132813 4.703125 6.738282 2.574219 10.289063-14.046875 23.414063-38.339844 44.65625-45.453125 50.605469-1.402344 1.175781-3.109375 1.75-4.808594 1.75zm0 0" fill="#e8d8a5"/><path d="m230.226562 133.304688c-10.46875-59.378907-56.191406-132.28125-95.515624-125.347657-39.324219 6.9375-57.359376 91.078125-46.886719 150.457031 10.46875 59.382813 47.933593 85.445313 87.257812 78.511719 39.324219-6.933593 65.617188-44.238281 55.144531-103.621093zm0 0" fill="#f3e5b7"/><path d="m172.960938 96.039062c-3.613282 0-6.796876-2.617187-7.394532-6.296874-2.574218-15.871094-18.496094-41.484376-22.582031-44.898438-3.164063-2.648438-3.625-7.375-.996094-10.558594 2.628907-3.175781 7.300781-3.660156 10.496094-1.046875 7.257813 5.9375 24.746094 34.726563 27.886719 54.101563.664062 4.085937-2.113282 7.9375-6.199219 8.601562-.410156.066406-.8125.097656-1.210937.097656zm0 0" fill="#e8d8a5"/><path d="m197.730469 198.546875c-1.261719 0-2.542969-.320313-3.714844-.988281-3.59375-2.054688-4.84375-6.636719-2.789063-10.234375 3.039063-5.316407 7.691407-20.855469 5.753907-31.601563-.734375-4.074218 1.972656-7.976562 6.046875-8.710937 4.085937-.730469 7.976562 1.972656 8.710937 6.046875 2.675781 14.828125-2.886719 33.652344-7.492187 41.710937-1.382813 2.421875-3.914063 3.777344-6.515625 3.777344zm0 0" fill="#e8d8a5"/><path d="m175.082031 236.925781c19.191407-3.382812 35.261719-14.019531 45.484375-30.90625-84.699218 46.015625-115.613281-121.851562-102.75-189.503906-27.382812 24.144531-38.824218 91.824219-29.992187 141.898437 10.46875 59.382813 47.933593 85.445313 87.257812 78.511719zm0 0" fill="#e8d8a5"/><path d="m321.589844 453.417969c-95.429688 9.875-100.039063-78.851563-72.222656-128.816407-7.035157 5.390626-13.605469 11.085938-19.480469 16.960938-42.636719 42.636719-42.496094 88.273438-14.261719 116.507812 25.917969 25.917969 66.503906 28.136719 105.964844-4.652343zm0 0" fill="#e8d8a5"/><g fill="#41464f"><path d="m413.597656 76.199219c0 4.058593-3.289062 7.347656-7.34375 7.347656-4.058594 0-7.347656-3.289063-7.347656-7.347656 0-4.054688 3.289062-7.34375 7.347656-7.34375 4.054688 0 7.34375 3.289062 7.34375 7.34375zm0 0"/><path d="m366.558594 218.992188c0 4.058593-3.289063 7.347656-7.347656 7.347656-4.058594 0-7.34375-3.289063-7.34375-7.347656 0-4.054688 3.285156-7.34375 7.34375-7.34375 4.058593 0 7.347656 3.289062 7.347656 7.34375zm0 0"/><path d="m465.070312 300.875c0 4.058594-3.289062 7.347656-7.34375 7.347656-4.058593 0-7.347656-3.289062-7.347656-7.347656s3.289063-7.34375 7.347656-7.34375c4.054688 0 7.34375 3.285156 7.34375 7.34375zm0 0"/><path d="m131.011719 313.597656c0 4.054688-3.289063 7.34375-7.347657 7.34375-4.054687 0-7.34375-3.289062-7.34375-7.34375 0-4.058594 3.289063-7.347656 7.34375-7.347656 4.058594 0 7.347657 3.289062 7.347657 7.347656zm0 0"/><path d="m69.085938 176.871094c0 4.054687-3.289063 7.34375-7.34375 7.34375-4.058594 0-7.347657-3.289063-7.347657-7.34375 0-4.058594 3.289063-7.347656 7.347657-7.347656 4.054687 0 7.34375 3.289062 7.34375 7.347656zm0 0"/><path d="m233.273438 315.566406c0 4.058594-3.289063 7.347656-7.347657 7.347656-4.054687 0-7.34375-3.289062-7.34375-7.347656 0-4.054687 3.289063-7.34375 7.34375-7.34375 4.058594 0 7.347657 3.289063 7.347657 7.34375zm0 0"/></g><path d="m480.390625 137.070312c-8.980469-40.429687-30.738281-109.4375-75.550781-117.339843-15.578125-2.746094-32.390625 2.171875-49.964844 14.621093-3.378906 2.394532-4.179688 7.074219-1.785156 10.453126 2.394531 3.378906 7.070312 4.179687 10.453125 1.785156 14.1875-10.046875 27.207031-14.113282 38.691406-12.089844 26.464844 4.667969 49.613281 43.238281 63.515625 105.824219 12.128906 54.59375 15.234375 119.875 7.730469 162.445312-5.941407 33.691407-20.519531 60.992188-42.15625 78.949219-16.84375 13.976562-37.5625 22.113281-60.511719 23.921875 7.683594-12.886719 14.175781-26.445313 18.914062-39.792969 12.339844-34.789062 10.777344-62.304687-4.394531-77.480468-15.179687-15.175782-42.695312-16.738282-77.480469-4.394532-15.847656 5.621094-31.976562 13.726563-46.9375 23.355469-5.234374-11.230469-11.59375-23.148437-18.800781-35.296875.394531-3.285156.851563-6.574219 1.421875-9.808594 4.789063-27.15625 17.25-62.964844 34.191406-98.242187 18.238282-37.988281 39.863282-71.632813 60.886719-94.734375 2.789063-3.0625 2.5625-7.804688-.5-10.59375-3.0625-2.789063-7.804687-2.5625-10.59375.5-46.605469 51.214844-85.777343 138.195312-97.421875 193.609375-5.59375-8.550781-11.511718-17.085938-17.675781-25.441407 6.03125-5.261718 11.226563-11.5625 15.398437-18.78125 11.671876-20.199218 15.058594-46.664062 9.792969-76.535156-5.421875-30.746094-19.707031-64.609375-38.21875-90.589844-21.417969-30.0625-44.855469-44.566406-65.988281-40.839843-21.132812 3.726562-38.195312 25.371093-48.039062 60.945312-5 18.066407-7.679688 38.191407-7.953126 57.960938-8.199218-.746094-15.886718.160156-22.945312 2.730469-42.757812 15.5625-52.203125 87.300781-54.027344 128.675781-2.542968 57.65625 6.09375 124.8125 21.488282 167.109375 6.71875 18.457031 15.679687 34.652344 26.640624 48.136718 1.480469 1.824219 3.644532 2.769532 5.824219 2.769532 1.660157 0 3.335938-.550782 4.726563-1.683594 3.210937-2.609375 3.699218-7.332031 1.085937-10.546875-9.902343-12.179687-18.039062-26.917969-24.183593-43.804687-14.785157-40.617188-23.0625-105.445313-20.601563-161.316407 2.824219-64.050781 18.925781-106.058593 44.175781-115.246093 5.394532-1.960938 11.460938-2.515626 18.082032-1.699219.433593 8.636719 1.34375 17.082031 2.757812 25.113281 5.269531 29.867188 17.5 53.578125 35.378906 68.566406 13.484375 11.304688 29.832032 17.222656 47.058594 17.222656 4.457031 0 8.972656-.398437 13.507812-1.195312 8.5625-1.511719 16.539063-4.359375 23.753907-8.378906 19.769531 26.742187 36.992187 55.308594 48.25 80.011718-8.644531 6.371094-16.695313 13.207032-23.800781 20.3125-21.445313 21.449219-33.851563 45.066407-35.875 68.308594-1.921876 22.0625 5.753906 42.949219 21.613281 58.808594 3.132812 3.132812 6.472656 5.925781 9.96875 8.410156-9.601563 6.953125-20.449219 12.667969-32.394531 17.019532-37.152344 13.523437-73.734376 10.171874-103.007813-9.4375-3.441406-2.304688-8.097656-1.382813-10.402344 2.058593-2.304687 3.441407-1.382812 8.097657 2.058594 10.402344 20 13.398437 42.878906 20.171875 67.003906 20.171875 16.101563 0 32.761719-3.019531 49.476563-9.101562 15.574218-5.667969 29.527344-13.453126 41.5625-23.152344 8.761718 3.644531 18.179687 5.535156 27.90625 5.535156 2.199218 0 4.410156-.097656 6.636718-.292969 23.242188-2.023437 46.859376-14.429687 68.308594-35.875 8.261719-8.265625 16.171875-17.796875 23.394532-28.070312h.136718c30.414063 0 57.972656-9.5625 79.929688-27.78125 24.410156-20.257813 40.78125-50.648438 47.347656-87.886719 7.816406-44.332031 4.65625-111.964844-7.859375-168.304688zm-282.199219 82.453126c-.234375.140624-.464844.292968-.691406.464843-.058594.042969-.109375.09375-.167969.140625-6.832031 4.671875-14.742187 7.859375-23.550781 9.410156-3.828125.675782-7.574219 1.007813-11.234375 1.007813-33.40625-.007813-59.261719-27.621094-67.339844-73.433594-4.976562-28.230469-3.210937-63.328125 4.613281-91.59375 8.097657-29.261719 21.289063-47.550781 36.191407-50.175781 1.292969-.230469 2.609375-.34375 3.957031-.34375 14.171875 0 31.125 12.53125 47.214844 35.113281 17.015625 23.886719 30.683594 56.265625 35.660156 84.492188 4.644531 26.351562 1.875 49.320312-8.007812 66.425781-4.359376 7.546875-9.972657 13.742188-16.644532 18.492188zm128.640625 218.984374c-29.828125 29.832032-63.046875 39.007813-89.386719 26.171876-.410156-.265626-.84375-.488282-1.292968-.664063-5.402344-2.808594-10.515625-6.539063-15.222656-11.246094-27.835938-27.835937-22.238282-69.40625 14.261718-105.90625 20.265625-20.269531 50.03125-38.953125 77.671875-48.757812 13.902344-4.929688 26.371094-7.390625 36.746094-7.390625 10.980469 0 19.613281 2.753906 25.117187 8.257812 10.699219 10.699219 11.015626 33.246094.863282 61.859375-9.804688 27.644531-28.488282 57.40625-48.757813 77.675781zm0 0"/></svg>