<?xml version="1.0" encoding="utf-8"?>
<!-- Generator: Adobe Illustrator 21.0.0, SVG Export Plug-In . SVG Version: 6.00 Build 0)  -->
<svg xmlns="http://www.w3.org/2000/svg" xmlns:xlink="http://www.w3.org/1999/xlink" version="1.1" id="Layer_2" x="0px" y="0px" viewBox="0 0 64 64" style="enable-background:new 0 0 64 64;" xml:space="preserve" width="512" height="512">
<style type="text/css">
	.st0{fill:#633D18;}
</style>
<g>
	<path class="st0" d="M54,36l-0.2-0.4c0.7-1.7,0.6-3.6-0.4-5.1c-0.8-1.3-2.2-2.3-3.7-2.6l-9-2.2c-0.2,0-0.3,0-0.5,0l-5,1.2   c-0.6-1.2-1.5-2.1-2.7-2.6l-8.5-4c-0.1-0.1-0.3-0.1-0.5-0.1l-9.2,0.4c-1.6,0-3.1,0.7-4.1,1.9c-1.2,1.3-1.7,3.2-1.4,5   c-1.7,1.7-1.9,4.3-0.6,6.3l0.1,0.1c0.3,0.5,0.8,0.9,1.4,1.1l0.7,2c0.3,0.8,1,1.5,1.8,1.7l1.2,2.4c0.3,0.6,0.8,1,1.3,1.3l1.1,2   c0.5,1,1.4,1.8,2.5,2.1c0.9,0,1.7-0.3,2.4-0.8l1.9-1.6c0.1-0.1,0.2-0.2,0.2-0.3c0.6-0.1,1.1-0.4,1.5-0.8l2.4-2.2   c0.2,0.3,1.8,1,2,1.3L29,42c0.4,0.4,1,0.7,1.5,0.8l1.1,1.9c0.5,0.8,1.2,1.3,2.1,1.4l1.7,2.1c0.4,0.5,0.9,0.8,1.6,1l0.1,0.5   c0.5,1.9,2.4,3.1,4.4,2.7l0.1,0c0.8-0.2,1.4-0.7,1.9-1.3l1.5-1.9c0.1-0.1,0.1-0.2,0.2-0.4c0.5-0.2,1-0.6,1.3-1.1l0.9-1.4   c0.9,0,1.7-0.4,2.2-1.1l1.7-2.1c0.2,0,0.4,0,0.7,0c0.8-0.1,1.4-0.5,1.9-1.1C55.1,40,55.2,37.7,54,36z"/>
	<path d="M61.7,6.7l-1.4-1.4L57,8.6V5h-2v5.6l-2,2V9h-2v5.6l-2,2V13h-2v5.6l-2,2V17h-2v5.6l-2,2l-2-2V17h-2v3.6l-2-2V13h-2v3.6l-2-2   V9h-2v3.6l-3.3-3.3C25.5,9.1,25.3,9,25,9h-0.4l-2.7-4.5l-1.7,1L22.2,9h-3.7l-2.7-4.5l-1.7,1L16.2,9h-3.7L9.9,4.5l-1.7,1L10.2,9H6.6   L3.9,4.5l-1.7,1L4.2,9H2v2h2.2l-2.1,3.5l1.7,1L6.6,11h3.7l-2.1,3.5l1.7,1l2.7-4.5h3.7l-2.1,3.5l1.7,1l2.7-4.5h3.7l-2.1,3.5l1.7,1   l2.7-4.5h0l3,3H24v2h5.6l2,2H28v2h5.6l5.5,5.5l-3.5,0.9c-0.6-1.2-1.6-2.2-2.8-2.8l-8.9-4.2c-0.1-0.1-0.3-0.1-0.5-0.1l-9.9,0.5   c-3.3,0.2-5.9,3-5.7,6.3c0,0.3,0.1,0.6,0.1,0.9c-1.7,1.8-2,4.5-0.6,6.6l0.1,0.1c0.4,0.5,0.9,0.9,1.4,1.2l0.7,2.1   c0.3,0.9,1,1.6,1.9,1.8l1.3,2.5c0.3,0.6,0.9,1.1,1.6,1.4c0.3,0.6,0.8,1.7,1,2.2c0.6,1.1,1.6,1.9,2.9,2.2c0.2,0,0.5,0.1,0.7,0.1   c1,0,1.9-0.4,2.6-1c0.4-0.4,1.4-1.4,1.9-2c0.7-0.1,1.4-0.4,1.9-0.9l1.8-1.8c0.2,0.3,0.4,0.6,0.7,0.8l0.1,0.1   c0.5,0.5,1.1,0.8,1.8,0.9l0.9,1.7l-7.4,7.5l-2.3-3.9l-1.7,1l2.1,3.5h-2.7l-2.7-4.5l-1.7,1l2.1,3.5h-3.7l-2.7-4.5l-1.7,1l2.1,3.5   H6.6l-2.7-4.5l-1.7,1L4.2,53H2v2h2.2l-2.1,3.5l1.7,1L6.6,55h3.7l-2.1,3.5l1.7,1l2.7-4.5h3.7l-2.1,3.5l1.7,1l2.7-4.5h2.7l-2.1,3.5   l1.7,1l2.9-4.9l2.2-2.2V56h2v-5.6l4.1-4.1c0.3,0.1,0.5,0.2,0.8,0.2l1.7,2.2c0.5,0.6,1.3,1,2.1,1.1c0.3,0.6,0.8,1.5,1.1,1.9   c0.7,1,1.9,1.6,3.1,1.6h0c1.3,0,2.4-0.6,3.2-1.6c0.3-0.5,1.1-1.7,1.5-2.3c0.7-0.2,1.4-0.7,1.7-1.3l0.9-1.5c0.9,0,1.8-0.4,2.3-1.1   l1.6-2.1c0.2,0,0.4,0,0.6,0c0.9-0.1,1.7-0.5,2.2-1.2c1.3-1.8,1.4-4.3,0.1-6.1l-0.2-0.3c1.3-3-0.1-6.6-3.2-7.9   c-0.3-0.1-0.6-0.2-0.9-0.3l-7.9-2l1.5-1.5H50v-2h-3.6l2-2H54v-2h-3.6l2-2H58v-2h-3.6l2-2H62v-2h-3.6L61.7,6.7z M10.4,23.5   c0.7-1,1.9-1.7,3.1-1.7l9.6-0.5l8.7,4.1c0.7,0.3,1.2,0.8,1.6,1.5l-2.3,0.6c-2.2,0.5-3.8,2.2-4.4,4.4l-1-1.4c0,0,0,0,0,0l0,0l-3-3.9   c-0.3-0.4-0.9-0.5-1.3-0.2l-3.8,2.5l-0.2,0L15,25c-0.3-0.5-0.9-0.6-1.4-0.3c0,0,0,0,0,0L10.1,27c0,0-0.1,0-0.1,0c0,0-0.1,0-0.1-0.1   C9.5,25.8,9.7,24.5,10.4,23.5L10.4,23.5z M20.5,38.5c-0.2,0.2-0.5,0.3-0.8,0.2c-0.3-0.1-0.5-0.2-0.7-0.5l-0.9-1.9   c0.6-0.4,1.7-1.2,2.5-1.8c0.5,0.9,1.2,2,1.6,2.6L20.5,38.5z M15.2,40.8c-0.3-0.1-0.6-0.3-0.7-0.5l-0.9-1.7c0.2-0.1,0.5-0.2,0.7-0.4   l1.7-1.5h0l1.2,2.4c0.1,0.1,0.1,0.2,0.2,0.3L16,40.6C15.8,40.8,15.5,40.9,15.2,40.8z M16.9,34.6c-0.3,0.2-0.8,0.1-1-0.2   c-0.3-0.4-1-1.6-1.5-2.5l2.7-1l2.1,2C18.4,33.6,17.4,34.3,16.9,34.6z M19.2,30.2l2.5-1.7l1.7,2.2L21,31.8L19.2,30.2z M13.4,30.2   L12,28.2l1.8-1.2l1.7,2.5L13.4,30.2z M12.8,33.2c0.5,0.8,1.1,1.9,1.5,2.4L13,36.7c-0.4,0.4-1.1,0.3-1.4-0.1   c-0.1-0.1-0.1-0.2-0.2-0.3l-0.5-1.4c0.2-0.1,0.5-0.2,0.7-0.4C12,34,12.4,33.6,12.8,33.2z M23.8,36c-0.3-0.5-1-1.6-1.5-2.6l2.5-1.2   l1.9,2.6c-0.6,0.5-1.4,1.1-1.8,1.3C24.4,36.4,24,36.3,23.8,36z M8.9,28.7C9,28.8,9.2,28.9,9.3,29c0.3,0.1,0.6,0.1,0.9,0.1l1.5,2.3   c-0.5,0.6-1.2,1.3-1.5,1.6C10.1,33,9.9,33.1,9.7,33c-0.3,0-0.6-0.2-0.8-0.5l-0.1-0.2C8.1,31.3,8.1,29.8,8.9,28.7z M20.1,44.6   c-0.4,0.4-1,0.6-1.6,0.4c-0.6-0.1-1.2-0.5-1.4-1.1c-0.1-0.3-0.4-0.8-0.6-1.3c0.3-0.1,0.6-0.3,0.9-0.5l1.8-1.5c0,0,0.1,0,0.1,0   s0.1,0,0.1,0l0.9,1.8c0.2,0.4,0.5,0.7,0.8,1C20.7,43.9,20.3,44.3,20.1,44.6z M23.8,41.7c-0.2,0.2-0.6,0.4-0.9,0.3   c-0.3,0-0.6-0.2-0.8-0.5l-0.7-1.3c0.1-0.1,0.2-0.2,0.3-0.2l2.1-1.8c0.2,0,0.4,0.1,0.5,0.1c0.5,0,1-0.1,1.4-0.4   c0.1-0.1,0.3-0.2,0.5-0.3c-0.1,0.6-0.1,1.1,0,1.7L23.8,41.7z M29.2,40.8c-0.9-0.9-1.2-2.4-0.7-3.6c0.1,0.1,0.3,0.1,0.5,0.1   c0.3,0,0.6,0,0.9-0.1l1.9,2c-0.4,0.7-0.9,1.5-1.1,1.8c-0.1,0.1-0.3,0.2-0.5,0.2c-0.3,0-0.6-0.1-0.8-0.3L29.2,40.8z M44.8,47.5   c-0.3,0-0.7-0.1-0.9-0.4L43.1,46c0.1-0.1,0.2-0.2,0.3-0.3l1.5-1.9l0.8,1.3c0.2,0.3,0.4,0.5,0.7,0.8L45.6,47   C45.5,47.3,45.2,47.5,44.8,47.5z M40.3,44.5L39,42.7c0.5-0.5,1.4-1.5,2-2.2c0.6,0.7,1.5,1.7,2,2.2l-1.3,1.7   C41.4,44.9,40.7,44.9,40.3,44.5C40.3,44.5,40.3,44.5,40.3,44.5z M34,44.1c-0.2,0.3-0.5,0.4-0.8,0.4c-0.3,0-0.6-0.2-0.8-0.4   l-0.7-1.4c0.2-0.1,0.4-0.3,0.5-0.5c0.3-0.5,0.7-1,1-1.5c0.6,0.7,1.4,1.6,1.9,2.1L34,44.1z M37,37.7l2.5,1.5c-0.7,0.8-1.5,1.8-2,2.1   c-0.3,0.3-0.7,0.3-1.1,0c-0.4-0.4-1.3-1.3-2-2.1L37,37.7z M45.5,41.4c-0.3,0.3-0.7,0.3-1.1,0c-0.4-0.4-1.3-1.3-2-2.1l2.5-1.5   l2.5,1.5C46.8,40,45.9,41,45.5,41.4z M48.9,37.8l-2-1.3l2.1-2.1l1.8,1.8L48.9,37.8z M41,37.8l-2.1-1.3l2.1-2.1l2.1,2.1L41,37.8z    M33.2,37.7L31.4,36l1.6-1.6l2.1,2.1L33.2,37.7z M35,45.9c0.2-0.2,0.4-0.3,0.6-0.5l1.5-1.8c0,0,0.1,0,0.1,0l1.5,2.1   c0.1,0.1,0.2,0.2,0.3,0.3l-1.1,1.4c-0.4,0.4-1,0.5-1.5,0.1c0,0-0.1-0.1-0.1-0.1L35,45.9z M41,51.2c-0.6,0-1.1-0.3-1.5-0.7   c-0.2-0.2-0.5-0.8-0.8-1.3c0.2-0.2,0.5-0.4,0.6-0.6l1.5-1.9c0,0,0.1,0,0.1,0s0.1,0,0.1,0l1.3,1.6c0.3,0.3,0.6,0.6,1,0.8   c-0.3,0.5-0.7,1.1-0.9,1.3C42.2,51,41.6,51.3,41,51.2L41,51.2z M48.2,44.5c-0.3,0-0.6-0.2-0.8-0.5l-0.7-1c0.1,0,0.1-0.1,0.2-0.1   c0.5-0.5,1.4-1.5,2.1-2.3c0.5,0.6,1,1.2,1.5,1.7L49,44.1C48.8,44.4,48.5,44.5,48.2,44.5L48.2,44.5z M53.4,40.8   c-0.2,0.2-0.5,0.4-0.8,0.4c-0.2,0-0.4,0-0.5-0.2c-0.4-0.3-1.1-1.2-1.7-1.9l2.4-1.9c0.1,0,0.2,0,0.3,0c0.2,0,0.3-0.1,0.5-0.1   C54.3,38.3,54.2,39.7,53.4,40.8z M53.1,31.7c0.5,1.2,0.4,2.5-0.2,3.6c0,0,0,0.1-0.1,0.1c0,0-0.1,0-0.1,0l-3-3c-0.4-0.4-1-0.4-1.4,0   l-3.2,3.2c0,0-0.1,0-0.2,0l-3.2-3.2c-0.4-0.4-1-0.4-1.4,0l-3.2,3.2c0,0-0.1,0-0.2,0l-3.2-3.2c-0.4-0.4-1-0.4-1.4,0l-3,3   c0,0-0.1,0-0.1,0c0,0-0.1,0-0.1-0.1c-1.1-1.9-0.4-4.4,1.5-5.5c0.3-0.2,0.7-0.3,1-0.4L41,27l9.4,2.3C51.6,29.7,52.6,30.5,53.1,31.7z   "/>
</g>
</svg>
