<svg height="512pt" viewBox="0 -48 512.00024 512" width="512pt" xmlns="http://www.w3.org/2000/svg"><path d="m87.464844 234.261719 22.773437-10.835938c13.308594-6.328125 18.875-22.324219 12.363281-35.550781-5.648437-11.472656-5.648437-24.917969 0-36.394531l2.878907-5.84375c5.644531-11.472657 5.644531-24.917969 0-36.394531l-2.878907-5.84375c-5.648437-11.472657-5.648437-24.917969 0-36.394532 6.851563-13.917968 2.757813-30.746094-9.71875-39.960937l-18.964843-14.007813c-9.902344-7.316406-23.417969-7.316406-33.324219 0l-18.960938 14.007813c-12.476562 9.214843-16.570312 26.042969-9.71875 39.960937 5.648438 11.476563 5.648438 24.921875 0 36.394532l-2.878906 5.84375c-5.648437 11.476562-5.648437 24.921874 0 36.394531l2.878906 5.84375c5.648438 11.476562 5.648438 24.921875 0 36.394531-6.511718 13.226562-.949218 29.222656 12.363282 35.550781l22.773437 10.835938c6.457031 3.070312 13.953125 3.070312 20.414063 0zm0 0" fill="#89d47f"/><path d="m77.257812 240.84375c-4.144531 0-7.5-3.355469-7.5-7.5v-149.207031c0-4.144531 3.355469-7.5 7.5-7.5 4.140626 0 7.5 3.355469 7.5 7.5v149.207031c0 4.144531-3.359374 7.5-7.5 7.5zm0 0" fill="#5ec783"/><path d="m302.304688 101.589844c0 28.855468-23.390626 52.246094-52.246094 52.246094-28.851563 0-52.242188-23.390626-52.242188-52.246094 0-28.851563 23.390625-52.242188 52.242188-52.242188 28.855468 0 52.246094 23.390625 52.246094 52.242188zm0 0" fill="#efd176"/><path d="m218.238281 251.1875-47.25-47.253906c-14.054687-14.050782-4.101562-38.082032 15.773438-38.082032 16.582031 0 29.289062-14.734374 26.851562-31.136718-3.230469-21.765625 18.738281-38.589844 38.90625-29.796875l17.347657 7.5625c10.40625 4.539062 22.539062 2.121093 30.410156-6.0625l14.78125-15.359375c16.351562-16.992188 44.910156-10.496094 52.304687 11.898437 5.707031 17.292969 26.484375 24.171875 41.382813 13.703125 17.460937-12.265625 41.617187-.683594 42.988281 20.609375l.605469 9.40625c.777344 12.097657 9.476562 22.210938 21.320312 24.785157 28.542969 6.207031 40.457032 40.375 21.964844 62.984374l-22.636719 27.671876zm0 0" fill="#89d47f"/><path d="m281.96875 185.753906c12.054688-12.054687 43.167969-.492187 61.777344 18.117188 12.054687 12.054687 12.054687 31.601562 0 43.65625-12.054688 12.054687-31.601563 12.054687-43.65625 0-18.609375-18.609375-30.175782-49.71875-18.121094-61.773438zm0 0" fill="#c47b46"/><path d="m463.40625 117.410156c12.054688 12.054688.488281 43.164063-18.121094 61.773438-12.054687 12.054687-31.597656 12.054687-43.65625 0-12.054687-12.054688-12.054687-31.597656 0-43.652344 18.613282-18.613281 49.71875-30.175781 61.777344-18.121094zm0 0" fill="#d2996f"/><path d="m41.246094 209.847656c-7.625 7.621094-6.378906 20.222656 2.476562 26.375 44.570313 30.964844 106.261719 26.585938 145.988282-13.144531 39.726562-39.726563 44.109374-101.414063 13.144531-145.988281-6.152344-8.855469-18.753907-10.101563-26.378907-2.476563zm0 0" fill="#de5c6e"/><path d="m52.824219 198.269531c30.949219 30.949219 81.128906 30.949219 112.078125 0 30.949218-30.949219 30.949218-81.128906 0-112.078125zm0 0" fill="#e3748e"/><path d="m390.003906 407.917969h-276.183594c-21.488281 0-42.066406-8.695313-57.039062-24.105469-31.601562-32.527344-49.28125-76.089844-49.28125-121.4375v-48.179688c0-11.0625 9.570312-19.695312 20.574219-18.558593l452.722656 46.820312c9.507813.984375 16.734375 8.996094 16.734375 18.558594 0 43.800781-16.492188 85.996094-46.199219 118.183594l-2.886719 3.125c-15.054687 16.316406-36.242187 25.59375-58.441406 25.59375zm0 0" fill="#f7ef87"/><path d="m185.441406 211.914062-157.367187-16.277343c-11.003907-1.136719-20.574219 7.496093-20.574219 18.558593v48.179688c0 45.347656 17.679688 88.914062 49.28125 121.4375 14.972656 15.410156 35.550781 24.105469 57.039062 24.105469h106.679688c-26.761719-42.023438-48.035156-137.492188-35.058594-196.003907zm0 0" fill="#efd176"/><path d="m272.355469 311.238281c0 10.957031-8.882813 19.839844-19.839844 19.839844s-19.839844-8.882813-19.839844-19.839844 8.882813-19.839843 19.839844-19.839843 19.839844 8.882812 19.839844 19.839843zm0 0" fill="#efd176"/><path d="m126.691406 311.238281c0 10.957031-8.882812 19.839844-19.839844 19.839844-10.957031 0-19.839843-8.882813-19.839843-19.839844s8.882812-19.839843 19.839843-19.839843c10.957032 0 19.839844 8.882812 19.839844 19.839843zm0 0" fill="#f7ef87"/><path d="m418.019531 311.238281c0 10.957031-8.882812 19.839844-19.839843 19.839844-10.957032 0-19.839844-8.882813-19.839844-19.839844s8.882812-19.839843 19.839844-19.839843c10.957031 0 19.839843 8.882812 19.839843 19.839843zm0 0" fill="#efd176"/><path d="m121.46875 182.199219c-4.140625 0-7.5-3.355469-7.5-7.5v-5.835938c0-4.144531 3.359375-7.5 7.5-7.5 4.144531 0 7.5 3.355469 7.5 7.5v5.835938c0 4.144531-3.355469 7.5-7.5 7.5zm0 0" fill="#fcf2d0"/><path d="m142.675781 157.851562h-3.59375c-4.140625 0-7.5-3.355468-7.5-7.5 0-4.144531 3.359375-7.5 7.5-7.5h3.59375c4.144531 0 7.5 3.355469 7.5 7.5 0 4.144532-3.359375 7.5-7.5 7.5zm0 0" fill="#fcf2d0"/><g fill="#5ec783"><path d="m266.164062 167.835938c-1.917968 0-3.839843-.734376-5.304687-2.195313l-13.648437-13.648437c-2.929688-2.929688-2.929688-7.679688 0-10.609376 2.929687-2.925781 7.679687-2.925781 10.609374 0l13.644532 13.648438c2.929687 2.929688 2.929687 7.679688 0 10.609375-1.460938 1.460937-3.382813 2.195313-5.300782 2.195313zm0 0"/><path d="m351.171875 170.582031c-1.921875 0-3.839844-.734375-5.304687-2.199219-2.929688-2.925781-2.929688-7.675781 0-10.605468l10.5625-10.5625c2.929687-2.929688 7.679687-2.929688 10.609374 0 2.929688 2.929687 2.929688 7.679687 0 10.605468l-10.566406 10.5625c-1.460937 1.464844-3.382812 2.199219-5.300781 2.199219zm0 0"/><path d="m444.929688 219.390625h-14.464844c-4.144532 0-7.5-3.355469-7.5-7.5s3.355468-7.5 7.5-7.5h14.464844c4.140624 0 7.5 3.355469 7.5 7.5s-3.359376 7.5-7.5 7.5zm0 0"/></g><path d="m32.621094 352.484375c6.789062 11.238281 14.867187 21.761719 24.160156 31.328125 14.976562 15.410156 35.550781 24.105469 57.039062 24.105469h276.183594c22.199219 0 43.386719-9.277344 58.441406-25.589844l2.886719-3.128906c7.648438-8.285157 14.414063-17.242188 20.257813-26.714844zm0 0" fill="#8eafe2"/><path d="m32.621094 352.484375c6.789062 11.238281 14.867187 21.761719 24.160156 31.328125 14.976562 15.410156 35.550781 24.105469 57.039062 24.105469h106.679688c-8.78125-13.789063-16.972656-33.324219-23.554688-55.433594zm0 0" fill="#6a96d7"/><path d="m501.429688 239.195312c10.351562-12.652343 13.316406-29.425781 7.933593-44.859374-5.382812-15.4375-18.132812-26.726563-34.109375-30.199219-2.710937-.589844-5.269531-1.769531-7.492187-3.417969 2.109375-4.144531 3.878906-8.378906 5.226562-12.59375 4.957031-15.511719 3.4375-28.300781-4.277343-36.015625-6.972657-6.96875-18.089844-8.867187-31.601563-5.519531-10.910156-4.300782-22.925781-2.910156-32.671875 3.9375-5.136719 3.609375-11.507812 4.546875-17.46875 2.574218-5.964844-1.976562-10.515625-6.527343-12.480469-12.492187-4.304687-13.039063-14.867187-22.640625-28.253906-25.683594-13.378906-3.046875-27.058594 1.042969-36.578125 10.933594l-1.550781 1.613281c-6.363281-26.148437-29.964844-45.628906-58.042969-45.628906-19.238281 0-36.878906 9.078125-48.03125 24.214844-3.34375-2.15625-7.1875-3.503906-11.25-3.867188-7.285156-.652344-14.429688 1.945313-19.605469 7.117188l-38.21875 38.21875c-.242187-.535156-.488281-1.070313-.75-1.597656l-2.875-5.847657c-4.589843-9.316406-4.589843-20.445312 0-29.765625 3.148438-6.402344 4.511719-13.535156 3.941407-20.632812-.328126-4.128906-3.949219-7.222656-8.074219-6.875-4.128907.332031-7.207031 3.945312-6.875 8.074218.355469 4.402344-.496094 8.832032-2.453125 12.808594-6.628906 13.46875-6.628906 29.550782.003906 43.015625l2.875 5.847657c1.058594 2.144531 1.855469 4.410156 2.433594 6.746093l-71.074219 71.074219-10.597656-1.09375c5.730469-13.0625 5.453125-28.273438-.867188-41.113281l-2.878906-5.847657c-4.585937-9.316406-4.585937-20.445312 0-29.765624l2.878906-5.847657c6.628907-13.46875 6.628907-29.546875 0-43.015625-5.253906-10.675781-2.121093-23.550781 7.445313-30.621094l18.964844-14.007812c7.296874-5.390625 17.109374-5.390625 24.410156 0l11.726562 8.664062c3.328125 2.460938 8.023438 1.753907 10.488282-1.578124 2.460937-3.328126 1.753906-8.027344-1.578126-10.488282l-11.722656-8.660156c-12.636718-9.332031-29.609375-9.335938-42.238281 0l-18.964844 14.007812c-15.40625 11.382813-20.449219 32.121094-11.992187 49.308594 4.589844 9.320313 4.589844 20.449219 0 29.769532l-2.875 5.847656c-6.628906 13.46875-6.628906 29.546875 0 43.015625l2.875 5.84375c4.589844 9.324219 4.589844 20.453125 0 29.773437-.574219 1.167969-1.058594 2.378906-1.496094 3.601563-5.550781.527343-10.851562 2.820312-15.050781 6.605469-5.488281 4.949218-8.636719 12.027343-8.636719 19.421874v48.179688c0 47.566406 18.253906 92.546875 51.402344 126.664062 16.289062 16.765626 39.039062 26.378907 62.417968 26.378907h276.183594c13.183594 0 26.410156-3.0625 38.253906-8.855469 3.722657-1.820312 5.261719-6.316406 3.441407-10.035156-1.824219-3.71875-6.316407-5.261719-10.035157-3.4375-9.800781 4.796875-20.75 7.332031-31.660156 7.332031h-276.183594c-19.351562 0-38.179687-7.960937-51.660156-21.835937-5.699218-5.867188-10.921875-12.085938-15.640625-18.601563h410.964844c-3.332031 4.511719-6.894531 8.882813-10.703125 13.078125-2.78125 3.066406-2.550781 7.8125.515625 10.59375s7.8125 2.554688 10.59375-.515625c30.402344-33.507813 47.140625-76.878906 47.140625-122.125 0-6.832031-2.605469-13.078125-6.925781-17.753906zm-94.496094-98.359374c13.296875-13.296876 31.179687-20.84375 42.417968-20.84375 3.84375 0 6.910157.882812 8.75 2.722656 3.445313 3.445312 3.667969 11.238281.601563 20.84375-3.414063 10.679687-10.414063 22.019531-18.71875 30.324218-9.113281 9.113282-23.9375 9.113282-33.050781 0-9.113282-9.113281-9.113282-23.9375 0-33.046874zm-156.875-83.992188c24.574218 0 44.578125 19.914062 44.738281 44.449219-5.671875 5.828125-14.46875 7.566406-21.933594 4.3125l-17.347656-7.5625c-10.828125-4.722657-22.714844-3.785157-32.320313 1.972656-2.859374-7.738281-6.515624-15.195313-10.957031-22.289063 8.167969-12.96875 22.292969-20.882812 37.820313-20.882812zm-68.277344 23.074219c2.050781-2.054688 4.773438-3.050781 7.664062-2.785157 2.917969.261719 5.5625 1.804688 7.25 4.238282.179688.253906.339844.515625.515626.769531.035156.054687.070312.113281.109374.164063 6.773438 9.96875 11.730469 20.839843 14.773438 32.269531.0625.308593.148438.613281.25.914062 2.488281 9.683594 3.609375 19.757813 3.296875 30.015625-.675781 21.824219-7.785156 42.429688-20.613281 59.863282l-24.152344-2.5c31.371094-32.074219 32.832031-82.628907 4.390625-116.433594zm-17.15625 17.15625c22.832031 28.15625 21.15625 69.707031-5.027344 95.890625-2.851562 2.851562-5.953125 5.449218-9.230468 7.78125l-81.035157-8.378906zm302.742188 247.910156h-430.515626c-14.246093-24.917969-21.851562-53.222656-21.851562-82.609375v-48.179688c0-3.199218 1.308594-6.140624 3.683594-8.285156 2.375-2.140625 5.441406-3.136718 8.621094-2.8125l24.863281 2.574219 427.855469 44.25c5.707031.589844 10.007812 5.359375 10.007812 11.097656 0 29.773438-7.902344 58.664063-22.664062 83.964844zm-180.09375-153.929687c3.445312-3.445313 11.238281-3.667969 20.84375-.597657 10.679687 3.414063 22.019531 10.410157 30.324218 18.71875 3.25 3.25 5.414063 7.304688 6.332032 11.675781l-57.007813-5.894531c-4.054687-10.738281-4.328125-20.0625-.492187-23.902343zm202.546874 38.644531-4.820312 5.890625c-1.117188-.269532-2.261719-.46875-3.433594-.589844l-121.433594-12.558594c-.746093-8.953125-4.59375-17.378906-11.085937-23.871094-10.066406-10.066406-23.320313-18.230468-36.363281-22.398437-15.511719-4.957031-28.300782-3.4375-36.015625 4.277344-7.257813 7.257812-8.996094 18.882812-5.21875 32.820312l-59.480469-6.152343c11.5625-18.28125 17.984375-39.175782 18.664062-61.152344.320313-10.449219-.683593-20.726563-2.917968-30.675782 5.25-4.628906 13.339844-7.1875 21.808594-3.496093l17.347656 7.5625c13.21875 5.765625 28.816406 2.652343 38.8125-7.734375l14.78125-15.359375c5.84375-6.070313 14.230468-8.578125 22.441406-6.710938 8.214844 1.871094 14.695312 7.761719 17.335938 15.757813 3.472656 10.519531 11.496093 18.550781 22.011718 22.03125 3.613282 1.199218 7.3125 1.789062 10.980469 1.789062 1.53125 0 3.054687-.125 4.5625-.328125-.492187.472657-.988281.945313-1.46875 1.425781-14.960937 14.960938-14.960937 39.300782 0 54.261719 7.480469 7.480469 17.304687 11.222657 27.128906 11.222657 9.828125 0 19.652344-3.742188 27.132813-11.222657 3.34375-3.339843 6.46875-7.039062 9.3125-10.960937 3.667968 2.511718 7.804687 4.316406 12.167968 5.265625 10.832032 2.355469 19.480469 10.015625 23.128907 20.480469 3.652343 10.46875 1.640625 21.84375-5.378907 30.425781zm0 0"/></svg>