<svg id="filled_outline" height="512" viewBox="0 0 340 340" width="512" xmlns="http://www.w3.org/2000/svg" data-name="filled outline"><path d="m107.515 109.987s13.391-14.067 42.37-17.931c0 0-7.127 41.517-50.252 37.824z" fill="#ffd98d"/><path d="m99.633 129.88s-.247-.023-.692-.088a24.471 24.471 0 0 1 -20.893-24.915 69.085 69.085 0 0 1 6.936-27.877s29.612 14.543 16.133 50.46z" fill="#ffd98d"/><path d="m138.011 30.663s-45.592 21.627-30.5 79.324c.004 0 51.241-27.787 30.5-79.324z" fill="#ffd98d"/><path d="m92.518 162.526s38 18.288 57.367-36.887c0 0-44.471-10.9-54.506 24.987z" fill="#ffd98d"/><path d="m82.268 235.984s7.067-37.672 60.686-37.35c0 0-7.325 61.5-60.57 43.79z" fill="#ffd98d"/><path d="m88.075 271.255s6.345-34.82 54.879-31.831c0 0 2.927 45.223-53.876 35.925z" fill="#ffd98d"/><path d="m88.253 187.937s8.5-35.669 61.632-20.858c0 0-19.206 46.224-63.431 32.8z" fill="#ffd98d"/><path d="m35.566 193.9s40.348-1.558 46.818 39.477l-1.258 26.783s-38.816-23.086-45.56-66.26z" fill="#ffd98d"/><path d="m35.566 238.32s34.763-6.931 44.151 27.743l1.409 23.577a16.38 16.38 0 0 0 -1.909-5.589 19.468 19.468 0 0 0 -15.494-9.98c-8.843-.832-23.996-4.959-28.157-35.751z" fill="#ffd98d"/><path d="m80.559 318.546c-.941-13.613-2.44-44.156.567-71.216 0 0 12.214 35.083 14.878 70.122a7.738 7.738 0 0 1 -7.724 8.307 7.74 7.74 0 0 1 -7.721-7.213z" fill="#f4b271"/><g fill="#ffd98d"><path d="m86.264 201.222s-.29.094-.824.238a30.079 30.079 0 0 1 -35.719-17.929 84.924 84.924 0 0 1 -5.761-34.837s40.5 1.977 42.8 49.074z"/><path d="m91.533 165.694s-.287.045-.81.1a28.605 28.605 0 0 1 -30.823-22.229 80.771 80.771 0 0 1 -.147-33.578s37.728 7.974 32.77 52.539z"/><path d="m262.328 109.987s13.391-14.067 42.372-17.931c0 0-7.126 41.517-50.251 37.824z"/><path d="m254.446 129.88s-.247-.023-.692-.088a24.472 24.472 0 0 1 -20.894-24.915 69.089 69.089 0 0 1 6.94-27.877s29.611 14.543 16.132 50.46z"/><path d="m292.823 30.663s-45.592 21.627-30.5 79.324c.005 0 51.242-27.787 30.5-79.324z"/><path d="m247.331 162.526s38 18.288 57.366-36.887c0 0-44.47-10.9-54.5 24.987z"/><path d="m237.08 235.984s7.068-37.672 60.687-37.35c0 0-7.325 61.5-60.57 43.79z"/><path d="m242.888 271.255s6.344-34.82 54.879-31.831c0 0 2.927 45.223-53.877 35.925z"/><path d="m243.066 187.937s8.5-35.669 61.631-20.858c0 0-19.206 46.224-63.43 32.8z"/><path d="m190.379 193.9s40.348-1.558 46.818 39.477l-1.259 26.779s-38.815-23.082-45.559-66.256z"/><path d="m190.379 238.32s34.762-6.931 44.151 27.743l1.408 23.577a16.362 16.362 0 0 0 -1.908-5.589 19.469 19.469 0 0 0 -15.5-9.98c-8.837-.832-23.99-4.959-28.151-35.751z"/></g><path d="m235.371 318.546c-.94-13.613-2.439-44.156.567-71.216 0 0 12.215 35.083 14.878 70.122a7.737 7.737 0 0 1 -7.723 8.307 7.742 7.742 0 0 1 -7.722-7.213z" fill="#f4b271"/><path d="m241.077 201.222s-.29.094-.824.238a30.08 30.08 0 0 1 -35.72-17.929 84.941 84.941 0 0 1 -5.761-34.837s40.5 1.977 42.8 49.074z" fill="#ffd98d"/><path d="m246.345 165.694s-.286.045-.809.1a28.6 28.6 0 0 1 -30.828-22.229 80.771 80.771 0 0 1 -.147-33.578s37.727 7.974 32.77 52.539z" fill="#ffd98d"/><path d="m39.265 233.867a4.81 4.81 0 0 1 -4.032-1.682 41.978 41.978 0 0 1 -4.242-5.977 4 4 0 1 0 -6.91 4.031 50.092 50.092 0 0 0 5.051 7.12 12.906 12.906 0 0 0 10.662 4.49 40.31 40.31 0 0 1 16.7 2.215 3.986 3.986 0 0 0 1.21.486c7.417 3.153 14.461 9.559 17.987 21.983-.117 2.722-.2 5.432-.26 8.112a20.789 20.789 0 0 0 -10.042-4.4q-.639-.095-1.288-.156c-7.043-.662-17.01-3.564-22.222-21.041a4 4 0 0 0 -7.666 2.286c4.882 16.371 14.685 25.361 29.137 26.72.292.028.582.062.875.106a13.454 13.454 0 0 1 11.147 11.332c.144 11.752.7 22.127 1.2 29.331a11.741 11.741 0 1 0 23.423-1.674 285.136 285.136 0 0 0 -7.8-45.976c.885-3.452 5.239-16.641 21.381-23.592q1.621-.537 3.182-1.216a62.036 62.036 0 0 1 20.417-3.122c.554 0 1.121 0 1.689.016-.387 4.7-1.984 13.139-8.2 19.713-6.143 6.5-15.47 9.778-27.789 9.634a4 4 0 1 0 -.068 8h.651c14.293 0 25.4-4.084 33.019-12.141 9.264-9.8 10.417-22.48 10.5-27.323a39.76 39.76 0 0 0 6.364-7.986 4 4 0 1 0 -6.91-4.031 31.529 31.529 0 0 1 -4.968 6.218 89.107 89.107 0 0 0 -10.04.094c12.764-14.627 15.384-35.327 15.5-36.333a4 4 0 0 0 -3.948-4.473h-.694c-3.071 0-5.986.13-8.768.361a73.923 73.923 0 0 0 17.421-21.1 16.424 16.424 0 0 1 6.4-6.36l3.077-1.7a4 4 0 1 0 -3.872-7l-3.078 1.7a24.418 24.418 0 0 0 -9.507 9.458c-5.982 10.709-22.859 34.132-53.006 26.965q.606-4.119 1.285-8.393a28.832 28.832 0 0 1 7.467-11.772c8.247-7.932 20.458-10.822 36.289-8.592a4 4 0 0 0 1.116-7.922q-2.082-.294-4.059-.475c8.292-6.923 15.046-17.507 20.175-31.662 1.42-1.067 4.159-3.153 6.539-5.129a4 4 0 0 0 -5.112-6.154c-1.969 1.636-4.269 3.4-5.716 4.5a73.715 73.715 0 0 0 -23.1-.637 44.112 44.112 0 0 0 -20.576 8.035c1.7-5.625 3.52-11 5.476-16.006a82.993 82.993 0 0 0 10.387-7.521 81.135 81.135 0 0 1 23.26-8.211 50.9 50.9 0 0 1 -6.379 12.554 4 4 0 1 0 6.539 4.609 58.1 58.1 0 0 0 9.285-21.446 4 4 0 0 0 -4.471-4.642 101.88 101.88 0 0 0 -15.017 3.159c9.717-13.113 18.562-34.3 7.383-62.081a4 4 0 0 0 -5.426-2.121 67.563 67.563 0 0 0 -35.778 58.332 44.758 44.758 0 0 0 -12.234-11.12 4 4 0 0 0 -4.1 6.869c5.319 3.176 21.04 14.858 15.119 38.746l-2.16 5.451a20.47 20.47 0 0 1 -15.089-20.348q.012-.4.029-.8a90.684 90.684 0 0 0 -6.408-38.053q-.538-1.34-1.105-2.646a4 4 0 1 0 -7.339 3.182c.349.806.69 1.626 1.024 2.453a82.755 82.755 0 0 1 5.835 34.723c-.012.305-.023.607-.032.9a28.406 28.406 0 0 0 .814 7.647 49.258 49.258 0 0 0 -14.288-6.315 4 4 0 0 0 -4.749 3.124 84.551 84.551 0 0 0 .164 35.235 32.966 32.966 0 0 0 .886 3.191 54.145 54.145 0 0 0 -10.6-2.69c-1.425-2.2-4.151-6.518-6.731-11.176a4 4 0 0 0 -7 3.875c2.961 5.348 6.027 10.143 7.378 12.212a88.4 88.4 0 0 0 6.071 35.168 34.149 34.149 0 0 0 3.533 6.634 54.267 54.267 0 0 0 -14.126-1.735 4 4 0 0 0 -3.8 4.614 91.878 91.878 0 0 0 16.568 39.579 50.439 50.439 0 0 0 -8.91-.233zm55.184-96.331a47.107 47.107 0 0 0 -2.062-5.34 28.115 28.115 0 0 0 3.233 1.016q-.596 2.148-1.171 4.324zm-8.22 38.074a51.577 51.577 0 0 0 -2.857-5.959 32.568 32.568 0 0 0 3.891.287q-.532 2.849-1.034 5.672zm4.806 144.946a3.744 3.744 0 0 1 -6.485-2.285c-.349-5.041-.832-13.361-1.064-23.309l.05-4.012c0-.079 0-.157 0-.237-.026-.554-.083-1.1-.149-1.643-.069-6.073-.03-12.582.193-19.214 3.375 13.05 7.12 30.552 8.438 47.9a3.67 3.67 0 0 1 -.983 2.8zm28.855-85.211a30.584 30.584 0 0 1 -6.654 3.8q-.816.3-1.6.615a37.141 37.141 0 0 1 -18.475 1.255 4 4 0 1 0 -1.285 7.9q2.292.372 4.511.548c-.721.687-1.4 1.374-2.018 2.051a44.449 44.449 0 0 0 -5.466 7.358c-1.74-6.061-3.145-10.338-3.725-12.053.115-1.44.389-4.76.851-9.525a4.081 4.081 0 0 0 .168-.554c.267-1.359 6.862-32.249 51.952-34.027-1.718 7.823-6.524 23.815-18.259 32.632zm-20.842-29.085a52.871 52.871 0 0 0 -9.513 8.247c-.394.436-.769.872-1.137 1.308.426-3.454.9-7.1 1.419-10.9a57.562 57.562 0 0 0 9.231 1.345zm45.421-77.56c-6.921 17.373-16.5 27.951-28.527 31.47a4.065 4.065 0 0 0 -.816.348 41.07 41.07 0 0 0 -19.66 9.417c1.168-6.166 2.448-12.38 3.85-18.511 7.315-25.438 34.337-24.278 45.153-22.724zm-8.584-92.226c6.031 18.242 3.226 35.225-8.365 50.538a78.862 78.862 0 0 1 -17.389 16.56c-8.266-40.819 15.963-60.83 25.754-67.094zm-72.085 106.226a75.625 75.625 0 0 1 -.894-27.531 43.041 43.041 0 0 1 12.481 7.414c10.553 9.058 14.992 22.22 13.2 39.128l-.071.229a24.585 24.585 0 0 1 -15.279-4.79q-1.1-.962-2.22-1.827a24.483 24.483 0 0 1 -7.217-12.623zm-1.392 16.28c1.013.621 1.975 1.289 2.913 1.979a32.819 32.819 0 0 0 3.6 2.965c8.366 7.811 13 19.034 13.808 33.477l-.087.6a26.032 26.032 0 0 1 -29.206-15.952 79.793 79.793 0 0 1 -5.544-28.763 45.475 45.475 0 0 1 14.516 5.694zm-21.974 39.169c7.284.777 21.366 3.9 30.333 16.239a4 4 0 0 0 6.472-4.7c-.861-1.185-1.763-2.292-2.689-3.34 1.017.093 2.04.156 3.071.156a34.013 34.013 0 0 0 3.878-.237c-2.961 22.242-4.218 38.808-4.357 40.7-.119 1.072-.228 2.149-.334 3.229a36.921 36.921 0 0 0 -15.767-12.749c-10.587-12.079-17.509-25.276-20.607-39.298z" fill="#24242b"/><path d="m307.434 232.954-.233.15a39.457 39.457 0 0 0 -15.638 19.846c-4.64 12.666-15.355 19.275-31.846 19.642a4 4 0 0 0 .087 8h.091c25.051-.558 35.133-13.842 39.18-24.888a31.526 31.526 0 0 1 12.46-15.874l.231-.15a4 4 0 1 0 -4.332-6.724z" fill="#24242b"/><path d="m186.1 182.889-.207-.238a4 4 0 1 0 -6.039 5.246l.208.239a31.922 31.922 0 0 0 18.556 10.487c13.523 2.354 30.434 10.317 34.532 34.827-.754 7.615-1.127 12.535-1.2 13.518q-.282 2.544-.513 5.12c-9.131-7.081-25.468-22.151-33.4-44.293a4 4 0 1 0 -7.531 2.7 97.243 97.243 0 0 0 12.422 23.548 48.194 48.194 0 0 0 -13.333.354 4 4 0 0 0 -3.182 4.459c3.289 24.337 13.97 37.524 31.747 39.2a15.5 15.5 0 0 1 11.987 7.269c.047 13.454.677 25.455 1.233 33.5a11.742 11.742 0 1 0 23.424-1.674 285.213 285.213 0 0 0 -7.8-45.975c.893-3.471 5.326-16.817 21.738-23.729.979-.335 1.945-.7 2.892-1.116a60.022 60.022 0 0 1 17.55-3.038 4 4 0 0 0 -.278-8c-.909.032-1.8.083-2.673.142 12.75-14.608 15.376-35.28 15.5-36.329a4 4 0 0 0 -3.948-4.473h-.694c-3.083 0-6.008.131-8.8.364a73.769 73.769 0 0 0 17.283-20.797 13.184 13.184 0 0 1 6.607-5.777l1.752-.692a4 4 0 1 0 -2.939-7.44l-1.75.692a21.2 21.2 0 0 0 -10.636 9.281c-5.992 10.609-22.867 33.81-52.848 26.685q.608-4.128 1.288-8.413c.925-3.169 8.771-25.546 44.393-20.249a4 4 0 0 0 1.178-7.912c-1.648-.246-3.241-.432-4.791-.574 8.552-7.137 15.476-18.114 20.644-32.841a4 4 0 0 0 -2.823-5.209 72.985 72.985 0 0 0 -25-1.038 44.116 44.116 0 0 0 -20.577 8.035c1.751-5.805 3.637-11.344 5.665-16.486 2.413-2.207 13.3-11.248 33.457-15.246a50.453 50.453 0 0 1 -7.056 13.493 4 4 0 0 0 6.416 4.78 58.106 58.106 0 0 0 10.086-22.556 4 4 0 0 0 -4.472-4.642 101.832 101.832 0 0 0 -15.049 3.151c8.362-11.312 15.2-27.22 11.707-47.256a4 4 0 1 0 -7.881 1.375c4.342 24.873-9.225 42.62-21.569 53.226a68.143 68.143 0 0 0 -6.572 4.163c-7.319-38.217 14.327-58.2 24.4-65.22a32.273 32.273 0 0 0 10.796-12.765l4.13-8.829a4 4 0 0 0 -7.246-3.389l-4.13 8.83a24.27 24.27 0 0 1 -8.125 9.59 67.775 67.775 0 0 0 -29.332 54.407 44.139 44.139 0 0 0 -13.737-11.964 4 4 0 0 0 -5.371 1.861 72.922 72.922 0 0 0 -7.327 29.489 28.487 28.487 0 0 0 .782 7.514 51.667 51.667 0 0 0 -11.107-5.305 4 4 0 1 0 -2.522 7.592c9.424 3.131 30.9 13.986 27.381 47.147l-.071.229a24.533 24.533 0 0 1 -15.761-5.206c-.184-.156-.368-.311-.553-.463a24.893 24.893 0 0 1 -8.482-13.952 73.13 73.13 0 0 1 -1.343-8.786 39.089 39.089 0 0 0 -8.48-20.819l-3.28-4.119a4 4 0 0 0 -6.258 4.985l3.281 4.118a31.123 31.123 0 0 1 6.771 16.561 80.791 80.791 0 0 0 1.49 9.753 33.62 33.62 0 0 0 1.008 3.625 49.649 49.649 0 0 0 -12.751-2.935 4.047 4.047 0 0 0 -2.9 1.045 4 4 0 0 0 -1.3 2.794 88.7 88.7 0 0 0 6.041 36.47 34.172 34.172 0 0 0 3.555 6.667c-1.541-.387-3.012-.7-4.377-.933a23.9 23.9 0 0 1 -13.886-7.853zm43.346 23.466c.989.088 1.983.146 2.984.146a34.013 34.013 0 0 0 3.878-.237q-.581 4.365-1.075 8.416a44.881 44.881 0 0 0 -5.784-8.325zm19.829-68.88a46.92 46.92 0 0 0 -2.025-5.255 28.283 28.283 0 0 0 3.18.991q-.585 2.119-1.152 4.264zm-8.236 38.135a51.732 51.732 0 0 0 -2.859-5.963 32.365 32.365 0 0 0 3.893.291q-.531 2.849-1.031 5.672zm-22.129 94.478c-8.331-.784-19.647-4.645-23.932-28.267a40.594 40.594 0 0 1 15.941 2.179 116.129 116.129 0 0 0 19.83 17.546c-.243 4.213-.4 8.421-.5 12.563a24.316 24.316 0 0 0 -11.339-4.021zm26.937 50.468a3.716 3.716 0 0 1 -2.754 1.2 3.754 3.754 0 0 1 -3.731-3.488c-.616-8.92-1.657-28.1-.972-48.415 3.375 13.05 7.119 30.552 8.438 47.9a3.671 3.671 0 0 1 -.981 2.803zm1.817-67.3a44.4 44.4 0 0 0 -3.95 5.617c-1.35-4.7-2.5-8.331-3.216-10.522l.036-.761a60.908 60.908 0 0 0 10.67 1.872 43.853 43.853 0 0 0 -3.54 3.791zm24.969-16.475a30.142 30.142 0 0 1 -4.424 2.307c-.683.249-1.355.5-2.006.771-7.2 2.461-15.59 2.338-25.059-.394l-.056-3.089c.872-3.758 8.854-31.964 51.881-33.661-1.802 8.254-7.043 25.625-20.336 34.063zm-18.766-30.523a52.907 52.907 0 0 0 -9.519 8.252c-.394.436-.77.872-1.138 1.308.427-3.455.9-7.106 1.419-10.906a57.4 57.4 0 0 0 9.238 1.343zm-3.2-38.332c.492.135 1.019.267 1.571.4-.686.53-1.335 1.072-1.956 1.62q.188-1.015.381-2.023zm48.618-39.22c-6.27 15.728-14.758 25.918-25.267 30.316a33.056 33.056 0 0 1 -21.768 1.023q.9-4.32 1.882-8.614c7.311-25.445 34.333-24.284 45.149-22.731zm-57.693-45.872c6.2 4.526 17.705 16.1 12.507 37.062l-2.152 5.432a20.435 20.435 0 0 1 -15.089-20.328 63.987 63.987 0 0 1 4.734-22.166zm-24.372 76.146c1.144.7 2.224 1.461 3.273 2.251a32.656 32.656 0 0 0 3.013 2.485c8.508 7.82 13.222 19.112 14.037 33.685q-.045.3-.087.6a26.03 26.03 0 0 1 -29.206-15.952 79.771 79.771 0 0 1 -5.544-28.763 45.471 45.471 0 0 1 14.514 5.694z" fill="#24242b"/></svg>