<svg id="Layer_1" height="512" viewBox="0 0 256 256" width="512" xmlns="http://www.w3.org/2000/svg"><g><g><g><path d="m47.167 25.722c-.974 11.564-13.024 13.39-13.024 13.39 10.346.486 12.925 14.058 12.925 14.058.221-9.677 13.321-14.202 13.321-14.202-9.814-.587-13.222-13.246-13.222-13.246z" fill="#d7e057"/></g></g><g><g><path d="m60.478 37.471c-8.604-.516-11.832-12.025-11.863-12.142-.191-.702-.853-1.167-1.584-1.101-.725.066-1.298.642-1.36 1.367-.859 10.215-11.313 11.964-11.754 12.032-.763.116-1.314.791-1.273 1.561.04.771.657 1.385 1.428 1.421 9.027.426 11.498 12.719 11.522 12.843.138.712.76 1.218 1.473 1.218.042 0 .084-.002.126-.005.764-.064 1.357-.693 1.375-1.46.194-8.509 12.191-12.777 12.313-12.819.676-.234 1.092-.914.994-1.622-.099-.709-.683-1.25-1.397-1.293zm-13.566 10.346c-1.356-3.131-3.708-6.908-7.586-8.877 2.931-1.404 6.408-3.913 8.201-8.273 1.551 3.071 4.2 6.881 8.334 8.722-3.007 1.641-6.923 4.407-8.949 8.428z" fill="#3a312a"/></g></g><g><g><path d="m25.468 42.702c-.689 8.179-9.213 9.471-9.213 9.471 7.318.345 9.142 9.944 9.142 9.944.156-6.844 9.422-10.045 9.422-10.045-6.94-.416-9.351-9.37-9.351-9.37z" fill="#d7e057"/></g></g><g><g><path d="m34.91 50.575c-5.767-.346-7.972-8.187-7.993-8.266-.19-.702-.862-1.153-1.582-1.101-.726.065-1.3.642-1.361 1.368-.579 6.871-7.646 8.066-7.942 8.113-.763.116-1.314.791-1.273 1.561.04.771.657 1.384 1.428 1.421 6.035.284 7.723 8.644 7.739 8.726.136.713.759 1.22 1.473 1.22.041 0 .083-.002.125-.005.765-.064 1.358-.694 1.376-1.461.13-5.709 8.331-8.633 8.411-8.661.677-.233 1.094-.913.997-1.622-.099-.709-.684-1.25-1.398-1.293zm-9.585 6.794c-.924-1.885-2.34-3.947-4.447-5.279 1.855-1.041 3.697-2.63 4.871-4.917 1.057 1.874 2.653 3.955 4.941 5.225-1.849 1.1-3.989 2.739-5.365 4.971z" fill="#3a312a"/></g></g><g><g><path d="m25.468 16.044c-.689 8.18-9.213 9.471-9.213 9.471 7.318.344 9.142 9.944 9.142 9.944.156-6.844 9.422-10.045 9.422-10.045-6.94-.415-9.351-9.37-9.351-9.37z" fill="#d7e057"/></g></g><g><g><path d="m34.91 23.917c-5.767-.345-7.972-8.186-7.993-8.265-.19-.702-.862-1.168-1.582-1.102-.726.066-1.3.643-1.361 1.368-.579 6.871-7.646 8.066-7.942 8.113-.763.116-1.314.791-1.273 1.561.04.771.657 1.385 1.428 1.421 6.035.284 7.723 8.645 7.739 8.726.136.713.759 1.22 1.473 1.22.041 0 .083-.002.125-.005.765-.063 1.358-.693 1.376-1.461.13-5.709 8.331-8.634 8.412-8.662.676-.234 1.093-.913.996-1.622-.099-.709-.684-1.251-1.398-1.292zm-9.585 6.795c-.924-1.885-2.34-3.948-4.447-5.279 1.855-1.041 3.697-2.63 4.871-4.917 1.057 1.874 2.654 3.955 4.941 5.224-1.849 1.099-3.989 2.739-5.365 4.972z" fill="#3a312a"/></g></g><g><g><path d="m132.256 24.8c-59.28 0-107.5 48.22-107.5 107.5 0 59.27 48.22 107.5 107.5 107.5s107.5-48.23 107.5-107.5c0-59.28-48.22-107.5-107.5-107.5zm-65.78 159.7-3.05 3.05c-12.17-15.14-19.47-34.36-19.47-55.25 0-48.7 39.61-88.31 88.3-88.31 20.89 0 40.11 7.3 55.25 19.48l-112.12 112.12zm65.78 36.1c-20.89 0-40.11-7.3-55.25-19.48l124.08-124.08c12.17 15.14 19.47 34.36 19.47 55.26 0 48.69-39.61 88.3-88.3 88.3z" fill="#ef6d7a"/></g></g><g><g><path d="m188.568 64.528c.302-.301.46-.716.438-1.142-.023-.425-.226-.82-.557-1.088-15.88-12.773-35.836-19.807-56.193-19.807-49.518 0-89.804 40.286-89.804 89.803 0 20.356 7.034 40.313 19.807 56.193.268.332.662.534 1.088.557.027.001.054.002.081.002.396 0 .778-.157 1.06-.439l3.045-3.044c.586-.585.586-1.535 0-2.121s-1.535-.586-2.121 0l-1.852 1.851c-11.69-15.128-18.109-33.88-18.109-52.998 0-47.863 38.94-86.803 86.804-86.803 19.118 0 37.87 6.419 52.998 18.109l-110.931 110.932c-.586.586-.586 1.535 0 2.121s1.535.586 2.121 0zm13.684 11.574c-.268-.332-.663-.534-1.088-.558-.424-.019-.841.136-1.142.438l-124.079 124.079c-.302.301-.46.716-.438 1.142.023.425.226.82.558 1.088 15.88 12.773 35.836 19.807 56.192 19.807 49.518 0 89.804-40.286 89.804-89.804 0-20.356-7.034-40.312-19.807-56.192zm-69.996 142.996c-19.118 0-37.87-6.419-52.998-18.109l121.692-121.693c11.69 15.128 18.109 33.88 18.109 52.998 0 47.864-38.94 86.804-86.803 86.804zm0-195.804c-60.103 0-109 48.898-109 109 0 60.103 48.897 109 109 109s109-48.897 109-109c0-60.102-48.898-109-109-109zm0 215c-58.448 0-106-47.552-106-106s47.552-106 106-106 106 47.552 106 106c0 58.449-47.552 106-106 106z" fill="#3a312a"/></g></g><g><g><path d="m186.641 106.338c-.096-.082-.198-.15-.294-.225-4.311-3.19-9.113-5.697-14.258-7.399-.082-.027-.164-.055-.246-.082-4.898-1.605-10.124-2.459-15.528-2.459h-48.121c-5.369 0-10.561.84-15.439 2.432-.027.007-.062.021-.089.028-5.219 1.694-10.09 4.222-14.455 7.446-.014.014-.034.021-.048.034-2.384 1.763-4.632 3.723-6.695 5.868-9.4 9.769-15.214 23.261-15.214 38.16 0 10.097 7.87 18.274 17.584 18.274h116.832c4.85 0 9.257-2.049 12.433-5.356 3.183-3.306 5.151-7.87 5.151-12.918.002-18.035-8.517-34.02-21.613-43.803z" fill="#fce8cb"/></g></g><g><g><path d="m187.572 105.162c-.07-.059-.144-.114-.216-.167l-.89 1.208.773-1.296c-4.478-3.313-9.416-5.876-14.676-7.615l-.253-.085c-5.129-1.681-10.511-2.533-15.995-2.533h-48.121c-5.459 0-10.81.843-15.88 2.501-.038.009-.075.019-.111.031-5.332 1.732-10.338 4.31-14.879 7.663-.018.013-.035.025-.053.038-2.481 1.835-4.797 3.865-6.884 6.035-10.081 10.476-15.633 24.398-15.633 39.201 0 10.904 8.562 19.774 19.084 19.774h78.299c.828 0 1.5-.672 1.5-1.5s-.672-1.5-1.5-1.5h-78.297c-8.869 0-16.084-7.524-16.084-16.774 0-14.022 5.254-27.206 14.795-37.121 1.969-2.048 4.155-3.965 6.5-5.698.018-.013.035-.024.052-.038h.001c4.282-3.163 9.001-5.593 14.005-7.222.039-.009.076-.02.114-.032 4.793-1.564 9.83-2.357 14.973-2.357h48.121c5.167 0 10.233.802 15.049 2.38l.254.085c4.96 1.641 9.615 4.057 13.796 7.149l.25.189c.025.023.052.043.079.064 13.157 9.827 21.012 25.754 21.012 42.601 0 4.49-1.681 8.708-4.733 11.879-3.031 3.156-7.063 4.895-11.351 4.895h-23.465c-.828 0-1.5.672-1.5 1.5s.672 1.5 1.5 1.5h23.465c5.112 0 9.912-2.066 13.514-5.816 3.592-3.73 5.57-8.688 5.57-13.958-.001-17.776-8.293-34.588-22.185-44.981z" fill="#3a312a"/></g></g><g><g><path d="m92.756 98.605c-.027.007-.062.021-.089.027-5.219 1.694-10.09 4.222-14.456 7.446v27.107c0 4.017 3.143 7.46 7.159 7.528 4.092.068 7.419-3.225 7.419-7.289v-34.17c.001-.218-.012-.437-.033-.649z" fill="#87796f"/></g></g><g><g><path d="m94.25 98.46c-.042-.435-.315-.815-.673-1.067-.357-.253-.849-.324-1.274-.216-.033.008-.066.018-.099.028-5.334 1.732-10.342 4.311-14.885 7.667-.383.282-.608.731-.608 1.206v27.107c0 4.897 3.873 8.947 8.634 9.028.051.001.102.001.152.001 2.323 0 4.509-.893 6.166-2.524 1.694-1.665 2.627-3.891 2.627-6.267v-34.169c.001-.267-.015-.535-.04-.794zm-2.959 34.965c0 1.564-.614 3.031-1.73 4.128s-2.604 1.711-4.164 1.661c-3.135-.053-5.685-2.758-5.685-6.028v-26.344c3.59-2.569 7.477-4.631 11.579-6.147z" fill="#3a312a"/></g></g><g><g><path d="m109.493 96.173v37.252c0 4.064 3.334 7.357 7.419 7.289 4.017-.068 7.166-3.511 7.166-7.528v-37.013z" fill="#87796f"/></g></g><g><g><path d="m124.079 94.673h-14.586c-.828 0-1.5.672-1.5 1.5v37.252c0 2.374.934 4.6 2.628 6.266 1.659 1.632 3.843 2.524 6.165 2.524.05 0 .1 0 .151-.001 4.765-.081 8.642-4.131 8.642-9.028v-37.013c0-.828-.672-1.5-1.5-1.5zm-1.5 38.513c0 3.27-2.554 5.976-5.692 6.028-1.548.033-3.046-.564-4.162-1.662s-1.732-2.563-1.732-4.127v-35.752h11.586z" fill="#3a312a"/></g></g><g><g><path d="m140.774 96.173v37.013c0 4.017 3.149 7.46 7.166 7.528 4.085.068 7.419-3.225 7.419-7.289v-37.252z" fill="#87796f"/></g></g><g><g><path d="m155.359 94.673h-14.585c-.828 0-1.5.672-1.5 1.5v37.013c0 4.897 3.876 8.947 8.641 9.028.051.001.102.001.152.001 2.321 0 4.506-.893 6.164-2.524 1.694-1.666 2.628-3.892 2.628-6.266v-37.252c0-.828-.672-1.5-1.5-1.5zm-1.5 38.752c0 1.564-.615 3.029-1.731 4.127-1.117 1.1-2.645 1.68-4.162 1.662-3.139-.053-5.691-2.758-5.691-6.028v-35.513h11.585v35.752z" fill="#3a312a"/></g></g><g><g><path d="m186.347 106.113c-4.311-3.19-9.113-5.698-14.257-7.398-.02.177-.027.355-.027.54v34.171c0 4.064 3.327 7.357 7.419 7.289 4.017-.068 7.159-3.511 7.159-7.528v-26.848c-.096-.083-.198-.151-.294-.226z" fill="#87796f"/></g></g><g><g><path d="m187.618 105.2c-.087-.074-.177-.143-.267-.208l-.891 1.207.779-1.292c-4.478-3.313-9.416-5.876-14.68-7.616-.428-.142-.898-.082-1.278.159-.38.243-.631.644-.683 1.093-.027.234-.037.469-.037.712v34.171c0 2.376.933 4.602 2.627 6.268 1.658 1.63 3.842 2.523 6.166 2.523.05 0 .101 0 .152-.001 4.762-.081 8.635-4.131 8.635-9.028v-26.848c0-.439-.191-.855-.523-1.14zm-2.477 27.986c0 3.27-2.551 5.976-5.686 6.028-1.543.051-3.048-.564-4.163-1.661-1.116-1.097-1.73-2.564-1.73-4.128v-32.599c4.127 1.56 8.02 3.665 11.579 6.261z" fill="#3a312a"/></g></g><g><g><path d="m132.256 26.3c-2.54 0-5.07.09-7.57.26 54.99 3.82 98.57 49.79 98.57 105.74 0 55.92-43.54 101.88-98.5 105.73 2.48.18 4.98.27 7.5.27 58.45 0 106-47.56 106-106 0-58.45-47.55-106-106-106z" fill="#d34e5c"/></g></g></g></svg>