<svg id="Icon_Set" height="512" viewBox="0 0 256 256" width="512" xmlns="http://www.w3.org/2000/svg"><g><g><g><g><g fill="#87828e"><path d="m47.256 50.18c-1.189-1.053-2.341-.922-3.815-.922-.898 0-1.772.327-2.443.923-49.739 44.115-43.15 94.268 5.185 140.811 45.459-43.709 51.682-95.964 1.073-140.812z"/><path d="m46.158 190.991c2.765 2.628 7.393 7.25 31.596 31.285 1.1 1.092.245 2.967-1.3 2.846l-10.512-.826c-10.086-.793-18.073-8.848-18.779-18.941z"/><path d="m46.158 190.991c-2.765 2.628-7.393 7.25-31.596 31.285-1.1 1.092-.245 2.967 1.3 2.846l10.512-.826c10.086-.793 18.073-8.848 18.779-18.941z"/></g><path d="m47.991 189.277c-.643.598-1.188 1.112-1.808 1.717-.643-.628-1.165-1.12-1.808-1.717-11.536-10.84-76.639-74.112-3.381-139.094 1.195-1.061 2.342-.922 3.82-.93 1.607.013 2.289.59 6.627 4.781-53.158 54.822-12.505 107.019 5.507 125.803-3.79 4.424-7.051 7.654-8.957 9.44z" fill="#a4a4a5"/></g></g><g><g><path d="m144.561 117.074 5.105-25.699c-.668-1.498-1.037-3.159-1.033-4.9 0-.054.009-.118.009-.172-.717.098-1.442.169-2.195.168-4.508-.009-8.549-1.95-11.382-5.021-2.845 3.06-6.895 4.983-11.402 4.974-.753-.002-1.478-.076-2.195-.177 0 .054.009.118.009.172-.004 1.705-.361 3.319-1.008 4.787l5.166 25.859c.207 1.035 1.115 1.78 2.17 1.781l14.581.012c1.059 0 1.969-.747 2.175-1.784z" fill="#44c7b6"/><path d="m178.01 69.452c0-6.578-5.333-11.911-11.911-11.911-.223 0-.444.007-.664.019.103-.72.159-1.455.159-2.203 0-8.534-6.918-15.452-15.452-15.452-1.278 0-2.519.158-3.707.451-.984-5.393-5.702-9.482-11.379-9.482s-10.395 4.089-11.379 9.482c-1.188-.293-2.428-.451-3.707-.451-8.534 0-15.452 6.918-15.452 15.452 0 .748.056 1.483.159 2.203-.22-.012-.441-.019-.664-.019-6.578 0-11.911 5.333-11.911 11.911 0 4.827 2.873 8.98 7 10.851-1.05 1.778-1.655 3.85-1.66 6.066-.014 6.639 5.354 12.029 11.993 12.043 4.934.01 9.185-2.956 11.035-7.206.647-1.468 1.004-3.082 1.008-4.787 0-.054-.009-.118-.009-.172.716.101 1.442.175 2.195.177 4.508.009 8.557-1.914 11.402-4.974 2.833 3.072 6.874 5.012 11.382 5.021.753.002 1.479-.07 2.195-.168 0 .054-.009.118-.009.172-.004 1.741.365 3.402 1.033 4.9 1.86 4.203 6.062 7.133 10.96 7.143 6.639.014 12.029-5.354 12.043-11.993.005-2.268-.622-4.388-1.711-6.199 4.154-1.86 7.051-6.027 7.051-10.874z" fill="#44c7b6"/><path d="m123.753 39.992c.539-.058 1.088-.087 1.642-.087 1.276 0 2.517.159 3.706.452.821-4.509 4.252-8.103 8.667-9.162-.871-.21-1.779-.322-2.712-.322-5.547 0-10.182 3.905-11.303 9.119zm-19.236 15.367c0 .748.058 1.482.159 2.202-.221-.011-.441-.018-.662-.018-6.581 0-11.914 5.333-11.914 11.91 0 4.827 2.875 8.978 7 10.851-1.049 1.779-1.652 3.851-1.66 6.064-.011 6.642 5.355 12.03 11.993 12.044.944.004 1.862-.105 2.741-.307-5.344-1.229-9.321-6.017-9.311-11.737.007-2.213.611-4.285 1.66-6.064-4.126-1.873-7-6.024-7-10.851 0-6.577 5.333-11.91 11.914-11.91.221 0 .441.007.662.018-.101-.72-.159-1.454-.159-2.202 0-7.604 5.496-13.928 12.735-15.215-.879-.155-1.783-.239-2.705-.239-8.532 0-15.453 6.92-15.453 15.454z" fill="#4bdbc3"/><path d="m122.676 40.144c.336.061.673.134 1.002.213.022-.123.047-.246.076-.365-.366.036-.724.09-1.078.152z" fill="#4bdbc3"/><path d="m178.011 69.453c0-6.577-5.333-11.91-11.914-11.91-.221 0-.441.007-.662.018.101-.72.159-1.454.159-2.202 0-8.533-6.921-15.454-15.454-15.454-.922 0-1.826.083-2.705.239 7.239 1.287 12.735 7.611 12.735 15.215 0 .748-.058 1.482-.159 2.202.221-.011.441-.018.662-.018 6.581 0 11.914 5.333 11.914 11.91 0 4.845-2.896 9.014-7.051 10.873 1.088 1.812 1.714 3.93 1.71 6.197-.011 5.702-3.985 10.46-9.307 11.686.864.199 1.761.307 2.687.307 6.639.014 12.03-5.351 12.044-11.993.004-2.267-.622-4.386-1.71-6.197 4.155-1.859 7.051-6.028 7.051-10.873zm-42.955-38.58c-.933 0-1.84.112-2.712.322 4.415 1.059 7.846 4.653 8.667 9.162 1.19-.293 2.43-.452 3.706-.452.553 0 1.103.029 1.642.087-1.121-5.214-5.756-9.119-11.303-9.119z" fill="#3bb2a0"/><path d="m146.359 39.992c.029.119.054.242.076.365.329-.08.665-.152 1.002-.213-.355-.062-.713-.116-1.078-.152z" fill="#3bb2a0"/><path d="m133.23 118.844c-1.056 0-1.963-.745-2.169-1.779l-5.042-25.237c-.08-.399 0-.814.223-1.155l1.335-2.044c.26-.399.689-.646 1.163-.696 3.082-.326 6.733-2.606 9.025-4.151-.987-.672-1.891-1.457-2.697-2.332-2.846 3.059-6.895 4.983-11.404 4.972-.752 0-1.475-.076-2.195-.177 0 .054.011.119.011.174-.004 1.707-.362 3.319-1.009 4.787l5.167 25.86c.206 1.034 1.114 1.779 2.169 1.779l14.582.014c.047 0 .094 0 .141-.004z" fill="#4bdbc3"/><path d="m149.667 91.375-5.105 25.697c-.206 1.038-1.117 1.786-2.173 1.786l-5.283-.004c.994-.065 1.837-.792 2.032-1.783l5.105-25.697c-.669-1.497-1.038-3.16-1.034-4.899 0-.018.025-.156.061-.34 1.027.217 2.09.333 3.178.333.752.004 1.479-.069 2.195-.166 0 .054-.011.119-.011.174-.002 1.739.366 3.402 1.035 4.899z" fill="#3bb2a0"/></g></g><g><path d="m129.841 210.737c-45.766 0-82.866-37.1-82.866-82.866v-10.315h165.732v10.315c-.001 45.766-37.101 82.866-82.866 82.866z" fill="#44c7b6"/><path d="m62.76 117.556v10.388c0 10.205 2.15 20.341 6.651 29.501 10.966 22.315 33.933 37.711 60.429 37.711s49.464-15.396 60.429-37.711c4.501-9.159 6.651-19.295 6.651-29.501v-10.388z" fill="#ff4a73"/><path d="m135.056 194.952c-1.718.132-3.463.202-5.215.202-26.494 0-49.462-15.396-60.428-37.71-4.499-9.158-6.655-19.297-6.655-29.498v-10.389h10.431v10.389c0 10.201 2.156 20.34 6.655 29.498 10.242 20.833 30.943 35.637 55.212 37.508z" fill="#f973a3"/><path d="m196.924 117.556v10.389c0 10.201-2.156 20.34-6.655 29.498-10.966 22.315-33.934 37.71-60.428 37.71-1.752 0-3.498-.069-5.215-.202 24.269-1.871 44.97-16.675 55.213-37.509 4.499-9.158 6.655-19.297 6.655-29.498v-10.389h10.43z" fill="#ea2a6a"/></g><g><path d="m242.083 138.922c-5.642-6.549-13.851-10.314-22.493-10.314-7.025 0-25.547 0-32.603 0-8.642 0-16.851 3.765-22.493 10.314-7.567 8.79-9.338 21.129-4.574 31.566 5.697 12.481 14.394 27.771 25.185 39.173 9.869 10.427 26.499 10.426 36.368-.001 10.794-11.404 19.488-26.697 25.183-39.172 4.765-10.438 2.992-22.777-4.573-31.566z" fill="#ff4a73"/><g><path d="m202.265 128.608s-24.187.332-26.368-19.409c0 0 22.876-2.538 26.368 19.409z" fill="#44c7b6"/></g><g><path d="m202.265 128.608s24.187.332 26.368-19.409c0 0-22.876-2.538-26.368 19.409z" fill="#44c7b6"/></g><path d="m207.51 217.127c-7.942 1.345-16.418-1.143-22.402-7.463-10.796-11.403-19.492-26.696-25.188-39.174-4.762-10.435-2.994-22.773 4.576-31.565 5.64-6.552 13.846-10.317 22.492-10.317h8.443c-8.645 0-16.852 3.766-22.492 10.317-7.57 8.792-9.338 21.13-4.576 31.565 5.696 12.478 14.392 27.771 25.188 39.174 3.878 4.097 8.809 6.585 13.959 7.463z" fill="#f973a3"/><path d="m246.656 170.489c-5.696 12.473-14.386 27.765-25.182 39.174-5.983 6.326-14.46 8.809-22.407 7.463 5.156-.872 10.081-3.36 13.964-7.463 10.796-11.409 19.486-26.702 25.182-39.174 4.767-10.441 2.994-22.779-4.576-31.565-5.64-6.552-13.846-10.317-22.492-10.317h8.443c8.645 0 16.852 3.766 22.492 10.317 7.57 8.786 9.343 21.124 4.576 31.565z" fill="#ea2a6a"/></g></g><g fill="#5f266d"><circle cx="48.416" cy="75.259" r="5.519"/><path d="m67.365 92.522c1.534-1.59 1.487-4.123-.103-5.656-1.59-1.534-4.123-1.487-5.656.103-.552.573-13.722 13.86-31.196-.329-1.715-1.393-4.234-1.13-5.627.584-1.392 1.715-1.131 4.234.584 5.627 15.754 12.791 32.802 9.208 41.998-.329z"/><path d="m77.806 133.64h18c2.21 0 4-1.79 4-4s-1.79-4-4-4c-3.673 0-14.347 0-18 0-2.21 0-4 1.79-4 4 0 2.222 1.816 4 4 4z"/><path d="m110.806 133.64h.56c2.21 0 4-1.79 4-4s-1.79-4-4-4h-.56c-2.21 0-4 1.79-4 4s1.79 4 4 4z"/><circle cx="94.586" cy="144.247" r="4.231"/><path d="m128.896 148.479c2.337 0 4.231-1.894 4.231-4.231s-1.894-4.231-4.231-4.231-4.231 1.894-4.231 4.231c0 2.336 1.894 4.231 4.231 4.231z"/><circle cx="111.741" cy="170.589" r="4.231"/><path d="m146.051 174.82c2.337 0 4.231-1.894 4.231-4.231s-1.894-4.231-4.231-4.231-4.231 1.894-4.231 4.231 1.894 4.231 4.231 4.231z"/><path d="m224.696 125c4.07-3.51 7.15-8.47 7.91-15.36.25-2.2-1.34-4.17-3.53-4.42-5.708-.63-14.875.44-21.814 6.155.869-4.092 2.296-8.585 4.611-13.061 1.015-1.962.247-4.376-1.715-5.391-1.964-1.017-4.376-.247-5.391 1.715-3.291 6.364-5.039 12.692-5.932 18.161-7.07-6.96-17.24-8.26-23.38-7.58-2.19.25-3.78 2.22-3.53 4.42.15 1.38.4 2.69.73 3.92h-23.32l2.69-13.56c2.52 1.6 5.48 2.51 8.59 2.52 10.819 0 18.45-10.446 15.38-20.61 3.74-2.98 6.01-7.55 6.01-12.46 0-7.59-5.34-13.96-12.46-15.53-.79-10.737-10.253-18.641-20.34-17.99-2.49-5.42-7.95-9.06-14.15-9.06s-11.66 3.64-14.14 9.06c-.32-.02-.63-.02-.94-.02-10.25 0-18.67 7.95-19.4 18.01-7.13 1.57-12.47 7.94-12.47 15.53 0 4.9 2.26 9.46 5.98 12.44-1.576 5.404-.263 11.498 4.02 15.81 5.468 5.486 13.855 6.142 20.02 2.17l2.73 13.69h-34.2c-1.32-23.62-13.67-45.93-36.75-66.37-2.976-2.658-8.619-2.626-11.56 0-23.3 20.67-35.3 43.29-35.64 67.25-.51 34.33 22.81 62.27 37.69 76.57-3.909 3.839-20.069 19.903-28.65 28.43-3.67 3.627-.966 10.03 4.43 9.67l10.51-.83c8.36-.66 15.59-5.6 19.48-12.61 3.87 7.01 11.1 11.95 19.46 12.61.337.027 10.632.85 10.97.85 5.021 0 7.572-6.119 3.98-9.69-21.131-20.978-25.518-25.343-28.63-28.4 2.35-2.28 5.63-5.67 9.25-10.01 15.89 20.5 40.76 33.71 68.65 33.71 16.13 0 31.24-4.42 44.19-12.11 2.52 3.38 5.25 6.69 8.17 9.78 11.473 12.138 30.75 12.081 42.17 0 12.67-13.39 21.68-30.97 25.92-40.26 9.115-19.952-3.369-43.768-25.599-47.149zm-1.12-11.81c-2.605 6.495-9.093 9.743-15.96 10.92 2.829-6.772 8.654-10.232 15.96-10.92zm-26.66 10.92c-6.789-1.159-13.489-4.494-15.96-10.92 7.118.623 13.195 4.153 15.96 10.92zm-79.44-37.6c-.084 6.786-8.542 10.732-13.7 5.54-2.666-2.666-3.006-6.701-1.23-9.71 1.203-2.033.386-4.687-1.79-5.68-2.83-1.28-4.65-4.11-4.65-7.21 0-4.36 3.55-7.91 7.91-7.91.15 0 .3.01.45.02 2.494.126 4.529-2.054 4.17-4.57-.08-.55-.12-1.1-.12-1.63 0-7.387 6.94-12.895 14.2-11.12 2.254.543 4.485-.909 4.9-3.17.65-3.59 3.78-6.2 7.44-6.2s6.79 2.61 7.44 6.2c.418 2.277 2.67 3.712 4.9 3.17.9-.22 1.82-.33 2.75-.33 6.966 0 12.331 6.198 11.33 13.08-.36 2.523 1.689 4.695 4.17 4.57.15-.01.3-.02.45-.02 4.37 0 7.91 3.55 7.91 7.91 0 3.12-1.84 5.95-4.68 7.23-2.131.934-3.058 3.603-1.79 5.71 3.162 5.298-.637 12.13-6.9 12.13-4.314-.014-7.96-3.481-8-7.95 0-.09.01-.2.01-.27 0-2.417-2.146-4.294-4.55-3.96-.66.09-1.2.12-1.64.13-3.23-.01-6.23-1.33-8.45-3.73-1.559-1.704-4.274-1.732-5.87-.01-2.495 2.674-6.017 4.102-10.11 3.56-2.189-.323-4.55 1.223-4.55 4.22zm28.04 5.24-4.33 21.81h-12.17l-4.39-22c.13-.39.25-.78.35-1.18 3.63-.24 7.13-1.51 10.08-3.62 2.94 2.12 6.43 3.4 10.06 3.66.11.45.25.9.4 1.33zm31.06 29.81c1.08 1.41 2.3 2.65 3.61 3.74-21.288 4.393-32.747 27.489-23.9 46.85 1.3 2.86 3.06 6.5 5.23 10.56-9.41 5.45-20.26 8.45-31.68 8.45-34.125 0-63.08-27.108-63.08-63.22v-6.38zm-135.41 83.52c-.57 8.05-7.06 14.6-15.11 15.23l-4.17.33c11.31-11.223 13.736-13.655 19.55-19.41zm29.26 15.56-4.17-.33c-8.05-.63-14.54-7.18-15.1-15.23l-.27-3.85c9.604 9.539 7.396 7.34 19.54 19.41zm-24.24-35.16c-13.88-13.27-35.94-39.39-35.49-70.93.32-21.58 11.37-42.2 32.86-61.29h1.14c21.2 18.81 32.61 39.08 33.95 60.3-11.5 0-20.258 0-31.67 0-2.21 0-4 1.79-4 4v10.31c0 17.04 4.93 32.95 13.44 46.38-4.03 5-7.74 8.83-10.23 11.23zm83.66 21.26c-43.575 0-78.87-35.474-78.87-78.87v-6.31h7.78v6.38c0 39.716 31.738 71.22 71.08 71.22 12.83 0 25.03-3.36 35.61-9.46 1.25 2.08 2.57 4.21 3.99 6.36-11.64 6.79-25.17 10.68-39.59 10.68zm113.17-37.91c-4.03 8.84-12.57 25.54-24.45 38.08-8.302 8.778-22.28 8.766-30.55 0-9.992-10.57-18.341-24.752-24.46-38.08-7.583-16.596 4.546-36.22 23.43-36.22h32.6c18.801 0 31.055 19.504 23.43 36.22z"/><ellipse cx="183.24" cy="146.672" rx="3.288" ry="4.959"/><path d="m203.346 151.63c1.863 0 3.29-2.302 3.29-4.96 0-2.204-1.159-4.96-3.29-4.96-1.81 0-3.28 2.22-3.28 4.96s1.47 4.96 3.28 4.96z"/><ellipse cx="223.46" cy="146.672" rx="3.288" ry="4.959"/><path d="m183.236 178.37c-1.81 0-3.28 2.22-3.28 4.96 0 2.682 1.43 4.96 3.28 4.96 1.82 0 3.29-2.22 3.29-4.96 0-2.711-1.45-4.96-3.29-4.96z"/><path d="m203.35 178.368c-1.816 0-3.288 2.22-3.288 4.959s1.472 4.959 3.288 4.959 3.288-2.22 3.288-4.959-1.472-4.959-3.288-4.959z"/><ellipse cx="223.46" cy="183.327" rx="3.288" ry="4.959"/><path d="m192.886 169c1.81 0 3.28-2.22 3.28-4.96 0-2.71-1.448-4.96-3.28-4.96-1.82 0-3.29 2.22-3.29 4.96 0 2.646 1.41 4.96 3.29 4.96z"/><path d="m212.992 169.002c1.816 0 3.288-2.22 3.288-4.959s-1.472-4.959-3.288-4.959-3.288 2.22-3.288 4.959c0 2.738 1.472 4.959 3.288 4.959z"/><path d="m233.102 159.083c-1.816 0-3.288 2.22-3.288 4.959s1.472 4.959 3.288 4.959 3.288-2.22 3.288-4.959c0-2.738-1.472-4.959-3.288-4.959z"/><ellipse cx="173.474" cy="164.042" rx="3.288" ry="4.959"/><path d="m193.233 194.308c-1.816 0-3.288 2.22-3.288 4.959s1.472 4.959 3.288 4.959 3.288-2.22 3.288-4.959-1.472-4.959-3.288-4.959z"/><ellipse cx="213.343" cy="199.267" rx="3.288" ry="4.959"/></g></g></svg>