<svg height="512" viewBox="0 0 58 58" width="512" xmlns="http://www.w3.org/2000/svg"><g id="Page-1" fill="none" fill-rule="evenodd"><g id="006---Potassium"><rect id="Rectangle" fill="#ff5364" height="58" rx="10" width="58"/><path id="Path" d="m12 4h-2c-3.3137085 0-6 2.6862915-6 6v38c0 3.3137085 2.6862915 6 6 6h38c3.3137085 0 6-2.6862915 6-6v-38c0-3.3137085-2.6862915-6-6-6z" fill="#fb7b76"/><path id="Path" d="m58 20.15v27.85c0 5.5228475-4.4771525 10-10 10h-38c-5.5228475 0-10-4.4771525-10-10v-6.67c9.02-8.67 28.26-22.55 58-21.18z" fill="#df4d60"/><path id="Path" d="m54 20.06v27.94c0 3.3137085-2.6862915 6-6 6h-38c-3.3137085 0-6-2.6862915-6-6v-10.24c5.16502278-4.296798 10.8825763-7.8820403 17-10.66 1.31-.61 2.65-1.17 4-1.7 9.2485392-3.5747915 19.0847342-5.3860081 29-5.34z" fill="#ff5364"/><path id="Path" d="m25 25v.4c-1.35.53-2.69 1.09-4 1.7v-2.1c0-.5522847.4477153-1 1-1h2c.5522847 0 1 .4477153 1 1z" fill="#3f5c6c"/><path id="Path" d="m37.8 48.4c.2272632.3030176.2638192.7084296.0944272 1.0472136s-.5156551.5527864-.8944272.5527864h-2.5c-.3142421-.0021656-.6097222-.1499057-.8-.4l-6.95-9.27-1.75 2.34v6.33c0 .5522847-.4477153 1-1 1h-2c-.5522847 0-1-.4477153-1-1v-21.9c1.31-.61 2.65-1.17 4-1.7v10.6l1.75-2.33 6.95-9.27c.1902778-.2500943.4857579-.3978344.8-.4h2.5c.3787721 0 .7250352.2140024.8944272.5527864s.132836.744196-.0944272 1.0472136l-8.55 11.4z" fill="#35495e"/><g fill="#547580"><path id="Path" d="m25.472 7.118c-.3253403-.17408489-.7201091-.15486538-1.027.05l-3 2c-.297245.1982824-.4661282.5400812-.4430331.8966441s.2346599.6737195.555.832c.32034.1582805.7007881.1336383.9980331-.0646441l1.445-.963v10.131c0 .5522847.4477153 1 1 1s1-.4477153 1-1v-12c.0001481-.36888156-.2027945-.70788792-.528-.882z"/><path id="Shape" d="m37 11.494c-.0010742-2.06390958-1.4060228-3.86250354-3.4082732-4.36322007-2.0022505-.50071653-4.0884421.42482403-5.0609049 2.2452745-.9724629 1.82045047-.5818654 4.06906207.9475527 5.45492067 1.5294182 1.3858586 3.8055266 1.5536412 5.5216254.4070249v1.756c-.1479386 1.2371802-1.2605206 2.1272458-2.5 2-1.1193054.1429791-2.19768-.4737597-2.642-1.511-.171473-.3274695-.5096077-.5336373-.8792471-.5360953-.3696393-.002458-.7104859.1991947-.8862988.5243548-.1758128.3251601-.1579126.720786.0465459 1.0287405.8052411 1.6455252 2.5335723 2.6325767 4.36 2.49 2.213 0 4.5-1.5 4.5-4v-5.49zm-4.5 2.506c-1.3807119 0-2.5-1.1192881-2.5-2.5s1.1192881-2.5 2.5-2.5 2.5 1.1192881 2.5 2.5-1.1192881 2.5-2.5 2.5z" fill-rule="nonzero"/></g></g></g></svg>