<svg height="511pt" viewBox="0 -22 511.99901 511" width="511pt" xmlns="http://www.w3.org/2000/svg"><path d="m153.6875 449.308594c-14.910156-21.386719-35.363281-36.367188-44.714844-42.550782l37.824219-131.898437c.601563-2.101563.257813-4.359375-.941406-6.183594s-3.136719-3.035156-5.304688-3.316406c-4.328125-.558594-8.640625-1.449219-12.808593-2.644531-4.167969-1.195313-8.296876-2.726563-12.261719-4.542969-1.988281-.914063-4.269531-.914063-6.257813 0-1.984375.914063-3.472656 2.644531-4.074218 4.746094l-37.824219 131.894531c-11.207031.289062-36.492188 2.152344-60.46875 12.386719-4.453125 1.898437-7.132813 6.25-6.8320315 11.078125s3.5000005 8.808594 8.1445315 10.140625l133.15625 38.1875c1.058593.304687 2.128906.453125 3.179687.453125 3.5625 0 6.933594-1.695313 9.105469-4.734375 2.816406-3.9375 2.847656-9.046875.078125-13.015625zm0 0" fill="#aaa"/><path d="m505.144531 407.199219c-23.980469-10.234375-49.261719-12.097657-60.46875-12.386719l-37.828125-131.894531c-.601562-2.101563-2.089844-3.835938-4.074218-4.746094-1.984376-.914063-4.269532-.914063-6.253907 0-3.96875 1.816406-8.09375 3.347656-12.265625 4.542969-4.167968 1.195312-8.476562 2.085937-12.808594 2.644531-2.164062.28125-4.101562 1.492187-5.304687 3.316406-1.199219 1.824219-1.542969 4.082031-.9375 6.183594l37.824219 131.898437c-9.351563 6.183594-29.804688 21.164063-44.714844 42.546876-2.769531 3.96875-2.738281 9.078124.074219 13.015624 2.175781 3.039063 5.546875 4.734376 9.109375 4.734376 1.050781 0 2.117187-.144532 3.175781-.449219l133.15625-38.1875c4.648437-1.332031 7.847656-5.3125 8.148437-10.140625.300782-4.828125-2.378906-9.179688-6.832031-11.078125zm0 0" fill="#aaa"/><path d="m258.066406 105.128906-157.324218-45.113281c-3.625-1.042969-7.460938.773437-8.953126 4.238281l-32.867187 76.347656c-11.429687 26.550782-10.886719 56.761719 1.492187 82.882813 12.375 26.121094 35.410157 45.671875 63.195313 53.640625 9.109375 2.613281 18.4375 3.898438 27.730469 3.898438 19.054687 0 37.929687-5.414063 54.292968-15.894532 24.339844-15.59375 40.808594-40.921875 45.1875-69.496094l12.589844-82.160156c.570313-3.730468-1.71875-7.300781-5.34375-8.34375zm0 0" fill="#e0e0e0"/><path d="m258.066406 105.128906-28.621094-8.207031-12.332031 80.5c-4.449219 29.039063-21.191406 54.785156-45.929687 70.632813-16.632813 10.652343-35.816406 16.15625-55.183594 16.15625-8.226562 0-16.484375-.996094-24.597656-3.003907 9.59375 7.117188 20.476562 12.554688 32.207031 15.917969 9.109375 2.613281 18.4375 3.898438 27.730469 3.898438 19.054687 0 37.929687-5.414063 54.292968-15.894532 24.339844-15.59375 40.808594-40.921875 45.1875-69.496094l12.589844-82.160156c.570313-3.730468-1.71875-7.300781-5.34375-8.34375zm0 0" fill="#c4c4c4"/><path d="m453.078125 140.601562-32.867187-76.347656c-1.492188-3.460937-5.328126-5.28125-8.953126-4.238281l-157.324218 45.113281c-3.625 1.042969-5.914063 4.613282-5.34375 8.34375l12.589844 82.160156c4.378906 28.574219 20.847656 53.902344 45.1875 69.496094 16.363281 10.484375 35.238281 15.894532 54.292968 15.894532 9.289063 0 18.625-1.285157 27.726563-3.898438 27.789062-7.96875 50.824219-27.519531 63.199219-53.640625 12.378906-26.125 12.921874-56.332031 1.492187-82.882813zm0 0" fill="#e0e0e0"/><path d="m453.078125 140.601562-32.867187-76.347656c-1.492188-3.460937-5.328126-5.28125-8.953126-4.238281l-27.8125 7.976563 33.101563 76.890624c12.042969 27.976563 11.472656 59.808594-1.570313 87.335938-9.929687 20.960938-26.378906 37.898438-46.589843 48.496094 6.71875-.519532 13.421875-1.703125 20.003906-3.589844 27.785156-7.96875 50.820313-27.519531 63.199219-53.640625 12.375-26.125 12.917968-56.332031 1.488281-82.882813zm0 0" fill="#c4c4c4"/><g fill="#ff3d43"><path d="m50.816406 176.253906c-.664062 16.113282 2.539063 32.335938 9.597656 47.230469 12.375 26.121094 35.410157 45.671875 63.195313 53.640625 9.109375 2.613281 18.4375 3.898438 27.730469 3.898438 19.054687 0 37.929687-5.414063 54.292968-15.894532 24.339844-15.59375 40.808594-40.921875 45.1875-69.496094l2.96875-19.378906zm0 0"/><path d="m261.179688 195.632812c4.378906 28.574219 20.847656 53.902344 45.1875 69.496094 16.363281 10.484375 35.238281 15.894532 54.292968 15.894532 9.289063 0 18.625-1.285157 27.726563-3.898438 27.789062-7.96875 50.824219-27.519531 63.199219-53.640625 7.058593-14.894531 10.261718-31.113281 9.597656-47.230469h-202.972656zm0 0"/><path d="m256 37.730469c-4.140625 0-7.496094-3.355469-7.496094-7.496094v-22.238281c0-4.140625 3.355469-7.496094 7.496094-7.496094s7.496094 3.355469 7.496094 7.496094v22.238281c0 4.140625-3.355469 7.496094-7.496094 7.496094zm0 0"/><path d="m286.710938 57.683594c-2.097657 0-4.1875-.875-5.667969-2.589844-2.710938-3.128906-2.371094-7.863281.757812-10.570312l16.8125-14.558594c3.128907-2.710938 7.863281-2.371094 10.574219.761718 2.710938 3.128907 2.371094 7.863282-.761719 10.570313l-16.8125 14.558594c-1.414062 1.226562-3.164062 1.828125-4.902343 1.828125zm0 0"/><path d="m225.289062 57.683594c-1.738281 0-3.484374-.601563-4.902343-1.828125l-16.8125-14.558594c-3.132813-2.707031-3.472657-7.441406-.761719-10.570313 2.710938-3.128906 7.445312-3.472656 10.574219-.761718l16.8125 14.558594c3.128906 2.707031 3.46875 7.441406.757812 10.570312-1.480469 1.714844-3.570312 2.589844-5.667969 2.589844zm0 0"/></g><path d="m461.183594 176.253906h-36.53125c1.898437 18.992188-1.332032 38.359375-9.675782 55.964844-9.929687 20.960938-26.378906 37.898438-46.589843 48.496094 6.71875-.515625 13.421875-1.699219 20.003906-3.589844 27.785156-7.96875 50.820313-27.519531 63.199219-53.640625 7.054687-14.894531 10.257812-31.117187 9.59375-47.230469zm0 0" fill="#d72e2e"/><path d="m217.289062 176.253906-.179687 1.167969c-4.449219 29.042969-21.1875 54.785156-45.929687 70.632813-16.628907 10.65625-35.8125 16.15625-55.183594 16.15625-8.226563 0-16.484375-.992188-24.59375-3.003907 9.59375 7.117188 20.476562 12.554688 32.207031 15.921875 9.109375 2.609375 18.4375 3.894532 27.730469 3.894532 19.054687 0 37.929687-5.410157 54.292968-15.894532 24.339844-15.59375 40.808594-40.921875 45.1875-69.492187l2.96875-19.382813zm0 0" fill="#d72e2e"/></svg>