<?xml version="1.0" encoding="iso-8859-1"?>
<!-- Generator: Adobe Illustrator 19.0.0, SVG Export Plug-In . SVG Version: 6.00 Build 0)  -->
<svg xmlns="http://www.w3.org/2000/svg" xmlns:xlink="http://www.w3.org/1999/xlink" version="1.1" id="Layer_1" x="0px" y="0px" viewBox="0 0 503.704 503.704" style="enable-background:new 0 0 503.704 503.704;" xml:space="preserve" width="512" height="512">
<g>
	<g>
		<path style="fill:#F95C5C;" d="M209.995,75.463c-0.42,27.99-14.14,59.55-39.65,85.06c-43.01,43.02-103.26,52.52-134.56,21.22    c-31.29-31.3-21.79-91.54,21.22-134.56c42.75-42.75,102.5-52.4,133.96-21.81c-9.44,4.57-19.57,11.82-28.99,21.25    c-23.17,23.17-33.24,50.67-22.49,61.42c10.76,10.76,38.26,0.69,61.43-22.48C204.215,82.263,207.245,78.873,209.995,75.463z"/>
		<path style="fill:#D11C1C;" d="M120.865,57.613c-43.01,43.02-52.51,103.26-21.22,134.56c1.97,1.97,4.06,3.78,6.25,5.43    c-27,6.21-52.92,1.33-70.11-15.86c-31.29-31.3-21.79-91.54,21.22-134.56c40.31-40.31,95.75-51.19,128.31-26.65    C163.145,25.643,140.255,38.223,120.865,57.613z"/>
		<path style="fill:#F95C5C;" d="M293.691,75.463c0.42,27.99,14.14,59.55,39.65,85.06c43.01,43.02,103.26,52.52,134.56,21.22    c31.29-31.3,21.79-91.54-21.22-134.56c-42.75-42.75-102.5-52.4-133.96-21.81c9.44,4.57,19.57,11.82,28.99,21.25    c23.17,23.17,33.24,50.67,22.49,61.42c-10.76,10.76-38.26,0.69-61.43-22.48C299.471,82.263,296.441,78.873,293.691,75.463z"/>
		<path style="fill:#D11C1C;" d="M422.591,27.603c-8.39,5.46-16.51,12-24.09,19.58c-13.5,13.5-23.69,28.69-30.36,44.15    c-1.92-12.91-11.44-29.72-26.43-44.71c-9.42-9.43-19.55-16.68-28.99-21.25C338.601,0.203,383.632,2.273,422.591,27.603z"/>
		<path style="fill:#D11C1C;" d="M377.281,181.743c11.81,11.81,27.74,17.81,45.31,18.39c-29,0.97-62.47-12.82-89.25-39.61    c-25.51-25.51-39.23-57.07-39.65-85.06c2.75,3.41,5.78,6.8,9.08,10.1c21.63,21.63,47.04,31.84,59.07,24.35    C355.011,137.533,359.731,164.193,377.281,181.743z"/>
		<g>
			<path style="fill:#40404C;" d="M171.465,265.423c-3.64-5.22-5.77-11.57-5.77-18.41c0-17.8,14.44-32.23,32.24-32.23     c10.77,0,20.31,5.28,26.16,13.4"/>
			<path style="fill:#40404C;" d="M332.215,265.413c3.64-5.22,5.77-11.56,5.77-18.4c0-17.8-14.43-32.23-32.23-32.23     c-10.77,0-20.31,5.28-26.16,13.39"/>
		</g>
		<path style="fill:#F95C5C;" d="M215.582,233.371l-79.508,57.766c-21.622,15.709-30.669,43.555-22.411,68.973l30.369,93.467    c8.259,25.418,31.946,42.628,58.672,42.628h98.277c26.726,0,50.413-17.209,58.672-42.628l30.369-93.467    c8.259-25.418-0.789-53.264-22.411-68.973l-79.508-57.766C266.482,217.661,237.204,217.661,215.582,233.371z"/>
		<path style="fill:#D11C1C;" d="M251.844,221.593c-6.21,0-12.41,3.92-17.69,11.78l-38.79,57.76    c-10.54,15.71-14.96,43.56-10.93,68.98l14.82,93.46c4.03,25.42,15.58,42.63,28.62,42.63h-25.17c-26.73,0-50.41-17.21-58.67-42.63    l-30.37-93.46c-8.26-25.42,0.79-53.27,22.41-68.98l79.51-57.76C226.394,225.513,239.114,221.593,251.844,221.593z"/>
	</g>
	<g>
		<path d="M486.863,95.763c-1.408-3.896-5.706-5.911-9.604-4.503c-3.895,1.409-5.911,5.708-4.502,9.604    c10.877,30.08,7.078,58.333-10.16,75.576c-13.396,13.397-33.433,18.78-56.417,15.155c-23.861-3.763-47.847-16.681-67.535-36.375    c-16.928-16.928-28.976-37.527-34.341-57.956c25.171,21.995,52.254,29.026,65.201,16.083c14.119-14.12,4.451-45.085-22.488-72.024    c-6.632-6.639-13.734-12.403-20.94-17.022c29.95-19.238,79.17-7.945,115.301,28.186c7.921,7.923,14.807,16.618,20.464,25.844    c2.165,3.531,6.781,4.638,10.314,2.473c3.531-2.166,4.638-6.783,2.473-10.314c-6.272-10.228-13.891-19.853-22.644-28.608    c-21.77-21.77-48.517-36.155-75.315-40.507c-27.642-4.491-52.209,2.125-69.177,18.624c-1.754,1.705-2.565,4.159-2.176,6.574    c0.391,2.415,1.935,4.488,4.136,5.554c9.088,4.399,18.407,11.246,26.955,19.803c22.374,22.374,28.265,45.04,22.491,50.813    c-2.891,2.89-9.855,2.791-18.182-0.256c-10.598-3.879-22.19-11.771-32.643-22.223c-3.018-3.019-5.893-6.216-8.546-9.506    c-2.009-2.49-5.376-3.435-8.388-2.345c-3.01,1.088-4.997,3.966-4.949,7.166c0.469,31.23,15.721,64.125,41.846,90.25    c21.914,21.919,48.836,36.333,75.807,40.586c5.488,0.865,10.848,1.293,16.052,1.293c18.042-0.001,34.156-5.165,46.915-15.052    c9.502,15.992,15.052,50.323,3.464,79.56c-11.361,28.664-36.542,45.07-73.001,47.702c-4.378-13.66-13.013-25.952-25.254-34.846    l-30.006-21.8c2.282-5.075,3.471-10.588,3.471-16.256c0-21.907-17.823-39.73-39.73-39.73c-10.636,0-20.785,4.315-28.187,11.753    c-16.509-6.639-34.939-6.639-51.449,0.001c-7.401-7.438-17.548-11.753-28.183-11.753c-21.913,0-39.74,17.823-39.74,39.73    c0,5.671,1.187,11.185,3.469,16.261l-29.998,21.795c-12.241,8.894-20.875,21.185-25.254,34.846    c-36.46-2.633-61.64-19.038-73.001-47.703c-11.588-29.237-6.037-63.566,3.465-79.559c12.758,9.887,28.87,15.052,46.914,15.052    c5.203,0,10.565-0.428,16.052-1.293c26.971-4.253,53.894-18.667,75.808-40.585c26.124-26.125,41.376-59.021,41.845-90.251    c0.048-3.2-1.939-6.078-4.949-7.166c-3.012-1.089-6.379-0.146-8.388,2.345c-2.653,3.29-5.528,6.487-8.546,9.505    c-10.452,10.452-22.045,18.345-32.643,22.224c-8.326,3.047-15.291,3.146-18.18,0.256c-5.774-5.774,0.116-28.44,22.492-50.816    c8.545-8.554,17.865-15.401,26.952-19.8c2.201-1.066,3.745-3.139,4.136-5.554c0.39-2.415-0.422-4.869-2.176-6.574    C179.224,3.497,154.655-3.118,127.016,1.372C100.217,5.724,73.47,20.11,51.701,41.88c-21.914,21.919-36.324,48.842-40.577,75.81    c-3.97,25.181,1.273,47.732,14.791,64.3c-14.083,20.383-19.754,62.177-6.448,95.749c6.594,16.636,17.119,29.99,31.285,39.69    c14.243,9.753,31.929,15.555,52.657,17.304c-0.829,9.14,0.149,18.544,3.123,27.695l1.121,3.45    c-5.559,1.65-13.195,4.605-21.317,9.82c-14.289,9.174-33.031,27.406-41.178,62.163c-0.945,4.033,1.558,8.068,5.59,9.014    c0.576,0.135,1.151,0.2,1.719,0.199c3.403,0,6.485-2.333,7.295-5.79c10.449-44.58,39.812-57.586,52.512-61.184l7.462,22.967    c-15.929,8.438-38.43,26.91-47.562,65.866c-0.945,4.033,1.558,8.068,5.59,9.014c0.576,0.135,1.151,0.199,1.719,0.199    c3.403,0,6.485-2.333,7.295-5.79c7.187-30.66,23.25-46.552,37.67-54.789l8.584,26.417c-12.752,12.859-21.651,29.718-26.457,50.217    c-0.945,4.033,1.557,8.069,5.59,9.014c0.576,0.135,1.151,0.2,1.719,0.2c3.403,0,6.484-2.333,7.295-5.789    c3.461-14.761,9.283-27.252,17.343-37.298c10.478,26.128,35.701,43.377,64.185,43.377h98.277    c28.483,0,53.706-17.248,64.185-43.376c8.06,10.046,13.881,22.536,17.343,37.297c0.811,3.457,3.892,5.789,7.295,5.789    c0.567,0,1.144-0.064,1.719-0.2c4.033-0.945,6.535-4.981,5.59-9.014c-4.806-20.499-13.705-37.357-26.457-50.216l8.584-26.418    c14.42,8.236,30.482,24.13,37.67,54.789c0.811,3.457,3.892,5.79,7.295,5.79c0.567,0,1.144-0.064,1.719-0.199    c4.032-0.946,6.535-4.981,5.59-9.014c-9.132-38.956-31.633-57.428-47.562-65.866l7.462-22.967    c12.701,3.598,42.063,16.604,52.511,61.184c0.81,3.458,3.892,5.79,7.295,5.79c0.567,0,1.143-0.064,1.718-0.199    c4.033-0.945,6.536-4.981,5.591-9.014c-8.146-34.757-26.889-52.989-41.177-62.163c-8.122-5.215-15.758-8.17-21.317-9.82    l1.121-3.45c2.973-9.15,3.951-18.555,3.122-27.694c20.727-1.749,38.412-7.551,52.656-17.303    c14.165-9.7,24.691-23.054,31.285-39.689c13.309-33.58,7.633-75.385-6.457-95.764C495.319,160.423,498.798,128.767,486.863,95.763    z M62.308,52.486c24.393-24.393,54.748-37.465,81.115-37.465c12.688,0,24.455,3.028,34.186,9.279    c-7.204,4.619-14.308,10.383-20.938,17.02c-26.941,26.942-36.609,57.907-22.49,72.027c7.387,7.387,19.444,8.531,33.942,3.224    c10.256-3.754,21.124-10.498,31.263-19.325c-5.363,20.434-17.413,41.043-34.345,57.975    c-19.689,19.693-43.674,32.611-67.536,36.375c-22.988,3.625-43.021-1.758-56.417-15.154    C12.774,148.116,22.293,92.51,62.308,52.486z M305.754,222.283c13.637,0,24.73,11.094,24.73,24.73c0,2.44-0.362,4.83-1.048,7.118    l-36.925-26.827c-0.281-0.205-0.57-0.395-0.853-0.594C295.754,223.873,300.664,222.283,305.754,222.283z M173.195,247.013    c0-13.636,11.099-24.73,24.74-24.73c5.089,0,9.998,1.59,14.092,4.426c-0.284,0.2-0.572,0.39-0.853,0.594l-36.931,26.832    C173.556,251.846,173.195,249.455,173.195,247.013z M300.982,488.704h-98.277c-23.55,0-44.262-15.048-51.539-37.445    l-30.369-93.467c-7.277-22.397,0.634-46.746,19.686-60.588l79.508-57.766c9.526-6.921,20.689-10.381,31.853-10.381    c11.164,0,22.327,3.46,31.854,10.381l79.508,57.766c19.052,13.843,26.964,38.191,19.687,60.588l-30.369,93.467    C345.243,473.656,324.531,488.704,300.982,488.704z"/>
		<path d="M251.843,344.137c-4.143,0-7.5,3.358-7.5,7.5v118.559c0,4.142,3.357,7.5,7.5,7.5s7.5-3.358,7.5-7.5V351.637    C259.343,347.495,255.986,344.137,251.843,344.137z"/>
		<path d="M251.843,259.402c-4.143,0-7.5,3.358-7.5,7.5v54.733c0,4.142,3.357,7.5,7.5,7.5s7.5-3.358,7.5-7.5v-54.733    C259.343,262.76,255.986,259.402,251.843,259.402z"/>
	</g>
</g>















</svg>
