<svg enable-background="new 0 0 60 39.272" height="512" viewBox="0 0 60 39.272" width="512" xmlns="http://www.w3.org/2000/svg"><path d="m59 7.496c0-3.59-2.13-6.5-4.77-6.5-2.63 0-4.76 2.91-4.76 6.5 0 2.94 1.43 5.42 3.39 6.23l-.72 22.38c-.04 1.19.91 2.17 2.09 2.17 1.19 0 2.14-.98 2.1-2.17l-.72-22.38c1.96-.81 3.39-3.29 3.39-6.23z" fill="#f4edea"/><path d="m46.12 14.596c-2.25-6.74-8.61-11.6-16.11-11.6h-.01c-9.39 0-17 7.61-17 17 0 6.43 3.57 12.03 8.84 14.92 2.42 1.33 5.2 2.08 8.16 2.08 9.39 0 17-7.61 17-17 0-1.89-.31-3.7-.88-5.4z" fill="#38bc56"/><path d="m46.12 14.596-.12.04-16 5-8 15-.16.28c2.42 1.33 5.2 2.08 8.16 2.08 9.39 0 17-7.61 17-17 0-1.89-.31-3.7-.88-5.4z" fill="#d35454"/><path d="m46.12 14.596-.12.04-16 5v-16l.01-.64c7.5 0 13.86 4.86 16.11 11.6z" fill="#f7d300"/><path d="m9.88 1.636h-3.81-4.2l-.87 6.96c0 1.64 1.33 2.96 2.96 2.96h.55l-.78 24.02c-.04 1.21.93 2.21 2.14 2.21s2.18-1 2.14-2.21l-.78-24.02h.55c.1 0 .2-.01.3-.02 1.49-.15 2.66-1.4 2.66-2.94z" fill="#f4edea"/><g fill="#3a0e33"><path d="m60 7.501c0-4.136-2.587-7.501-5.768-7.501s-5.768 3.365-5.768 7.501c0 2.989 1.33 5.633 3.372 6.831l-.7 21.742c-.027.846.281 1.647.87 2.255s1.379.943 2.226.943 1.637-.335 2.226-.943c.59-.608.898-1.409.871-2.255l-.701-21.742c2.042-1.198 3.372-3.842 3.372-6.831zm-4.773 5.298c-.386.159-.633.541-.619.958l.723 22.382c.009.3-.101.583-.31.799-.418.432-1.161.431-1.577 0-.209-.216-.318-.5-.31-.8l.722-22.382c.014-.417-.233-.799-.619-.958-1.633-.67-2.772-2.849-2.772-5.298 0-2.981 1.725-5.5 3.767-5.5s3.768 2.519 3.768 5.501c0 2.45-1.14 4.629-2.773 5.298z"/><path d="m55.159 8.534c-.154.773-.56 1.453-1.112 1.865-.443.331-.534.957-.204 1.4.196.263.498.402.803.402.208 0 .418-.064.597-.198.958-.714 1.625-1.807 1.878-3.077.108-.542-.243-1.068-.785-1.176-.542-.112-1.069.242-1.177.784z"/><path d="m10.848 1.359c-.067-.548-.566-.937-1.116-.869-.548.069-.937.569-.869 1.116l.877 7.043c-.029 1.059-.895 1.911-1.957 1.911h-.549c-.011 0-.022 0-.032 0-.063.002-.116.029-.176.042-.066.015-.135.019-.196.046-.057.025-.101.068-.152.103-.055.038-.115.068-.161.116-.043.044-.068.1-.102.151-.037.056-.08.106-.106.168-.023.058-.025.123-.037.185-.012.063-.038.121-.038.188 0 .006.003.011.003.017 0 .005-.003.01-.003.015l.778 24.013c.01.316-.105.615-.324.839-.432.445-1.206.446-1.638 0-.219-.225-.334-.523-.325-.836l.779-24.016c0-.005-.003-.01-.003-.015 0-.006.003-.011.003-.017 0-.066-.025-.125-.038-.187-.012-.062-.014-.128-.038-.186-.025-.063-.069-.113-.106-.169-.034-.051-.06-.107-.102-.151-.046-.048-.106-.078-.161-.116-.051-.035-.095-.077-.152-.103-.061-.027-.13-.032-.196-.046-.059-.013-.113-.039-.176-.042-.005 0-.01.003-.015.003-.006 0-.011-.003-.017-.003h-.545c-1.062 0-1.928-.852-1.957-1.911l.877-7.043c.068-.548-.32-1.047-.868-1.116-.549-.067-1.048.323-1.116.87l-.886 7.111c-.005.041-.008.082-.008.124 0 2.022 1.523 3.676 3.476 3.917l-.749 23.036c-.024.861.291 1.675.89 2.291.596.614 1.397.952 2.253.952.857 0 1.658-.338 2.254-.952.599-.616.914-1.429.889-2.294l-.748-23.033c1.953-.241 3.476-1.896 3.476-3.917 0-.042-.003-.083-.008-.123z"/><path d="m6.066 10.453c.553 0 1-.448 1-1v-7.97c0-.552-.447-1-1-1s-1 .448-1 1v7.97c0 .552.448 1 1 1z"/><path d="m30 2c-9.925 0-18 8.075-18 18s8.075 18 18 18 18-8.075 18-18-8.075-18-18-18zm14.808 11.961-13.808 4.315v-14.225c6.251.389 11.539 4.369 13.808 9.91zm-30.808 6.039c0-8.485 6.644-15.429 15-15.949v15.335l-7.534 14.125c-4.478-2.84-7.466-7.827-7.466-13.511zm16 16c-2.425 0-4.717-.558-6.779-1.528l7.469-14.004 14.747-4.609c.356 1.324.563 2.707.563 4.141 0 8.822-7.178 16-16 16z"/><path d="m36.422 14.636c.07 0 .141-.002.211-.007.672-.045 1.295-.301 1.803-.74.418-.361.465-.992.104-1.41-.36-.419-.994-.463-1.41-.104-.178.153-.396.243-.632.259-.562.033-1.11-.41-1.15-1.005-.02-.288.073-.566.264-.784.189-.217.452-.348.741-.367.336-.023.667.112.892.373.36.418.993.464 1.41.104.418-.361.465-.992.104-1.41-.63-.73-1.58-1.127-2.541-1.061-.821.056-1.571.427-2.112 1.047s-.809 1.414-.753 2.234c.109 1.624 1.465 2.871 3.069 2.871z"/><path d="m35.723 23.636h-2.723c-.553 0-1 .448-1 1v.778 3.111 3.111c0 .552.447 1 1 1s1-.448 1-1v-2.111h1.723c1.623 0 2.944-1.321 2.944-2.944 0-1.624-1.321-2.945-2.944-2.945zm0 3.889h-1.723v-1.889h1.723c.521 0 .944.424.944.944 0 .521-.424.945-.944.945z"/><path d="m21 20.636h3c.553 0 1-.448 1-1s-.447-1-1-1h-3v-2h3c.553 0 1-.448 1-1s-.447-1-1-1h-4c-.553 0-1 .448-1 1v8c0 .552.447 1 1 1s1-.448 1-1z"/></g></svg>