<svg height="512pt" viewBox="0 0 512 512" width="512pt" xmlns="http://www.w3.org/2000/svg"><path d="m300.148438 196.464844c-2.296876-1.394532-3.703126-3.882813-3.703126-6.574219v-181.195313c0-4.800781-3.894531-8.695312-8.695312-8.695312h-12.171875c-4.804687 0-8.699219 3.894531-8.699219 8.695312v137.742188c0 1.730469-.574218 3.402344-1.648437 4.757812-5.082031 6.421876-13.964844 15.113282-22.75 23.085938v31.230469c3.601562-2.53125 9-6.027344 12.054687-8.375 5.046875-3.878907 12.34375-.285157 12.34375 6.082031v38.003906c7.78125 3.886719 17.5 7.09375 29.566406 8.757813v-19.152344c0-5.148437 4.988282-8.875 9.902344-7.335937 11.1875 3.511718 22.039063 4.6875 31.6875 4.65625 3.949219-6.859376 8.363282-13.160157 13.105469-18.792969-23.273437-.398438-39.628906-6.003907-50.992187-12.890625zm0 0" fill="#ff646f"/><path d="m281.664062 246.890625v-234.578125c0-5.597656 3.789063-10.347656 8.929688-11.828125-.890625-.308594-1.847656-.484375-2.84375-.484375h-12.171875c-4.804687 0-8.699219 3.894531-8.699219 8.695312v137.742188c0 1.730469-.574218 3.402344-1.648437 4.757812-5.082031 6.421876-13.964844 15.113282-22.75 23.085938v31.230469c3.601562-2.53125 9-6.027344 12.054687-8.375 5.046875-3.878907 12.34375-.285157 12.34375 6.082031v38.003906c4.304688 2.148438 9.226563 4.078125 14.785156 5.667969zm0 0" fill="#ff4755"/><path d="m174.492188 266.34375c.535156-.117188 1.046874-.246094 1.574218-.367188 3.984375-16.160156 11.664063-30.285156 25.699219-36.75 4.570313-2.105468 11.019531-6.359374 15.253906-8.609374v-27.238282c-5.011719 3.082032-12.40625 8.132813-18.109375 10.980469-21.820312 10.898437-34.117187 25.980469-39.378906 40.703125 5.386719 6.203125 10.472656 13.363281 14.988281 21.328125-.011719-.015625-.019531-.03125-.027343-.046875zm0 0" fill="#ff4755"/><path d="m266.878906 258.886719v242.417969c0 4.804687 3.894532 8.699218 8.699219 8.699218h12.171875c4.800781 0 8.695312-3.894531 8.695312-8.699218v-237.507813c-9.132812-.207031-19.21875-1.554687-29.566406-4.910156zm0 0" fill="#ff646f"/><path d="m281.664062 497.6875v-235.246094c-4.816406-.78125-9.765624-1.925781-14.785156-3.554687v242.417969c0 4.804687 3.894532 8.699218 8.699219 8.699218h12.171875c.996094 0 1.953125-.179687 2.847656-.488281-5.144531-1.480469-8.933594-6.226563-8.933594-11.828125zm0 0" fill="#ff4755"/><path d="m328.742188 247.59375c-47.804688 3.722656-71.507813-12.488281-82.5625-25.207031-1.078126-1.238281-1.648438-2.835938-1.648438-4.476563v-209.214844c0-4.800781-3.894531-8.695312-8.695312-8.695312h-12.175782c-4.800781 0-8.695312 3.894531-8.695312 8.695312v233.363282c0 1.84375-.71875 3.621094-2.039063 4.902344-7.691406 7.476562-19.804687 15.367187-38.433593 19.382812 3.445312 6.078125 6.558593 12.617188 9.207031 19.578125 7.019531-1.339844 14.292969-3.484375 21.59375-6.753906 4.546875-2.035157 9.671875 1.335937 9.671875 6.316406v215.820313c0 4.804687 3.894531 8.699218 8.695312 8.699218h12.175782c4.800781 0 8.695312-3.894531 8.695312-8.699218v-238.152344c0-5.121094 5.367188-8.417969 9.976562-6.175782 26.730469 13.019532 53.554688 10.605469 68.855469 7.398438 1.484375-5.789062 3.285157-11.394531 5.378907-16.78125zm0 0" fill="#60b8ff"/><path d="m232.089844 497.6875v-485.375c0-5.121094 3.171875-9.53125 7.644531-11.382812-1.175781-.589844-2.496094-.929688-3.898437-.929688h-12.171876c-4.804687 0-8.699218 3.894531-8.699218 8.695312v233.363282c0 1.84375-.71875 3.621094-2.039063 4.902344-7.691406 7.476562-19.804687 15.367187-38.433593 19.382812 3.445312 6.078125 6.558593 12.617188 9.207031 19.578125 7.015625-1.339844 14.292969-3.484375 21.59375-6.753906 4.546875-2.035157 9.671875 1.335937 9.671875 6.316406v215.820313c0 4.804687 3.894531 8.699218 8.695312 8.699218h12.175782c1.402343 0 2.722656-.34375 3.894531-.933594-4.46875-1.847656-7.640625-6.261718-7.640625-11.382812zm0 0" fill="#22a7ff"/><path d="m375.984375 187.835938c-1.148437-1.769532-2.96875-2.988282-5.042969-3.371094-2.074218-.386719-4.210937.09375-5.917968 1.328125-15.023438 10.863281-28.550782 27.480469-38.085938 46.792969-10.363281 20.980468-15.839844 44.464843-15.839844 67.90625v5.082031c-.003906.117187-.003906.238281 0 .355469v197.902343c0 4.25 3.445313 7.695313 7.695313 7.695313s7.695312-3.445313 7.695312-7.695313v-196.859375c15.113281-45.351562 49.621094-37.132812 51.046875-36.769531 3.996094 1.074219 8.121094-1.203125 9.347656-5.152344 8.066407-26.011719 4.09375-54.152343-10.898437-77.214843zm0 0" fill="#fbc700"/><path d="m146.976562 222.992188c-1.707031-1.234376-3.84375-1.714844-5.917968-1.332032-2.074219.386719-3.894532 1.605469-5.042969 3.371094-14.992187 23.0625-18.964844 51.210938-10.898437 77.21875 1.144531 3.695312 4.855468 5.96875 8.667968 5.304688 1.730469-.300782 42.164063-6.816407 51.722656 36.214843v160.058594c0 4.25 3.445313 7.695313 7.695313 7.695313s7.699219-3.445313 7.699219-7.695313v-160.714844c0-.105469 0-.207031 0-.3125v-5.109375c0-55.882812-29.050782-96.714844-53.925782-114.699218zm0 0" fill="#fbc700"/><path d="m357.890625 232.585938c6.421875-12.996094 14.652344-24.765626 23.925781-34.390626-1.710937-3.546874-3.652344-7.007812-5.832031-10.359374-1.148437-1.769532-2.96875-2.988282-5.042969-3.371094-2.074218-.386719-4.210937.09375-5.917968 1.328125-15.023438 10.863281-28.550782 27.480469-38.085938 46.792969-10.363281 20.980468-15.839844 44.464843-15.839844 67.90625v5.082031c-.003906.117187-.003906.238281 0 .355469v197.902343c0 4.25 3.445313 7.695313 7.695313 7.695313s7.695312-3.445313 7.695312-7.695313v-196.859375c4.453125-13.359375 10.585938-22.066406 17.0625-27.699218 2.273438-16.203126 7.113281-32.054688 14.339844-46.6875zm0 0" fill="#e9b900"/><path d="m164.742188 307.554688c-3.816407.664062-7.523438-1.609376-8.667969-5.304688-6.890625-22.222656-4.988281-46.003906 5.0625-66.839844-4.722657-4.902344-9.511719-9.058594-14.160157-12.417968-1.707031-1.234376-3.84375-1.714844-5.917968-1.332032-2.070313.386719-3.894532 1.605469-5.042969 3.371094-14.992187 23.0625-18.964844 51.210938-10.898437 77.21875 1.144531 3.695312 4.855468 5.96875 8.667968 5.304688 1.730469-.300782 42.164063-6.816407 51.726563 36.214843v160.058594c0 4.25 3.445312 7.695313 7.695312 7.695313s7.695313-3.445313 7.695313-7.695313v-160.714844c0-.105469 0-.207031 0-.3125v-5.109375c0-7.78125-.582032-15.253906-1.617188-22.429687-14.957031-10.878907-33.386718-7.90625-34.542968-7.707031zm0 0" fill="#e9b900"/><path d="m412.675781 98.09375c-13.875-1.792969-25.808593-2.105469-36.078125-1.316406-38.070312 2.929687-54.34375 48.769531-25.996094 73.660156 16.667969 14.636719 32.632813 36.707031 32.632813 67.558594 0 30.847656-15.964844 52.921875-32.632813 67.558594-28.347656 24.890624-12.074218 70.730468 25.996094 73.65625 10.269532.792968 22.203125.480468 36.078125-1.3125 99.324219-12.847657 99.324219-139.902344 99.324219-139.902344s0-127.058594-99.324219-139.902344zm0 0" fill="#ffe55a"/><path d="m381.386719 305.554688c16.667969-14.636719 32.632812-36.710938 32.632812-67.558594 0-30.851563-15.964843-52.921875-32.632812-67.558594-27.503907-24.152344-13.003907-68.019531 22.65625-73.285156-10.257813-.921875-19.375-.996094-27.445313-.375-38.070312 2.929687-54.34375 48.769531-25.996094 73.660156 16.667969 14.636719 32.632813 36.707031 32.632813 67.558594 0 30.847656-15.964844 52.921875-32.632813 67.558594-28.347656 24.890624-12.074218 70.730468 25.996094 73.65625 8.070313.621093 17.1875.550781 27.445313-.375-35.660157-5.265626-50.160157-49.132813-22.65625-73.28125zm0 0" fill="#ffd500"/><path d="m99.324219 135.292969c13.875-1.796875 25.808593-2.105469 36.078125-1.316407 38.070312 2.929688 54.34375 48.765626 25.996094 73.660157-16.667969 14.636719-32.632813 36.707031-32.632813 67.558593 0 30.847657 15.964844 52.921876 32.632813 67.558594 28.347656 24.890625 12.074218 70.730469-25.996094 73.65625-10.269532.789063-22.203125.480469-36.078125-1.3125-99.324219-12.847656-99.324219-139.902344-99.324219-139.902344s0-127.058593 99.324219-139.902343zm0 0" fill="#ffe55a"/><path d="m130.109375 415.097656c-99.324219-12.847656-99.324219-139.902344-99.324219-139.902344s0-127.058593 99.324219-139.902343c2.972656-.386719 5.835937-.6875 8.632813-.941407-1.09375-.160156-2.207032-.289062-3.339844-.375-10.269532-.789062-22.203125-.480468-36.078125 1.316407-99.324219 12.84375-99.324219 139.902343-99.324219 139.902343s0 127.054688 99.324219 139.902344c13.875 1.792969 25.808593 2.101563 36.078125 1.3125 1.132812-.085937 2.246094-.214844 3.339844-.375-2.796876-.253906-5.660157-.554687-8.632813-.9375zm0 0" fill="#ffd500"/></svg>