<svg id="Layer_1" enable-background="new 0 0 512 512" height="512" viewBox="0 0 512 512" width="512" xmlns="http://www.w3.org/2000/svg"><g><g><path d="m62.256 236.373c0 107.002 86.742 193.744 193.744 193.744l20.575-193.744-20.575-193.744c-107.002 0-193.744 86.742-193.744 193.744z" fill="#66b3ff"/><path d="m256 42.629v387.488c107.002 0 193.744-86.742 193.744-193.744s-86.742-193.744-193.744-193.744z" fill="#4d88ff"/></g><g><g><path d="m120.266 55.411v68.574c0 17.992-13.021 32.99-30.133 36.092v-104.666h-30v104.666c-17.112-3.101-30.133-18.099-30.133-36.092v-68.574h-30v68.574c0 34.561 26.427 63.059 60.133 66.365v61.585h30v-61.585c33.706-3.306 60.133-31.804 60.133-66.365v-68.574z" fill="#e2dff4"/><g><path d="m110.066 461.848h-69.867v-224.913h69.867z" fill="#975b30"/></g></g><path d="m442.133 264.723h69.867v213.02h-69.867z" fill="#724435"/><path d="m512 291.445h-107.658v-149.53c0-59.458 48.2-107.658 107.658-107.658z" fill="#bebcdd"/></g><g><path d="m240.389 263.413h-31.224l15.611-27.04-15.611-27.04h31.224l15.611-27.04 7.563-18.487-7.563-20.49h-12.138l-20.794 36.017h-48.86v29.453l15.928 27.587-15.928 27.587v29.453h48.86l20.794 36.017h12.138l7.563-18.132-7.563-20.845z" fill="#f9f9f9"/><path d="m337.792 179.333h-48.86l-20.794-36.017h-12.138v38.977l15.611 27.04h31.224l-15.611 27.04 15.611 27.04h-31.224l-15.611 27.04v38.977h12.138l20.794-36.017h48.86v-29.453l-15.928-27.587 15.928-27.587z" fill="#e2dff4"/></g></g></svg>