<svg id="Capa_1" enable-background="new 0 0 512 512" height="512" viewBox="0 0 512 512" width="512" xmlns="http://www.w3.org/2000/svg"><g><circle cx="256" cy="256" fill="#66e1f8" r="246"/><circle cx="256" cy="256" fill="#fff" r="200"/><g><path d="m256 46c-115.794 0-210 94.206-210 210s94.206 210 210 210 210-94.206 210-210-94.206-210-210-210zm0 400c-104.767 0-190-85.233-190-190s85.233-190 190-190 190 85.233 190 190-85.233 190-190 190z"/><path d="m466.974 110.957c-3.132-4.548-9.358-5.697-13.908-2.563-4.548 3.133-5.695 9.359-2.562 13.908 27.146 39.414 41.496 85.646 41.496 133.698 0 63.038-24.548 122.303-69.123 166.877-44.574 44.575-103.839 69.123-166.877 69.123s-122.303-24.548-166.877-69.123c-44.575-44.574-69.123-103.839-69.123-166.877s24.548-122.303 69.123-166.877c44.574-44.575 103.839-69.123 166.877-69.123 48.053 0 94.285 14.35 133.7 41.497 4.545 3.132 10.773 1.985 13.907-2.562 3.133-4.549 1.985-10.775-2.562-13.908-42.768-29.458-92.923-45.027-145.045-45.027-68.38 0-132.667 26.629-181.019 74.98-48.353 48.353-74.981 112.64-74.981 181.02s26.628 132.667 74.981 181.02c48.352 48.351 112.639 74.98 181.019 74.98s132.667-26.629 181.02-74.98c48.351-48.353 74.98-112.64 74.98-181.02 0-52.121-15.569-102.276-45.026-145.043z"/><path d="m164.68 241.543c-.031-5.504-4.502-9.944-9.999-9.944-.019 0-.039 0-.058 0-6.165.035-12.77.061-17.958.066v-69.999c0-5.522-4.477-10-10-10s-10 4.478-10 10v79.933c0 4.868 3.505 9.028 8.302 9.854.714.123 20.687.196 29.768.146 5.524-.032 9.976-4.534 9.945-10.056z"/><path d="m375.525 159.861-9.27 46.579-14.701-47.719c-1.627-5.277-7.222-8.239-12.501-6.612-3.585 1.104-6.096 4.043-6.831 7.467l-14.508 46.871-9.242-46.722c-1.071-5.418-6.331-8.945-11.75-7.869-5.418 1.071-8.941 6.332-7.869 11.75 0 0 15.811 79.747 15.974 80.207 1.672 4.705 6.136 7.853 11.124 7.853h.078c5.02-.033 9.479-3.248 11.098-8 .03-.089 14.871-48.033 14.871-48.033s14.804 48.047 14.852 48.181c1.672 4.706 6.136 7.853 11.124 7.853h.082c5.021-.034 9.479-3.251 11.096-8.005.141-.414 15.988-79.896 15.988-79.896 1.078-5.417-2.439-10.682-7.855-11.76-5.419-1.078-10.681 2.438-11.76 7.855z"/><path d="m224.007 251.666c27.57 0 50-22.43 50-50s-22.43-50-50-50-50 22.43-50 50 22.43 50 50 50zm0-80c16.542 0 30 13.458 30 30s-13.458 30-30 30-30-13.458-30-30 13.458-30 30-30z"/><path d="m262.765 285.926c-.035-.092-.07-.183-.108-.273-1.829-4.447-6.116-7.318-10.924-7.318-.004 0-.009 0-.013 0-4.813.005-9.1 2.887-10.921 7.342-.031.075-.061.15-.089.226l-30.04 78.873c-1.966 5.161.625 10.939 5.786 12.904 1.171.446 2.374.658 3.557.658 4.03 0 7.828-2.454 9.347-6.443l5.029-13.203h34.46l4.972 13.175c1.949 5.166 7.715 7.778 12.887 5.824 5.167-1.949 7.774-7.719 5.824-12.887zm-20.76 52.764 9.692-25.447 9.604 25.447z"/><path d="m192.226 298.627c5.523 0 10-4.478 10-10s-4.477-10-10-10h-32.187c-5.523 0-10 4.478-10 10v79.414c0 5.522 4.477 10 10 10s10-4.478 10-10v-30.459h19.63c5.523 0 10-4.478 10-10s-4.477-10-10-10h-19.63v-18.955z"/><path d="m351.961 278.334h-44.181c-5.522 0-10 4.478-10 10s4.478 10 10 10h12.001v70c0 5.522 4.478 10 10 10s10-4.478 10-10v-70h12.18c5.522 0 10-4.478 10-10s-4.478-10-10-10z"/><circle cx="430" cy="82.001" r="10"/></g></g></svg>