<?xml version="1.0" encoding="iso-8859-1"?>
<!-- Generator: Adobe Illustrator 19.0.0, SVG Export Plug-In . SVG Version: 6.00 Build 0)  -->
<svg xmlns="http://www.w3.org/2000/svg" xmlns:xlink="http://www.w3.org/1999/xlink" version="1.1" id="Layer_1" x="0px" y="0px" viewBox="0 0 503.778 503.778" style="enable-background:new 0 0 503.778 503.778;" xml:space="preserve" width="512" height="512">
<g>
	<g>
		<g>
			<path style="fill:#7BAEE0;" d="M303.461,50.755c-7.538,11.96-30.498,26.91-42.473,19.398c-0.007-0.007-0.014-0.011-0.021-0.014     c-0.333-0.211-0.655-0.437-0.967-0.68h-16.221c-0.312,0.244-0.634,0.469-0.967,0.68c-0.007,0.004-0.014,0.007-0.021,0.014     c-11.975,7.513-34.935-7.438-42.473-19.398c-7.545-11.971-3.953-27.791,8.014-35.333c4.397-2.772,9.317-4.039,14.152-3.943     c4.089,0.079,8.121,1.142,11.731,3.094h35.351c3.61-1.952,7.642-3.015,11.731-3.094c4.834-0.097,9.754,1.171,14.152,3.943     C307.414,22.964,311.006,38.784,303.461,50.755z"/>
			<path style="fill:#357FBC;" d="M287.354,27.766c0,13.507-11.187,35.63-26.366,42.387c-0.007-0.007-0.014-0.011-0.021-0.014     c-0.333-0.211-0.655-0.437-0.967-0.68h-16.221c-0.312,0.244-0.634,0.469-0.967,0.68c-0.007,0.004-0.014,0.007-0.021,0.014     c-15.179-6.757-26.366-28.88-26.366-42.387c0-6.034,2.234-11.638,6.059-16.286c4.089,0.079,8.121,1.142,11.731,3.094h35.351     c3.61-1.952,7.642-3.015,11.731-3.094C285.12,16.128,287.354,21.732,287.354,27.766z"/>
			<path style="fill:#357FBC;" d="M277.507,33.12c0-14.148-11.47-25.618-25.618-25.618s-25.618,11.47-25.618,25.618     s11.47,39.057,25.618,39.057S277.507,47.269,277.507,33.12z"/>
		</g>
		<path style="fill:#43B59F;" d="M276.319,425.158v46.69c0,9.63-5.58,17.96-13.68,21.94c-3.24,1.6-6.89,2.49-10.75,2.49    c-6.75,0-12.85-2.73-17.27-7.16c-4.42-4.42-7.16-10.53-7.16-17.27v-46.69H276.319z"/>
		<path style="fill:#30CEB3;" d="M276.319,425.158v46.69c0,9.63-5.58,17.96-13.68,21.94c-2.43-1.19-4.63-2.77-6.52-4.67    c-4.42-4.42-7.16-10.53-7.16-17.27v-46.69H276.319z"/>
		<g>
			<path style="fill:#7BAEE0;" d="M321.478,101.481c-10.171,16.139-41.154,36.312-57.312,26.175c-0.01-0.01-0.019-0.015-0.029-0.019     c-0.449-0.285-0.884-0.589-1.305-0.918h-21.889c-0.42,0.329-0.855,0.633-1.305,0.918c-0.01,0.005-0.019,0.01-0.029,0.019     c-16.158,10.137-47.14-10.036-57.312-26.175c-10.181-16.153-5.334-37.501,10.814-47.677c5.934-3.74,12.573-5.45,19.096-5.32     c5.518,0.106,10.959,1.541,15.829,4.175h47.701c4.871-2.633,10.311-4.069,15.829-4.175c6.523-0.13,13.162,1.58,19.096,5.32     C326.813,63.981,331.659,85.328,321.478,101.481z"/>
			<path style="fill:#357FBC;" d="M299.744,70.46c0,18.226-15.095,48.078-35.577,57.196c-0.01-0.01-0.019-0.015-0.029-0.019     c-0.449-0.285-0.884-0.589-1.305-0.918h-21.889c-0.42,0.329-0.855,0.633-1.305,0.918c-0.01,0.005-0.019,0.01-0.029,0.019     c-20.483-9.118-35.578-38.97-35.578-57.196c0-8.142,3.015-15.704,8.176-21.976c5.518,0.106,10.959,1.541,15.829,4.175h47.701     c4.871-2.633,10.311-4.069,15.829-4.175C296.729,54.756,299.744,62.318,299.744,70.46z"/>
			<path style="fill:#7BAEE0;" d="M286.457,77.685c0-19.091-15.477-34.568-34.568-34.568s-34.568,15.477-34.568,34.568     s15.477,52.702,34.568,52.702S286.457,96.777,286.457,77.685z"/>
			<path style="fill:#357FBC;" d="M251.889,130.388c-18.981-0.285-34.324-33.69-34.324-52.701c0-19.092,15.478-34.57,34.57-34.57     c-10.433,0-18.894,15.478-18.894,34.57C233.241,96.63,241.572,129.866,251.889,130.388z"/>
		</g>
		<g>
			<path style="fill:#7BAEE0;" d="M344.636,169.049c-13.556,21.509-54.848,48.396-76.383,34.885     c-0.013-0.013-0.026-0.019-0.039-0.026c-0.599-0.38-1.179-0.786-1.739-1.224h-29.173c-0.56,0.438-1.14,0.844-1.739,1.224     c-0.013,0.006-0.026,0.013-0.039,0.026c-21.535,13.511-62.827-13.376-76.383-34.885c-13.569-21.528-7.11-49.98,14.412-63.542     c7.908-4.984,16.756-7.264,25.45-7.09c7.354,0.142,14.606,2.054,21.097,5.564h63.574c6.491-3.51,13.743-5.422,21.097-5.564     c8.694-0.174,17.542,2.106,25.45,7.09C351.745,119.07,358.204,147.521,344.636,169.049z"/>
			<path style="fill:#357FBC;" d="M315.669,127.706c0,24.291-20.118,64.077-47.417,76.229c-0.013-0.013-0.026-0.019-0.039-0.026     c-0.599-0.38-1.179-0.786-1.739-1.224h-29.173c-0.56,0.438-1.14,0.844-1.739,1.224c-0.013,0.006-0.026,0.013-0.039,0.026     c-27.299-12.152-47.417-51.937-47.417-76.229c0-10.851,4.018-20.93,10.896-29.288c7.354,0.142,14.606,2.054,21.097,5.564h63.574     c6.491-3.51,13.743-5.422,21.097-5.564C311.651,106.776,315.669,116.855,315.669,127.706z"/>
			<path style="fill:#7BAEE0;" d="M297.96,137.335c0-25.445-20.627-46.071-46.071-46.071s-46.071,20.627-46.071,46.071     s20.627,70.24,46.071,70.24S297.96,162.78,297.96,137.335z"/>
			<path style="fill:#357FBC;" d="M251.889,207.575c-25.297-0.38-45.745-44.902-45.745-70.238c0-25.445,20.628-46.074,46.074-46.074     c-13.905,0-25.182,20.628-25.182,46.074C227.036,162.583,238.139,206.88,251.889,207.575z"/>
		</g>
		<g>
			<path style="fill:#7BAEE0;" d="M375.126,265.048c-18.012,28.58-72.879,64.306-101.494,46.353     c-0.017-0.017-0.034-0.026-0.051-0.034c-0.796-0.505-1.566-1.044-2.31-1.626h-38.763c-0.744,0.582-1.515,1.121-2.31,1.626     c-0.017,0.009-0.034,0.017-0.051,0.034c-28.614,17.952-83.482-17.773-101.494-46.353c-18.029-28.606-9.447-66.41,19.15-84.431     c10.508-6.623,22.265-9.652,33.817-9.421c9.772,0.188,19.407,2.73,28.033,7.393h84.474c8.625-4.663,18.26-7.205,28.033-7.393     c11.552-0.231,23.309,2.798,33.817,9.421C384.573,198.638,393.156,236.443,375.126,265.048z"/>
			<path style="fill:#357FBC;" d="M336.637,210.113c0,32.277-26.732,85.142-63.005,101.289c-0.017-0.017-0.034-0.026-0.051-0.034     c-0.796-0.505-1.566-1.044-2.31-1.626h-38.763c-0.744,0.582-1.515,1.121-2.31,1.626c-0.017,0.009-0.034,0.017-0.051,0.034     c-36.273-16.147-63.005-69.012-63.005-101.289c0-14.418,5.34-27.81,14.478-38.917c9.772,0.188,19.407,2.73,28.033,7.393h84.474     c8.625-4.663,18.26-7.205,28.033-7.393C331.297,182.303,336.637,195.694,336.637,210.113z"/>
			<path style="fill:#7BAEE0;" d="M313.106,222.908c0-33.809-27.408-61.217-61.217-61.217s-61.217,27.408-61.217,61.217     s27.408,93.331,61.217,93.331S313.106,256.717,313.106,222.908z"/>
			<path style="fill:#357FBC;" d="M251.456,316.239c-33.614-0.505-60.784-59.663-60.784-93.328c0-33.811,27.41-61.22,61.221-61.22     c-18.476,0-33.46,27.41-33.46,61.22C218.432,256.457,233.185,315.315,251.456,316.239z"/>
		</g>
		<g>
			<path style="fill:#7BAEE0;" d="M395.909,374.154c-21.05,33.4-85.17,75.15-118.61,54.17c-0.02-0.02-0.04-0.03-0.06-0.04     c-0.93-0.59-1.83-1.22-2.7-1.9h-45.3c-0.87,0.68-1.77,1.31-2.7,1.9c-0.02,0.01-0.04,0.02-0.06,0.04     c-33.44,20.98-97.56-20.77-118.61-54.17c-21.07-33.43-11.04-77.61,22.38-98.67c12.28-7.74,26.02-11.28,39.52-11.01     c11.42,0.22,22.68,3.19,32.76,8.64h98.72c10.08-5.45,21.34-8.42,32.76-8.64c13.5-0.27,27.24,3.27,39.52,11.01     C406.949,296.544,416.979,340.724,395.909,374.154z"/>
			<path style="fill:#357FBC;" d="M350.929,309.954c0,37.72-31.24,99.5-73.63,118.37c-0.02-0.02-0.04-0.03-0.06-0.04     c-0.93-0.59-1.83-1.22-2.7-1.9h-45.3c-0.87,0.68-1.77,1.31-2.7,1.9c-0.02,0.01-0.04,0.02-0.06,0.04     c-42.39-18.87-73.63-80.65-73.63-118.37c0-16.85,6.24-32.5,16.92-45.48c11.42,0.22,22.68,3.19,32.76,8.64h98.72     c10.08-5.45,21.34-8.42,32.76-8.64C344.689,277.454,350.929,293.104,350.929,309.954z"/>
			<path style="fill:#7BAEE0;" d="M323.43,324.907c0-39.511-32.03-71.541-71.541-71.541s-71.541,32.03-71.541,71.541     s32.03,109.071,71.541,109.071S323.43,364.418,323.43,324.907z"/>
			<path style="fill:#357FBC;" d="M251.378,433.967c-39.28-0.59-71.03-69.72-71.03-109.06c0-39.51,32.03-71.54,71.54-71.54     c-21.59,0-39.1,32.03-39.1,71.54C212.788,364.107,230.028,432.887,251.378,433.967z"/>
		</g>
	</g>
	<path d="M412.467,318.521c-4.432-19.531-15.834-36.305-32.236-47.585c0.426-0.631,0.844-1.263,1.242-1.893   c9.788-15.525,12.94-33.937,8.877-51.841c-4.063-17.901-14.849-33.148-30.374-42.934c-2.383-1.501-4.841-2.835-7.354-4.017   c6.323-11.489,8.21-24.721,5.283-37.617c-3.167-13.955-11.58-25.844-23.686-33.474c-0.835-0.527-1.684-1.021-2.541-1.498   c6.739-18.244,0.038-39.45-17.014-50.206c-0.396-0.25-0.805-0.47-1.208-0.705c4.221-13.922-1.157-29.57-14.011-37.678   c-8.641-5.439-19.252-6.521-28.722-3.176C265.372,2.185,258.882,0,251.889,0c-6.993,0-13.483,2.185-18.835,5.899   c-9.47-3.346-20.082-2.263-28.728,3.179c-12.848,8.104-18.226,23.752-14.005,37.674c-0.404,0.236-0.815,0.458-1.213,0.708   c-17.047,10.753-23.748,31.958-17.008,50.202c-0.856,0.476-1.705,0.971-2.539,1.497c-12.108,7.631-20.521,19.52-23.688,33.475   c-2.928,12.901-1.039,26.139,5.281,37.618c-2.512,1.182-4.97,2.516-7.353,4.017c-2.028,1.278-4.008,2.674-5.886,4.15   c-3.256,2.56-3.821,7.275-1.261,10.531c1.479,1.882,3.679,2.865,5.901,2.865c1.622,0,3.256-0.524,4.63-1.604   c1.47-1.156,3.022-2.25,4.611-3.252c13.653-8.6,30.342-10.511,45.398-5.592c-8.792,11.545-14.025,25.938-14.025,41.536   c0,10.88,2.586,24.052,7.138,37.172c-17.674-5.079-36.669-3.864-53.591,3.531c-0.604-0.858-1.186-1.715-1.722-2.562   c-9.83-15.592-11-34.876-3.129-51.586c1.765-3.747,0.158-8.216-3.589-9.981c-3.746-1.764-8.215-0.158-9.981,3.589   c-10.063,21.366-8.564,46.03,4.015,65.984c0.396,0.627,0.814,1.256,1.238,1.885c-16.403,11.28-27.804,28.054-32.236,47.585   c-4.672,20.592-1.045,41.77,10.213,59.632c11.408,18.103,34.002,37.785,57.562,50.142c16.705,8.761,32.284,13.184,45.823,13.184   c5.36,0,10.387-0.72,15.05-2.112v32.481c0,17.606,14.324,31.93,31.93,31.93c17.606,0,31.93-14.324,31.93-31.93v-32.495   c4.687,1.391,9.742,2.105,15.121,2.105c18.469,0,40.57-8.119,63.258-23.775c3.409-2.353,4.266-7.023,1.913-10.433   c-2.353-3.409-7.023-4.267-10.433-1.913c-29.132,20.104-51.714,23.579-65.451,19.654c7.38-6.945,14.369-15.985,20.737-26.97   c13.344-23.014,21.966-51.713,21.966-73.114c0-18.571-6.454-35.654-17.216-49.16c18.388-6.585,39.032-4.498,55.816,6.082   c14.47,9.118,24.523,23.327,28.308,40.01c3.786,16.685,0.847,33.843-8.275,48.316c-3.563,5.654-8.686,11.828-14.813,17.854   c-2.954,2.904-2.994,7.653-0.089,10.606c1.468,1.493,3.407,2.242,5.348,2.242c1.898,0,3.798-0.716,5.258-2.152   c7.041-6.923,12.756-13.838,16.986-20.552C413.512,360.291,417.139,339.113,412.467,318.521z M343.277,135.954   c2.281,10.049,0.511,20.384-4.995,29.119c-0.05,0.081-0.108,0.165-0.159,0.246c-12.866-2.827-26.399-1.936-38.909,2.738   c3.966-10.77,6.245-21.771,6.245-30.722c0-11.196-3.458-21.596-9.354-30.201c10.139-2.583,21.058-0.994,30.115,4.716   C334.939,117.345,340.997,125.905,343.277,135.954z M297.4,260.344c-12.879-9.105-28.575-14.478-45.512-14.478   c-16.937,0-32.633,5.372-45.511,14.478c-5.204-13.232-8.208-26.736-8.208-37.439c0-29.616,24.099-53.71,53.72-53.71   c29.622,0,53.72,24.094,53.72,53.71C305.609,233.608,302.605,247.112,297.4,260.344z M213.319,137.334   c0-21.268,17.302-38.57,38.57-38.57s38.57,17.302,38.57,38.57c0,7.272-1.928,16.392-5.288,25.484   c-9.868-5.486-21.213-8.623-33.282-8.623c-12.069,0-23.414,3.137-33.282,8.623C215.247,153.726,213.319,144.606,213.319,137.334z    M224.819,77.684c0-14.926,12.144-27.07,27.07-27.07c14.927,0,27.07,12.144,27.07,27.07c0,3.535-0.687,7.855-1.913,12.373   c-7.506-4.01-16.069-6.292-25.157-6.292c-9.088,0-17.651,2.282-25.157,6.292C225.506,85.539,224.819,81.219,224.819,77.684z    M317.672,92.284c-8.488-1.948-17.367-1.809-25.833,0.444c1.363-5.364,2.12-10.545,2.12-15.044c0-7.797-2.14-15.101-5.852-21.369   c6.358-0.975,12.968,0.311,18.561,3.833C317.585,67.034,321.906,80.582,317.672,92.284z M291.449,21.765   c6.792,4.285,9.769,12.422,7.88,19.838c-5.05-0.86-10.227-0.782-15.272,0.213c0.614-3.061,0.952-6.004,0.952-8.697   c0-5.05-1.141-9.837-3.171-14.124C285.187,19.004,288.526,19.926,291.449,21.765z M251.889,15c9.991,0,18.12,8.128,18.12,18.119   c0,1.828-0.277,3.974-0.767,6.256c-5.295-2.408-11.167-3.761-17.353-3.761c-6.185,0-12.057,1.353-17.352,3.761   c-0.49-2.281-0.767-4.428-0.767-6.256C233.77,23.128,241.898,15,251.889,15z M212.323,21.769c2.926-1.842,6.266-2.764,9.617-2.774   c-2.03,4.287-3.17,9.074-3.17,14.124c0,2.693,0.338,5.636,0.952,8.697c-5.045-0.995-10.222-1.073-15.272-0.213   C202.56,34.187,205.535,26.051,212.323,21.769z M197.104,60.151c5.597-3.524,12.208-4.811,18.567-3.836   c-3.712,6.268-5.852,13.572-5.852,21.369c0,4.499,0.757,9.68,2.12,15.044c-8.467-2.254-17.346-2.393-25.833-0.445   C181.872,80.582,186.192,67.034,197.104,60.151z M165.654,165.318c-0.056-0.087-0.116-0.176-0.171-0.263   c-5.494-8.717-7.264-19.052-4.983-29.101c2.281-10.049,8.338-18.609,17.059-24.105c9.055-5.711,19.974-7.299,30.113-4.716   c-5.896,8.605-9.354,19.005-9.354,30.201c0,8.952,2.279,19.953,6.245,30.722C192.053,163.382,178.52,162.491,165.654,165.318z    M166.053,415.011c-21.389-11.219-41.737-28.826-51.839-44.856c-9.121-14.472-12.06-31.631-8.274-48.315   c3.785-16.683,13.838-30.892,28.309-40.011c16.783-10.579,37.427-12.668,55.815-6.082c-10.762,13.506-17.216,30.589-17.216,49.16   c0,21.401,8.622,50.1,21.966,73.114c6.379,11.001,13.379,20.053,20.771,27.001C203.053,428.684,185.531,425.227,166.053,415.011z    M251.889,488.778c-9.335,0-16.93-7.595-16.93-16.93v-33.864c5.569,2.306,11.238,3.494,16.93,3.494   c5.692,0,11.362-1.188,16.93-3.494v33.864C268.819,481.183,261.224,488.778,251.889,488.778z M251.889,426.478   c-14.768,0-30.841-13.114-44.099-35.981c-12.115-20.894-19.942-46.64-19.942-65.59c0-35.313,28.729-64.041,64.041-64.041   s64.042,28.729,64.042,64.041C315.93,363.114,284.912,426.478,251.889,426.478z M313.471,260.076   c4.551-13.119,7.138-26.292,7.138-37.171c0-15.597-5.234-29.99-14.025-41.536c15.055-4.919,31.745-3.008,45.396,5.59   c12.135,7.648,20.566,19.568,23.742,33.563c3.176,13.997,0.712,28.388-6.933,40.515c-0.538,0.851-1.122,1.71-1.727,2.57   C350.139,256.211,331.144,254.997,313.471,260.076z"/>
</g>















</svg>
