<svg id="_x33_0" enable-background="new 0 0 64 64" height="512" viewBox="0 0 64 64" width="512" xmlns="http://www.w3.org/2000/svg"><g><g><g><path d="m61 54c.55 0 1 .45 1 1 0 1.94-.78 3.68-2.05 4.95s-3.01 2.05-4.95 2.05h-46c-3.87 0-7-3.13-7-7 0-.55.45-1 1-1h1 8.8 6.17 41.03z" fill="#ccd1d9"/></g><g><path d="m56.12 49.03-.12-.03-.47-1.33c-.05-.27-.13-.53-.23-.78-.21-.49-.51-.94-.88-1.31-.56-.56-1.28-.95-2.09-1.11-.51-.1-.98-.3-1.4-.57-.78-.49-1.38-1.25-1.68-2.15l-.48-1.45c-.35-1.04-1.18-1.83-2.19-2.14-.32-.11-.66-.16-1.01-.16h-1.77c-1.05 0-2.06-.5-2.68-1.34-.05-.05-.08-.11-.12-.16-.62-.94-1.68-1.5-2.8-1.5h-2.2c0 1.66-1.34 3-3 3s-3-1.34-3-3h-1.17c-1.81 0-3.55.72-4.83 2-1.17 0-2.29.42-3.17 1.18.69.32 1.17 1.02 1.17 1.82 0 1.1-.9 2-2 2s-2-.9-2-2h-1.67c-.29 0-.57.04-.84.12-.99.29-1.79 1.09-2.06 2.14-.24 1-1 1.81-1.98 2.11-.06.03-.12.04-.19.06l-.52.14c-1.07.26-1.91 1.1-2.17 2.17l-.57 2.26-.12.03c-2.28.57-3.88 2.62-3.88 4.97h56c0-2.35-1.6-4.4-3.88-4.97z" fill="#ffeaa7"/></g><g><path d="m48.9 48.64c.24.48.04 1.05-.43 1.29l-6 2.97c-.48.24-1.06.04-1.3-.43l-1.07-2.11c-.24-.48-.04-1.05.43-1.29l6-2.97c.48-.24 1.06-.04 1.3.43z" fill="#fcd770"/></g><g><path d="m59.58 40.1c.48.36.56 1.04.17 1.5l-4.45 5.29c-.21-.49-.51-.94-.88-1.31-.56-.56-1.28-.95-2.09-1.11-.51-.1-.98-.3-1.4-.57l4.72-5.55c.34-.4.94-.47 1.36-.15z" fill="#fcd770"/></g><g><path d="m48.34 31.37c.55.22.81.84.58 1.37l-2.34 5.41v.01c-.32-.11-.66-.16-1.01-.16h-1.77c-1.05 0-2.06-.5-2.68-1.34l2.61-6.03c.22-.52.82-.76 1.34-.56z" fill="#fcd770"/></g><g><circle cx="33" cy="35" fill="#ff826e" r="3"/></g><g><path d="m37.51 45.89c.52.3.65.95.28 1.4l-1.92 2.32c-.34.41-.96.51-1.43.24l-9.95-5.74c-.52-.3-.65-.95-.28-1.4l1.92-2.32c.34-.41.96-.51 1.43-.24z" fill="#fcd770"/></g><g><path d="m20.83 38.18c.69.32 1.17 1.02 1.17 1.82 0 1.1-.9 2-2 2s-2-.9-2-2 .9-2 2-2c.3 0 .58.06.83.18z" fill="#ff826e"/></g><g><path d="m25.98 51.44c.1.45-.21.89-.73 1.02l-6.28 1.54h-6.17l-.77-2.66c-.14-.48.21-.96.77-1.07l11.31-2.25c.56-.11 1.12.2 1.24.69z" fill="#fcd770"/></g><g><path d="m11.42 34.44 4.07 5.68c-.99.29-1.79 1.09-2.06 2.14-.24 1-1 1.81-1.98 2.11l-4.29-6.87c-.29-.46-.18-1.06.26-1.39l2.54-1.9c.46-.35 1.13-.25 1.46.23z" fill="#fcd770"/></g></g><g><path d="m61 53h-.083c-.369-2.243-1.957-4.115-4.147-4.823l-.27-.773c-.021-.099-.058-.191-.084-.288l4.104-4.871c.361-.428.53-.992.465-1.549-.065-.556-.36-1.064-.81-1.396l-2.567-1.905c-.842-.627-2.036-.49-2.718.311l-4.057 4.776c-.271-.306-.501-.65-.634-1.048l-.481-1.444c-.331-.992-.998-1.793-1.842-2.319l1.958-4.532c.221-.508.226-1.068.015-1.579-.213-.514-.615-.909-1.133-1.115l-3.275-1.299c-1.032-.41-2.19.067-2.631 1.086l-2.005 4.638c-.745-.555-1.652-.87-2.608-.87h-1.339c-.447-1.721-1.999-3-3.858-3s-3.411 1.279-3.858 3h-.314c-1.926 0-3.813.729-5.242 2.015-1.057.076-2.065.453-2.931 1.062-.211-.048-.429-.077-.655-.077-1.302 0-2.402.839-2.816 2h-.853c-.134 0-.264.02-.395.033l-3.697-5.179c-.321-.451-.801-.746-1.348-.83-.553-.087-1.093.052-1.535.384l-2.54 1.906c-.84.631-1.062 1.822-.505 2.712l3.603 5.768c-1.145.482-2.011 1.472-2.318 2.702l-.426 1.701c-2.161.724-3.722 2.582-4.087 4.803h-.083c-1.103 0-2 .897-2 2 0 4.411 3.589 8 8 8h46c4.411 0 8-3.589 8-8 0-1.103-.897-2-2-2zm-8.412-9.497.93-1.094 3.509.877-1.615 1.917c-.713-.847-1.691-1.458-2.824-1.7zm6.402-2.546-.529.628-3.499-.875 1.454-1.71zm-13.418-3.957h-1.77c-.558 0-1.082-.204-1.5-.549l.64-1.451h3.908l-.878 2.032c-.133-.012-.264-.032-.4-.032zm-.871-5.996 3.296 1.339-.284.657h-3.891zm-11.701 1.996c1.103 0 2 .897 2 2s-.897 2-2 2-2-.897-2-2 .897-2 2-2zm-13 6c.552 0 1 .448 1 1s-.448 1-1 1-1-.448-1-1 .448-1 1-1zm-8.192 4.045-1.723-2.786 3.622-.906.292.409c-.741.536-1.3 1.318-1.535 2.257-.103.414-.342.762-.656 1.026zm-1.197-8.028 1.848 2.589-3.478.869-.965-1.56zm-2.484 14.982.698-.177.71-2.842c.179-.713.732-1.267 1.445-1.445l.523-.131c1.432-.357 2.543-1.469 2.9-2.9.223-.886 1.015-1.504 1.928-1.504h.853c.414 1.161 1.514 2 2.816 2 1.654 0 3-1.346 3-3 0-.62-.189-1.196-.512-1.675.475-.205.986-.325 1.512-.325h.414l.293-.293c1.085-1.085 2.587-1.707 4.121-1.707h.314c.447 1.721 1.999 3 3.858 3s3.411-1.279 3.858-3h1.339c.794 0 1.53.395 1.971 1.055.812 1.217 2.171 1.945 3.635 1.945h1.77c1.021 0 1.924.65 2.247 1.62l.482 1.445c.575 1.728 2.043 3.023 3.829 3.381 1.227.245 2.178 1.196 2.423 2.423l.681 1.968.643.164c1.504.375 2.624 1.549 2.986 2.999h-14.349l4.394-2.176c.474-.234.825-.638.991-1.137.165-.496.126-1.027-.11-1.493l-1.067-2.116c-.486-.96-1.667-1.354-2.632-.873l-6 2.971c-.474.234-.825.638-.991 1.137-.165.496-.126 1.027.11 1.493l1.067 2.115v.001c.015.029.039.05.055.078h-14.004c.521-.438.785-1.109.625-1.791l-.633-2.725c-.234-1.012-1.324-1.66-2.408-1.442l-11.31 2.243c-.568.112-1.057.445-1.341.913-.264.435-.331.938-.19 1.421l.402 1.381h-6.336c.363-1.451 1.483-2.625 2.99-3.001zm38.602-.327-2.349-1.41 2.557-1.282 1.085 2.052zm-4.466-.348 2.336 1.402-2.553 1.264-1.069-2.021zm-28.708 3.676-.512-1.764 1.479-.293 2.045 2.057zm10.566-1.293-2.226-2.226 2.405-.477c.042-.009.078-.002.081-.026l.587 2.521zm-4.586-1.758 2.315 2.315-2.568.63-2.405-2.419zm35.465 11.051h-46c-3.309 0-6-2.691-6-6h58c0 3.309-2.691 6-6 6z"/><path d="m15 45h2v2h-2z"/><path d="m41 41h2v2h-2z"/><path d="m23.995 44.975 9.943 5.74h.001c.334.192.705.285 1.071.285.617 0 1.224-.262 1.628-.751l1.92-2.321c.361-.438.511-1.004.412-1.553-.102-.562-.453-1.054-.965-1.35l-9.944-5.74c-.896-.517-2.055-.313-2.698.466l-1.92 2.321c-.361.438-.511 1.004-.412 1.553.101.562.452 1.054.964 1.35zm4.137.077 3.171-1.586 2.566 1.482-3.171 1.586zm6.965 3.924c-.016.019-.1.04-.159.007l-2.165-1.25 3.171-1.586 1.01.583zm-8.194-7.952c.016-.02.102-.041.158-.007l2.165 1.25-3.171 1.586-1.01-.583z"/><path d="m15.215 18.334 7.835 1.959c1.148.287 1.95 1.314 1.95 2.498 0 .981-.545 1.864-1.423 2.303l-2.107 1.053c-1.524.762-2.47 2.293-2.47 3.997 0 1.498.744 2.888 1.99 3.718l1.455.971 1.109-1.664-1.454-.972c-.688-.459-1.1-1.227-1.1-2.054 0-.941.522-1.787 1.364-2.208l2.107-1.053c1.56-.78 2.528-2.348 2.528-4.092 0-2.104-1.425-3.929-3.466-4.438l-7.835-1.959c-2.765-.691-4.698-3.165-4.698-6.018 0-1.847.813-3.584 2.234-4.768l.332-.278c1.804-1.502 4.088-2.329 6.434-2.329.552 0 1 .448 1 1s-.448 1-1 1h-1v2h1c1.654 0 3-1.346 3-3s-1.346-3-3-3c-2.812 0-5.552.991-7.715 2.793l-.333.278c-1.876 1.565-2.952 3.863-2.952 6.304 0 3.771 2.556 7.045 6.215 7.959z"/><path d="m17.707 8.707-1.414-1.414-.248.248c-.674.674-1.045 1.569-1.045 2.522 0 1.584 1.063 2.994 2.588 3.431l5.138 1.468.549-1.924-5.137-1.468c-.67-.191-1.138-.81-1.138-1.507 0-.413.167-.816.459-1.108z"/><path d="m31 21.981c0 1.577-.753 3.084-2.015 4.03-1.243.932-1.985 2.416-1.985 3.97v1.019h2v-1.019c0-.928.443-1.813 1.185-2.37 1.762-1.322 2.815-3.426 2.815-5.63 0-2.819-1.674-5.358-4.266-6.469l-3.341-1.432-.787 1.838 3.341 1.432c1.855.796 3.053 2.613 3.053 4.631z"/><path d="m37.293 30.293 1.414 1.414.232-.232c1.33-1.329 2.061-3.096 2.061-4.975s-.731-3.646-2.061-4.975l-1.232-1.232-1.414 1.414 1.232 1.232c.952.952 1.475 2.216 1.475 3.561s-.523 2.609-1.475 3.561z"/><path d="m35.324 11c1.434 0 2.701-.914 3.155-2.273l.47-1.41-1.898-.633-.469 1.41c-.181.542-.686.906-1.258.906-.73 0-1.324-.594-1.324-1.324v-.676c0-2.206 1.794-4 4-4s4 1.794 4 4c0 1.063-.366 2.106-1.029 2.937l-1.606 2.007c-.881 1.1-1.365 2.482-1.365 3.89 0 1.664.647 3.229 1.824 4.404l1.469 1.469 1.414-1.414-1.469-1.469c-.799-.799-1.238-1.86-1.238-2.99 0-.956.329-1.895.926-2.642l1.606-2.006c.947-1.183 1.468-2.67 1.468-4.186 0-3.309-2.691-6-6-6s-6 2.691-6 6v.676c0 1.833 1.491 3.324 3.324 3.324z"/></g></g></svg>