<?xml version="1.0" encoding="iso-8859-1"?>
<!-- Generator: Adobe Illustrator 19.0.0, SVG Export Plug-In . SVG Version: 6.00 Build 0)  -->
<svg version="1.1" id="Capa_1" xmlns="http://www.w3.org/2000/svg" xmlns:xlink="http://www.w3.org/1999/xlink" x="0px" y="0px"
	 viewBox="0 0 512 512" style="enable-background:new 0 0 512 512;" xml:space="preserve">
<path style="fill:#F1EBDE;" d="M500.639,31.814L490.41,21.585l-10.229-10.229c-3.824-3.824-9.36-4.963-13.444-2.767l-67.081,36.835
	l20.937,45.978l0,0l45.978,20.937l36.834-67.082C505.603,41.173,504.463,35.638,500.639,31.814z"/>
<g>
	<path style="fill:#C6C3B2;" d="M446.036,102.989l20.535,9.352l36.834-67.082c2.196-4.084,1.057-9.62-2.767-13.444l-10.02-10.02
		L446.036,102.989z"/>
	<path style="fill:#C6C3B2;" d="M468.245,114.013l-35.131-35.131l-10.038-10.038L397.982,43.75
		c-12.881-12.881-33.96-12.881-46.841,0l-26.767,26.767l25.094,25.094l8.365,8.365l25.094,25.094l58.552,58.552l26.767-26.767
		C481.126,147.973,481.126,126.895,468.245,114.013z"/>
</g>
<path style="fill:#F3D035;" d="M466.577,204.345L175.07,495.852c-11.549,11.549-30.273,11.549-41.823,0L16.145,378.749
	c-11.549-11.549-11.549-30.274,0-41.823L307.652,45.42c11.549-11.549,30.273-11.549,41.823,0l117.103,117.103
	C478.125,174.071,478.125,192.795,466.577,204.345z"/>
<path style="fill:#EFA628;" d="M466.577,162.522l-52.329-52.329c11.549,11.549,11.549,30.273,0,41.823l-274.13,274.13
	c-0.19,0.19-0.378,0.378-0.564,0.564c-12.05,12.051-31.582,12.046-43.633-0.005l-84.169-84.171
	c-6.891,11.376-5.43,26.391,4.394,36.215l74.214,74.214l0,0l42.889,42.889c11.549,11.549,30.273,11.549,41.823,0l291.507-291.507
	C478.125,192.795,478.125,174.071,466.577,162.522z"/>
<path style="fill:#C6C3B2;" d="M346.005,255.997c0-10.687-1.882-20.929-5.3-30.439l-114.925,4.918l-0.218,110.225
	c9.51,3.418,19.752,5.3,30.439,5.3C305.708,346.003,346.005,305.705,346.005,255.997z"/>
<path style="fill:#F1EBDE;" d="M339.595,222.587c-13.267-33.165-45.694-56.597-83.596-56.597c-49.709,0-90.006,40.297-90.006,90.006
	c0,37.902,23.431,70.33,56.596,83.596c0.979,0.392,1.975,0.751,2.971,1.109l115.143-115.143
	C340.346,224.562,339.987,223.567,339.595,222.587z"/>
<path d="M505.943,26.511L485.486,6.053c-6.15-6.148-15.323-7.825-22.356-4.037l-62.282,34.198
	c-14.822-12.602-36.619-12.846-51.707-0.722c-14.399-9.614-34.092-8.075-46.792,4.622L10.841,331.623
	c-14.455,14.455-14.455,37.974,0,52.43l117.103,117.103c7.227,7.227,16.721,10.841,26.215,10.841s18.987-3.613,26.215-10.841
	l291.508-291.508c12.699-12.7,14.237-32.395,4.621-46.794c5.764-7.169,8.903-16.042,8.903-25.421c0-9.761-3.401-18.971-9.623-26.286
	l34.229-62.338C513.766,41.828,512.091,32.659,505.943,26.511z M461.273,199.04L169.766,490.547c-8.606,8.606-22.608,8.606-31.215,0
	L21.449,373.446c-8.606-8.607-8.606-22.609,0-31.216L312.956,50.723c4.303-4.303,9.955-6.454,15.606-6.454
	c5.652,0,11.305,2.151,15.607,6.454l117.104,117.104C469.88,176.432,469.88,190.434,461.273,199.04z M496.832,41.648l-32.023,58.321
	l-15.782-15.782c-2.929-2.929-7.678-2.93-10.607-0.001c-2.93,2.929-2.93,7.678-0.001,10.607l24.523,24.525
	c8.745,8.744,9.834,22.288,3.27,32.23L360.449,45.786c9.939-6.563,23.486-5.476,32.23,3.268l1.74,1.74
	c0.017,0.016,0.033,0.033,0.049,0.05l22.736,22.736c2.928,2.928,7.677,2.927,10.607-0.001c2.929-2.929,2.929-7.678-0.001-10.607
	l-15.782-15.782l58.265-31.993c0.975-0.525,3.006-0.115,4.586,1.466l20.457,20.457C496.916,38.697,497.326,40.729,496.832,41.648z"
	/>
<path d="M258.869,206.638c-2.802-1.162-6.029-0.52-8.174,1.625l-42.429,42.43c-2.929,2.93-2.929,7.678,0,10.608
	c2.929,2.928,7.678,2.928,10.607,0l29.625-29.626v24.322c0,4.143,3.358,7.5,7.5,7.5h24.322l-29.625,29.625
	c-2.929,2.93-2.929,7.678,0,10.608c1.464,1.464,3.384,2.196,5.303,2.196s3.839-0.732,5.303-2.196l42.429-42.43
	c2.145-2.146,2.787-5.371,1.626-8.175c-1.161-2.803-3.896-4.63-6.929-4.63H263.5v-34.929
	C263.499,210.534,261.672,207.799,258.869,206.638z"/>
<path d="M255.999,158.491c-20.399,0-39.939,6.235-56.502,18.031c-3.374,2.403-4.161,7.086-1.758,10.461
	c2.402,3.373,7.086,4.161,10.46,1.759c14.009-9.978,30.538-15.25,47.8-15.25c33.945,0,64.025,20.364,76.633,51.882
	c3.896,9.74,5.872,20.042,5.872,30.623c0,45.493-37.012,82.505-82.505,82.505c-10.578,0-20.881-1.976-30.624-5.873
	c-31.517-12.606-51.881-42.687-51.881-76.632c0-17.262,5.273-33.791,15.25-47.8c2.403-3.374,1.615-8.058-1.759-10.461
	c-3.373-2.402-8.058-1.615-10.461,1.759c-11.796,16.564-18.031,36.103-18.031,56.502c0,40.115,24.066,75.662,61.311,90.561
	c11.523,4.608,23.701,6.945,36.195,6.945c53.765,0,97.506-43.741,97.506-97.506c0-12.498-2.337-24.676-6.945-36.194
	C331.662,182.556,296.115,158.491,255.999,158.491z"/>
<g>
</g>
<g>
</g>
<g>
</g>
<g>
</g>
<g>
</g>
<g>
</g>
<g>
</g>
<g>
</g>
<g>
</g>
<g>
</g>
<g>
</g>
<g>
</g>
<g>
</g>
<g>
</g>
<g>
</g>
</svg>
