<svg id="Capa_1" enable-background="new 0 0 512 512" height="512" viewBox="0 0 512 512" width="512" xmlns="http://www.w3.org/2000/svg"><g><path d="m262.731 258.177c-14.858-17.435-19.45-41.56-11.942-63.202 1.524-4.392 2.905-8.886 4.134-13.475 9.561-35.681 8.465-72.369-3.085-103.306-12.901-34.557-38.208-59.174-69.43-67.54-7.808-2.093-15.886-3.154-24.01-3.154h-81.828c-21.705 0-35.27 23.496-24.418 42.293 5.063 8.769 5.044 19.545.042 28.348-7.591 13.359-13.722 28.215-18.008 44.212-9.561 35.681-8.466 72.369 3.084 103.306 7.258 19.442 18.443 35.737 32.399 47.763 6.421 5.532 8.151 14.678 4.247 22.201-.32.616-.631 1.236-.933 1.863-5.029 10.458-9.135 21.566-12.203 33.014-9.561 35.682-8.466 72.369 3.084 103.307 12.901 34.557 38.207 59.174 69.43 67.54 7.807 2.092 15.885 3.153 24.01 3.154h.005c55.011 0 106.089-47.23 124.207-114.853 11.524-43.001 8.185-99.823-18.785-131.471z" fill="#d09080"/><path d="m262.731 258.177c-14.858-17.436-19.45-41.56-11.942-63.202 1.524-4.392 2.905-8.886 4.134-13.475 9.561-35.681 8.465-72.369-3.085-103.306-12.901-34.557-38.208-59.174-69.43-67.54-1.26-.338-2.528-.648-3.801-.932 14.344 12.091 25.83 28.645 33.232 48.472 11.55 30.937 12.646 67.626 3.085 103.306-1.229 4.588-2.611 9.083-4.134 13.475-7.509 21.642-2.917 45.767 11.942 63.202 26.971 31.648 30.31 88.47 18.788 131.47-18.12 67.623-69.198 114.853-124.209 114.853-.003 0-.002 0-.005 0-6.813 0-13.593-.747-20.208-2.221 10.656 8.983 22.89 15.502 36.198 19.068 7.807 2.092 15.885 3.153 24.01 3.154h.005c55.011 0 106.089-47.23 124.207-114.853 11.522-43.001 8.183-99.823-18.787-131.471z" fill="#c67d66"/><path d="m459.302 258.176c-14.858-17.435-19.45-41.56-11.941-63.202 1.524-4.392 2.905-8.886 4.134-13.475 9.561-35.681 8.465-72.369-3.085-103.306-12.901-34.557-38.208-59.174-69.43-67.54-7.809-2.092-15.887-3.153-24.011-3.153h-81.827c-21.705 0-35.27 23.496-24.418 42.293 4.409 7.637 4.961 16.796 1.726 24.849.476 1.173.942 2.355 1.388 3.552 11.55 30.937 12.646 67.626 3.085 103.306-1.229 4.588-2.611 9.083-4.135 13.475-7.51 21.645-2.912 45.769 11.946 63.208 26.961 31.643 30.309 88.448 18.783 131.465-4.626 17.264-11.403 33.194-19.842 47.353 13.241 32.878 37.938 56.241 68.191 64.347 7.807 2.092 15.885 3.153 24.01 3.154h.005c55.011 0 106.089-47.23 124.207-114.853 11.523-43 8.184-99.824-18.786-131.473z" fill="#d09080"/><path d="m459.301 258.176c-14.858-17.435-19.45-41.56-11.941-63.202 1.524-4.392 2.905-8.886 4.134-13.475 9.561-35.681 8.465-72.369-3.085-103.306-12.901-34.557-38.208-59.174-69.43-67.54-1.26-.338-2.528-.648-3.801-.932 14.344 12.091 25.83 28.645 33.231 48.472 11.55 30.937 12.646 67.626 3.085 103.306-1.229 4.588-2.611 9.083-4.134 13.475-7.509 21.642-2.917 45.767 11.941 63.202 26.971 31.649 30.309 88.473 18.788 131.471-18.118 67.623-69.196 114.853-124.207 114.853-.003 0-.002 0-.005 0-6.813-.001-13.593-.747-20.208-2.221 10.656 8.983 22.89 15.502 36.199 19.068 7.807 2.092 15.885 3.153 24.01 3.154h.005c55.011 0 106.089-47.23 124.207-114.853 11.521-42.999 8.182-99.823-18.789-131.472z" fill="#c67d66"/><ellipse cx="341.126" cy="151.927" fill="#f1ddd5" rx="111.308" ry="79.313" transform="matrix(.259 -.966 .966 .259 106.087 442.108)"/><path d="m436.492 285.922c-9.29-16.884-31.345-21.549-47.079-10.422-18.854 13.334-40.178 20.853-62.129 20.853h-.162c-11.089-.01-21.263 6.286-26.07 16.279-4.022 8.361-7.385 17.374-9.942 26.914-15.911 59.379 5.491 116.706 47.802 128.044 42.311 11.337 89.509-27.609 105.42-86.988 9.483-35.39 5.712-70.05-7.84-94.68z" fill="#f1ddd5"/><path d="m369.935 44.411c-3.571-.957-7.177-1.555-10.797-1.813 21.901 24.034 30.244 66.396 18.599 109.857-14.568 54.367-55.364 91.604-94.623 88.801 8.021 8.803 17.861 15.147 29.203 18.187 42.311 11.337 89.509-27.609 105.42-86.988 15.911-59.38-5.491-116.707-47.802-128.044z" fill="#e7c6bc"/><path d="m436.492 285.922c-7.514-13.656-23.378-19.318-37.494-15.097 11.479 24.214 14.204 56.676 5.335 89.777-14.568 54.367-55.364 91.604-94.623 88.801 8.021 8.803 17.861 15.147 29.203 18.187 42.311 11.337 89.509-27.609 105.42-86.988 9.482-35.39 5.711-70.05-7.841-94.68z" fill="#e7c6bc"/><path d="m424.307 273.601c-23.008-15.655-30.904-45.57-18.397-70.451-21.395 41.383-59.116 65.531-93.592 56.293-8.159-2.186-15.539-6.083-22.026-11.374 16.747 16.336 21.444 41.709 11.54 63.058 5.071-9.116 14.768-14.783 25.289-14.774h.162c21.951 0 43.275-7.52 62.129-20.854 10.709-7.573 24.347-7.83 34.895-1.898z" fill="#c67d66"/><path d="m381.808 109.156c-2.303 35.161-14.03 77.375-31.004 108.148-2.001 3.627-.683 8.189 2.944 10.189 3.611 1.993 8.181.697 10.189-2.944 17.979-32.592 30.383-76.922 32.838-114.413.271-4.133-2.86-7.704-6.994-7.974-4.125-.276-7.702 2.86-7.973 6.994z"/><path d="m377.401 323.949c-3.999-1.069-8.113 1.303-9.186 5.304l-21.854 81.56c-1.072 4.001 1.302 8.113 5.304 9.186 3.998 1.069 8.112-1.298 9.186-5.304l21.854-81.56c1.071-4.002-1.303-8.114-5.304-9.186z"/><path d="m84.778 111.667c1.073 4.003 5.184 6.374 9.186 5.304l11.966-3.206c.815 13.594.76 30.997.555 44.635l-46.177 12.373c-.02-25.945 6.882-53.235 20.144-76.576 2.046-3.602.786-8.18-2.816-10.226-3.601-2.046-8.179-.786-10.226 2.816-23.564 41.473-28.831 92.34-13.745 132.752 5.956 15.953 15.127 29.728 26.524 39.836 4.818 4.274 8.332 9.587 10.43 15.373.038.114.078.227.121.339 3.326 9.449 2.892 20.121-1.782 29.567-4.379 8.99-8.325 19.374-11.273 30.375-10.781 40.236-6.642 80.73 11.357 111.099 2.119 3.575 6.723 4.733 10.276 2.628 3.563-2.112 4.74-6.713 2.628-10.276-11.467-19.347-16.532-43.538-14.856-69.117h44.507c-1.788 11.273-3.066 22.233-3.822 32.617h-19.281c-4.142 0-7.5 3.358-7.5 7.5s3.358 7.5 7.5 7.5h18.542c-.268 11.117.152 21.312 1.277 30.19.517 4.085 4.249 7.021 8.383 6.498 4.109-.521 7.019-4.274 6.498-8.383-1.048-8.272-1.43-17.83-1.164-28.305h37.922c-3.444 11.172-7.106 21.409-10.845 30.25-1.614 3.814.17 8.215 3.985 9.829 3.806 1.612 8.213-.163 9.829-3.985 4.418-10.443 8.72-22.705 12.699-36.093h40.066c-6.791 12.134-15.082 22.877-24.503 31.589-3.042 2.812-3.227 7.557-.415 10.599 2.816 3.045 7.561 3.223 10.599.415 19.969-18.465 35.328-44.911 43.247-74.466 6.312-23.559 7.282-49.802 3.293-72.009-.021-.135-.045-.269-.073-.401-3.25-17.788-9.664-32.902-18.424-43.18-18.854-22.125-24.662-52.889-15.156-80.287 1.389-4.003 2.656-8.131 3.765-12.271 8.626-32.193 7.711-65.099-2.576-92.656-10.896-29.187-31.877-49.874-57.564-56.757-3.998-1.069-8.114 1.302-9.186 5.303s1.302 8.114 5.303 9.186c14.822 3.971 27.807 13.808 37.384 27.934l-39.798 10.664c-6.279-14.662-15.079-26.38-25.404-33.463-3.416-2.344-8.084-1.474-10.427 1.942s-1.474 8.084 1.942 10.427c7.469 5.124 14.148 13.95 19.208 25.028l-37.624 10.081c-1.199-9.993-2.705-18.228-4.012-24.307-.871-4.05-4.864-6.628-8.909-5.756-4.05.871-6.626 4.86-5.756 8.909 1.117 5.194 2.76 13.904 4.019 25.082l-14.539 3.896c-4 1.071-6.374 5.184-5.302 9.184zm-23.63 74.41 45.035-12.067c-.309 13.78-.347 13.448-.485 22.788-.128 7.367.536 14.545 1.977 21.597l-13.49 3.615c-4.001 1.072-6.375 5.185-5.304 9.186 1.07 3.992 5.171 6.377 9.186 5.304l13.697-3.67c3.827 10.435 9.333 19.981 16.197 28.016l-25.562 3.365c-2.952-5.973-7.061-11.448-12.258-16.056-14.237-12.631-25.824-33.554-28.993-62.078zm124.216 86.546c7.691 8.272 12.682 20.619 14.002 34.125h-38.826c1.38-11.897-.581-23.897-5.378-34.354l26.894-3.541c1.067 1.287 2.169 2.544 3.308 3.77zm9.464 81.741h-45.327c2.2-11.197 4.756-22.135 7.621-32.617h42.146c-.294 2.458-1.399 14.679-4.44 32.617zm-48.603-95.924c-.944-1.088-1.929-2.138-2.955-3.147-7.246-7.125-13.038-16.191-16.952-26.364l35.21-9.435c1.379 12.645 5.174 24.704 11.097 35.47zm16.609-68.079c-.922 4.534-1.506 9.124-1.751 13.723l-38.888 10.42c-1.104-5.71-1.601-11.527-1.498-17.462.229-13.637.275-12.651.579-27.076l45.956-12.314c-.661 10.215-2.06 21.103-4.398 32.709zm-60.413 120.908c5.115-10.334 6.575-21.74 4.706-32.551l32.241-4.245c5.514 9.295 7.775 20.877 6.042 32.274h-25.153c-4.142 0-7.5 3.358-7.5 7.5s3.358 7.5 7.5 7.5h21.337c-2.829 10.741-5.274 21.619-7.369 32.617h-45.397c2.516-15.203 7.285-30.146 13.593-43.095zm40.388 90.712c.831-10.863 2.226-21.952 3.984-32.617h45.249c-1.999 9.849-4.732 21.513-7.747 32.617zm57.01 0c2.922-11.098 5.563-22.645 7.518-32.617h29.125c4.142 0 7.5-3.358 7.5-7.5s-3.358-7.5-7.5-7.5h-26.426c1.932-11.749 3.452-23.595 4.307-32.617h39.727c2.475 18.984 1.211 40.246-3.945 59.488-1.916 7.152-4.303 14.094-7.112 20.746zm38.175-122.724c5.689 6.675 10.195 16.149 13.178 27.49h-36.735c-1.23-15.583-6.471-29.884-14.961-40.68 2.663-1.434 4.298-4.407 3.88-7.584-.542-4.106-4.314-6.999-8.415-6.457l-6.103.803c-7.148-10.859-11.518-23.687-12.618-37.272l39.16-10.493c-2.988 26.443 4.991 53.512 22.614 74.193zm-19.096-195.762c.887 1.968 1.719 3.991 2.494 6.065 9.205 24.658 9.965 54.322 2.14 83.527-2.471 9.219-3.15 9.85-4.832 15.558l-42.22 11.313c.665-5.706 1.285-6.831 2.992-17.331 1.601-9.844 2.614-19.573 3.04-29.07l30.752-8.24c4.001-1.072 6.375-5.185 5.304-9.186-1.072-4.001-5.186-6.374-9.186-5.304l-26.702 7.155c-.31-12.708-1.739-24.844-4.281-36.094-.542-2.399-1.144-4.753-1.801-7.06zm-56.796 15.219c3.132 10.848 5.475 25.574 5.592 43.286l-46.153 12.367c.14-11.796.109-23.439-.299-34.494-.128-3.473-.31-6.832-.534-10.067z"/><path d="m465.01 253.312c-13.129-15.407-17.177-36.818-10.564-55.879 1.584-4.565 3.029-9.272 4.293-13.992 9.961-37.174 8.788-75.483-3.303-107.871-13.76-36.858-40.92-63.16-74.516-72.162-8.443-2.261-17.174-3.408-25.951-3.408h-81.828c-12.905 0-24.461 6.672-30.913 17.848-3.658 6.337-5.242 13.37-4.752 20.311-21.019-25.338-49.575-38.159-79.078-38.159h-41.375c-4.142 0-7.5 3.358-7.5 7.5s3.358 7.5 7.5 7.5h41.375c7.467 0 14.892.975 22.069 2.898 30.653 8.213 53.077 32.735 64.345 62.918 11.009 29.489 12.027 64.556 2.866 98.742-1.171 4.372-2.509 8.731-3.975 12.958-8.349 24.064-3.246 51.088 13.318 70.525 26.479 31.071 27.504 86.402 17.251 124.665-18.238 68.078-68.525 109.294-116.966 109.294-7.47 0-14.895-.976-22.069-2.898-28.85-7.73-52.303-30.663-64.345-62.918-11.008-29.488-12.026-64.555-2.865-98.742 2.947-11 6.889-21.667 11.715-31.703.269-.559.547-1.111.832-1.661 5.523-10.643 3.053-23.529-6.008-31.337-13.096-11.285-23.563-26.743-30.269-44.704-11.009-29.488-12.026-64.555-2.866-98.742 4.047-15.105 9.863-29.387 17.284-42.448 6.304-11.094 6.278-24.813-.068-35.804-3.741-6.479-3.741-14.216 0-20.695s10.442-10.348 17.923-10.348h5.452c4.142 0 7.5-3.358 7.5-7.5s-3.358-7.5-7.5-7.5h-5.452c-12.904 0-24.46 6.672-30.912 17.848-6.453 11.176-6.452 24.52 0 35.695 3.696 6.401 3.702 14.407.016 20.893-8.051 14.17-14.354 29.639-18.731 45.976-9.961 37.176-8.789 75.485 3.302 107.871 7.586 20.32 19.526 37.893 34.53 50.821 3.77 3.249 4.792 8.621 2.486 13.064-.354.683-.7 1.371-1.035 2.068-20.771 43.184-26.346 96.766-9.387 142.194 13.76 36.858 40.92 63.16 74.516 72.162 8.439 2.261 17.17 3.408 25.956 3.409 39.612 0 77.224-22.78 103.253-59.56 5.452 10.352 12.108 19.634 19.876 27.707 2.869 2.982 7.617 3.079 10.604.204 2.985-2.872 3.076-7.62.204-10.604-8.695-9.037-15.821-19.86-21.215-32.212 4.624-8.133 8.725-16.792 12.223-25.903 1.077 4.305 2.375 8.505 3.895 12.574 9.9 26.52 27.949 44.499 50.819 50.627 24.893 6.669 49.527-2.099 69.325-18.435 21.104-17.414 37.185-43.644 45.281-73.856 9.707-36.227 6.604-72.762-8.514-100.237-3.444-6.259-8.519-11.399-14.596-14.947-19.845-13.543-26.578-38.758-16.166-60.214 5.291-10.148 9.574-21.156 12.681-32.75 6.596-24.619 7.308-49.563 2.057-72.134-.938-4.035-4.973-6.543-9.004-5.606-4.035.939-6.544 4.97-5.606 9.004 4.695 20.18 4.025 42.606-1.936 64.854-6.768 25.259-20.329 49.657-40.338 66.168-15.564 12.842-32.521 18.699-48.505 16.91l35.532-132.607c1.072-4.001-1.302-8.114-5.304-9.186-3.998-1.068-8.113 1.302-9.186 5.303l-35.531 132.609c-12.99-5.68-25.71-17.895-33.551-38.897-8.488-22.735-9.145-50.249-1.85-77.473 7.294-27.225 21.621-50.724 40.338-66.169 7.827-6.459 16.007-11.15 24.239-13.99-2.797 3.114-5.687 6.757-8.66 11.002-13.323 19.025-25.02 45.772-32.936 75.315-1.072 4.001 1.302 8.113 5.304 9.186 3.998 1.069 8.112-1.298 9.186-5.304 7.474-27.895 18.389-52.965 30.733-70.592 10.418-14.876 21.167-22.974 28.03-21.132 13.282 3.564 23.969 12.341 31.667 23.729 2.319 3.433 6.984 4.334 10.414 2.013 3.432-2.32 4.333-6.982 2.013-10.414-10.285-15.214-24.189-25.524-40.211-29.817-.055-.015-.11-.029-.165-.043-22.826-6.051-47.379.506-69.16 18.478-14.886 12.283-27.272 28.952-36.121 48.311-1.715-10.078-4.354-19.957-7.978-29.429 2.918-9.532 1.79-19.738-3.234-28.44-3.741-6.479-3.741-14.215 0-20.695 3.742-6.481 10.442-10.349 17.924-10.349h81.828c7.467 0 14.892.975 22.069 2.898 28.851 7.73 52.303 30.663 64.345 62.918 11.009 29.489 12.027 64.556 2.866 98.742-1.171 4.372-2.509 8.731-3.975 12.958-8.349 24.064-3.246 51.088 13.318 70.525 26.479 31.071 27.504 86.403 17.251 124.665-17.241 64.351-65.337 109.294-116.966 109.294-12.561-.002-25.106-2.744-36.751-8.349-3.734-1.797-8.214-.228-10.011 3.505s-.228 8.214 3.505 10.011c13.86 6.671 28.654 9.831 43.261 9.833 58.401 0 112.456-49.515 131.452-120.412 11.235-41.928 9.667-103.084-20.324-138.276zm-27.923 125.349c-7.294 27.224-21.621 50.724-40.338 66.169-17.988 14.843-37.839 20.354-55.896 15.515-5.028-1.347-9.776-3.46-14.185-6.278-2.555-25.784-1.068-53.93 4.33-81.644.792-4.066-1.862-8.004-5.928-8.796-4.065-.791-8.003 1.863-8.796 5.928-4.522 23.214-6.428 46.756-5.651 69.14-4.132-5.677-7.64-12.29-10.419-19.734-8.488-22.735-9.145-50.249-1.85-77.474 2.386-8.905 5.567-17.52 9.456-25.604 3.516-7.31 11.084-12.03 19.292-12.03 23.931 0 46.784-8.186 66.641-22.229 3.616-2.557 7.795-4.097 12.102-4.536 5.523 21.234 3.227 56.25-6.227 91.533-1.072 4.001 1.303 8.114 5.304 9.186 3.994 1.068 8.111-1.294 9.186-5.304 9.178-34.254 11.919-67.716 7.863-91.567 3.279 2.133 5.997 5.051 7.951 8.602 13.073 23.761 15.752 57.078 7.165 89.123zm-109.681-109.735c25.595-.001 48.746-14.584 65.548-33.492 1.128 9.336 4.397 18.582 9.897 26.91-6.329.881-12.437 3.262-17.769 7.033-18.017 12.742-38.002 19.477-57.798 19.477-.32.029-6.078-.242-12.893 2.298.441-8.269-.75-16.541-3.482-24.324 5.424 1.404 10.941 2.098 16.497 2.098zm-41.844-14.986c14.056 14.127 17.896 35.634 9.561 53.823-.651 1.193-1.34 2.663-2.1 4.326-3.438-22.091-11.166-43.033-24.584-58.777-11.524-13.523-16.051-31.672-12.514-48.797 4.908 18.919 14.467 37.094 29.637 49.425z"/></g></svg>