<svg height="512" viewBox="0 0 256 256" width="512" xmlns="http://www.w3.org/2000/svg"><g id="Layer_3"><g><g><path d="m182.404 39.728c-9.186-9.186-24.299-8.834-33.031 1.056-7.637 8.65-7.442 21.955.426 30.396 3.132 3.36 7.027 5.526 11.148 6.538l27.41-27.41c-.952-3.876-2.925-7.552-5.953-10.58z" fill="#916547"/></g><g><path d="m202.816 82.735c-.869.547-2.01.369-2.736-.357l-8.383-8.383c-.315.633-.731 1.228-1.258 1.755l-4.049 4.05c-.527.527-1.123.943-1.755 1.258l8.383 8.383c.726.726.903 1.867.356 2.736-1.635 2.599-1.333 6.123.828 8.358 2.642 2.733 7 2.761 9.677.084 1.025-1.025 1.653-2.296 1.884-3.624.165-.947.925-1.707 1.872-1.872 1.327-.232 2.599-.859 3.624-1.884 2.677-2.677 2.649-7.035-.084-9.677-2.234-2.158-5.758-2.464-8.359-.827z" fill="#fce4be"/></g><g><path d="m176.913 79.8c2.617 2.617 6.859 2.617 9.476 0l4.049-4.049c2.617-2.617 2.617-6.859 0-9.476l-.035-.035c-.62-.62-1.152-1.313-1.605-2.051l-13.978 13.978c.754.46 1.461 1.001 2.093 1.633z" fill="#916547"/></g><g><g><path d="m144.785 119.33c-1.363 1.209-2.697 2.448-3.971 3.749-2.596 2.649-6.853 2.613-9.449-.037-14.095-14.387-33.731-23.322-55.463-23.322-21.951 0-41.765 9.112-55.89 23.754-4.45 4.613-4.45 11.968 0 16.581 5.387 5.584 11.605 10.356 18.45 14.132 11.103-6.126 23.86-9.621 37.44-9.621 13.584 0 26.348 3.491 37.453 9.621 6.661-3.678 12.726-8.306 18.011-13.7 2.596-2.649 6.853-2.686 9.449-.037 4.204 4.291 8.903 8.093 14.001 11.323 1.99 1.261 4.596-.208 4.596-2.563v-23.003c-5.096-1.614-10.018-3.903-14.627-6.877z" fill="#818182"/></g></g><g><path d="m132.974 184.121c4.945-6.091 10.976-10.101 17.491-10.101 3.114 0 6.117.918 8.944 2.538v-17.392c0-2.356-2.606-3.824-4.596-2.563-5.098 3.229-9.797 7.032-14.001 11.323-2.596 2.649-6.853 2.613-9.449-.037-14.095-14.387-33.731-23.322-55.463-23.322-21.951 0-41.765 9.112-55.89 23.754-4.45 4.613-4.45 11.968 0 16.581 5.387 5.584 11.605 10.356 18.45 14.132 11.103-6.126 23.86-9.621 37.44-9.621 13.584 0 26.348 3.491 37.453 9.621 6.661-3.678 12.726-8.306 18.011-13.7.486-.497 1.03-.901 1.61-1.213z" fill="#818182"/></g><g><path d="m120.109 220.935c0-5.112.852-10.605 2.392-15.967-12.98-9.76-29.107-15.556-46.599-15.556-21.951 0-41.765 9.112-55.89 23.754-4.45 4.613-4.45 11.968 0 16.581 14.124 14.641 33.938 23.753 55.889 23.753 17.979 0 34.512-6.128 47.672-16.386-2.209-4.562-3.464-9.987-3.464-16.179z" fill="#818182"/></g><g><path d="m199.466 174.019c-16.766 0-30.357 26.492-30.357 46.916s13.591 32.565 30.357 32.565 30.357-12.141 30.357-32.565-13.591-46.916-30.357-46.916z" fill="#fce4be"/></g><g><path d="m169.109 220.935c0-8.166 2.177-17.299 5.857-25.324-5.523-12.046-14.438-21.591-24.5-21.591-16.766 0-30.357 26.492-30.357 46.916s13.591 32.564 30.357 32.564c10.062 0 18.977-4.378 24.5-12.29-3.68-5.271-5.857-12.109-5.857-20.275z" fill="#dae6f1"/></g><g><circle cx="150.326" cy="224" fill="#f5c84c" r="17.5"/></g><g><g><path d="m113.354 154.188c6.661-3.678 12.726-8.306 18.011-13.7.134-.137.29-.237.432-.361-12.138 3.892-25.016 6.119-38.365 6.453 7.055 1.631 13.749 4.2 19.922 7.608z" fill="#aaaaaf"/></g></g><g><g><path d="m113.354 199.033c6.661-3.678 12.726-8.306 18.011-13.7.134-.137.29-.237.432-.361-12.138 3.892-25.016 6.119-38.365 6.453 7.055 1.631 13.749 4.2 19.922 7.608z" fill="#aaaaaf"/></g></g><g><path d="m121.8 232.607c-10.219 2.437-20.881 3.732-31.847 3.732-11.735 0-23.12-1.485-33.989-4.264-1.42 6.012-4.005 11.574-7.52 16.423 8.536 3.23 17.789 5.002 27.457 5.002 17.979 0 34.512-6.128 47.672-16.386-.687-1.419-1.281-2.923-1.773-4.507z" fill="#aaaaaf"/></g><g><path d="m38.487 154.174c4.995-2.754 10.33-4.958 15.919-6.567 1.81-4.94 2.804-10.274 2.804-15.842 0-10.104-3.257-19.443-8.766-27.042-10.843 4.103-20.529 10.56-28.432 18.752-4.45 4.613-4.45 11.968 0 16.581 5.389 5.587 11.625 10.342 18.475 14.118z" fill="#5b5d60"/></g><g><path d="m38.487 199.02c4.995-2.754 10.33-4.958 15.919-6.567 1.81-4.94 2.804-10.274 2.804-15.842 0-10.104-3.257-19.443-8.766-27.042-10.843 4.103-20.529 10.56-28.432 18.752-4.45 4.613-4.45 11.968 0 16.581 5.389 5.586 11.625 10.341 18.475 14.118z" fill="#5b5d60"/></g><g><path d="m20.011 229.746c7.903 8.192 17.589 14.649 28.432 18.752 5.509-7.6 8.766-16.938 8.766-27.042s-3.257-19.443-8.766-27.042c-10.843 4.103-20.529 10.56-28.432 18.752-4.45 4.612-4.45 11.968 0 16.58z" fill="#5b5d60"/></g><g><circle cx="39.826" cy="126" fill="#818182" r="5.5"/></g><g><circle cx="39.826" cy="170.845" fill="#818182" r="5.5"/></g><g><circle cx="39.826" cy="215.691" fill="#818182" r="5.5"/></g><g><g><g><path d="m231.876 6.21c-3.157-.561-5.613-3.017-6.245-6.104 0-.14-.281-.14-.281 0-.631 3.087-3.087 5.543-6.245 6.104-.14 0-.14.21 0 .281 3.157.561 5.613 3.017 6.245 6.104 0 .14.281.14.281 0 .632-3.087 3.087-5.543 6.245-6.104.14-.071.14-.281 0-.281z" fill="#87d147"/></g></g></g><g><g><g><path d="m89.867 64.589h2.3v2.3c0 1.7 1.4 3.2 3.2 3.2s3.2-1.4 3.2-3.2v-2.3h2.3c1.7 0 3.2-1.4 3.2-3.2s-1.4-3.2-3.2-3.2h-2.3v-2.3c0-1.7-1.4-3.2-3.2-3.2s-3.2 1.4-3.2 3.2v2.3h-2.3c-1.7 0-3.2 1.4-3.2 3.2s1.4 3.2 3.2 3.2z" fill="#70d6f9"/></g></g></g><g><g><g><circle cx="207.267" cy="138.931" fill="#fc657e" r="3.4"/></g></g></g><g><g><g><circle cx="76.267" cy="81.931" fill="#f5c84c" r="3.4"/></g></g></g><g><g><g><path d="m211.684 160.181c4.5-.8 8-4.3 8.9-8.7 0-.2.4-.2.4 0 .9 4.4 4.4 7.9 8.9 8.7.2 0 .2.3 0 .4-4.5.8-8 4.3-8.9 8.7 0 .2-.4.2-.4 0-.9-4.4-4.4-7.9-8.9-8.7-.2-.1-.2-.4 0-.4z" fill="#f5c84c"/></g></g></g><g><path d="m221.393 24.433c-23.912-23.911-62.819-23.912-86.731 0-23.911 23.912-23.911 62.819 0 86.731 23.911 23.91 62.818 23.912 86.731 0 23.911-23.911 23.911-62.818 0-86.731zm-79.57 7.162c17.856-17.856 45.728-19.745 65.708-5.642 1.591 1.123 1.749 3.431.372 4.808l-66.915 66.915c-1.377 1.377-3.685 1.218-4.808-.372-14.095-19.971-12.217-47.85 5.643-65.709zm72.408 72.408c-17.86 17.859-45.738 19.738-65.709 5.642-1.591-1.123-1.749-3.431-.372-4.808l66.915-66.915c1.377-1.377 3.685-1.218 4.808.372 14.096 19.972 12.217 47.85-5.642 65.709z" fill="#fc657e"/></g><g><path d="m178.026 131.597c-16.345 0-32.689-6.221-45.133-18.664-24.886-24.887-24.886-65.38 0-90.267 24.885-24.887 65.38-24.887 90.267 0 24.886 24.886 24.886 65.38 0 90.267-12.443 12.442-28.788 18.664-45.134 18.664zm0-122.598c-15.064 0-30.129 5.734-41.598 17.202-22.936 22.937-22.936 60.259 0 83.196 22.94 22.937 60.262 22.936 83.196 0 22.936-22.937 22.936-60.259 0-83.196-11.468-11.468-26.533-17.202-41.598-17.202zm.003 112.541c-10.762 0-21.581-3.24-30.948-9.853-1.349-.952-2.204-2.447-2.346-4.102-.144-1.679.457-3.325 1.647-4.516l66.915-66.915c1.19-1.19 2.844-1.79 4.514-1.647 1.655.142 3.151.997 4.104 2.345 15.105 21.401 12.617 50.385-5.916 68.918-10.421 10.421-24.147 15.77-37.97 15.77zm39.296-82.053c-.129 0-.322.034-.492.203l-66.915 66.915c-.199.199-.211.432-.201.554.012.131.063.314.247.444 19.408 13.698 45.691 11.441 62.5-5.367 16.807-16.808 19.064-43.093 5.366-62.5-.129-.183-.313-.235-.444-.247-.018-.001-.038-.002-.061-.002zm-3.094 64.516h.01zm-75.5-2.892c-.163 0-.326-.007-.489-.021-1.655-.142-3.151-.996-4.104-2.345-15.105-21.401-12.617-50.385 5.917-68.918 18.532-18.533 47.517-21.023 68.917-5.917 1.35.952 2.204 2.448 2.346 4.103.144 1.679-.457 3.324-1.647 4.515l-66.915 66.915c-1.074 1.075-2.52 1.668-4.025 1.668zm39.294-82.05c-12.536 0-24.983 4.85-34.435 14.302-16.808 16.808-19.065 43.093-5.368 62.5.13.183.313.235.445.247.116.008.354-.003.553-.201l66.915-66.915c.199-.199.211-.432.201-.553-.012-.131-.063-.314-.247-.444-8.493-5.997-18.306-8.936-28.064-8.936zm-36.202 12.534h.01z"/></g><g><g><path d="m113.853 156.412c-.875 0-1.723-.459-2.182-1.276-.676-1.204-.249-2.728.955-3.404 6.231-3.5 11.935-7.872 16.952-12.994 1.741-1.777 4.066-2.756 6.546-2.756 2.458 0 4.757.966 6.476 2.719 4.071 4.156 8.632 7.843 13.553 10.96.152.096.313.1.481.007.126-.07.276-.206.276-.458v-22.256c0-1.381 1.119-2.5 2.5-2.5s2.5 1.119 2.5 2.5v22.256c0 2.012-1.098 3.866-2.865 4.839-1.753.963-3.886.902-5.568-.163-5.246-3.323-10.107-7.255-14.449-11.686-.77-.786-1.801-1.218-2.903-1.218-1.125 0-2.181.446-2.974 1.255-5.35 5.46-11.431 10.122-18.075 13.854-.388.217-.808.321-1.223.321z"/></g><g><path d="m37.769 156.303c-.417 0-.839-.104-1.228-.324-6.771-3.826-12.938-8.6-18.329-14.188-5.424-5.623-5.424-14.431 0-20.053 15.253-15.811 35.741-24.518 57.689-24.518 21.71 0 42.041 8.549 57.249 24.072.793.809 1.849 1.255 2.974 1.255 1.103 0 2.134-.433 2.903-1.218 1.095-1.117 2.317-2.277 3.739-3.549 1.027-.921 2.609-.833 3.53.196s.833 2.609-.196 3.53c-1.339 1.199-2.484 2.286-3.502 3.323-1.718 1.753-4.017 2.719-6.475 2.719-2.479 0-4.805-.979-6.546-2.756-14.259-14.555-33.322-22.571-53.677-22.571-20.579 0-39.789 8.165-54.091 22.99-3.487 3.614-3.487 9.495 0 13.109 5.057 5.241 10.84 9.718 17.191 13.307 1.202.679 1.626 2.204.946 3.406-.458.813-1.305 1.27-2.177 1.27z"/></g></g><g><path d="m113.665 201.363c-.877 0-1.728-.462-2.186-1.282-.673-1.206-.241-2.729.965-3.401 6.302-3.517 12.066-7.923 17.134-13.096.616-.628 1.315-1.164 2.078-1.591 1.203-.673 2.729-.246 3.402.959.675 1.205.246 2.728-.959 3.403-.348.195-.667.44-.95.728-5.402 5.515-11.549 10.212-18.269 13.962-.385.216-.803.318-1.215.318z"/></g><g><path d="m37.859 201.199c-.416 0-.837-.104-1.225-.322-6.808-3.835-13.006-8.626-18.422-14.24-5.423-5.623-5.423-14.43 0-20.053 15.253-15.811 35.741-24.518 57.689-24.518 21.71 0 42.041 8.549 57.249 24.072.793.809 1.849 1.255 2.974 1.255 1.103 0 2.134-.433 2.903-1.218 4.343-4.432 9.205-8.364 14.449-11.686 1.681-1.064 3.813-1.129 5.568-.163 1.768.973 2.865 2.827 2.865 4.839v16.772c0 1.381-1.119 2.5-2.5 2.5s-2.5-1.119-2.5-2.5v-16.772c0-.253-.15-.389-.276-.458-.166-.092-.329-.089-.481.007-4.92 3.115-9.479 6.803-13.553 10.96-1.719 1.753-4.018 2.719-6.476 2.719-2.479 0-4.805-.979-6.546-2.756-14.259-14.555-33.322-22.571-53.677-22.571-20.579 0-39.789 8.165-54.091 22.989-3.487 3.614-3.487 9.495 0 13.109 5.08 5.265 10.893 9.759 17.278 13.355 1.203.678 1.629 2.202.951 3.405-.457.817-1.306 1.275-2.179 1.275z"/></g><g><path d="m75.901 256c-21.948 0-42.436-8.707-57.689-24.518-5.424-5.623-5.424-14.431 0-20.053 15.253-15.811 35.741-24.518 57.689-24.518 17.37 0 33.904 5.479 47.816 15.845 1.107.825 1.336 2.392.511 3.499s-2.392 1.335-3.499.511c-13.042-9.718-28.544-14.854-44.829-14.854-20.579 0-39.789 8.165-54.091 22.99-3.487 3.614-3.487 9.495 0 13.109 14.304 14.824 33.514 22.989 54.092 22.989 16.672 0 32.473-5.365 45.693-15.516 1.096-.841 2.665-.634 3.505.46.841 1.095.635 2.665-.46 3.505-14.101 10.828-30.954 16.551-48.738 16.551z"/></g><g><path d="m199.466 256c-19.346 0-32.857-14.419-32.857-35.065 0-10.618 3.457-22.73 9.247-32.401 6.568-10.972 14.954-17.015 23.61-17.015s17.042 6.042 23.61 17.015c5.79 9.671 9.247 21.783 9.247 32.401 0 20.646-13.511 35.065-32.857 35.065zm0-79.48c-14.741 0-27.857 24.837-27.857 44.416 0 17.983 11.195 30.065 27.857 30.065s27.857-12.082 27.857-30.065c0-19.579-13.116-44.416-27.857-44.416z"/></g><g><path d="m150.466 256c-19.346 0-32.857-14.419-32.857-35.065 0-10.618 3.457-22.73 9.247-32.401 6.569-10.972 14.955-17.015 23.611-17.015 10.062 0 20.02 8.508 26.638 22.758.581 1.252.038 2.739-1.215 3.32-1.252.581-2.738.038-3.32-1.215-5.776-12.438-14.039-19.864-22.103-19.864-14.741 0-27.857 24.837-27.857 44.416 0 17.983 11.195 30.065 27.857 30.065 9.173 0 17.294-4.003 22.281-10.982.803-1.124 2.364-1.382 3.487-.581 1.124.803 1.384 2.364.581 3.488-5.939 8.31-15.543 13.076-26.35 13.076z"/></g><g><path d="m150.326 244c-11.028 0-20-8.972-20-20s8.972-20 20-20 20 8.972 20 20-8.972 20-20 20zm0-35c-8.271 0-15 6.729-15 15s6.729 15 15 15 15-6.729 15-15-6.728-15-15-15z"/></g><g><path d="m54.514 149.81c-.28 0-.565-.047-.844-.147-1.3-.466-1.976-1.897-1.51-3.197 1.692-4.718 2.549-9.664 2.549-14.7 0-9.026-2.741-17.694-7.927-25.067-.794-1.129-.523-2.689.606-3.483 1.13-.794 2.689-.523 3.483.606 5.781 8.219 8.837 17.882 8.837 27.944 0 5.613-.957 11.127-2.842 16.388-.365 1.02-1.327 1.656-2.352 1.656z"/></g><g><path d="m54.491 194.717c-.281 0-.567-.048-.847-.148-1.299-.468-1.973-1.9-1.505-3.199 1.706-4.734 2.57-9.7 2.57-14.759 0-9.027-2.741-17.694-7.927-25.066-.794-1.129-.523-2.689.606-3.483 1.13-.794 2.689-.523 3.483.606 5.781 8.219 8.837 17.881 8.837 27.943 0 5.638-.964 11.174-2.866 16.453-.366 1.019-1.327 1.653-2.351 1.653z"/></g><g><path d="m48.788 250.514c-.499 0-1.001-.148-1.439-.457-1.128-.796-1.397-2.356-.602-3.484 5.209-7.383 7.962-16.068 7.962-25.116 0-9.026-2.741-17.694-7.927-25.067-.794-1.129-.522-2.689.606-3.483 1.129-.794 2.689-.523 3.483.606 5.781 8.22 8.837 17.882 8.837 27.944 0 10.086-3.069 19.768-8.876 27.999-.486.689-1.259 1.058-2.044 1.058z"/></g><g><path d="m39.826 134c-4.411 0-8-3.589-8-8s3.589-8 8-8 8 3.589 8 8-3.589 8-8 8zm0-11c-1.654 0-3 1.346-3 3s1.346 3 3 3 3-1.346 3-3-1.346-3-3-3z"/></g><g><path d="m39.826 178.845c-4.411 0-8-3.589-8-8s3.589-8 8-8 8 3.589 8 8-3.589 8-8 8zm0-11c-1.654 0-3 1.346-3 3s1.346 3 3 3 3-1.346 3-3-1.346-3-3-3z"/></g><g><path d="m39.826 223.691c-4.411 0-8-3.589-8-8s3.589-8 8-8 8 3.589 8 8-3.589 8-8 8zm0-11c-1.654 0-3 1.346-3 3s1.346 3 3 3 3-1.346 3-3-1.346-3-3-3z"/></g><g><path d="m199.084 105.106c-.028 0-.055 0-.083 0-2.509-.021-4.852-1.027-6.597-2.833-2.864-2.962-3.387-7.629-1.287-11.196l-7.981-7.982c-.977-.976-.977-2.559 0-3.535.977-.977 2.559-.976 3.535 0l8.114 8.114c1.557 1.557 1.854 4.011.705 5.836-1.035 1.645-.816 3.918.509 5.289.807.834 1.888 1.298 3.045 1.309 1.177-.017 2.248-.436 3.067-1.255.626-.626 1.037-1.417 1.188-2.285.347-1.989 1.916-3.559 3.906-3.905.868-.151 1.658-.563 2.285-1.189.818-.818 1.264-1.907 1.254-3.065s-.475-2.239-1.309-3.046c-1.372-1.326-3.646-1.545-5.289-.51-1.822 1.148-4.276.853-5.835-.703l-8.075-8.076c-.977-.976-.977-2.559 0-3.535.977-.977 2.559-.977 3.535 0l7.942 7.942c3.567-2.1 8.235-1.576 11.197 1.287 1.805 1.746 2.812 4.089 2.833 6.598s-.944 4.869-2.719 6.644c-1.326 1.326-2.992 2.207-4.825 2.555-.348 1.833-1.229 3.499-2.554 4.825-1.754 1.753-4.083 2.716-6.561 2.716zm-7.834-13.898h.01z"/></g><g><path d="m181.651 84.258c-2.356 0-4.712-.897-6.506-2.69-.398-.398-.856-.769-1.362-1.1-1.155-.756-1.478-2.306-.721-3.461.757-1.156 2.307-1.478 3.461-.721.792.519 1.518 1.106 2.157 1.746 1.639 1.637 4.303 1.638 5.941 0l4.049-4.048c.793-.794 1.23-1.849 1.23-2.971s-.437-2.177-1.23-2.97c-.616-.616-1.157-1.273-1.643-1.987-.776-1.142-.48-2.697.662-3.473 1.139-.775 2.696-.481 3.473.662.31.456.648.869 1.008 1.228 1.773 1.772 2.73 4.083 2.73 6.541s-.957 4.768-2.695 6.506l-4.049 4.049c-1.793 1.792-4.148 2.689-6.505 2.689z"/></g><g><path d="m160.143 80.004c-.227 0-.456-.031-.685-.096-4.399-1.251-8.372-3.68-11.488-7.024-8.718-9.353-8.926-24.179-.472-33.755 4.661-5.279 11.09-8.307 18.101-8.525 6.897-.204 13.684 2.466 18.572 7.355 3.047 3.046 5.268 6.857 6.423 11.019.369 1.331-.41 2.708-1.74 3.078-1.335.37-2.709-.411-3.078-1.741-.925-3.333-2.702-6.383-5.14-8.821-3.976-3.975-9.293-6.069-14.882-5.893-5.617.175-10.77 2.603-14.508 6.837-6.771 7.668-6.603 19.544.382 27.036 2.495 2.678 5.676 4.623 9.197 5.624 1.328.378 2.099 1.761 1.721 3.089-.313 1.1-1.315 1.817-2.403 1.817z"/></g></g></g></svg>