<svg id="Layer_1" enable-background="new 0 0 512 512" height="512" viewBox="0 0 512 512" width="512" xmlns="http://www.w3.org/2000/svg"><g><g><path d="m503.54 149.69c-10.98-26.95-31.67-56.44-58.27-83.06-26.59-26.59-56.08-47.28-83.03-58.26-24.97-10.17-45.7-11.05-59.5-2.74l-.48-.48-4.28 3.95c-.41.36-.82.74-1.22 1.12l-118.78 109.62c-29.8 27.5-45.85 65.76-45.18 107.74.6 39.57-8.61 69.69-28.14 92.11-8.05 9.25-8.83 22.19-3.04 36.41l-41.23 41c-.18.17-.65.54-1.24.17-15.33-9.56-34.96-7.31-47.74 5.47-15.06 15.06-15.06 39.57 0 54.64 8.69 8.69 20.69 12.52 32.3 11.02-1.51 11.6 2.32 23.61 11.01 32.3 7.53 7.53 17.42 11.3 27.32 11.3s19.79-3.77 27.32-11.3c12.76-12.76 15.02-32.38 5.5-47.71-.19-.31-.33-.78.14-1.25l41.18-41.18c6.88 3.02 13.72 4.78 20.07 4.78 6.62 0 12.7-1.92 17.73-6.33 23.19-20.32 53.68-30.38 90.74-29.88 41.8.51 79.94-15.52 107.35-45.21l109.53-118.68c.42-.43.83-.88 1.23-1.33l3.92-4.24-.48-.48c8.31-13.8 7.44-34.53-2.73-59.5z" fill="#db8257"/><path d="m101.62 356.1-41.23 41c-.18.17-.65.54-1.24.17-15.33-9.56-34.96-7.31-47.74 5.47-15.06 15.06-15.06 39.57 0 54.64 8.69 8.69 20.69 12.52 32.3 11.02-1.51 11.6 2.32 23.61 11.01 32.3 7.53 7.53 17.42 11.3 27.32 11.3s19.79-3.77 27.32-11.3c12.76-12.76 15.02-32.38 5.5-47.71-.19-.31-.33-.78.14-1.25l41.18-41.18c-11.3-4.96-22.7-13.29-32.16-22.71-10.7-10.67-18.24-21.54-22.4-31.75z" fill="#f3f0f3"/><path d="m412.44 100.36c-7.36-7.38-16.09-11.79-23.36-11.8-.01 0-.01 0-.02 0-4.17 0-7.77 1.4-10.45 4.08-7.51 7.57-4.25 21.77 7.76 33.78 7.68 7.68 16.24 11.78 23.4 11.77 4.05 0 7.66-1.32 10.38-4.04 2.67-2.65 4.08-6.25 4.08-10.41.01-7.26-4.4-16-11.79-23.38z" fill="#ecbba3"/><path d="m503.54 149.69c-10.98-26.95-31.67-56.44-58.27-83.06-26.59-26.59-56.08-47.28-83.03-58.26-29.16-11.88-52.55-11.09-65.86 2.22-13.32 13.32-14.11 36.72-2.23 65.88 10.98 26.95 31.67 56.44 58.27 83.03 26.59 26.59 56.08 47.28 83.03 58.26 13.71 5.58 26.14 8.37 36.85 8.37 12.07 0 21.95-3.54 29-10.59 13.33-13.29 14.12-36.69 2.24-65.85zm-57.1 23.84c-25.63-12.06-47.99-31.57-62.24-45.82-14.22-14.2-33.71-36.52-45.81-62.23-5.63-11.96-7.28-17.83-7.71-20.58 2.75.43 8.62 2.08 20.59 7.7 25.67 12.09 48.01 31.59 62.24 45.81 14.22 14.22 33.7 36.56 45.78 62.24 5.63 11.96 7.29 17.83 7.72 20.58-2.75-.42-8.62-2.08-20.57-7.7z" fill="#e8ad8c"/></g><g><path d="m403.53 238.81-52.67 57.09c-16.5 17.87-39.71 27.49-65.41 27.16-4.4-.09-8.06 3.48-8.12 7.9s3.48 8.06 7.9 8.12c.53.01 1.05.01 1.58.01 29.66 0 56.54-11.44 75.82-32.32l52.67-57.09c3-3.25 2.79-8.32-.46-11.32-3.24-3.01-8.31-2.8-11.31.45z"/><path d="m503.53 149.68c-10.98-26.95-31.67-56.45-58.26-83.06-26.59-26.59-56.08-47.29-83.04-58.26-28.99-11.81-52.28-11.09-65.65 2l-118.6 109.47c-29.82 27.51-45.88 65.78-45.21 107.75.63 39.52-8.57 69.65-28.11 92.1-8.05 9.25-8.83 22.19-3.04 36.41l-41.26 41c-.27.26-.7.5-1.24.17-15.32-9.55-34.94-7.3-47.71 5.47-7.3 7.3-11.32 17-11.32 27.32s4.02 20.02 11.31 27.31c8.68 8.7 20.68 12.54 32.3 11.03-1.49 11.6 2.33 23.6 11.01 32.28 7.29 7.3 16.98 11.32 27.29 11.33h.02c10.32 0 20.02-4.02 27.31-11.31 12.8-12.77 15.07-32.39 5.51-47.71-.37-.59-.05-1.05.14-1.25l41.21-41.18c6.88 3.01 13.72 4.78 20.07 4.78 6.62 0 12.71-1.92 17.74-6.33 23.19-20.32 53.71-30.39 90.71-29.88.68.01 1.36.01 2.04.01 41.04 0 78.37-16.01 105.31-45.22l109.47-118.6c13.09-13.34 13.81-36.63 2-65.63zm-178.24-133.59c25.09 0 67.53 20.73 108.66 61.86 53.71 53.73 72.64 109.67 56.04 126.27s-72.53-2.34-126.27-56.04c-53.71-53.71-72.64-109.65-56.04-126.27 3.89-3.88 9.93-5.82 17.61-5.82zm-221.67 424.34c-5.59 5.64-6.57 14.28-2.38 21.01 5.59 8.96 4.26 20.44-3.23 27.92-4.27 4.27-9.95 6.63-15.99 6.63h-.01c-6.03 0-11.69-2.35-15.96-6.63-7.29-7.29-8.75-18.57-3.54-27.43 2.12-3.55 1.56-8.05-1.37-10.98s-7.42-3.48-10.96-1.36c-8.88 5.21-20.15 3.76-27.43-3.54-4.27-4.27-6.63-9.95-6.63-15.99s2.35-11.72 6.63-15.99c7.47-7.47 18.95-8.79 27.92-3.2 6.72 4.18 15.34 3.2 20.99-2.4l37.98-37.74c3.88 5.67 8.68 11.42 14.38 17.1 5.38 5.36 11.39 10.37 17.65 14.61zm276.67-117.37c-24.27 26.31-58.13 40.58-95.37 40.06-41.09-.58-75.23 10.83-101.48 33.84-8.09 7.09-29.69-2.1-48.13-20.48-15.66-15.6-27.06-36.51-18.56-46.28 21.95-25.21 32.73-59.82 32.04-102.87-.59-37.35 13.63-71.34 40.06-95.72l96.97-89.51c.39 10.14 3.16 21.71 8.32 34.37 10.98 26.95 31.67 56.44 58.26 83.04 26.61 26.59 56.1 47.28 83.06 58.26 12.66 5.15 24.22 7.92 34.35 8.31z"/><path d="m323.91 72.3c13.07 27.77 33.83 51.62 48.95 66.74 15.13 15.13 38.98 35.9 66.74 48.98 12.02 5.66 21.75 9.34 29.16 9.34 4.24 0 7.72-1.2 10.44-3.93 7.49-7.49 3.48-20.7-5.42-39.6-13.07-27.76-33.85-51.61-48.98-66.74-15.14-15.14-39.01-35.93-66.74-48.98-18.89-8.88-32.11-12.88-39.58-5.4-7.48 7.48-3.47 20.7 5.43 39.59zm27.33-19.69c25.64 12.06 47.99 31.57 62.24 45.81 14.23 14.23 33.72 36.57 45.81 62.24 5.64 11.97 7.28 17.84 7.72 20.59-2.75-.43-8.62-2.08-20.59-7.72-25.67-12.09-48.01-31.59-62.24-45.81-14.22-14.22-33.7-36.55-45.78-62.24-5.63-11.95-7.28-17.82-7.72-20.57 2.75.43 8.62 2.08 20.56 7.7z"/><path d="m402.28 136.85c2.6.89 5.12 1.33 7.46 1.33 4.14 0 7.77-1.37 10.44-4.05 7.54-7.54 4.29-21.75-7.74-33.77-7.36-7.38-16.09-11.79-23.36-11.8 0 0-.01 0-.02 0-4.17 0-7.77 1.4-10.43 4.06s-4.06 6.27-4.06 10.44c.01 7.27 4.42 16.01 11.8 23.36 4.89 4.88 10.53 8.58 15.91 10.43zm-1.17-25.17c4.07 4.07 5.99 7.84 6.73 10.14-2.3-.73-6.06-2.65-10.14-6.72-4.1-4.08-6.01-7.86-6.74-10.15 2.29.71 6.07 2.63 10.15 6.73z"/></g></g></svg>