<svg id="Layer_1" enable-background="new 0 0 512.014 512.014" height="512" viewBox="0 0 512.014 512.014" width="512" xmlns="http://www.w3.org/2000/svg"><g><g><g><circle cx="326.398" cy="313.662" fill="#f2f2f2" r="46.333"/><path d="m326.398 267.328c-7.163 0-13.945 1.627-20 4.529 15.576 7.465 26.333 23.378 26.333 41.804s-10.757 34.339-26.333 41.805c6.055 2.902 12.837 4.529 20 4.529 25.589 0 46.333-20.744 46.333-46.333s-20.744-46.334-46.333-46.334z" fill="#e6e6e6"/><path d="m102.572 359.256c-13.936-20.595-24.189-41.523-31.669-60.344-28.532-71.791-29.952-142.938-21.767-185.583 3.244-16.904 10.284-32.94 19.824-45.155 10.853-13.897 23.845-21.688 38.613-23.156 1.749-.174 3.518-.263 5.258-.263 26.808 0 49.717 21.017 71.872 41.341 11.843 10.865 23.029 21.127 35.06 28.72 21.97 13.867 64.804 25.671 82.207 30.105 4.464 1.137 7.561 5.18 7.522 9.786-.501 58.291 4.797 101.766 4.797 101.766-10.403 2.198-20.334 7.242-28.537 15.18-16.118 15.598-21.319 38.21-15.474 58.345l-.012-.013s-69.106 62.657-156.717 37.231c-4.471-1.298-8.37-4.106-10.977-7.96z" fill="#d82e3d"/><path d="m378.728 447.175c-23.153 15.525-57.907 19.938-84.433 19.938-24.674 0-49.415-4.584-72.56-13.086-24.695-9.071-45.871-21.29-64.018-35.36-7.45-5.777-3.491-17.67 5.933-17.901 73.008-1.791 120.344-46.872 120.771-46.432 18.007 18.587 45.355 22.652 67.457 11.99 0 0 19.831 38.279 30.787 69.189 1.533 4.325-.126 9.107-3.937 11.662z" fill="#d82e3d"/><g><path d="m382.665 435.513c-10.957-30.91-30.787-69.189-30.787-69.189-11.815 5.7-25.128 7.187-37.713 4.501 5.522 10.989 19.803 40.151 28.501 64.688 1.533 4.325-.126 9.106-3.937 11.662-17.427 11.686-41.425 17.074-63.541 19.025 6.355.6 12.734.912 19.108.912 26.526 0 61.28-4.413 84.433-19.938 3.81-2.554 5.469-7.336 3.936-11.661z" fill="#c10a54"/></g><path d="m455.851 365.63c-8.902 20.74-21.654 38.875-37.372 53.856-5.007 4.773-13.216 3.21-16.06-3.096-14.526-32.22-29.698-66.949-29.698-66.949 17.555-22.623 16.263-55.284-4.244-76.45-7.318-7.554-16.759-12.945-26.762-16.054-3.029-31.896-3.388-69.934-3.331-89.829.02-6.947 6.953-11.751 13.467-9.336 42.772 15.854 81.219 49.117 100.528 89.458 18.459 38.563 19.692 80.611 3.472 118.4z" fill="#d82e3d"/><path d="m452.379 247.229c-19.31-40.341-57.756-73.604-100.528-89.458-6.514-2.415-13.448 2.389-13.467 9.336-.003.965-.004 1.985-.005 3.033 31.712 17.944 58.793 45.318 74 77.089 18.459 38.563 19.692 80.612 3.471 118.4-5.451 12.699-12.351 24.416-20.486 35.036 2.324 5.202 4.697 10.495 7.055 15.723 2.843 6.306 11.052 7.869 16.06 3.096 15.718-14.981 28.47-33.116 37.372-53.856 16.22-37.787 14.987-79.835-3.472-118.399z" fill="#c10a54"/><path d="m485.936 231.025c-25.889-53.967-76.047-95.882-134.175-112.124-11.484-3.209-22.981-5.873-34.099-8.448-28.474-6.596-55.369-12.827-77.989-27.104-9.197-5.804-19.183-14.966-29.756-24.665-25.102-23.028-53.554-49.128-92.696-51.046-4.423-.217-8.914-.104-13.346.337-24.951 2.48-47.189 15.379-64.31 37.302-13.102 16.777-22.704 38.453-27.039 61.038-11.704 60.984-2.611 140.043 23.731 206.325 23.973 60.32 73.38 139.875 172.616 176.324 23.923 8.788 48.707 13.863 73.664 15.086 43.958 2.154 86.382-7.698 122.672-28.485 38.18-21.872 67.539-54.813 84.903-95.264 20.535-47.841 19.052-100.855-4.176-149.276zm-157.996 52.427c7.679.376 14.858 3.629 20.214 9.158 11.614 11.988 11.305 31.185-.69 42.793-6.07 5.875-14.063 8.882-22.506 8.469-9.524-.467-18.28-5.358-23.743-13.53-8.154-12.198-6.326-28.218 4.219-38.421 6.07-5.875 14.063-8.883 22.506-8.469zm-225.368 75.804c-13.936-20.595-24.189-41.523-31.669-60.344-28.532-71.791-29.952-142.938-21.767-185.583 3.244-16.904 10.284-32.94 19.824-45.155 10.853-13.897 23.845-21.688 38.613-23.156 1.749-.174 3.518-.263 5.258-.263 26.808 0 49.717 21.017 71.872 41.341 11.843 10.865 23.029 21.127 35.06 28.72 21.97 13.867 64.804 25.671 82.207 30.105 4.464 1.137 7.561 5.18 7.522 9.786-.501 58.291 4.797 101.766 4.797 101.766-10.403 2.198-20.334 7.242-28.537 15.18-16.118 15.598-21.319 38.21-15.474 58.345l-.012-.013s-69.106 62.657-156.717 37.231c-4.471-1.298-8.37-4.106-10.977-7.96zm276.156 87.919c-23.153 15.525-57.907 19.938-84.433 19.938-24.674 0-49.415-4.584-72.56-13.086-24.695-9.071-45.871-21.29-64.018-35.36-7.45-5.777-3.491-17.67 5.933-17.901 73.008-1.791 120.344-46.872 120.771-46.432 18.007 18.587 45.355 22.652 67.457 11.99 0 0 19.831 38.279 30.787 69.189 1.533 4.325-.126 9.107-3.937 11.662zm77.123-81.545c-8.902 20.74-21.654 38.875-37.372 53.856-5.007 4.773-13.216 3.21-16.06-3.096-14.526-32.22-29.698-66.949-29.698-66.949 17.555-22.623 16.263-55.284-4.244-76.45-7.318-7.554-16.759-12.945-26.762-16.054-3.029-31.896-3.388-69.934-3.331-89.829.02-6.947 6.953-11.751 13.467-9.336 42.772 15.854 81.219 49.117 100.528 89.458 18.459 38.563 19.692 80.611 3.472 118.4z" fill="#ffd8d5"/></g></g><g fill="#060606"><path d="m303.82 137.653c-17.054-4.346-58.995-15.887-80.055-29.18-46.251-29.186-106.424-114.437-160.717-44.915-10.257 13.134-17.814 30.308-21.278 48.357-8.384 43.684-6.965 116.476 22.163 189.768 8.855 22.279 19.765 43.064 32.426 61.775 3.571 5.279 8.933 9.172 15.098 10.961 14.52 4.214 29.437 6.311 44.509 6.31 23.896-.001 48.177-5.272 71.828-15.734 26.849-11.876 44.067-26.43 47.064-29.058 2.412-1.859 3.49-5.036 2.621-8.029-5.285-18.209-.117-37.698 13.487-50.864 6.899-6.676 15.5-11.251 24.872-13.231 3.805-.804 6.364-4.384 5.895-8.244-.052-.431-5.233-43.723-4.742-100.795.069-8.088-5.347-15.127-13.171-17.121zm-23.286 128.61c-16.403 15.874-23.333 38.846-18.677 60.962-11.703 9.295-52.751 38.522-105.999 38.521-12.782 0-26.271-1.685-40.22-5.733-2.808-.814-5.241-2.575-6.854-4.959v-.001c-12.055-17.815-22.455-37.636-30.911-58.91-27.936-70.293-29.357-139.795-21.371-181.399 5.113-26.646 22.588-60.832 53.571-61.601 26.78-.664 51.178 21.619 69.559 38.481 12.098 11.099 23.524 21.582 36.127 29.535 22.87 14.436 66.613 26.51 84.357 31.03 1.114.284 1.885 1.294 1.875 2.455-.389 45.147 2.723 81.894 4.155 96.245-9.57 3.082-18.326 8.324-25.612 15.374z"/><path d="m492.698 227.781c-26.809-55.885-78.741-99.288-138.918-116.104-11.651-3.255-23.229-5.937-34.427-8.53-27.837-6.449-54.13-12.541-75.676-26.14-34.957-22.062-57.862-58.161-98.732-71.635-41.572-13.705-84.626 1.146-111.291 35.29-11.621 14.881-20.576 33.196-25.897 52.968-2.52 9.364 11.964 13.263 14.484 3.898 4.804-17.85 12.838-34.321 23.235-47.634 23.486-30.074 60.833-42.379 97.07-29.396 37.898 13.579 60.158 48.387 93.124 69.195 23.693 14.953 51.188 21.323 80.299 28.067 11.036 2.556 22.447 5.199 33.773 8.364 56.078 15.669 104.463 56.097 129.431 108.145 22.278 46.44 23.715 97.251 4.046 143.074-16.717 38.943-44.981 70.657-81.739 91.714-57.461 32.914-128.449 35.485-190.022 12.866-96.636-35.494-144.824-113.155-168.231-172.053-20.919-52.638-30.973-113.805-27.583-167.817.607-9.679-14.364-10.616-14.971-.939-3.524 56.146 6.906 119.674 28.614 174.296 24.537 61.741 75.163 143.19 177 180.595 65.715 24.14 141.353 21.181 202.651-13.931 39.603-22.687 70.056-56.855 88.067-98.813 21.401-49.862 19.872-105.078-4.307-155.48z"/><path d="m348.618 359.569c-19.844 9.573-43.479 5.371-58.809-10.45-3.228-3.338-8.611-1.908-11.766.647-33.386 27.06-74.077 42.509-114.577 43.502-15.939.391-23.285 21.294-10.345 31.325 19.872 15.408 42.086 27.68 66.027 36.474 24.469 8.988 49.752 13.546 75.146 13.546 49.578 0 76.797-13.288 88.61-21.208 6.688-4.485 9.496-12.873 6.829-20.397-11.002-31.039-30.377-68.552-31.197-70.134-1.866-3.604-6.261-5.068-9.918-3.305zm25.933 81.377c-25.126 16.848-64.496 18.667-80.256 18.667-23.291 0-47.488-4.366-69.974-12.626-22.493-8.263-43.355-19.785-62.008-34.248-1.616-2.191-1.109-3.682 1.522-4.475 42.388-1.04 84.891-16.66 120.169-44.078 17.87 15.03 42.322 19.473 64.318 11.727 5.971 11.974 19.178 39.265 27.274 62.106.375 1.059-.054 2.263-1.045 2.927z"/><path d="m300.218 286.531c-13.127 12.702-15.331 32.881-5.239 47.979 6.764 10.119 17.557 16.263 29.611 16.854.641.031 1.278.047 1.915.047 9.825 0 19.059-3.73 26.174-10.617 7.241-7.009 11.319-16.428 11.481-26.522.163-10.096-3.609-19.642-10.621-26.879-6.686-6.901-15.648-10.961-25.234-11.431-10.523-.512-20.508 3.236-28.087 10.569zm48.945 27.497c-.098 6.088-2.554 11.765-6.915 15.985-4.564 4.418-10.571 6.684-16.923 6.367-7.262-.355-13.776-4.076-17.875-10.207-6.158-9.213-4.843-21.082 3.199-28.863 4.288-4.148 9.85-6.396 15.769-6.396.383 0 .768.009 1.154.028h.001c5.771.282 11.167 2.728 15.194 6.886 4.223 4.359 6.494 10.112 6.396 16.2z"/><path d="m408.168 429.447c5.28 1.028 11.614-.842 15.485-4.533 16.746-15.96 29.898-34.911 39.09-56.326 17.086-39.804 15.808-84.054-3.598-124.597-19.839-41.447-58.975-76.308-104.688-93.252-5.357-1.986-11.359-1.228-16.055 2.03-4.692 3.255-7.502 8.607-7.519 14.316-.057 19.989.305 58.335 3.365 90.56.286 3.011 2.353 5.556 5.241 6.453 7.079 2.199 13.674 5.654 19.072 9.99 7.562 6.073 16.953-5.622 9.394-11.695-5.595-4.494-12.16-8.229-19.204-10.946-2.604-30.542-2.92-65.588-2.867-84.318.003-1.127.671-1.759 1.069-2.035.399-.277 1.23-.686 2.291-.29 42.146 15.623 78.173 47.646 96.37 85.664 17.512 36.584 18.7 76.433 3.344 112.204-8.388 19.542-20.384 36.83-35.655 51.385-1.62 1.149-2.97.899-4.047-.749-11.518-25.547-23.569-52.965-27.947-62.952 10.363-15.41 13.724-34.328 9.204-52.593-2.33-9.413-16.89-5.81-14.561 3.604 3.777 15.264.439 31.109-9.157 43.477-1.683 2.169-2.047 5.084-.947 7.601.152.348 15.355 35.137 29.734 67.029 2.327 5.159 7.032 8.888 12.586 9.973z"/></g></g></svg>