<svg height="512pt" viewBox="0 -23 512.00026 512" width="512pt" xmlns="http://www.w3.org/2000/svg"><g fill="#ff9a5c"><path d="m350.90625 161.6875c12.796875-.503906 26.082031-.828125 38.925781 1.289062 28.726563 4.734376 54.128907 16.9375 71.378907 40.992188 3.488281 4.867188 10.261718 5.984375 15.128906 2.496094 4.441406-3.1875 5.753906-9.109375 3.296875-13.820313-7.871094-15.078125-17.535157-27.863281-31.148438-38.269531-27.429687-20.964844-62.574219-32.316406-96.925781-33.820312zm0 0"/><path d="m295.738281 200.769531c2.679688.363281 5.957031.808594 9.726563 1.476563 12.03125 2.128906 23.777344 5.136718 35.503906 8.542968 31.410156 9.125 61.449219 26.003907 84.160156 49.648438 10.867188 11.308594 18.742188 24.8125 25.375 38.945312 2.542969 5.421876 9 7.753907 14.421875 5.207032 5.105469-2.394532 7.453125-8.308594 5.585938-13.511719-6.164063-17.164063-13.953125-33.207031-25.34375-47.546875-21.847657-27.507812-51.175781-47.746094-82.816407-62.425781-8.585937-3.980469-17.386718-7.355469-26.308593-10.488281zm0 0"/><path d="m374.550781 54.269531c12.800781.503907 26.082031.832031 38.929688-1.285156 28.722656-4.734375 54.125-16.9375 71.375-40.996094 3.488281-4.867187 10.261719-5.980469 15.128906-2.492187 4.441406 3.183594 5.757813 9.109375 3.296875 13.816406-7.871094 15.078125-17.53125 27.863281-31.148438 38.273438-27.429687 20.960937-62.574218 32.316406-96.921874 33.816406zm0 0"/><path d="m158.210938 338.375c68.316406 48.554688 90.523437-28.96875 154.78125-28.96875 19.960937-1.113281 36.496093 14.746094 36.496093 34.464844 0 11.402344-5.53125 21.507812-14.054687 27.792968-5.648438 4.164063-4.789063 9.90625-5.359375 16.011719-1.515625 16.335938-14.636719 29.535157-30.96875 31.121094-7.09375.691406-12.726563 4.554687-14.132813 11.734375-2.503906 12.78125-12.085937 22.964844-24.265625 26.515625-3.289062.957031-6.726562 1.289063-10.152343 1.238281-89.800782-1.300781-115.046876-58.132812-115.046876-58.132812zm0 0"/></g><path d="m192.707031 252.253906h.007813c8.144531-14.578125 20.933594-26.605468 36.886718-33.621094l-75.53125-198.914062c-57.6875 17.714844-105.136718 60.050781-129.285156 114.539062v98.964844l64.453125 37.527344zm0 0" fill="#ffbd73"/><path d="m362.351562 181.105469c4.066407 1.886719 8.09375 3.871093 12.078126 5.945312-7.9375 7.78125-16.59375 14.839844-25.960938 21.117188-1.699219 1.140625-3.421875 2.25-5.167969 3.335937-.777343-.234375-1.554687-.488281-2.332031-.714844-11.730469-3.40625-23.472656-6.410156-35.507812-8.542968-3.765626-.664063-7.042969-1.113282-9.722657-1.476563l40.300781-30.152343c8.925782 3.132812 17.726563 6.507812 26.3125 10.488281zm0 0" fill="#ff7e27"/><path d="m412.132812 133.734375c-2.445312 5.160156-5.152343 10.308594-8.148437 15.40625-2.980469 5.074219-6.183594 9.957031-9.578125 14.664063-1.515625-.296876-3.039062-.574219-4.574219-.828126-12.847656-2.117187-26.128906-1.792968-38.929687-1.289062l.660156-41.132812c20.511719.898437 41.304688 5.308593 60.570312 13.179687zm0 0" fill="#ff7e27"/><path d="m413.476562 52.984375c6.859376-1.132813 13.527344-2.691406 19.941407-4.734375-.726563 11.1875-2.242188 23.664062-5.027344 36.792969-17.140625 6.109375-35.269531 9.578125-53.179687 10.359375l-.660157-41.132813c12.800781.503907 26.082031.832031 38.925781-1.285156zm0 0" fill="#ff7e27"/><path d="m150.984375 55.566406c0 66.027344 30.699219 124.886719 78.621094 163.066406 6.363281-2.804687 13.21875-4.808593 20.5-5.859374 136.765625-19.800782 153.308593-130.648438 153.863281-179.257813.144531-12.574219-9.972656-22.855469-22.554688-22.855469h-166.996093c-20.929688 0-41.207031 3.164063-60.347657 9.058594-2.039062 11.648438-3.085937 23.625-3.085937 35.847656zm0 0" fill="#ff9a5c"/><path d="m154.070312 19.71875 5.386719 14.1875c-41.832031 21.71875-75.554687 57.21875-94.671875 100.351562-15.742187 35.519532-20.8125 75.285157-14.792968 113.640626l-25.207032-14.675782v-98.964844c15-33.847656 39.289063-63.367187 69.394532-84.882812 18.0625-12.910156 38.257812-23.015625 59.890624-29.65625zm0 0" fill="#ff9a5c"/><path d="m7.492188 216.207031c.082031 44.691407 14.445312 86.03125 38.789062 119.691407 81.210938 19.21875 138.886719-22.433594 139.9375-23.191407v-.011719c-6.539062-20.972656-3.496094-42.613281 6.488281-60.441406-1.511719-.132812-134.066406-11.875-167.921875-117.996094-11.15625 25.136719-17.34375 52.867188-17.292968 81.949219zm0 0" fill="#ff9a5c"/><path d="m241.683594 339.273438c22.183594 22.355468 25.242187 58.253906 6.355468 84.148437-11.574218 15.859375-29.808593 25.65625-49.28125 26.644531-48.1875-16.042968-63.25-49.914062-63.25-49.914062l22.703126-61.777344c36.507812 25.945312 59.847656 15.886719 83.472656.898438zm0 0" fill="#ff7e27"/><path d="m22.753906 139c.65625-1.589844 1.335938-3.171875 2.03125-4.742188 5.925782 18.578126 14.882813 34.253907 25.628906 47.488282-1.929687 11.214844-2.941406 22.726562-2.921874 34.460937.082031 44.589844 15.191406 89.203125 42.578124 124.746094-13.582031.066406-28.253906-1.378906-43.789062-5.054687-6.085938-8.414063-11.546875-17.308594-16.320312-26.617188-26.878907-52.4375-29.753907-115.769531-7.207032-170.28125zm0 0" fill="#ff7e27"/><path d="m46.28125 335.898438c33.476562 46.316406 85.828125 78.097656 145.765625 84.082031 1.164063.109375 2.3125.171875 3.464844.171875 11.113281 0 21.664062-5.324219 28.292969-14.414063 10.808593-14.8125 8.402343-35.5-5.589844-47.363281-14.445313-12.265625-23.6875-25.238281-29.230469-38.183594-1.058594-2.480468-1.972656-4.976562-2.765625-7.484375zm0 0" fill="#ffbd73"/><path d="m46.28125 335.898438 35.867188-5.941407c1.34375 2.003907 2.722656 3.988281 4.136718 5.941407 29.421875 40.710937 73.433594 70.183593 124.351563 80.789062-1.164063.558594-2.359375 1.054688-3.578125 1.484375-.011719.003906-.023438.007813-.035156.011719-4.734376 1.730468-9.972657 2.296875-14.976563 1.796875-28.097656-2.808594-54.523437-11.277344-78.125-24.261719-26.425781-14.535156-49.863281-35.222656-67.640625-59.820312zm0 0" fill="#ff9a5c"/><path d="m254.414062 10.660156c-20.929687 0-41.203124 3.167969-60.34375 9.058594-14.878906 4.566406-29.066406 10.785156-42.359374 18.417969.515624-6.222657 1.300781-12.367188 2.359374-18.417969 7.179688-2.210938 14.515626-4.035156 21.988282-5.457031 12.636718-2.394531 25.496094-3.601563 38.359375-3.601563zm0 0" fill="#ff7e27"/><path d="m292 111.578125h14.242188c4.140624 0 7.5-3.355469 7.5-7.5 0-4.140625-3.359376-7.5-7.5-7.5h-14.242188c-4.144531 0-7.5 3.359375-7.5 7.5 0 4.144531 3.355469 7.5 7.5 7.5zm0 0" fill="#ff5f7f"/><path d="m315.878906 84.917969c-4.144531 0-7.5-3.359375-7.5-7.5v-16.867188c0-4.140625 3.355469-7.5 7.5-7.5 4.140625 0 7.5 3.359375 7.5 7.5v16.867188c0 4.140625-3.359375 7.5-7.5 7.5zm0 0"/><path d="m509.941406 26.75c4.199219-8.039062 1.800782-18.09375-5.578125-23.382812-8.109375-5.816407-19.773437-3.898438-25.59375 4.21875-14.570312 20.320312-36.945312 33.089843-66.5 37.964843-.410156.066407-.828125.125-1.242187.1875.273437-4.390625.410156-8.476562.453125-12.171875.1875-16.511718-13.515625-30.441406-30.058594-30.441406-.070313 0-166.992187 0-166.992187 0-21.261719 0-42.308594 3.160156-62.550782 9.390625-29.265625 8.984375-56.925781 24.558594-80 45.039063-22.980468 20.398437-41.632812 45.859374-53.941406 73.625-11.953125 26.945312-17.9882812 55.542968-17.9375 85.007812.0820312 44.910156 13.988281 87.816406 40.214844 124.074219 24.175781 33.449219 57.265625 58.804687 94.867187 73.558593 6.277344 8.796876 17.054688 20.726563 34.28125 31.027344 22.429688 13.414063 49.714844 20.449219 81.09375 20.902344 19.988281.230469 38.003907-14.050781 41.886719-33.8125.246094-1.253906.996094-5.078125 7.496094-5.710938 21.683594-2.105468 36.839844-20.210937 37.945312-41.382812.265625-5.03125.558594-6.039062 2.105469-7.179688 10.710937-7.894531 17.105469-20.542968 17.105469-33.828124 0-23.890626-20.019532-43.191407-44.199219-41.96875-27.980469.066406-48.589844 13.628906-66.773437 25.597656-10.714844 7.054687-20.902344 13.75-31.554688 17.097656-9.351562-9.6875-17-21.207031-21.078125-34.105469-5.6875-18.253906-3.613281-37.59375 5.824219-54.496093.019531-.03125.039062-.054688.058594-.085938 7.515624-13.460938 19.363281-24.257812 33.355468-30.410156 5.878906-2.589844 12.117188-4.375 18.554688-5.300782 17.410156-2.523437 32.933594-6.476562 46.800781-11.546874 1.898437.273437 3.941406.585937 6.179687.980468 10.398438 1.839844 21.429688 4.496094 34.722657 8.359375 31.378906 9.121094 60.089843 26.039063 80.839843 47.640625 8.882813 9.246094 16.507813 20.984375 23.996094 36.9375 4.242188 9.039063 15.359375 13.054688 24.398438 8.8125 8.617187-4.046875 12.683594-13.863281 9.457031-22.839844-7.277344-20.265624-15.707031-36.050781-26.53125-49.675781-20.765625-26.148437-49.542969-47.867187-85.53125-64.5625-2.226563-1.035156-4.53125-2.054687-6.929687-3.070312.796874-.78125 1.578124-1.566407 2.351562-2.355469 1.949219-.039062 3.777344-.0625 5.496094-.0625 8.671875 0 15.722656.496094 22.1875 1.5625 29.554687 4.871094 51.929687 17.644531 66.5 37.960938 5.816406 8.113281 17.472656 10.042968 25.59375 4.21875 7.378906-5.289063 9.777344-15.34375 5.578125-23.386719-9.101563-17.425781-19.664063-30.375-33.246094-40.757813-16.882813-12.902344-37.195313-22.753906-59.1875-28.773437 2.882813-6.566407 5.300781-13.144531 7.339844-19.632813 28.296875-5.109375 54.316406-16.277344 75.496093-32.464844 13.582032-10.378906 24.144532-23.328124 33.246094-40.757812zm-136.121094 127.15625c5.070313-6.679688 9.476563-13.578125 13.296876-20.570312 21.210937 5.421874 40.757812 14.683593 56.824218 26.964843 11.773438 9 21.007813 20.371094 29.054688 35.78125.761718 1.460938.324218 3.289063-1.019532 4.25-1.488281 1.070313-3.59375.722657-4.664062-.765625-16.972656-23.671875-42.625-38.484375-76.253906-44.027344-5.3125-.875-10.910156-1.40625-17.238282-1.632812zm-51.925781 44.042969c8.863281-4.746094 16.863281-10.019531 24.078125-15.695313 4.796875 1.878906 9.15625 3.734375 13.230469 5.621094 33.847656 15.703125 60.796875 35.988281 80.097656 60.285156 9.773438 12.304688 17.453125 26.738282 24.160157 45.417969.582031 1.625-.167969 3.464844-1.710938 4.191406-1.648438.769531-3.667969.050781-4.449219-1.609375-8.203125-17.476562-16.703125-30.492187-26.753906-40.953125-22.546875-23.46875-53.609375-41.8125-87.476563-51.652343-7.664062-2.230469-14.625-4.074219-21.175781-5.605469zm-92.023437 212.175781c11.691406-16.023438 10.414062-39-2.785156-53.605469-.15625-.167969-.300782-.34375-.460938-.511719 9.722656-4.210937 18.789062-10.179687 27.648438-16.007812 17.273437-11.371094 35.136718-23.128906 58.730468-23.128906 15.089844 0 28.992188 11.019531 28.992188 26.964844 0 8.671874-4.011719 16.601562-11.003906 21.757812-7.507813 5.535156-7.898438 13.007812-8.1875 18.46875-.714844 13.742188-10.140626 25.847656-24.414063 27.234375-11.035156 1.074219-18.796875 7.710937-20.765625 17.757813-2.5 12.757812-14.050781 21.882812-26.945312 21.695312-18.027344-.261719-57.648438-3.820312-86.902344-27.945312 22.679687 5.351562 50.40625 8.824218 66.09375-12.679688zm-214.871094-193.964844c-.035156-21.023437 3.265625-41.570312 9.835938-61.304687.214843.457031.441406.910156.660156 1.367187 11.816406 24.550782 30.339844 45.355469 52.394531 61.203125 29.46875 21.175781 64.386719 33.96875 99.957031 40.25.347656.0625 3.523438.816407 3.628906.613281-6.65625 16.316407-8.03125 33.992188-3.925781 51.101563.03125.136719-2.40625 1.429687-2.621093 1.554687-3.933594 2.292969-8.003907 4.371094-12.132813 6.28125-3.695313 1.714844-5.371094 6.257813-3.652344 9.960938 1.722657 3.710938 6.277344 5.355469 9.960938 3.648438 4.179687-1.9375 13.039062-6.730469 13.347656-6.910157 6.882813 15.664063 17.949219 29.019531 30.867187 40.089844.015626.015625.03125.027344.046876.042969 15.9375 13.511718 10.910156 40.410156-9.109376 46.789062-18.394531 5.863282-43.71875-3.457031-60.957031-9.925781-30.027343-11.265625-57.078125-29.78125-78.609375-54.070313 8.066406 1.046876 16.328125 1.5625 24.378906 1.597657 17.28125.070312 34.570313-2.394531 51.207032-7.027344 3.894531-1.082031 6.300781-5.332031 5.210937-9.238281-1.085937-3.90625-5.339843-6.300782-9.234375-5.210938-15.828125 4.402344-32.246094 6.605469-48.675781 6.457032-11.882813 0-23.753906-1.464844-35.367187-3.9375-.496094-.105469-.988282-.21875-1.484376-.328126-23.308593-33.199218-35.648437-72.207031-35.726562-113.003906zm381.480469-182.765625c-.515625 44.625-13.664063 89.613281-44.402344 122.882813-.011719.011718-.015625.019531-.027344.03125-26.996093 28.617187-64.675781 43.457031-103.011719 49.007812-6.226562.898438-12.308593 2.460938-18.136718 4.65625-.441406.167969-4.222656-3.609375-4.617188-3.957031-16.960937-14.929687-31.359375-33-42.363281-52.71875-8.179687-14.644531-14.566406-30.300781-18.832031-46.523437-1.050782-4.007813-5.152344-6.402344-9.160156-5.347657-4.003907 1.054688-6.398438 5.15625-5.34375 9.160157 6.246093 23.605468 16.550781 46.078124 30.28125 66.265624 9.914062 14.574219 21.597656 27.945313 34.722656 39.707032.226562.203125.445312.40625.667968.605468-11.007812 6.792969-20.46875 16.082032-27.480468 27.050782-4.15625-.542969-8.296875-1.25-12.410156-2.046875-.125-.019531-.246094-.042969-.371094-.066407-25.335938-4.46875-50.628906-13.695312-73.011719-26.34375-31.886719-18.003906-57.847656-45.558593-69.941406-80.519531-.070313-.199219-.132813-.402343-.203125-.601562 11.441406-24.800781 28.335937-47.523438 49-65.863281 18.460937-16.386719 40.074218-29.398438 63.066406-38.039063-.445312 3.894531-.777344 7.800781-1.011719 11.71875-.769531 12.550781-.421875 25.1875.992188 37.679687.476562 4.179688 4.636719 7.285157 8.78125 6.527344 3.832031-.699218 6.566406-4.332031 6.125-8.21875-1.851563-16.289062-1.726563-32.785156.390625-49.046875.167968-1.289062.351562-2.570312.542968-3.851562 17.441407-4.921875 35.484376-7.417969 53.699219-7.417969h166.996094c4.050781 0 7.851563 1.585938 10.695313 4.464844 2.859374 2.890625 4.410156 6.730468 4.363281 10.804687zm100.164062-13.585937c-8.050781 15.414062-17.28125 26.785156-29.058593 35.78125-17.53125 13.402344-38.777344 23.046875-61.992188 28.210937 1.601562-6.976562 2.867188-14.167969 3.796875-21.1875.066406-.515625.148437-1.027343.210937-1.542969 1.746094-.207031 3.441407-.445312 5.105469-.722656 33.625-5.539062 59.28125-20.351562 76.253907-44.023437 1.097656-1.527344 3.242187-1.785157 4.660156-.765625 1.347656.964844 1.785156 2.789062 1.023437 4.25zm0 0"/></svg>