<svg id="Capa_1" enable-background="new 0 0 512 512" height="512" viewBox="0 0 512 512" width="512" xmlns="http://www.w3.org/2000/svg"><g><g><path d="m449.831 275.236c2.585-16.469.531-32.594-5.192-47.048-5.379-13.584-2.96-28.992 6.322-40.274 9.877-12.004 16.774-26.724 19.359-43.193.13-.828.246-1.655.353-2.481 10.227-75.026-58.493-93.08-71.645-124.206-22.057 25.599-93.003 21.727-106.258 96.278-.152.819-.295 1.642-.425 2.47-2.585 16.469-.531 32.594 5.192 47.048 5.379 13.584 2.96 28.992-6.322 40.274-9.877 12.004-16.774 26.724-19.359 43.193s-.531 32.594 5.192 47.048c5.379 13.584 2.96 28.992-6.322 40.274-9.877 12.004-16.774 26.724-19.359 43.193-.13.828-.246 1.655-.353 2.481-10.227 75.026 58.493 93.08 71.645 124.206 22.057-25.599 93.003-21.727 106.258-96.278.152-.819.295-1.642.425-2.47 2.585-16.469.531-32.594-5.192-47.048-5.379-13.584-2.96-28.992 6.322-40.274 9.876-12.004 16.773-26.724 19.359-43.193z" fill="#95d528"/></g><g><path d="m431.061 52.005c-.084-.073-.167-.146-.25-.218-2.85-2.483-5.671-4.881-8.4-7.227-7.572-6.983-17.843-14.29-23.384-26.526-.927.489-2.285 4.631-17.648 12.389-29.839 14.671-77.934 23.844-88.61 83.889-.152.819-.295 1.642-.425 2.47-2.585 16.469-.531 32.594 5.193 47.048 5.379 13.583 2.96 28.992-6.322 40.273-9.877 12.005-16.774 26.724-19.359 43.194-2.585 16.469-.531 32.594 5.192 47.048.71 1.793 1.275 3.619 1.716 5.462 11.511-5.761 22.098-13.355 31.292-22.549 15.204-15.204 26.071-34.201 31.425-54.939.893-3.458 3.596-6.161 7.057-7.054 20.736-5.354 39.733-16.221 54.946-31.434.761-.762 1.48-1.557 2.244-2.307 12.511-12.285 20.994-30.8 26.353-46.307 1.621-4.691 8.647-3.081 7.992 1.839-.017.124-.033.248-.05.373-.107.826-.223 1.653-.353 2.481-2.585 16.469-9.482 31.189-19.359 43.193-9.282 11.282-11.701 26.69-6.323 40.274 5.723 14.454 7.778 30.579 5.193 47.048s-9.482 31.189-19.359 43.193c-9.282 11.282-11.701 26.69-6.323 40.274 5.723 14.454 7.778 30.579 5.193 47.048-.13.828-.273 1.651-.425 2.47-10.676 60.045-58.771 69.218-88.61 83.889 5.776 5.583 10.444 11.144 13.003 17.201 22.057-25.599 93.003-21.727 106.258-96.278.152-.819.295-1.642.425-2.47 2.585-16.469.531-32.594-5.193-47.048-5.379-13.584-2.96-28.992 6.323-40.274 9.877-12.004 16.774-26.724 19.359-43.193s.531-32.594-5.193-47.048c-5.379-13.584-2.96-28.992 6.323-40.274 9.877-12.004 16.774-26.724 19.359-43.193.13-.828.246-1.655.353-2.481 6.306-46.275-17.417-70.874-39.613-90.236z" fill="#7db723"/></g><g><g><path d="m288.624 255.826c11.788-11.788 19.623-26.031 23.509-41.082 3.652-14.146 14.681-25.175 28.827-28.827 15.052-3.886 29.294-11.721 41.082-23.509.593-.593 1.174-1.193 1.746-1.798 52.448-54.615 7.538-109.674 15.239-142.576-32.902 7.7-87.961-37.209-142.576 15.239-.605.573-1.205 1.154-1.798 1.746-11.788 11.788-19.623 26.03-23.509 41.082-3.652 14.146-14.681 25.175-28.827 28.827-15.052 3.886-29.294 11.721-41.082 23.509s-19.623 26.03-23.509 41.082c-3.652 14.146-14.681 25.175-28.827 28.827-15.052 3.886-29.294 11.721-41.082 23.509-.593.593-1.174 1.193-1.746 1.798-52.448 54.615-7.538 109.674-15.239 142.576 32.902-7.7 87.961 37.209 142.576-15.239.605-.573 1.205-1.154 1.798-1.746 11.788-11.788 19.623-26.03 23.509-41.082 3.652-14.146 14.681-25.175 28.827-28.827 15.051-3.886 29.293-11.721 41.082-23.509z" fill="#b9ea6a"/></g><g><path d="m288.624 255.826c11.788-11.788 19.623-26.03 23.509-41.082 3.652-14.146 14.681-25.175 28.827-28.827 15.052-3.886 29.294-11.721 41.082-23.509.593-.593 1.174-1.193 1.746-1.798 52.448-54.615 7.538-109.674 15.239-142.576-6.402 1.498-13.646 1-21.559-.38 5.715 32.755 26.624 77.029-15.619 121.017-.573.605-1.154 1.205-1.746 1.798-11.788 11.788-26.03 19.623-41.082 23.509-14.146 3.652-25.175 14.681-28.827 28.827-3.886 15.052-11.721 29.294-23.509 41.082s-26.03 19.623-41.082 23.509c-14.146 3.652-25.175 14.681-28.827 28.827-3.886 15.052-11.721 29.294-23.509 41.082-.593.593-1.193 1.174-1.798 1.746-43.988 42.243-88.261 21.333-121.017 15.619 1.38 7.913 1.878 15.157.38 21.559 32.902-7.7 87.961 37.209 142.576-15.239.605-.573 1.205-1.154 1.798-1.746 11.788-11.788 19.623-26.03 23.509-41.082 3.652-14.146 14.681-25.175 28.827-28.827 15.051-3.886 29.293-11.721 41.082-23.509z" fill="#95d528"/></g><g><g><path d="m363.641 110.037c15.634-15.634 15.634-40.983 0-56.617s-40.983-15.634-56.617 0c-2.444 2.444-18.788 18.788-21.231 21.231-15.634 15.634-15.634 40.983 0 56.617s40.983 15.634 56.617 0c2.444-2.444 18.787-18.788 21.231-21.231z" fill="#fdf3ac"/></g><g><path d="m363.641 53.419c-3.755-3.755-8.074-6.599-12.681-8.55 6.172 14.573 3.329 32.057-8.55 43.936-2.444 2.444-18.788 18.788-21.231 21.231-11.879 11.879-29.363 14.723-43.936 8.55 1.951 4.607 4.795 8.926 8.55 12.681 15.634 15.634 40.983 15.634 56.617 0 2.444-2.444 18.788-18.788 21.231-21.231 15.635-15.634 15.635-40.982 0-56.617z" fill="#fcee56"/></g></g><g><g><path d="m142.834 330.844c-15.634 15.634-40.983 15.634-56.617 0s-15.634-40.983 0-56.617l21.231-21.231c15.634-15.634 40.983-15.634 56.617 0s15.634 40.983 0 56.617c-2.443 2.443-18.787 18.787-21.231 21.231z" fill="#fdf3ac"/></g><g><path d="m86.217 330.844c-3.755-3.755-6.599-8.074-8.55-12.681 14.573 6.172 32.057 3.329 43.936-8.55l21.231-21.231c11.879-11.879 14.723-29.363 8.55-43.936 4.607 1.951 8.926 4.795 12.681 8.55 15.634 15.634 15.634 40.983 0 56.617-2.444 2.444-18.788 18.788-21.231 21.231-15.634 15.634-40.983 15.634-56.617 0z" fill="#fcee56"/></g></g><g><g><path d="m263.853 209.824c15.634-15.634 15.634-40.983 0-56.617s-40.983-15.634-56.617 0c-2.444 2.444-18.788 18.788-21.231 21.231-15.634 15.634-15.634 40.983 0 56.617s40.983 15.634 56.617 0c2.444-2.443 18.788-18.787 21.231-21.231z" fill="#fdf3ac"/></g><g><path d="m263.853 153.207c-3.755-3.755-8.074-6.599-12.681-8.55 6.172 14.573 3.329 32.057-8.55 43.936-2.444 2.444-18.788 18.788-21.231 21.231-11.879 11.879-29.363 14.723-43.936 8.55 1.951 4.607 4.795 8.926 8.55 12.681 15.634 15.634 40.983 15.634 56.617 0 2.444-2.444 18.788-18.788 21.231-21.231 15.635-15.634 15.635-40.982 0-56.617z" fill="#fcee56"/></g></g></g><g><path d="m429.985 41.175c-10.962-9.388-20.429-17.496-24.048-26.064-.002-.005-.005-.009-.007-.013-.371-.871-.908-1.678-1.598-2.368-1.835-1.835-4.488-2.591-7.013-1.999-9.053 2.12-21.178-.758-35.216-4.088-30.036-7.128-71.168-16.884-110.811 21.186-.38.36-.758.724-1.134 1.09-2.967 2.892-3.027 7.641-.135 10.607 2.891 2.965 7.64 3.027 10.607.135.325-.317.653-.63 1.018-.977 33.782-32.441 67.364-24.472 96.992-17.444 11.194 2.657 21.93 5.204 31.798 5.204.061 0 .122-.001.182-.001-.031 9.917 2.531 20.719 5.203 31.981 7.029 29.628 14.996 63.21-17.479 97.029-.525.554-1.057 1.105-1.605 1.653-10.432 10.432-23.453 17.884-37.653 21.55-16.774 4.33-29.885 17.441-34.215 34.215-3.666 14.2-11.118 27.221-21.55 37.653-10.434 10.433-23.454 17.885-37.653 21.551-16.774 4.33-29.885 17.441-34.215 34.215-2.15 8.326-5.57 16.22-10.166 23.461-2.22 3.498-1.185 8.133 2.313 10.353 1.246.791 2.638 1.169 4.013 1.169 2.482 0 4.911-1.232 6.34-3.482 5.438-8.568 9.484-17.905 12.026-27.751 2.967-11.492 11.948-20.474 23.439-23.44 5.451-1.407 10.751-3.293 15.85-5.61 1.133 5.497 2.735 10.892 4.809 16.124 4.369 11.029 2.4 23.573-5.14 32.737-11.016 13.393-18.271 29.575-20.981 46.803-.127.811-.236 1.621-.344 2.423l-.027.202c-7.434 54.515 24.677 82.013 48.123 102.091 10.958 9.383 20.421 17.488 24.04 26.051 1.01 2.39 3.183 4.088 5.746 4.491.388.062.777.091 1.164.091 2.163 0 4.245-.937 5.682-2.605 6.072-7.045 17.566-11.86 30.876-17.436 28.468-11.926 67.457-28.258 77.086-82.385.161-.879.311-1.768.451-2.655 2.706-17.21.761-34.837-5.626-50.972-4.369-11.037-2.4-23.585 5.139-32.75 5.29-6.431 9.735-13.516 13.21-21.059 1.733-3.763.088-8.218-3.674-9.952-3.763-1.736-8.218-.089-9.952 3.673-2.937 6.377-6.696 12.367-11.17 17.806-11.005 13.377-13.879 31.694-7.503 47.803 5.401 13.645 7.045 28.555 4.757 43.112-.121.762-.251 1.533-.397 2.33-8.203 46.111-40.034 59.446-68.119 71.21-10.678 4.473-20.919 8.763-28.917 14.631-5.814-8.033-14.245-15.252-23.036-22.781-23.13-19.808-49.345-42.257-43.015-88.681l.029-.218c.093-.696.188-1.4.297-2.098 2.293-14.578 8.429-28.271 17.745-39.595 11.007-13.378 13.882-31.692 7.502-47.796-2.34-5.902-3.968-12.047-4.883-18.319 5.289-3.538 10.248-7.596 14.789-12.136 12.326-12.326 21.133-27.718 25.468-44.511 2.967-11.492 11.948-20.474 23.439-23.44 16.794-4.335 32.185-13.142 44.507-25.464.642-.641 1.271-1.291 1.857-1.909 38.105-39.68 28.346-80.813 21.22-110.847-1.155-4.868-2.249-9.5-3.106-13.859 4.009 3.843 8.413 7.616 12.913 11.47 23.127 19.807 49.34 42.255 43.015 88.679-.102.767-.212 1.533-.336 2.308-2.282 14.568-8.414 28.26-17.734 39.592-11.008 13.381-13.883 31.698-7.503 47.803 4.283 10.819 6.196 22.204 5.685 33.84-.182 4.139 3.026 7.642 7.165 7.823.112.005.224.007.335.007 3.991 0 7.311-3.145 7.488-7.172.604-13.76-1.658-27.225-6.724-40.022-4.371-11.033-2.401-23.581 5.141-32.749 11.022-13.401 18.274-29.584 20.967-46.782.141-.883.27-1.777.385-2.646 7.423-54.502-24.683-81.998-48.126-102.076z"/><path d="m178.949 353.507c-30.582 23.077-60.943 15.872-87.729 9.518-11.194-2.656-21.931-5.204-31.798-5.204-.061 0-.122.001-.183.001.032-9.917-2.531-20.718-5.202-31.98-7.03-29.629-14.997-63.211 17.479-97.029.527-.557 1.062-1.11 1.605-1.653 10.432-10.432 23.453-17.884 37.653-21.551 16.774-4.33 29.885-17.44 34.215-34.214 3.667-14.201 11.118-27.222 21.551-37.654 10.431-10.432 23.452-17.883 37.652-21.55 16.774-4.33 29.885-17.441 34.215-34.215 1.054-4.082 2.431-8.108 4.093-11.967 1.639-3.805-.117-8.218-3.922-9.857-3.805-1.637-8.218.118-9.856 3.922-1.966 4.565-3.594 9.326-4.84 14.15-2.967 11.492-11.948 20.474-23.439 23.44-16.794 4.335-32.186 13.142-44.511 25.468-12.326 12.326-21.132 27.718-25.468 44.511-2.967 11.491-11.948 20.472-23.439 23.439-16.794 4.336-32.185 13.143-44.514 25.47-.639.64-1.267 1.288-1.85 1.904-38.105 39.68-28.346 80.813-21.22 110.847 3.331 14.039 6.207 26.163 4.088 35.216-.591 2.526.165 5.178 2 7.014 1.835 1.834 4.488 2.592 7.013 1.999 9.054-2.117 21.177.758 35.216 4.088 13.459 3.193 28.466 6.755 44.375 6.754 17.801-.001 36.73-4.463 55.855-18.892 3.307-2.495 3.965-7.199 1.469-10.506-2.496-3.306-7.2-3.962-10.508-1.469z"/><path d="m314.101 150.494c12.697 0 24.634-4.944 33.612-13.922l21.232-21.232c8.978-8.979 13.923-20.915 13.923-33.613 0-12.697-4.945-24.633-13.923-33.611-8.978-8.979-20.916-13.924-33.613-13.924s-24.634 4.945-33.612 13.923l-21.232 21.231c-8.978 8.979-13.923 20.916-13.923 33.613 0 12.698 4.945 24.634 13.923 33.613 8.979 8.978 20.916 13.922 33.613 13.922zm-23.004-70.539 21.232-21.232c6.144-6.144 14.314-9.529 23.004-9.529s16.86 3.384 23.005 9.53c6.145 6.144 9.529 14.314 9.529 23.003 0 8.691-3.384 16.86-9.529 23.004l-21.232 21.232c-6.144 6.145-14.315 9.529-23.004 9.529-8.69 0-16.86-3.383-23.005-9.529-6.145-6.144-9.529-14.314-9.529-23.004s3.384-16.86 9.529-23.004z"/><path d="m135.757 233.768c-12.697 0-24.634 4.945-33.613 13.923l-21.232 21.232c-8.978 8.979-13.922 20.916-13.922 33.613 0 12.696 4.944 24.633 13.922 33.611 8.978 8.979 20.916 13.924 33.613 13.924s24.634-4.945 33.613-13.923l21.232-21.232c8.978-8.979 13.922-20.916 13.922-33.613s-4.944-24.633-13.922-33.611c-8.978-8.979-20.916-13.924-33.613-13.924zm23.004 70.54-21.231 21.231v.001c-6.145 6.144-14.315 9.529-23.005 9.529s-16.86-3.384-23.005-9.53c-6.144-6.144-9.528-14.314-9.528-23.003 0-8.691 3.384-16.86 9.528-23.004l21.232-21.232c6.145-6.145 14.315-9.53 23.005-9.53s16.86 3.384 23.005 9.53c12.684 12.684 12.684 33.323-.001 46.008z"/><path d="m201.932 147.903-21.231 21.232c-8.978 8.979-13.923 20.915-13.923 33.613 0 12.697 4.945 24.633 13.922 33.611 8.978 8.979 20.916 13.924 33.613 13.924s24.634-4.945 33.613-13.923l21.232-21.232c8.978-8.979 13.922-20.916 13.922-33.613s-4.944-24.633-13.922-33.611c-8.978-8.979-20.916-13.924-33.613-13.924s-24.635 4.945-33.613 13.923zm56.618 56.617-21.232 21.233c-6.145 6.144-14.315 9.529-23.005 9.529s-16.859-3.384-23.004-9.53c-6.145-6.144-9.529-14.314-9.529-23.003 0-8.691 3.384-16.86 9.53-23.006l21.23-21.23c6.145-6.145 14.315-9.53 23.005-9.53s16.86 3.384 23.005 9.53c12.684 12.683 12.684 33.322 0 46.007z"/></g></g></svg>