<svg height="512" viewBox="0 0 256 256" width="512" xmlns="http://www.w3.org/2000/svg"><g id="Layer_22"><g><g><path d="m122.875 10.17c-1.294 3.448-1.035 7.092.419 10.179.773 1.641 2.731 2.376 4.394 1.649 3.126-1.368 5.719-3.942 7.013-7.39s1.035-7.092-.419-10.179c-.773-1.641-2.731-2.376-4.394-1.649-3.126 1.368-5.719 3.942-7.013 7.39z" fill="#87d147"/></g><g><path d="m76.495 60.5h39.313l-12.012-25.642c-4.639-9.902-17.176-13.088-25.979-6.601l-3.285 2.421c-8.803 6.487-9.474 19.405-1.39 26.768z" fill="#fca265"/></g><g><path d="m76.462 30.277c-1.143 0-2.174-.788-2.436-1.95l-4.714-20.87c-.304-1.347.541-2.685 1.888-2.989 1.343-.306 2.685.541 2.989 1.888l4.714 20.87c.304 1.347-.541 2.685-1.888 2.989-.184.042-.37.062-.553.062z"/></g><g><path d="m76.467 30.277c-.17 0-.344-.018-.517-.054-1.351-.284-2.216-1.61-1.932-2.961l4.04-19.205c.284-1.351 1.613-2.215 2.961-1.932 1.351.284 2.216 1.61 1.932 2.961l-4.04 19.205c-.247 1.178-1.286 1.986-2.444 1.986z"/></g><g><path d="m76.467 30.276c-.767 0-1.524-.352-2.015-1.017l-13.739-18.645c-.819-1.111-.582-2.676.53-3.496 1.111-.818 2.676-.582 3.496.53l13.739 18.645c.819 1.111.582 2.676-.53 3.496-.447.329-.966.487-1.481.487z"/></g><g><path d="m76.462 30.277c-.423 0-.853-.108-1.246-.334l-18.536-10.685c-1.196-.689-1.607-2.218-.917-3.415.689-1.196 2.217-1.606 3.415-.917l18.535 10.684c1.196.689 1.607 2.218.917 3.415-.462.803-1.303 1.252-2.168 1.252z"/></g><g><path d="m76.468 30.276c-.078 0-.157-.003-.236-.011l-19.54-1.83c-1.375-.129-2.385-1.348-2.256-2.722.129-1.375 1.354-2.386 2.722-2.256l19.54 1.83c1.375.129 2.385 1.348 2.256 2.722-.121 1.296-1.211 2.267-2.486 2.267z"/></g><g><path d="m74.433 60.938c-.767 0-1.524-.352-2.015-1.017-.819-1.111-.582-2.677.53-3.496l5.902-4.349c1.111-.819 2.676-.582 3.496.53.819 1.111.582 2.677-.53 3.496l-5.902 4.349c-.446.328-.966.487-1.481.487z"/></g><g><path d="m91.947 61.17c-.768 0-1.524-.352-2.015-1.017-.819-1.111-.582-2.677.53-3.496l7.096-5.229c1.112-.818 2.677-.581 3.496.53s.582 2.677-.53 3.496l-7.096 5.229c-.446.329-.966.487-1.481.487z"/></g><g><path d="m86.831 40.854c-.767 0-1.524-.352-2.015-1.017-.819-1.112-.582-2.677.529-3.496l2.838-2.092c1.111-.818 2.676-.583 3.496.529.819 1.112.582 2.677-.529 3.496l-2.838 2.092c-.447.329-.966.488-1.481.488z"/></g><g><path d="m100.043 46.446c-.767 0-1.524-.352-2.015-1.017-.819-1.111-.582-2.676.53-3.496l5.354-3.945c1.11-.819 2.676-.582 3.496.53.819 1.111.582 2.676-.53 3.496l-5.354 3.945c-.446.329-.966.487-1.481.487z"/></g><g><path d="m115.808 60.5h31.766c-1.124-1.848-1.487-3.953-1.162-5.94.248-1.517-.458-3.072-1.797-3.827-1.212-.683-2.277-1.665-3.074-2.923-2.759-4.356-1.189-10.219 3.578-12.548.869-.424 1.787-.685 2.716-.799-3.277-2.91-7.458-4.821-12.057-5.203-2.05-.17-4.042-.042-5.942.344-3.078.625-6.23.626-9.308 0-1.899-.386-3.892-.514-5.942-.344-4.258.354-8.154 2.024-11.311 4.576.183.333.359.671.523 1.021z" fill="#fc657e"/></g><g><path d="m126.373 24.772c-2.212 0-4.349-1.253-5.34-3.357-1.812-3.846-1.989-8.151-.499-12.123 1.491-3.971 4.457-7.098 8.352-8.802 2.881-1.26 6.316.029 7.658 2.875 1.812 3.845 1.989 8.151.499 12.123-1.491 3.972-4.457 7.097-8.352 8.802-.752.327-1.54.482-2.318.482zm4.859-19.772c-.115 0-.231.023-.342.071-2.647 1.158-4.663 3.281-5.674 5.978-1.012 2.697-.892 5.621.34 8.235.198.421.705.609 1.13.424 2.646-1.158 4.662-3.281 5.674-5.978 1.012-2.696.891-5.621-.341-8.235-.145-.31-.461-.495-.787-.495zm-8.357 5.17h.01z"/></g><g><path d="m157.568 44.441c-.244 1.607.576 3.199 1.972 4.032 1.133.676 2.129 1.621 2.884 2.813.985 1.555 1.414 3.301 1.345 5.011-.062 1.526.843 2.956 2.249 3.552.427.181.839.4 1.233.652h14.161c-.394-.252-.806-.471-1.233-.652-1.406-.596-2.312-2.026-2.249-3.552.07-1.709-.36-3.456-1.345-5.011-.755-1.192-1.751-2.136-2.884-2.813-1.396-.833-2.216-2.425-1.972-4.032.351-2.307-.216-4.766-1.832-6.79-2.515-3.15-6.995-4.158-10.617-2.388-1.367.668-2.461 1.633-3.276 2.763 1.4 1.949 1.893 4.246 1.564 6.415z" fill="#57af12"/></g><g><path d="m144.614 50.733c1.339.754 2.045 2.31 1.797 3.827-.324 1.987.038 4.092 1.162 5.94h19.677c-.394-.252-.806-.471-1.233-.652-1.406-.596-2.312-2.026-2.249-3.552.07-1.709-.359-3.456-1.345-5.011-.755-1.192-1.751-2.136-2.884-2.813-1.396-.833-2.216-2.425-1.972-4.032.351-2.307-.216-4.766-1.832-6.79-2.515-3.15-6.995-4.158-10.617-2.388-4.767 2.33-6.337 8.193-3.578 12.548.797 1.259 1.862 2.241 3.074 2.923z" fill="#87d147"/></g><g><path d="m115.521 62.383c-.94 0-1.84-.533-2.266-1.44l-11.722-25.025c-1.893-4.039-5.457-6.985-9.78-8.084-4.325-1.099-8.862-.211-12.453 2.435l-3.285 2.421c-3.591 2.646-5.783 6.718-6.014 11.172-.231 4.455 1.527 8.732 4.825 11.735l2.608 2.376c1.021.93 1.095 2.511.165 3.531-.93 1.022-2.512 1.094-3.531.165l-2.609-2.376c-4.409-4.016-6.76-9.735-6.451-15.691s3.24-11.4 8.042-14.938l3.285-2.421c4.801-3.538 10.87-4.726 16.649-3.255 5.78 1.468 10.546 5.408 13.076 10.809l11.723 25.025c.585 1.25.047 2.739-1.204 3.325-.342.16-.703.236-1.058.236z"/></g><g><path d="m147.427 36.612c-.569 0-1.142-.193-1.611-.589-2.94-2.481-6.483-3.958-10.246-4.271-1.766-.146-3.528-.045-5.237.302-3.418.695-6.885.695-10.304 0-1.708-.348-3.47-.449-5.237-.302-3.418.284-6.699 1.553-9.488 3.67-1.101.835-2.669.62-3.503-.479-.835-1.1-.62-2.668.479-3.503 3.547-2.692 7.73-4.308 12.097-4.67 2.239-.187 4.475-.057 6.647.385 2.758.559 5.555.56 8.312 0 2.173-.441 4.409-.571 6.647-.385 4.802.398 9.317 2.277 13.056 5.432 1.055.89 1.189 2.468.298 3.523-.493.585-1.199.887-1.91.887z"/></g><g><path d="m181.185 62.862c-.437 0-.878-.114-1.28-.354-.23-.138-.467-.258-.702-.357-2.362-1.001-3.877-3.395-3.772-5.957.052-1.264-.28-2.499-.959-3.571-.525-.83-1.216-1.504-2.053-2.003-2.28-1.361-3.551-3.996-3.163-6.555.264-1.739-.203-3.463-1.314-4.855-1.796-2.25-4.979-2.966-7.565-1.702-.784.383-1.467.913-2.029 1.574-.894 1.052-2.473 1.18-3.524.285-1.052-.894-1.179-2.472-.285-3.524 1.011-1.189 2.237-2.14 3.643-2.827 4.674-2.284 10.422-.991 13.668 3.074 1.991 2.494 2.826 5.593 2.35 8.726-.087.572.227 1.179.782 1.51 1.516.904 2.766 2.123 3.715 3.621 1.226 1.936 1.824 4.166 1.731 6.451-.02.486.279.958.727 1.148.445.188.889.414 1.316.669 1.186.708 1.572 2.243.864 3.428-.47.785-1.299 1.219-2.15 1.219z"/></g><g><path d="m166.707 62.682c-.401 0-.809-.097-1.188-.302-.155-.084-.314-.161-.476-.229-2.362-1.001-3.877-3.395-3.772-5.957.052-1.264-.28-2.499-.959-3.571-.525-.83-1.216-1.504-2.053-2.003-2.28-1.361-3.551-3.996-3.163-6.555.264-1.739-.203-3.463-1.314-4.855-1.797-2.25-4.979-2.966-7.565-1.702-1.636.799-2.806 2.192-3.296 3.922-.483 1.707-.217 3.545.732 5.042.555.876 1.291 1.576 2.189 2.082 2.237 1.26 3.458 3.835 3.038 6.408-.195 1.195-.038 2.411.453 3.517.561 1.262-.007 2.739-1.269 3.3-1.261.563-2.739-.007-3.3-1.269-.889-1.999-1.172-4.195-.819-6.354.082-.502-.147-1.015-.557-1.246-1.603-.903-2.972-2.204-3.959-3.764-1.708-2.697-2.188-6.006-1.318-9.08.87-3.071 3.024-5.641 5.912-7.052 4.674-2.284 10.421-.991 13.668 3.074 1.991 2.494 2.826 5.593 2.35 8.726-.087.572.227 1.179.782 1.51 1.516.904 2.766 2.123 3.715 3.621 1.226 1.936 1.824 4.166 1.731 6.451-.02.486.279.958.727 1.148.308.13.61.276.906.436 1.214.657 1.666 2.174 1.009 3.389-.456.838-1.316 1.313-2.204 1.313z"/></g><g><path d="m186.5 128.181h38.636c-5.926-23.061-19.85-42.911-38.636-56.426z" fill="#dae6f1"/></g><g><path d="m69.5 71.755c-18.786 13.515-32.71 33.365-38.636 56.426h38.636z" fill="#dae6f1"/></g><g><path d="m186.5 128.181h22.228c-4.286-13.836-12.035-26.146-22.228-35.93z" fill="#87d147"/></g><g><path d="m69.5 92.252c-10.193 9.784-17.942 22.094-22.228 35.93h22.228z" fill="#87d147"/></g><g><path d="m186.5 128.181v-62.717c0-2.741-2.222-4.964-4.964-4.964h-107.072c-2.741 0-4.964 2.222-4.964 4.964v62.717z" fill="#feb872"/></g><g><path d="m30.864 178.247c11.12 43.274 50.393 75.253 97.136 75.253s86.016-31.979 97.136-75.253c-28.449 0-165.821 0-194.272 0z" fill="#dae6f1"/></g><g><path d="m47.272 178.247c10.669 34.446 42.776 59.467 80.728 59.467s70.059-25.021 80.728-59.467c-39.306 0-122.149 0-161.456 0z" fill="#87d147"/></g><g><path d="m87.325 227.279c7.968 4.386 16.715 7.525 25.987 9.151v-58.183c-8.908 0-17.661 0-25.987 0z" fill="#b2e26d"/></g><g><path d="m142.688 236.43c9.272-1.626 18.019-4.765 25.987-9.151v-49.032c-8.326 0-17.079 0-25.987 0z" fill="#b2e26d"/></g><g><path d="m128 121c-20.402 0-37-16.598-37-37 0-1.381 1.119-2.5 2.5-2.5s2.5 1.119 2.5 2.5c0 17.645 14.355 32 32 32s32-14.355 32-32c0-1.381 1.119-2.5 2.5-2.5s2.5 1.119 2.5 2.5c0 20.402-16.598 37-37 37z"/></g><g><path d="m225.027 130.269c-1.11 0-2.124-.744-2.417-1.868-5.701-21.797-18.949-41.125-37.304-54.425-1.118-.81-1.368-2.373-.558-3.491s2.374-1.367 3.491-.558c19.291 13.977 33.215 34.294 39.207 57.209.35 1.335-.45 2.702-1.786 3.051-.211.056-.424.082-.633.082z"/></g><g><path d="m31.16 129.563c-.215 0-.434-.028-.652-.086-1.333-.359-2.123-1.731-1.764-3.064 6.082-22.575 19.91-42.615 38.937-56.428 1.118-.812 2.681-.563 3.492.554.812 1.117.563 2.681-.554 3.492-18.105 13.144-31.262 32.208-37.046 53.683-.301 1.114-1.31 1.849-2.413 1.849z"/></g><g><path d="m208.584 130.222c-1.062 0-2.046-.681-2.383-1.747-4.072-12.883-11.392-24.697-21.167-34.165-.992-.96-1.017-2.543-.057-3.535s2.543-1.018 3.535-.057c10.37 10.043 18.135 22.578 22.457 36.25.416 1.316-.314 2.721-1.63 3.137-.252.08-.506.117-.755.117z"/></g><g><path d="m47.627 129.563c-.256 0-.517-.04-.773-.123-1.313-.427-2.031-1.837-1.604-3.15 4.324-13.298 11.937-25.522 22.013-35.352.987-.964 2.571-.945 3.535.044.964.988.944 2.571-.044 3.535-9.5 9.267-16.674 20.788-20.75 33.319-.343 1.056-1.323 1.727-2.377 1.727z"/></g><g><path d="m186.5 129.563c-1.381 0-2.5-1.119-2.5-2.5v-61.599c0-1.358-1.105-2.464-2.464-2.464h-107.072c-1.359 0-2.464 1.105-2.464 2.464v61.453c0 1.381-1.119 2.5-2.5 2.5s-2.5-1.119-2.5-2.5v-61.453c0-4.116 3.348-7.464 7.464-7.464h107.072c4.116 0 7.464 3.348 7.464 7.464v61.599c0 1.38-1.119 2.5-2.5 2.5z"/></g><g><path d="m93.5 86c-4.687 0-8.5-3.813-8.5-8.5s3.813-8.5 8.5-8.5 8.5 3.813 8.5 8.5-3.813 8.5-8.5 8.5zm0-12c-1.93 0-3.5 1.57-3.5 3.5s1.57 3.5 3.5 3.5 3.5-1.57 3.5-3.5-1.57-3.5-3.5-3.5z"/></g><g><path d="m162.5 86c-4.687 0-8.5-3.813-8.5-8.5s3.813-8.5 8.5-8.5 8.5 3.813 8.5 8.5-3.813 8.5-8.5 8.5zm0-12c-1.93 0-3.5 1.57-3.5 3.5s1.57 3.5 3.5 3.5 3.5-1.57 3.5-3.5-1.57-3.5-3.5-3.5z"/></g><g><path d="m128 256c-46.535 0-87.383-31.369-99.336-76.284-.355-1.334.439-2.704 1.773-3.059 1.333-.355 2.704.439 3.059 1.773 11.371 42.728 50.233 72.57 94.504 72.57 44.191 0 83.034-29.774 94.46-72.404.357-1.334 1.727-2.127 3.062-1.768 1.334.357 2.125 1.728 1.768 3.062-12.011 44.812-52.84 76.11-99.29 76.11z"/></g><g><path d="m128 240.214c-37.958 0-71.251-24.264-82.848-60.377-.422-1.314.301-2.722 1.616-3.145 1.316-.422 2.723.302 3.145 1.616 10.93 34.037 42.311 56.906 78.087 56.906s67.158-22.869 78.087-56.905c.422-1.315 1.831-2.039 3.145-1.616 1.315.422 2.038 1.83 1.616 3.145-11.597 36.113-44.89 60.376-82.848 60.376z"/></g><g><path d="m113.312 238.208c-1.381 0-2.5-1.119-2.5-2.5v-56.636c0-1.381 1.119-2.5 2.5-2.5s2.5 1.119 2.5 2.5v56.636c0 1.381-1.12 2.5-2.5 2.5z"/></g><g><path d="m87.325 228.875c-1.381 0-2.5-1.119-2.5-2.5v-47.302c0-1.381 1.119-2.5 2.5-2.5s2.5 1.119 2.5 2.5v47.302c0 1.381-1.119 2.5-2.5 2.5z"/></g><g><path d="m168.675 229.354c-1.381 0-2.5-1.119-2.5-2.5v-47.781c0-1.381 1.119-2.5 2.5-2.5s2.5 1.119 2.5 2.5v47.781c0 1.381-1.119 2.5-2.5 2.5z"/></g><g><path d="m142.688 238.375c-1.381 0-2.5-1.119-2.5-2.5v-56.802c0-1.381 1.119-2.5 2.5-2.5s2.5 1.119 2.5 2.5v56.802c0 1.38-1.119 2.5-2.5 2.5z"/></g><g><path d="m227.578 128.181c-22.459 0-176.674 0-199.157 0-2.84 0-5.143 2.302-5.143 5.143v39.781c0 2.84 2.302 5.143 5.143 5.143h199.157c2.84 0 5.143-2.302 5.143-5.143v-39.781c0-2.84-2.302-5.143-5.143-5.143z" fill="#87d147"/></g><g><path d="m227.579 180.747h-199.158c-4.214 0-7.643-3.428-7.643-7.643v-39.781c0-4.214 3.428-7.643 7.643-7.643h199.157c4.214 0 7.643 3.428 7.643 7.643v39.781c0 4.215-3.428 7.643-7.642 7.643zm-199.158-50.066c-1.457 0-2.643 1.186-2.643 2.643v39.781c0 1.457 1.186 2.643 2.643 2.643h199.157c1.457 0 2.643-1.186 2.643-2.643v-39.781c0-1.457-1.186-2.643-2.643-2.643z"/></g><g><path d="m220.205 155.714h-5.841c-1.381 0-2.5-1.119-2.5-2.5s1.119-2.5 2.5-2.5h5.841c1.381 0 2.5 1.119 2.5 2.5s-1.12 2.5-2.5 2.5z"/></g><g><path d="m41.636 155.714h-5.841c-1.381 0-2.5-1.119-2.5-2.5s1.119-2.5 2.5-2.5h5.841c1.381 0 2.5 1.119 2.5 2.5s-1.119 2.5-2.5 2.5z"/></g><g><path d="m158.902 169.621c-1.103 0-2.112-.735-2.413-1.851l-5.074-18.846-5.074 18.846c-.358 1.333-1.728 2.124-3.064 1.764-1.333-.359-2.123-1.731-1.764-3.064l7.488-27.812c.294-1.092 1.284-1.85 2.414-1.85s2.12.758 2.414 1.85l7.488 27.812c.359 1.333-.431 2.705-1.764 3.064-.218.059-.436.087-.651.087z"/></g><g><path d="m155.694 158.923h-8.558c-1.381 0-2.5-1.119-2.5-2.5s1.119-2.5 2.5-2.5h8.558c1.381 0 2.5 1.119 2.5 2.5s-1.119 2.5-2.5 2.5z"/></g><g><path d="m112.072 169.62h-14.975c-1.381 0-2.5-1.119-2.5-2.5v-27.812c0-1.381 1.119-2.5 2.5-2.5h14.976c1.381 0 2.5 1.119 2.5 2.5s-1.119 2.5-2.5 2.5h-12.476v22.812h12.476c1.381 0 2.5 1.119 2.5 2.5s-1.12 2.5-2.501 2.5z"/></g><g><path d="m106.724 152.505h-9.627c-1.381 0-2.5-1.119-2.5-2.5s1.119-2.5 2.5-2.5h9.627c1.381 0 2.5 1.119 2.5 2.5s-1.119 2.5-2.5 2.5z"/></g><g><path d="m129.722 169.62h-4.279c-4.328 0-7.848-3.521-7.848-7.849v-17.115c0-4.328 3.521-7.849 7.848-7.849h4.279c4.328 0 7.849 3.521 7.849 7.849 0 1.381-1.119 2.5-2.5 2.5s-2.5-1.119-2.5-2.5c0-1.571-1.278-2.849-2.849-2.849h-4.279c-1.57 0-2.848 1.278-2.848 2.849v17.115c0 1.571 1.278 2.849 2.848 2.849h4.279c1.571 0 2.849-1.278 2.849-2.849v-2.848h-2.849c-1.381 0-2.5-1.119-2.5-2.5s1.119-2.5 2.5-2.5h5.349c1.381 0 2.5 1.119 2.5 2.5v5.348c0 4.328-3.521 7.849-7.849 7.849z"/></g><g><path d="m183.57 169.62c-.903 0-1.757-.491-2.201-1.315l-10.274-19.081v17.896c0 1.381-1.119 2.5-2.5 2.5s-2.5-1.119-2.5-2.5v-27.812c0-1.146.778-2.144 1.889-2.424 1.11-.279 2.27.23 2.813 1.239l10.274 19.081v-17.896c0-1.381 1.119-2.5 2.5-2.5s2.5 1.119 2.5 2.5v27.812c0 1.146-.778 2.144-1.889 2.424-.204.052-.41.076-.612.076z"/></g><g><path d="m72.43 169.62c-1.381 0-2.5-1.119-2.5-2.5v-27.812c0-1.381 1.119-2.5 2.5-2.5s2.5 1.119 2.5 2.5v25.061c5.685-1.161 9.976-6.201 9.976-12.224v-12.836c0-1.381 1.119-2.5 2.5-2.5s2.5 1.119 2.5 2.5v12.836c-.001 9.636-7.84 17.475-17.476 17.475z"/></g><g><g><g><path d="m57.895 58.21c-3.157-.561-5.613-3.017-6.245-6.104 0-.14-.281-.14-.281 0-.631 3.087-3.087 5.543-6.245 6.104-.14 0-.14.21 0 .281 3.157.561 5.613 3.017 6.245 6.104 0 .14.281.14.281 0 .631-3.087 3.087-5.543 6.245-6.104.14-.071.14-.281 0-.281z" fill="#fc657e"/></g></g></g><g><g><g><path d="m199.867 53.589h2.3v2.3c0 1.7 1.4 3.2 3.2 3.2s3.2-1.4 3.2-3.2v-2.3h2.3c1.7 0 3.2-1.4 3.2-3.2s-1.4-3.2-3.2-3.2h-2.3v-2.3c0-1.7-1.4-3.2-3.2-3.2s-3.2 1.4-3.2 3.2v2.3h-2.3c-1.7 0-3.2 1.4-3.2 3.2s1.4 3.2 3.2 3.2z" fill="#87d147"/></g></g></g><g><g><g><circle cx="64.267" cy="252.6" fill="#f5c84c" r="3.4"/></g></g></g><g><g><g><circle cx="189.267" cy="27.931" fill="#70d6f9" r="3.4"/></g></g></g><g><g><g><path d="m29.684 233.75c4.5-.8 8-4.3 8.9-8.7 0-.2.4-.2.4 0 .9 4.4 4.4 7.9 8.9 8.7.2 0 .2.3 0 .4-4.5.8-8 4.3-8.9 8.7 0 .2-.4.2-.4 0-.9-4.4-4.4-7.9-8.9-8.7-.2-.1-.2-.4 0-.4z" fill="#70d6f9"/></g></g></g></g></g></svg>